<svg xmlns="http://www.w3.org/2000/svg" xmlns:xlink="http://www.w3.org/1999/xlink" width="473" height="534.334" viewBox="0 0 473 534.334">
  <defs>
    <linearGradient id="linear-gradient" x1="0.5" y1="1" x2="0.5" gradientUnits="objectBoundingBox">
      <stop offset="0" stop-color="gray" stop-opacity="0.251"/>
      <stop offset="0.54" stop-color="gray" stop-opacity="0.122"/>
      <stop offset="1" stop-color="gray" stop-opacity="0.102"/>
    </linearGradient>
    <linearGradient id="linear-gradient-2" x1="0.5" y1="1" x2="0.5" y2="0" xlink:href="#linear-gradient"/>
    <linearGradient id="linear-gradient-3" x1="-0.001" y1="0.5" x2="1" y2="0.5" xlink:href="#linear-gradient"/>
  </defs>
  <g id="_1" data-name="1" transform="translate(-0.093 -0.05)">
    <g id="Group_2176" data-name="Group 2176" transform="translate(335.088 277.652)" opacity="0.2">
      <path id="Path_5417" data-name="Path 5417" d="M757.962,760.2a16.18,16.18,0,0,1-1.468,2.261q-7.312-5.141-14.874-10.095l.327-.647a14.282,14.282,0,0,1,5.058-5.51c2.783-1.711,5.92-2.087,8.5-.7s4.021,4.174,4.174,7.423A14.331,14.331,0,0,1,757.962,760.2Z" transform="translate(-741.62 -550.125)" fill="#3f3d56"/>
      <ellipse id="Ellipse_69" data-name="Ellipse 69" cx="11.862" cy="9.058" rx="11.862" ry="9.058" transform="translate(1.566 199.344) rotate(-62.09)" fill="#3f3d56"/>
      <ellipse id="Ellipse_70" data-name="Ellipse 70" cx="11.862" cy="9.058" rx="11.862" ry="9.058" transform="translate(8.353 186.534) rotate(-62.09)" fill="#3f3d56"/>
      <ellipse id="Ellipse_71" data-name="Ellipse 71" cx="11.862" cy="9.058" rx="11.862" ry="9.058" transform="translate(15.14 173.724) rotate(-62.09)" fill="#3f3d56"/>
      <ellipse id="Ellipse_72" data-name="Ellipse 72" cx="11.862" cy="9.058" rx="11.862" ry="9.058" transform="translate(21.919 160.921) rotate(-62.09)" fill="#3f3d56"/>
      <path id="Path_5418" data-name="Path 5418" d="M794,516.142a42.94,42.94,0,0,1-.7-5.969l22.9,7.708L793.366,506a43.446,43.446,0,0,1,15.361-30.771l22.13,32-17.184-35.592a43.39,43.39,0,1,1,40.6,76.45,43.419,43.419,0,0,1,.7,9.315l-34.785-.278,34.284,5.649a43.39,43.39,0,0,1-25.247,32.7,43.39,43.39,0,1,1-60.282-31.925,43.4,43.4,0,0,1,25.115-47.411Z" transform="translate(-742.079 -465.029)" fill="#2280fc"/>
      <path id="Path_5419" data-name="Path 5419" d="M849.9,618.052a43.231,43.231,0,0,1-20.76,19.361,43.39,43.39,0,1,1-60.282-31.925C767.176,596.242,852.183,613.745,849.9,618.052Z" transform="translate(-742.055 -506.962)" opacity="0.1"/>
    </g>
    <g id="Group_2177" data-name="Group 2177" transform="translate(0.093 0.9)" opacity="0.2">
      <path id="Path_5420" data-name="Path 5420" d="M476.625,675.97a30.113,30.113,0,0,0,1.663,4.9q16.077-6.157,32.524-11.827c-.1-.445-.195-.9-.306-1.391a27.5,27.5,0,0,0-6.839-12.675c-4.376-4.508-10.053-6.707-15.514-5.371s-9.482,5.893-11.3,11.889A27.515,27.515,0,0,0,476.625,675.97Z" transform="translate(-325.724 -244.328)" fill="#3f3d56"/>
      <ellipse id="Ellipse_73" data-name="Ellipse 73" cx="17.441" cy="22.826" rx="17.441" ry="22.826" transform="translate(138.892 382.319) rotate(-13.72)" fill="#3f3d56"/>
      <ellipse id="Ellipse_74" data-name="Ellipse 74" cx="17.441" cy="22.826" rx="17.441" ry="22.826" transform="translate(132.268 355.213) rotate(-13.72)" fill="#3f3d56"/>
      <ellipse id="Ellipse_75" data-name="Ellipse 75" cx="17.441" cy="22.826" rx="17.441" ry="22.826" transform="translate(125.653 328.107) rotate(-13.72)" fill="#3f3d56"/>
      <ellipse id="Ellipse_76" data-name="Ellipse 76" cx="17.441" cy="22.826" rx="17.441" ry="22.826" transform="translate(119.037 301.008) rotate(-13.72)" fill="#3f3d56"/>
      <path id="Path_5421" data-name="Path 5421" d="M419.607,185.335a82.544,82.544,0,0,0,4.042-10.825l-46.3,3.555L425.6,166.649a83.706,83.706,0,0,0-14.143-64.7l-56.435,49.3L403.9,92.926A83.532,83.532,0,1,0,292.03,216.447a83.018,83.018,0,0,0-5.642,17.058l65.11,15.917-66.647-5.649a83.581,83.581,0,0,0,31.682,73.048A83.532,83.532,0,1,0,444.1,285.689a83.539,83.539,0,0,0-24.5-100.354Z" transform="translate(-260.093 -67.221)" fill="#2280fc"/>
      <path id="Path_5422" data-name="Path 5422" d="M298.65,358.22a83.142,83.142,0,0,0,29.609,45.916A83.532,83.532,0,1,0,455.828,373C463.335,356.557,296.424,349.113,298.65,358.22Z" transform="translate(-271.82 -154.577)" opacity="0.1"/>
    </g>
    <path id="Path_5423" data-name="Path 5423" d="M705.407,183.057h-1.551V99.393c0-18.45-15.187-33.393-33.922-33.393H479.919C461.184,66,446,80.957,446,99.393v34.68h-.452a1.983,1.983,0,0,0-2,1.962v16.7a1.983,1.983,0,0,0,2,1.962h.487v17.051h-.612a1.976,1.976,0,0,0-1.99,1.962v31.925a1.983,1.983,0,0,0,1.99,1.969h.612v12.522H445.5a1.976,1.976,0,0,0-2,1.962v32.238a1.976,1.976,0,0,0,2,1.962h.529V548.742c0,18.45,15.187,33.393,33.922,33.393H669.927c18.735,0,33.922-14.957,33.922-33.393V245.628h1.558a1.983,1.983,0,0,0,2-1.962V185.019a1.983,1.983,0,0,0-2-1.962Z" transform="translate(-315.791 -65.95)" fill="url(#linear-gradient)"/>
    <g id="Group_2178" data-name="Group 2178" transform="translate(131.396 3.528)" opacity="0.9">
      <rect id="Rectangle_2797" data-name="Rectangle 2797" width="7.493" height="61.792" rx="2.29" transform="translate(249.302 115.631)" fill="#e5e7eb"/>
      <rect id="Rectangle_2798" data-name="Rectangle 2798" width="4.209" height="20.342" rx="2.104" transform="translate(0.153 67.225)" fill="#e5e7eb"/>
      <rect id="Rectangle_2799" data-name="Rectangle 2799" width="4.745" height="35.404" rx="2.29" transform="translate(0 104.465)" fill="#e5e7eb"/>
      <rect id="Rectangle_2800" data-name="Rectangle 2800" width="4.515" height="35.71" rx="2.258" transform="translate(0.077 152.26)" fill="#e5e7eb"/>
      <rect id="Rectangle_2801" data-name="Rectangle 2801" width="250.811" height="509.742" rx="38.99" transform="translate(2.532)" fill="#fff"/>
      <rect id="Rectangle_2802" data-name="Rectangle 2802" width="35.028" height="7.11" rx="3.555" transform="translate(103.749 15.222)" fill="#e5e7eb"/>
      <circle id="Ellipse_77" data-name="Ellipse 77" cx="4.035" cy="4.035" r="4.035" transform="translate(144.064 14.742)" fill="#e5e7eb"/>
    </g>
    <path id="Path_5424" data-name="Path 5424" d="M674.655,90.09H645.943v3.478a16.4,16.4,0,0,1-16.4,16.4H538a16.4,16.4,0,0,1-16.4-16.4V90.09H494.658a19.918,19.918,0,0,0-19.918,19.918V553.359a19.918,19.918,0,0,0,19.918,19.918h180a19.918,19.918,0,0,0,19.918-19.918V110.008A19.918,19.918,0,0,0,674.655,90.09Z" transform="translate(-325.318 -73.281)" fill="#ececf3"/>
    <ellipse id="Ellipse_78" data-name="Ellipse 78" cx="39.787" cy="6.727" rx="39.787" ry="6.727" transform="translate(20.948 517.528)" fill="#2280fc"/>
    <path id="Path_5425" data-name="Path 5425" d="M354.8,795.648a11.647,11.647,0,0,0,3.792-5.726c.487-2.247-.473-5-2.651-5.83-2.435-.932-5.037.751-7.006,2.456s-4.237,3.652-6.818,3.291a10.366,10.366,0,0,0,3.207-9.74,4.014,4.014,0,0,0-.891-1.969c-1.35-1.447-3.8-.828-5.419.313-5.141,3.618-6.581,10.609-6.609,16.905-.522-2.275-.083-4.64-.1-6.957s-.647-4.912-2.609-6.164a7.924,7.924,0,0,0-3.993-.932c-2.31-.083-4.87.146-6.463,1.837-1.969,2.087-1.454,5.628.25,7.945s4.306,3.764,6.7,5.364a14.836,14.836,0,0,1,4.779,4.564,4.112,4.112,0,0,1,.355.814h14.491A40.632,40.632,0,0,0,354.8,795.648Z" transform="translate(-277.615 -282.399)" fill="#2280fc"/>
    <g id="Group_2179" data-name="Group 2179" transform="translate(408.665 470.468)" opacity="0.4">
      <ellipse id="Ellipse_79" data-name="Ellipse 79" cx="22.707" cy="3.84" rx="22.707" ry="3.84" transform="translate(0 12.936)" fill="#2280fc"/>
      <path id="Path_5426" data-name="Path 5426" d="M884.318,752.68a6.637,6.637,0,0,0,2.171-3.263,2.915,2.915,0,0,0-1.517-3.332c-1.391-.529-2.873.431-4,1.391s-2.414,2.087-3.889,1.878a5.906,5.906,0,0,0,1.83-5.565,2.267,2.267,0,0,0-.508-1.12c-.772-.828-2.171-.473-3.089.174-2.936,2.087-3.757,6.06-3.777,9.649a18.471,18.471,0,0,1-.049-3.972,4.117,4.117,0,0,0-1.5-3.52,4.535,4.535,0,0,0-2.275-.529,4.739,4.739,0,0,0-3.694,1.043c-1.12,1.2-.828,3.214.146,4.536A14.192,14.192,0,0,0,868,753.111a8.55,8.55,0,0,1,2.727,2.6,2.359,2.359,0,0,1,.2.466H879.2a22.955,22.955,0,0,0,5.113-3.5Z" transform="translate(-852.226 -742.185)" fill="#2280fc"/>
    </g>
    <g id="Group_2180" data-name="Group 2180" transform="translate(60.874 427.313)" opacity="0.4">
      <ellipse id="Ellipse_80" data-name="Ellipse 80" cx="22.707" cy="3.84" rx="22.707" ry="3.84" transform="translate(0 12.938)" fill="#2280fc"/>
      <path id="Path_5427" data-name="Path 5427" d="M384.408,690.649a6.561,6.561,0,0,0,2.164-3.27,2.9,2.9,0,0,0-1.517-3.326c-1.391-.529-2.873.431-3.993,1.391s-2.421,2.087-3.889,1.878a5.941,5.941,0,0,0,1.83-5.565,2.352,2.352,0,0,0-.508-1.127c-.772-.821-2.171-.466-3.1.181-2.936,2.087-3.757,6.053-3.771,9.642a18.031,18.031,0,0,1-.056-3.972A3.986,3.986,0,0,0,370.084,683a4.494,4.494,0,0,0-2.282-.536,4.7,4.7,0,0,0-3.687,1.05c-1.12,1.2-.828,3.214.146,4.536a14.4,14.4,0,0,0,3.819,3.061,8.411,8.411,0,0,1,2.727,2.6,2.857,2.857,0,0,1,.209.466h8.272a23.161,23.161,0,0,0,5.12-3.534Z" transform="translate(-352.309 -680.153)" fill="#2280fc"/>
    </g>
    <rect id="Rectangle_2803" data-name="Rectangle 2803" width="35.543" height="35.543" transform="translate(166.285 53.618)" fill="#d6d8e0"/>
    <rect id="Rectangle_2804" data-name="Rectangle 2804" width="74.467" height="6.769" transform="translate(228.056 56.158)" fill="#d6d8e0"/>
    <rect id="Rectangle_2805" data-name="Rectangle 2805" width="122.7" height="6.769" transform="translate(228.056 68.005)" fill="#d6d8e0"/>
    <rect id="Rectangle_2806" data-name="Rectangle 2806" width="122.7" height="6.769" transform="translate(228.056 79.853)" fill="#d6d8e0"/>
    <rect id="Rectangle_2807" data-name="Rectangle 2807" width="35.543" height="35.543" transform="translate(166.557 118.777)" fill="#d6d8e0"/>
    <rect id="Rectangle_2808" data-name="Rectangle 2808" width="74.467" height="6.769" transform="translate(228.327 121.316)" fill="#d6d8e0"/>
    <rect id="Rectangle_2809" data-name="Rectangle 2809" width="122.7" height="6.769" transform="translate(228.327 133.164)" fill="#d6d8e0"/>
    <rect id="Rectangle_2810" data-name="Rectangle 2810" width="122.7" height="6.769" transform="translate(228.327 145.005)" fill="#d6d8e0"/>
    <rect id="Rectangle_2811" data-name="Rectangle 2811" width="35.543" height="35.543" transform="translate(166.828 183.936)" fill="#d6d8e0"/>
    <rect id="Rectangle_2812" data-name="Rectangle 2812" width="74.467" height="6.769" transform="translate(228.605 186.468)" fill="#d6d8e0"/>
    <rect id="Rectangle_2813" data-name="Rectangle 2813" width="122.7" height="6.769" transform="translate(228.605 198.316)" fill="#d6d8e0"/>
    <rect id="Rectangle_2814" data-name="Rectangle 2814" width="122.7" height="6.769" transform="translate(228.605 210.163)" fill="#d6d8e0"/>
    <rect id="Rectangle_2815" data-name="Rectangle 2815" width="35.543" height="35.543" transform="translate(167.099 249.087)" fill="#d6d8e0"/>
    <rect id="Rectangle_2816" data-name="Rectangle 2816" width="74.467" height="6.769" transform="translate(228.877 251.627)" fill="#d6d8e0"/>
    <rect id="Rectangle_2817" data-name="Rectangle 2817" width="122.7" height="6.769" transform="translate(228.877 263.474)" fill="#d6d8e0"/>
    <rect id="Rectangle_2818" data-name="Rectangle 2818" width="122.7" height="6.769" transform="translate(228.877 275.322)" fill="#d6d8e0"/>
    <rect id="Rectangle_2819" data-name="Rectangle 2819" width="35.543" height="35.543" transform="translate(167.377 314.246)" fill="#d6d8e0"/>
    <rect id="Rectangle_2820" data-name="Rectangle 2820" width="74.467" height="6.769" transform="translate(229.148 316.785)" fill="#d6d8e0"/>
    <rect id="Rectangle_2821" data-name="Rectangle 2821" width="122.7" height="6.769" transform="translate(229.148 328.633)" fill="#d6d8e0"/>
    <rect id="Rectangle_2822" data-name="Rectangle 2822" width="122.7" height="6.769" transform="translate(229.148 340.481)" fill="#d6d8e0"/>
    <rect id="Rectangle_2823" data-name="Rectangle 2823" width="35.543" height="35.543" transform="translate(167.649 379.405)" fill="#d6d8e0"/>
    <rect id="Rectangle_2824" data-name="Rectangle 2824" width="74.467" height="6.769" transform="translate(229.419 381.944)" fill="#d6d8e0"/>
    <rect id="Rectangle_2825" data-name="Rectangle 2825" width="122.7" height="6.769" transform="translate(229.419 393.792)" fill="#d6d8e0"/>
    <rect id="Rectangle_2826" data-name="Rectangle 2826" width="122.7" height="6.769" transform="translate(229.419 405.639)" fill="#d6d8e0"/>
    <rect id="Rectangle_2827" data-name="Rectangle 2827" width="35.543" height="35.543" transform="translate(167.92 444.563)" fill="#d6d8e0"/>
    <rect id="Rectangle_2828" data-name="Rectangle 2828" width="74.467" height="6.769" transform="translate(229.691 447.103)" fill="#d6d8e0"/>
    <rect id="Rectangle_2829" data-name="Rectangle 2829" width="122.7" height="6.769" transform="translate(229.691 458.95)" fill="#d6d8e0"/>
    <rect id="Rectangle_2830" data-name="Rectangle 2830" width="122.7" height="6.769" transform="translate(229.691 470.798)" fill="#d6d8e0"/>
    <rect id="Rectangle_2831" data-name="Rectangle 2831" width="302.94" height="75.309" transform="translate(107.868 160.79)" fill="url(#linear-gradient-2)"/>
    <rect id="Rectangle_2832" data-name="Rectangle 2832" width="300.401" height="71.928" transform="translate(109.558 162.488)" fill="#fff"/>
    <rect id="Rectangle_2833" data-name="Rectangle 2833" width="35.543" height="35.543" transform="translate(167.524 180.68)" fill="#2280fc"/>
    <g id="Group_2181" data-name="Group 2181" transform="translate(229.301 183.219)" opacity="0.5">
      <rect id="Rectangle_2834" data-name="Rectangle 2834" width="74.467" height="6.769" fill="#2280fc"/>
      <rect id="Rectangle_2835" data-name="Rectangle 2835" width="122.7" height="6.769" transform="translate(0 11.848)" fill="#2280fc"/>
      <rect id="Rectangle_2836" data-name="Rectangle 2836" width="122.7" height="6.769" transform="translate(0 23.695)" fill="#2280fc"/>
    </g>
    <path id="Path_5428" data-name="Path 5428" d="M523.586,389.446a6.189,6.189,0,0,0-7.312-1.113c-1.767,1.064-2.741,3.047-3.631,4.919-1.3,2.783-3.207,5.385-3.792,8.39-1.607,8.286-8.2,14.721-10.846,22.728-.946,2.859-1.391,5.927-2.887,8.536a27.16,27.16,0,0,1-2.365,3.256,91.687,91.687,0,0,0-9.044,13.8c-1.5.292-2.838,1.565-4.119,2.56a14.213,14.213,0,0,1-5.566,2.637,5.253,5.253,0,0,0-2.282.835c-.96.8-1.092,2.24-1.871,3.207a5,5,0,0,1-2.087,1.391c0-.243-.035-.487-.042-.737-.035-1.287-.056-2.581-.056-3.875a14.568,14.568,0,0,0-.042-18.909,28.524,28.524,0,0,1,.8-5.976,2.655,2.655,0,0,0-.564-2.741c-.383-.3-.877-.41-1.287-.7a5.608,5.608,0,0,1-1.391-1.767,7.513,7.513,0,0,0-9.448-2.414c-2.511,1.322-4.035,3.965-6.261,5.76-1.141.918-2.456,1.607-3.6,2.532a14.936,14.936,0,0,0-4.654,7.569,43.35,43.35,0,0,0-1.266,8.933,8.064,8.064,0,0,0,.1,2.713,7.165,7.165,0,0,0,1.023,2.087,23.389,23.389,0,0,0,8.647,8.244,3.376,3.376,0,0,1,0,.536,3.848,3.848,0,0,1-.153.828l-.4-.111c-1.489-.334-3.1-.292-4.432-1.037-2.282-1.28-2.971-4.4-5.155-5.837a3.944,3.944,0,0,0-.584-.313,39.044,39.044,0,0,0-2.24-11.6c-.64-1.781-1.426-3.6-1.329-5.5a13.513,13.513,0,0,1,1.677-4.974,126.441,126.441,0,0,0,6.261-17.135q1.732-5.475,3.478-10.957a17.272,17.272,0,0,0,3.054-2.908,15.507,15.507,0,0,0,3.541-7.6,10.769,10.769,0,0,0-1.955-8.042,4.647,4.647,0,0,0-3.27-2,4.251,4.251,0,0,0-3.054,1.391,13.579,13.579,0,0,0-2.616,4.494c-1.141,2.692-2.3,5.489-2.185,8.411.09,2.421.995,5.127-.417,7.1-4.626,6.449-8.119,13.865-11.785,20.92a37.421,37.421,0,0,0-2.379,5.246,29.22,29.22,0,0,0-1.245,9.044,121.277,121.277,0,0,0,1.531,17.142,22.028,22.028,0,0,0,2.024,7.513,31.511,31.511,0,0,0-1.245,8.46,4.821,4.821,0,0,0,.306,1.941,8.015,8.015,0,0,0,1.537,1.934A8.661,8.661,0,0,1,430.8,485.1a19.418,19.418,0,0,0,.619,6.859c1.391,6.178,2.783,12.349,3.9,18.575a11.882,11.882,0,0,1,.264,3.534c-.216,1.684-1.148,3.284-.946,4.974a18.822,18.822,0,0,1,.445,2.379,5.88,5.88,0,0,1-.417,1.781c-1.586,4.612-5.851,15.187-5.8,20.071l1.113-.264c-1.12,6.338-3.743,12.4-5.12,18.714a62.612,62.612,0,0,0-1.294,14,51.925,51.925,0,0,1-.111,6.331c-.216,1.871-.7,3.7-.96,5.566a50.424,50.424,0,0,0-.334,7.534,76.937,76.937,0,0,0,.7,11.827c1.064,6.679-.8,13.316-1.308,20.057a120.556,120.556,0,0,1-1.6,14.067c-.383,1.962-.863,3.91-1.127,5.892-.779,5.885.355,11.952-.87,17.761-.577,2.72-1.607,5.774-.09,8.1.48.73,1.169,1.3,1.691,2a2.546,2.546,0,0,1,.487,2.456c-.3.64-.995,1.057-1.169,1.739-.278,1.071.842,1.948,1.844,2.407l.285.111a2.581,2.581,0,0,0,.543,2.087,4.424,4.424,0,0,0,2.136,1.113l13.135,3.979c2.929.89,6.115,1.767,9.044,1.043a2.275,2.275,0,0,0,.522,1.127,4.424,4.424,0,0,0,2.136,1.113l13.037,3.952c3.353,1.016,7.033,2.017,10.255.64a5.824,5.824,0,0,0,2.351-1.774,6.206,6.206,0,0,0,.835-5.2,4.236,4.236,0,0,0-1.266-2.323,5.565,5.565,0,0,0-3.033-.995,6.13,6.13,0,0,1-2.658-.7,1.913,1.913,0,0,1-.605-.633q1.127-1.113,2.184-2.31c-.57-.195-.772-1.016-.828-1.614-.828-8.863,2.511-17.524,3.778-26.332a56.349,56.349,0,0,0,.334-13.343c-.153-1.677-.383-3.346-.452-5.03-.327-8.766,3.861-17.2,3.715-25.97-.07-4.1,2.087-8.153,3.138-12.126a43.9,43.9,0,0,0,.967-10.853l.167-28.7c0-3.882,0-7.854-1.238-11.521a14.609,14.609,0,0,1-.5-6.3c3.541-1.565,6.894-3.882,10.679-3.478,1.009-2.678-.188-11.6-1.134-14.31a61.541,61.541,0,0,1-2.087-33.143c.856-3.958-.32-8.167.633-12.112a7.325,7.325,0,0,1,1.036-2.6,2.783,2.783,0,0,1,2.386-1.259c0-2.414-.049-4.87-.209-7.319a17.394,17.394,0,0,0,3.875-4.459c2.087-3.478,3.277-7.4,4.717-11.18,2.553-6.679,6.039-12.947,8.967-19.479s3.214-13.677,5.566-20.439a15.361,15.361,0,0,1,7.479-8.613c1.391-.7,2.873-1.2,3.882-2.338a6.261,6.261,0,0,0,1.35-3.318,8.773,8.773,0,0,0-2.24-7.4Zm-81.4,287.412c.285-.313.563-.626.828-.967-.877-.139-1.948-.779-1.969-1.67a9.236,9.236,0,0,1,.571-2.609,10.435,10.435,0,0,0,.195-4.633c-.195-1.078-.557-2.087-.779-3.186a29.767,29.767,0,0,1-.417-3.6,59.615,59.615,0,0,0-2.532-12.773c-1.259-4.028.466-8.1.911-12.3.216-1.99.118-4.042.814-5.913.41-1.113,1.085-2.087,1.5-3.214.953-2.581.39-5.454-.195-8.147,4.119-7.465,5.482-16.37,7.033-24.774q1.308-7.075,2.616-14.144c.383-2.087.807-4.285,2.087-5.969a73.342,73.342,0,0,1,1.586,19.02,28.236,28.236,0,0,0,.07,5.566c.32,2.024,1.162,3.938,1.649,5.927,1.085,4.39.452,9,.7,13.517.09,1.823.327,3.645.4,5.468.341,8.063-2.358,15.9-5.023,23.521-1.635,4.668-2,9.976-2.783,14.867-.737,4.682-1.468,9.371-1.844,14.095-.111,1.44-.2,2.922-.376,4.383a11.47,11.47,0,0,0-1.357-.216,6.128,6.128,0,0,1-2.658-.7A3.1,3.1,0,0,1,442.19,676.858Z" transform="translate(-307.767 -162.92)" fill="url(#linear-gradient-3)"/>
    <path id="Path_5429" data-name="Path 5429" d="M483.232,816.785a5.642,5.642,0,0,1,3.033.988,4.223,4.223,0,0,1,1.266,2.31,6.15,6.15,0,0,1-.835,5.169A5.773,5.773,0,0,1,484.345,827c-3.221,1.391-6.9.383-10.255-.626l-13.135-3.958a4.411,4.411,0,0,1-2.136-1.106,2.894,2.894,0,0,1-.056-3.374,6.588,6.588,0,0,1,2.783-2.219c4.091-1.99,8.7-2.449,13.218-2.532,1.67-.035,3.312-.4,4.446.891.6.7.494,1.433,1.391,2.024a6.025,6.025,0,0,0,2.63.682Z" transform="translate(-320.3 -293.302)" fill="#3f3d56"/>
    <path id="Path_5430" data-name="Path 5430" d="M447.562,806.4a5.565,5.565,0,0,1,3.033.981,4.292,4.292,0,0,1,1.266,2.31,6.143,6.143,0,0,1-.835,5.169,5.788,5.788,0,0,1-2.351,1.76c-3.221,1.391-6.9.376-10.255-.633l-13.135-3.958a4.356,4.356,0,0,1-2.136-1.106,2.894,2.894,0,0,1-.056-3.374,6.547,6.547,0,0,1,2.783-2.219c4.091-1.99,8.689-2.449,13.183-2.532,1.663,0,3.311-.4,4.445.891.6.7.494,1.44,1.391,2.024a6.128,6.128,0,0,0,2.664.689Z" transform="translate(-309.446 -290.144)" fill="#3f3d56"/>
    <path id="Path_5431" data-name="Path 5431" d="M457.263,602.027a161.736,161.736,0,0,0-23.292-.654,4.572,4.572,0,0,0-1.51.237c-1.711.7-1.976,2.936-2.143,4.772-.654,7.423-3.931,14.345-5.566,21.629a61.753,61.753,0,0,0-1.294,13.914,51.124,51.124,0,0,1-.111,6.261c-.216,1.864-.7,3.68-.96,5.565a49.779,49.779,0,0,0-.334,7.486,75.942,75.942,0,0,0,.7,11.736c1.064,6.637-.8,13.218-1.308,19.925a119.2,119.2,0,0,1-1.6,13.977c-.383,1.948-.863,3.882-1.127,5.851-.779,5.851.355,11.882-.87,17.65-.577,2.7-1.607,5.733-.09,8.042.48.73,1.169,1.294,1.691,1.99a2.526,2.526,0,0,1,.487,2.442c-.3.633-.995,1.05-1.169,1.725-.278,1.064.842,1.941,1.844,2.393a19.22,19.22,0,0,0,22.374-5.531c-.877-.139-1.948-.772-1.969-1.656a9.135,9.135,0,0,1,.57-2.595,10.3,10.3,0,0,0,.195-4.605c-.195-1.064-.557-2.087-.779-3.165a29.322,29.322,0,0,1-.417-3.576,58.869,58.869,0,0,0-2.532-12.689c-1.259-4,.466-8.049.911-12.223.216-1.969.118-4.014.814-5.872.41-1.106,1.085-2.087,1.5-3.193.953-2.567.39-5.412-.195-8.091,4.118-7.423,5.482-16.265,7.033-24.614l2.616-14.053a13.576,13.576,0,0,1,2.087-5.927,72.415,72.415,0,0,1,1.586,18.9,27.829,27.829,0,0,0,.07,5.489c.32,2.01,1.162,3.91,1.649,5.892,1.085,4.355.452,8.94.7,13.427.09,1.809.327,3.618.4,5.433.341,8.007-2.358,15.8-5.023,23.361-1.635,4.64-2,9.914-2.783,14.77-.737,4.654-1.468,9.308-1.844,14-.341,4.313-.487,8.981-3.172,12.369,2.449,1.593,4.988,3.214,7.854,3.764a14.567,14.567,0,0,0,9.691-1.871,30.612,30.612,0,0,0,7.653-6.512c-.57-.195-.772-1.016-.828-1.607-.828-8.8,2.511-17.392,3.778-26.158a55.657,55.657,0,0,0,.334-13.26c-.153-1.663-.383-3.318-.452-4.988-.327-8.71,3.861-17.093,3.715-25.8-.07-4.077,2.087-8.1,3.138-12.049a43.228,43.228,0,0,0,.967-10.776l.167-28.523c0-3.861,0-7.806-1.238-11.451-1.531-4.376.216-9.413.48-14.039a57.9,57.9,0,0,1-22.387,2.477Z" transform="translate(-307.737 -228.313)" fill="#3f3d56"/>
    <path id="Path_5432" data-name="Path 5432" d="M510.343,456.853a90.957,90.957,0,0,1,10.651-16.822,27.413,27.413,0,0,0,2.365-3.228c1.5-2.588,1.941-5.642,2.887-8.481,2.644-7.959,9.239-14.352,10.846-22.582.584-2.984,2.491-5.566,3.792-8.348.891-1.864,1.864-3.826,3.632-4.87a6.189,6.189,0,0,1,7.312,1.113,8.668,8.668,0,0,1,2.233,7.34,6.129,6.129,0,0,1-1.35,3.3c-1.009,1.134-2.518,1.649-3.882,2.331a15.235,15.235,0,0,0-7.479,8.55c-2.324,6.72-2.616,13.83-5.566,20.307s-6.414,12.7-8.968,19.333c-1.44,3.764-2.6,7.653-4.717,11.131s-5.44,6.393-9.434,6.915a23.694,23.694,0,0,0-1.169-7.4C510.656,462.676,509.077,459.413,510.343,456.853Z" transform="translate(-336.008 -165.085)" fill="#a0616a"/>
    <path id="Path_5433" data-name="Path 5433" d="M442.295,460.767a38.575,38.575,0,0,0-2.254-14.457c-.64-1.774-1.426-3.576-1.329-5.461a13.348,13.348,0,0,1,1.677-4.939,125.087,125.087,0,0,0,6.261-17.031L450.128,408a17.393,17.393,0,0,0,3.054-2.887,15.4,15.4,0,0,0,3.541-7.555,10.658,10.658,0,0,0-1.955-7.993,4.619,4.619,0,0,0-3.27-1.983,4.209,4.209,0,0,0-3.054,1.391,13.455,13.455,0,0,0-2.616,4.466c-1.141,2.671-2.3,5.454-2.184,8.348.09,2.407.995,5.093-.417,7.047-4.626,6.407-8.119,13.775-11.785,20.78a37.007,37.007,0,0,0-2.379,5.211,28.885,28.885,0,0,0-1.245,9,119.738,119.738,0,0,0,1.531,17.031c.487,3.534,1.141,7.388,3.819,9.74A56.94,56.94,0,0,1,442.295,460.767Z" transform="translate(-311.038 -163.809)" fill="#a0616a"/>
    <circle id="Ellipse_81" data-name="Ellipse 81" cx="14.436" cy="14.436" r="14.436" transform="translate(134.527 270.807)" fill="#a0616a"/>
    <path id="Path_5434" data-name="Path 5434" d="M461.118,493.732c-.348,2.616-1.746,4.946-3.11,7.2-.828,1.391-1.871,2.873-3.478,3.026a69.574,69.574,0,0,0,13.107,5.273,14.9,14.9,0,0,0,4.793.772,11.709,11.709,0,0,0,3.986-1.023,19.793,19.793,0,0,0,11.229-13.218,26.052,26.052,0,0,1-5.357-.41,3.953,3.953,0,0,1-2.63-1.287,4.237,4.237,0,0,1-.543-2.331q-.1-3.611,0-7.221a28.524,28.524,0,0,0-10.491,1.287c-1.391.452-2.783,1-4.209,1.357-.877.216-3.291,0-3.938.508C459.5,488.438,461.376,491.958,461.118,493.732Z" transform="translate(-319.168 -193.289)" fill="#a0616a"/>
    <path id="Path_5435" data-name="Path 5435" d="M460.367,501.359a9.079,9.079,0,0,0-6.9-8.056c-1.489-.327-3.1-.292-4.432-1.03-2.282-1.273-2.971-4.376-5.155-5.8s-5.3-.633-7.207,1.176-2.873,4.369-3.652,6.873a34.611,34.611,0,0,0-1.871,10.54,4.786,4.786,0,0,0,.306,1.934,8.119,8.119,0,0,0,1.538,1.927,8.543,8.543,0,0,1,2.087,6.79,19.228,19.228,0,0,0,.619,6.825c1.391,6.129,2.783,12.265,3.9,18.45a11.743,11.743,0,0,1,.264,3.478c-.216,1.67-1.148,3.263-.946,4.932a18.713,18.713,0,0,1,.445,2.372,5.754,5.754,0,0,1-.417,1.76c-1.586,4.592-5.851,15.1-5.8,19.946,7.409-1.9,18.332-2.324,25.977-2.351a54.555,54.555,0,0,1,6.31.278c5.03.536,10.178,2,15.055.647,4.522-1.259,8.536-4.87,13.218-4.411,1.009-2.664-.188-11.534-1.134-14.22a60.762,60.762,0,0,1-2.087-32.927c.856-3.938-.32-8.112.633-12.029a7.208,7.208,0,0,1,1.037-2.588,2.783,2.783,0,0,1,2.386-1.252,88.628,88.628,0,0,0-1.739-18.735c-.466-2.191-1.433-4.779-3.638-5.155-1.99-.334-3.666,1.343-5.259,2.581a14.372,14.372,0,0,1-5.566,2.616,5.238,5.238,0,0,0-2.282.828c-.96.793-1.092,2.226-1.871,3.193-1.391,1.732-4.5,1.579-5.489,3.576a12.521,12.521,0,0,0-.529,1.83,6.692,6.692,0,0,1-2.289,2.957A12.912,12.912,0,0,1,460.367,501.359Z" transform="translate(-312.051 -192.142)" fill="#2280fc"/>
    <path id="Path_5436" data-name="Path 5436" d="M478.452,450.232a2.64,2.64,0,0,0-.564-2.727c-.383-.3-.877-.41-1.287-.7a5.564,5.564,0,0,1-1.391-1.76,7.555,7.555,0,0,0-9.468-2.386c-2.511,1.315-4.035,3.945-6.261,5.726-1.141.918-2.456,1.6-3.6,2.511a14.847,14.847,0,0,0-4.654,7.527,42.838,42.838,0,0,0-1.259,8.884,7.98,7.98,0,0,0,.1,2.7,7.09,7.09,0,0,0,1.023,2.052,23.146,23.146,0,0,0,9.114,8.432,14.135,14.135,0,0,0,12.147.216,2.163,2.163,0,0,0,.932-.751,2.616,2.616,0,0,0,.139-1.607,11.027,11.027,0,0,1,1.217-6.15c.7-1.391,1.732-2.588,2.3-4.035a14.333,14.333,0,0,0,.654-5C477.652,458.809,477.352,454.448,478.452,450.232Z" transform="translate(-317.76 -180.336)" fill="#2d293d"/>
    <rect id="Rectangle_2837" data-name="Rectangle 2837" width="35.543" height="35.543" transform="translate(167.377 181.104)" fill="#2280fc"/>
    <path id="Path_5437" data-name="Path 5437" d="M528.556,366.025a4.668,4.668,0,0,1-2.407,2.184,5.975,5.975,0,0,1-1.913.362,5.4,5.4,0,0,1-2.087-.257,4.793,4.793,0,0,1-2.205-1.76,11.129,11.129,0,0,1-1.28-2.56,2.837,2.837,0,0,1-.257-1.447,2.087,2.087,0,0,0,1.391-.786,1.76,1.76,0,0,0,.035-1.391c-.042-.139-.083-.271-.132-.4-.1-.306-.466-.884-.216-1.141s.835-.25,1.064-.355a10.043,10.043,0,0,1,2.164-.967,5.259,5.259,0,0,1,2.052.132.7.7,0,0,1,.257.1.6.6,0,0,1,.188.278c.195.473.306.995.459,1.482a3.054,3.054,0,0,0,.765,1.357,3.84,3.84,0,0,0,1.064.64l.932.424a1.328,1.328,0,0,1,.438.285,1.155,1.155,0,0,1,.209.571A5.336,5.336,0,0,1,528.556,366.025Z" transform="translate(-338.603 -154.644)" fill="#a0616a"/>
    <path id="Path_5438" data-name="Path 5438" d="M526.1,359.53a4.835,4.835,0,0,1-5.837.87c-.042-.139-.083-.271-.132-.4-.1-.306-.466-.884-.216-1.141s.835-.25,1.065-.355a10.037,10.037,0,0,1,2.164-.967,5.26,5.26,0,0,1,2.052.132.7.7,0,0,1,.257.1.6.6,0,0,1,.188.278C525.833,358.542,525.944,359.043,526.1,359.53Z" transform="translate(-339.038 -154.653)" opacity="0.1"/>
    <circle id="Ellipse_82" data-name="Ellipse 82" cx="4.828" cy="4.828" r="4.828" transform="translate(178.752 196.493)" fill="#a0616a"/>
    <path id="Path_5439" data-name="Path 5439" d="M534.066,373.053H511.344c-.7-1.551-1.322-3.11-2.024-4.661h0a3.232,3.232,0,0,1,.41-1.043,1.134,1.134,0,0,1,.932-.522c.2,0,.431.077.577-.07s.1-.264.2-.362a.849.849,0,0,1,.55-.083,1.259,1.259,0,0,0,1.071-.536,1.712,1.712,0,0,1,.271-.355,1.551,1.551,0,0,1,.584-.153c.563-.125.9-.7,1.322-1.05a.793.793,0,0,1,.835-.23.514.514,0,0,1,.174.146,1.572,1.572,0,0,1,.23.577,5.162,5.162,0,0,0,1.816,2.929,4.119,4.119,0,0,0,6.22-1.551,8.1,8.1,0,0,0,.57-2.637v-.118a1.99,1.99,0,0,1,1.656.327,9.345,9.345,0,0,0,1.475.925c.619.243,1.391.243,1.816.7.181.181.306.431.536.543a1.6,1.6,0,0,0,.445.1,2.637,2.637,0,0,1,1.746,1.531,11.914,11.914,0,0,1,.974,3.52Z" transform="translate(-335.841 -156.413)" fill="#f86d70"/>
    <path id="Path_5440" data-name="Path 5440" d="M517.422,343.658a3.656,3.656,0,0,0-.842.974,4.792,4.792,0,0,1-1.683,1.656,2.088,2.088,0,0,0-.772.48,1.288,1.288,0,0,0-.2.543,10.175,10.175,0,0,0-.216,2.052,2.192,2.192,0,0,0,.167,1.016c.139.292.4.543.452.863a2.52,2.52,0,0,1-.084.751.654.654,0,0,0,.258.7,1.766,1.766,0,0,0,.39.09c.7.153.932.974,1.037,1.649.237,0,.341-.285.4-.508l.7-3.235c.083-.348.209-.758.564-.877a1.76,1.76,0,0,1,.737,0c.96.083,1.767-.661,2.706-.87a3.687,3.687,0,0,1,.918-.056c.737,0,1.6.341,1.76,1.03a.347.347,0,0,0,.146.306.585.585,0,0,0,.327,0c.466-.049.744.48.884.911l.487,1.579c.077.237.2.522.459.55a.487.487,0,0,0,.48-.424,1.928,1.928,0,0,0-.1-.7,7.53,7.53,0,0,1,.341-3.124,3.422,3.422,0,0,0-.473-3.026c-.264-.285-.612-.5-.856-.807s-.355-.633-.591-.918a6.073,6.073,0,0,0-3.374-1.475,6.915,6.915,0,0,0-4.014.87Z" transform="translate(-337.174 -150.17)" fill="#3f3d56"/>
    <g id="Group_2182" data-name="Group 2182" transform="translate(176.534 197.293)" opacity="0.1">
      <path id="Path_5441" data-name="Path 5441" d="M526.275,354.849c-.257,0-.383-.313-.459-.55l-.487-1.579c-.139-.431-.417-.96-.884-.918a.584.584,0,0,1-.327,0c-.1-.056-.118-.188-.146-.306-.16-.7-1.023-.995-1.76-1.03a3.387,3.387,0,0,0-.918.063c-.939.2-1.746.946-2.706.863a2.032,2.032,0,0,0-.737,0c-.355.125-.48.529-.564.884-.243,1.078-.48,2.157-.7,3.228-.056.223-.16.494-.4.508-.1-.7-.341-1.5-1.036-1.649a1.45,1.45,0,0,1-.39-.09.439.439,0,0,1-.2-.23,2.247,2.247,0,0,1-.056.3.654.654,0,0,0,.257.7,1.77,1.77,0,0,0,.39.09c.7.153.932.974,1.036,1.649.237,0,.341-.285.4-.508.243-1.078.48-2.157.7-3.235.083-.348.209-.758.563-.877a1.761,1.761,0,0,1,.737,0c.96.083,1.767-.661,2.706-.87a3.685,3.685,0,0,1,.918-.056c.737,0,1.6.341,1.76,1.03a.347.347,0,0,0,.146.306.585.585,0,0,0,.327,0c.466-.049.744.48.884.911l.487,1.579c.076.237.2.522.459.55a.487.487,0,0,0,.48-.424,1.392,1.392,0,0,0-.07-.557A.431.431,0,0,1,526.275,354.849Z" transform="translate(-513.949 -349.806)"/>
      <path id="Path_5442" data-name="Path 5442" d="M514.33,353.239c-.049-.32-.313-.57-.452-.863a1.767,1.767,0,0,1-.16-.626v.348a2.192,2.192,0,0,0,.167,1.016c.111.237.306.445.4.7A1.552,1.552,0,0,0,514.33,353.239Z" transform="translate(-513.711 -350.199)"/>
      <path id="Path_5443" data-name="Path 5443" d="M532.3,350.327a9.043,9.043,0,0,0-.4,2.783,16.911,16.911,0,0,1,.4-2.031,5.333,5.333,0,0,0,.118-1.558A6.29,6.29,0,0,1,532.3,350.327Z" transform="translate(-519.246 -349.52)"/>
    </g>
    <path id="Path_5444" data-name="Path 5444" d="M512.469,375.035H507.05a17.041,17.041,0,0,1,1.273-4.23.967.967,0,0,1,.23-.369.334.334,0,0,1,.077-.063c.16-.125.383-.174.557-.292s.195-.243.355-.292a4.806,4.806,0,0,1,1.767.292,1.768,1.768,0,0,1,.466.118,1.572,1.572,0,0,1,.737.9C512.97,372.35,512.623,373.7,512.469,375.035Z" transform="translate(-335.151 -158.395)" fill="#f86d70"/>
  </g>
</svg>
