<svg xmlns="http://www.w3.org/2000/svg" xmlns:xlink="http://www.w3.org/1999/xlink" width="638.604" height="394.526" viewBox="0 0 638.604 394.526">
  <defs>
    <clipPath id="clip-path">
      <path id="Path_5831" data-name="Path 5831" d="M348.26,363.188a27.933,27.933,0,1,0,27.933,27.933A27.933,27.933,0,0,0,348.26,363.188Zm0,42.731a14.8,14.8,0,1,1,14.8-14.8A14.8,14.8,0,0,1,348.26,405.919Z" transform="translate(-320.327 -363.188)" fill="none"/>
    </clipPath>
  </defs>
  <g id="Group_2484" data-name="Group 2484" transform="translate(1410.682 1474.741)">
    <g id="Group_2450" data-name="Group 2450" transform="translate(-977.996 -1474.741)">
      <path id="Path_5711" data-name="Path 5711" d="M2620.445,234.347a49.038,49.038,0,0,0,.307-5.456c0-.973-.032-1.939-.088-2.9l-9.016-2.917a39.629,39.629,0,0,0-3.192-10.8l5.978-7.356a48.713,48.713,0,0,0-4.735-6.883l-9.016,2.942a40.062,40.062,0,0,0-8.926-6.861l.513-9.473a48.213,48.213,0,0,0-7.871-2.789l-5.568,7.683a40.09,40.09,0,0,0-11.255-.295l-5.155-7.967a48.236,48.236,0,0,0-8.008,2.366l.012,9.487a39.984,39.984,0,0,0-9.276,6.381L2536.3,196.1a48.79,48.79,0,0,0-5.094,6.623l5.582,7.663A39.651,39.651,0,0,0,2533.027,221l-9.156,2.436a49.035,49.035,0,0,0-.307,5.456c0,.973.032,1.939.089,2.9l9.015,2.917a39.647,39.647,0,0,0,3.192,10.8l-5.978,7.356a48.719,48.719,0,0,0,4.736,6.883l9.016-2.942a40.068,40.068,0,0,0,8.926,6.861l-.513,9.473a48.219,48.219,0,0,0,7.871,2.79l5.567-7.683a40.079,40.079,0,0,0,11.255.295l5.155,7.968a48.244,48.244,0,0,0,8.008-2.367l-.012-9.487a39.993,39.993,0,0,0,9.277-6.381l8.845,3.413a48.8,48.8,0,0,0,5.094-6.623l-5.582-7.663a39.627,39.627,0,0,0,3.763-10.617Zm-48.287,13.6a19.059,19.059,0,1,1,19.06-19.059A19.06,19.06,0,0,1,2572.158,247.95Z" transform="translate(-2523.565 -181.274)" fill="#1b78fe" opacity="0.5"/>
      <g id="Group_2447" data-name="Group 2447" transform="translate(73.607 35.915)">
        <path id="Path_5712" data-name="Path 5712" d="M2899.354,397.861a.982.982,0,0,1-.754-1.61,31.976,31.976,0,0,0,5.633-30.8.982.982,0,0,1,1.857-.64,33.941,33.941,0,0,1-5.98,32.692A.979.979,0,0,1,2899.354,397.861Z" transform="translate(-2898.372 -364.152)" fill="#1b78fe"/>
      </g>
      <g id="Group_2448" data-name="Group 2448" transform="translate(59.52 15.696)">
        <path id="Path_5713" data-name="Path 5713" d="M2838.949,270.14a.977.977,0,0,1-.673-.267,31.736,31.736,0,0,0-10.989-6.771.982.982,0,1,1,.67-1.846,33.689,33.689,0,0,1,11.665,7.187.982.982,0,0,1-.673,1.7Z" transform="translate(-2826.64 -261.197)" fill="#1b78fe"/>
      </g>
      <g id="Group_2449" data-name="Group 2449" transform="translate(40.219 13.732)">
        <path id="Path_5714" data-name="Path 5714" d="M2729.342,254.162a.982.982,0,0,1-.24-1.934,34.018,34.018,0,0,1,8.318-1.029.982.982,0,0,1,0,1.964,32.045,32.045,0,0,0-7.838.969A.977.977,0,0,1,2729.342,254.162Z" transform="translate(-2728.361 -251.199)" fill="#1b78fe"/>
      </g>
    </g>
    <rect id="Rectangle_2881" data-name="Rectangle 2881" width="303.703" height="182.419" transform="translate(-1262.495 -1474.603)" fill="#9ec8ff" opacity="0.5"/>
    <rect id="Rectangle_2882" data-name="Rectangle 2882" width="285.726" height="167.465" transform="translate(-1247.7 -1470.151)" fill="#fff"/>
    <g id="Group_2453" data-name="Group 2453" transform="translate(-1076.621 -1392.487)">
      <path id="Path_5715" data-name="Path 5715" d="M2338.084,608.994c13.616-12.962,36.888-12.667,36.4,7.07s1.139,21.592,6.743,31.945c19.442,35.926-23.174,33.811-40.947,34.99s-16.3-32.306-13.158-50.864S2334.1,612.786,2338.084,608.994Z" transform="translate(-2265.518 -600.11)" fill="#303c60"/>
      <path id="Path_5716" data-name="Path 5716" d="M2351.173,1221.577c-4.365,36.66-12.3,63.76-13.181,81.139s-4.419,85.809-4.419,85.809,9.721-.68,10.6-2.153,18.263-40.061,17.379-63.921,17.358-60.138,17.358-60.138l-4.4-35.6Z" transform="translate(-2272.26 -1099.529)" fill="#4476bd"/>
      <path id="Path_5717" data-name="Path 5717" d="M2393.186,1302.845l-6.827,2.857c-1.856,11.625-3.915,22.077-5.722,31.347,10.865,7.024,16.476,30.424,18.881,44.73,1.225-16.008,8.778-35.352,13.465-46.049Z" transform="translate(-2310.081 -1164.837)" fill="#3e6bab"/>
      <path id="Path_5718" data-name="Path 5718" d="M2485.85,1202.759s14.714,18.768,14.252,40.061c-.7,32.414-4.237,41.668,1.913,75.654,2.4,13.274-5.3,56.7-5.3,56.7s-6.582.516-10.117-1.244c.295-3.19-4.253-55.09-13.111-78.949-4.289-11.553-10.318-43.91-13.558-62.468s-3.829-22.387-2.651-22.387S2485.85,1202.759,2485.85,1202.759Z" transform="translate(-2371.22 -1084.407)" fill="#4476bd"/>
      <path id="Path_5719" data-name="Path 5719" d="M2135,862.341s.654-9.712-.393-12.711-10.081-5.618-10.081-5.618-.393,13.878.524,15.58,6.284,6.546,6.284,6.546Z" transform="translate(-2104.202 -796.112)" fill="#f09959"/>
      <path id="Path_5720" data-name="Path 5720" d="M2202.9,901.313c-20.685,22.263-27.435,31.632-29.006,31.632-4.91-8.666-21.218-27-21.218-27l-6.953,4.47s16.068,41.982,26.28,42.416,30.969-14.478,31.233-16.19S2202.9,901.313,2202.9,901.313Z" transform="translate(-2121.297 -842.161)" fill="#a2dff2"/>
      <path id="Path_5721" data-name="Path 5721" d="M2327.015,950.658c10.118-4.119,21.712-12.736,21.909-14.013.263-1.713-.336-35.331-.336-35.331-4.51,4.854-8.446,9.158-11.862,12.923C2333.021,928.035,2333.262,943.061,2327.015,950.658Z" transform="translate(-2266.99 -842.161)" fill="#96cfe0"/>
      <path id="Path_5722" data-name="Path 5722" d="M2412.155,826.678s19.793,9.922,24.113,27.484-8.463,39.26-10.034,50.839-37.7,13.616-37.7,1.221c0-11.882-9.053-37.1-8.542-43.53,1.2-15.075,23.235-33.541,23.235-33.541Z" transform="translate(-2309.542 -782.183)" fill="#a2dff2"/>
      <path id="Path_5723" data-name="Path 5723" d="M2448.686,710.826l8.5,26.2s-9.073,7-24.6,23.846c.6-11.209,9.993-23.427,9.993-23.427l-6.428-24.745Z" transform="translate(-2351.824 -689.083)" fill="#f09959"/>
      <path id="Path_5724" data-name="Path 5724" d="M2467.238,723.048l-3.963-12.222-12.539,1.878,6.428,24.745s-.627,1-1.552,2.573A30.2,30.2,0,0,0,2467.238,723.048Z" transform="translate(-2366.413 -689.083)" fill="#e38540"/>
      <path id="Path_5725" data-name="Path 5725" d="M2393.016,664.982c-2.292,8.339-11.167,12.929-17.474,11.2s-7.656-9.134-5.364-17.473,9.262-13.694,15.569-11.96S2395.308,656.643,2393.016,664.982Z" transform="translate(-2300.837 -637.324)" fill="#f09959"/>
      <path id="Path_5726" data-name="Path 5726" d="M2384.979,1099.027c2.752,17.436-7.465,54.74-7.465,54.74s6.093,1.384,24.357-.384,26.316-20,29.065-20.5,4.162,16.963,5.518,18.344,1.562-22.065-1.983-31.281c-6.285-16.338-5.054-23.268-2.7-33.167C2435.943,1069.174,2384.979,1099.027,2384.979,1099.027Z" transform="translate(-2307.571 -986.736)" fill="#a2dff2"/>
      <path id="Path_5727" data-name="Path 5727" d="M2254.624,2027.978c1.644,6.684-1.6,11.985-5.949,15.849-3.535,3.142-14.4,4.477-13.878,6.048s13.354,2.069,17.675,1.414,5.5-2.75,10.876-2.747c3.526,0,4.18-2.865,2.609-6.409s-2.121-5.5-.7-8.68S2254.624,2027.978,2254.624,2027.978Z" transform="translate(-2192.866 -1747.563)" fill="#4476bd"/>
      <path id="Path_5728" data-name="Path 5728" d="M2614.049,2008.081c-.262,6.939-1.067,12.108.635,15.325,6.573,5.5,12.037,11.745,9.95,12.176-9.95,2.055-13.747-3.909-19.377-5.6-6.909-2.08.655-10.762-2.052-21.9-1.5-6.191,10.431-4.707,10.431-4.707Z" transform="translate(-2488.177 -1727.666)" fill="#4476bd"/>
      <path id="Path_5729" data-name="Path 5729" d="M2484.721,964.472a32.678,32.678,0,0,0-1.485-5.688c-6.284-16.338-5.054-23.268-2.7-33.168a7.771,7.771,0,0,0,.238-2.066c.53-1.765,1.024-3.554,1.458-5.354l-2.133-19.254-15.379-18.264c-11.526,16.889-3.748,37.9-5.477,49.49s-21.042,26.361-21.042,26.361l.629,4.111a10.438,10.438,0,0,0,11.74,8.772c7.96-1.1,18.4-3.324,23.048-7.636C2478.11,957.6,2482.091,960.831,2484.721,964.472Z" transform="translate(-2356.337 -825.578)" fill="#96cfe0"/>
      <path id="Path_5730" data-name="Path 5730" d="M2401.594,1263.53s-8.526,2.385-9.545,2.919-1.583,3.351-1.583,3.351-4.88,4.237-3.01,5.738,5.208,5.3,9.622,3.532c2.709-1.085,4.809-11.04,6.586-11.119S2401.594,1263.53,2401.594,1263.53Z" transform="translate(-2315.218 -1133.243)" fill="#f09959"/>
      <path id="Path_5731" data-name="Path 5731" d="M2476.934,869.324c9.125.259,17.4,16.693,20.281,30.95s5.917,34.528,5.917,34.528-15.122,11.935-30.063,15.423c-13.034,3.043-19.688,4.233-19.688,4.233l-2.645-7.442,31.187-18.318s-11.467-21.6-12.607-37.9S2470,869.127,2476.934,869.324Z" transform="translate(-2366.413 -816.45)" fill="#a2dff2"/>
      <rect id="Rectangle_2883" data-name="Rectangle 2883" width="23.199" height="14.733" transform="translate(0 49.194) rotate(-11.346)" fill="#f5dc95"/>
      <path id="Path_5732" data-name="Path 5732" d="M2129.843,873.6c.314-5.975-2.646-14.123-4.348-14.112s.523,5.34-.393,8.875C2124.6,870.278,2129.843,873.6,2129.843,873.6Z" transform="translate(-2104.513 -808.549)" fill="#f09959"/>
      <path id="Path_5733" data-name="Path 5733" d="M2382.965,640.235c.505,16.365,19.62,15.111,24.857,14.1s-6.376,34.527,3.6,36.577c7.325,1.506,5.675-9.953,13.813-9.187,3.6.339,7.219,5.9,7.219,5.9a11.115,11.115,0,0,0-3.291-5.9c-2.75-2.476-9.958-17.663-11.852-28.53s-14.726-17.9-18.522-18.112-13.092,4.1-13.092,4.1Z" transform="translate(-2311.952 -628.21)" fill="#303c60"/>
      <g id="Group_2451" data-name="Group 2451" transform="translate(93.632 25.649)">
        <path id="Path_5734" data-name="Path 5734" d="M2503.808,771.473a3.766,3.766,0,0,1-.788-.084c-3.193-.68-4.741-4.035-4.873-10.56-.113-5.593.812-12.77,1.791-20.37.4-3.07.8-6.245,1.142-9.319a.478.478,0,1,1,.951.1c-.338,3.083-.748,6.263-1.144,9.337-1.894,14.7-3.683,28.591,2.332,29.871a2.675,2.675,0,0,0,.559.059c3.455,0,6.566-6.732,8.379-13.29a.478.478,0,1,1,.922.255C2511.882,761.805,2508.662,771.472,2503.808,771.473Z" transform="translate(-2498.137 -730.714)" fill="#303c60"/>
      </g>
      <g id="Group_2452" data-name="Group 2452" transform="translate(92.292 25.649)">
        <path id="Path_5735" data-name="Path 5735" d="M2497.045,775.277a3.771,3.771,0,0,1-2.827-1.257c-6.516-6.888-.073-41.449.2-42.916a.478.478,0,1,1,.94.178c-.067.355-6.632,35.545-.449,42.081a2.855,2.855,0,0,0,2.6.926c3.384-.447,5.337-5.038,7.061-9.089,1.672-3.929,3.243-7.64,6.045-7.543a.478.478,0,1,1-.034.956h-.069c-2.1,0-3.54,3.383-5.062,6.962-1.824,4.286-3.891,9.144-7.816,9.663A4.533,4.533,0,0,1,2497.045,775.277Z" transform="translate(-2491.313 -730.714)" fill="#303c60"/>
      </g>
      <path id="Path_5736" data-name="Path 5736" d="M2490.189,727.176c-1.347,1.736-3.458,2.353-4.714,1.378s-1.184-3.173.163-4.909,3.458-2.353,4.715-1.378S2491.536,725.44,2490.189,727.176Z" transform="translate(-2393.609 -697.905)" fill="#f09959"/>
    </g>
    <g id="Group_2458" data-name="Group 2458" transform="translate(-1199.168 -1318.265)">
      <path id="Path_5737" data-name="Path 5737" d="M1615.875,1014.19c4.667,9.332.8,20.078-8.375,23.874-9.238,3.822-19.34,1.651-24.007-7.681s-1.2-20.521,7.741-24.993S1611.209,1004.858,1615.875,1014.19Z" transform="translate(-1545.27 -998.539)" fill="#303c60"/>
      <g id="Group_2454" data-name="Group 2454" transform="translate(35.158 15.1)">
        <path id="Path_5738" data-name="Path 5738" d="M1586.669,1080.488c-1.03,0-3.06-.364-5.641-2.655a14.419,14.419,0,0,1-4.281-8.112c-.812-4.231-.283-9.1,1.572-14.457a.479.479,0,1,1,.9.313c-1.8,5.2-2.316,9.9-1.536,13.964a13.466,13.466,0,0,0,3.977,7.576c3.273,2.9,5.468,2.375,5.49,2.37a.481.481,0,0,1,.585.337.476.476,0,0,1-.328.585A2.891,2.891,0,0,1,1586.669,1080.488Z" transform="translate(-1576.377 -1054.942)" fill="#303c60"/>
      </g>
      <g id="Group_2457" data-name="Group 2457" transform="translate(0 48.693)">
        <path id="Path_5739" data-name="Path 5739" d="M1690.222,1242.649c5.311,1.19,12.016,15.949,15.3,25.4,3.312,9.537,8.926,21.367,12.6,25.043s27.83,12.2,27.83,12.2-59.68.115-58.458,0S1690.222,1242.649,1690.222,1242.649Z" transform="translate(-1630.501 -1239.379)" fill="#a8ceff"/>
        <path id="Path_5740" data-name="Path 5740" d="M1731.68,1300.552c-3.268-.467-15.054,1.05-10.036-1.05s4.318-4.785,4.318-4.785-7.118,5.951-8.4.747c-1.107-4.487-1.53-20.33-5.731-36.209-3.471-7.873-8.012-15.75-11.833-16.606,0,0-.135,5.591-.355,13.43,1.465,17.348,3.953,42.836,4.584,49.26,7.911.012,21.15,0,32.225-.015l7.366-.351S1734.947,1301.019,1731.68,1300.552Z" transform="translate(-1640.275 -1239.379)" fill="#93bbf0"/>
        <path id="Path_5741" data-name="Path 5741" d="M1514.093,1226s-16.895,9.44-20.833,11.447,11.034,60.934,14.363,63.458,32.644.435,35.981-2.747-2.561-12.946.328-32.5-8.81-36.43-10.312-36.392-11.31-3.27-11.31-3.27Z" transform="translate(-1473.899 -1225.996)" fill="#a8ceff"/>
        <path id="Path_5742" data-name="Path 5742" d="M1507.839,1351.268c3.33,2.525,24.306,2.582,33.235-.2,1.008-.313,5.584-2.137,5.691-3.851-1.078-.2-5.356.312-7.093-.088-6.039-1.388-9.365-8.868-9.365-8.868s-3.325-1.2-10.765-4.347-4.376-12.69-4.551-16.891-7.352-17.941-20.83-28.356l-1.236.554C1491.964,1298.8,1504.759,1348.932,1507.839,1351.268Z" transform="translate(-1474.115 -1276.362)" fill="#93bbf0"/>
        <g id="Group_2456" data-name="Group 2456" transform="translate(65.783 28.505)">
          <path id="Path_5743" data-name="Path 5743" d="M1917.833,1372.006h-40.681l-18.527,39.427h44.81l16.771-35.69A2.622,2.622,0,0,0,1917.833,1372.006Z" transform="translate(-1833.821 -1371.837)" fill="#75a1de"/>
          <g id="Group_2455" data-name="Group 2455">
            <path id="Path_5744" data-name="Path 5744" d="M1759.549,1411.3h-24.479a2.75,2.75,0,0,1,0-5.5H1757.8l15.364-33.067a2.749,2.749,0,1,1,4.987,2.317l-16.1,34.658A2.75,2.75,0,0,1,1759.549,1411.3Z" transform="translate(-1732.321 -1371.142)" fill="#3e6bab"/>
          </g>
        </g>
        <path id="Path_5745" data-name="Path 5745" d="M1642.7,1532.736c10.619,1.984,13.23,4.422,19.019,5.355,6.562,1.058,5.781,2.508.908,2.508s-17.121.189-21.324-.744S1642.7,1532.736,1642.7,1532.736Z" transform="translate(-1592.134 -1472.496)" fill="#f09959"/>
        <path id="Path_5746" data-name="Path 5746" d="M1415.388,1285.728c-8.139,26.022-19.677,55.549-17.839,55.549s48.57,1.889,50.408.316,1.313-7.612,1.051-8.4-26.568-5.456-26.568-5.456,3.464-6.751,4.777-19.944S1416.931,1280.793,1415.388,1285.728Z" transform="translate(-1397.354 -1273.174)" fill="#a8ceff"/>
      </g>
      <path id="Path_5747" data-name="Path 5747" d="M1606.7,1110.857l-6.556,23.957s11.078,17.292,14.124,15.755-1.7-14.055-1.7-15.755,4.748-19.253,4.748-19.253Z" transform="translate(-1560.32 -1084.776)" fill="#f09959"/>
      <path id="Path_5748" data-name="Path 5748" d="M1630.744,1136.036a6.4,6.4,0,0,1-.228-1.221c0-1.7,4.748-19.253,4.748-19.253l-10.614-4.7-2.169,7.928A41.325,41.325,0,0,0,1630.744,1136.036Z" transform="translate(-1578.269 -1084.776)" fill="#e38540"/>
      <path id="Path_5749" data-name="Path 5749" d="M1661.9,1065.13c1.249,6.947.426,16.174-5.743,18.52s-13.6-2.142-16.6-10.024-.426-16.174,5.743-18.52S1660.41,1056.83,1661.9,1065.13Z" transform="translate(-1590.99 -1039.445)" fill="#f09959"/>
      <path id="Path_5750" data-name="Path 5750" d="M1624.119,1114.862c.865,2.429.114,4.914-1.677,5.552s-3.944-.814-4.809-3.243-.113-4.914,1.677-5.552S1623.254,1112.434,1624.119,1114.862Z" transform="translate(-1574.084 -1085.268)" fill="#f09959"/>
      <path id="Path_5751" data-name="Path 5751" d="M1643.272,1041.917c-2.1,16.3-21.907,14.2-21.907,14.2s-4.085-5.37-5.923-2.554,2.549-16.527,13.915-17.137C1633.091,1036.228,1643.272,1041.917,1643.272,1041.917Z" transform="translate(-1572.287 -1024.96)" fill="#303c60"/>
      <ellipse id="Ellipse_104" data-name="Ellipse 104" cx="10.728" cy="10.065" rx="10.728" ry="10.065" transform="translate(29.398)" fill="#303c60"/>
    </g>
    <g id="Group_2461" data-name="Group 2461" transform="translate(-1180.41 -1205.393)">
      <g id="Group_2460" data-name="Group 2460" transform="translate(0 4.564)">
        <path id="Path_5752" data-name="Path 5752" d="M1492.874,1875.624h2.453l15.84-73.391h-5.4Z" transform="translate(-1492.874 -1757.811)" fill="#2e5b9a"/>
        <path id="Path_5753" data-name="Path 5753" d="M1795.746,1865.008h-2.453l-18.435-75.985h5.4Z" transform="translate(-1719.48 -1747.194)" fill="#2e5b9a"/>
        <g id="Group_2459" data-name="Group 2459" transform="translate(1.384)">
          <path id="Path_5754" data-name="Path 5754" d="M1526.526,1623.206c-9.827,0-16.052-1.765-20.025-5.635-4.925-4.8-5.944-12.229-5.959-21.911-.012-7.62-.193-12.583-.606-16.594a2.75,2.75,0,0,1,5.47-.563c.433,4.206.623,9.334.635,17.149.015,9.813,1.26,15.022,4.3,17.98,3.115,3.035,8.749,4.287,18.26,4.049a108.1,108.1,0,0,0,20.588-2.544c6.682-1.358,11.51-2.34,17.235.4a2.75,2.75,0,0,1-2.371,4.962c-4.064-1.942-7.51-1.241-13.768.031a112.862,112.862,0,0,1-21.547,2.653Q1527.6,1623.206,1526.526,1623.206Z" transform="translate(-1499.922 -1576.034)" fill="#2e5b9a"/>
        </g>
      </g>
      <path id="Path_5755" data-name="Path 5755" d="M1521.706,1574.38l15.042.626-4,41.529s-11.212-7.157-11.037-14.859S1521.706,1574.38,1521.706,1574.38Z" transform="translate(-1516.042 -1570.141)" fill="#2e5b9a"/>
      <path id="Path_5756" data-name="Path 5756" d="M1891.226,1590.828c12.719-1.93,17.041-1.322,24.825,13.165s18.145,40.569,24.1,43.938c8.973,5.073,11.946,17.511,15.63,16.952s6.055,1.069,2.047,4.4-10.483,6.169-12.7,5.577-3.931-10.156-9.713-13.262-4.045-5.657-3.665-8.4-16.878-15.4-29.887-31.126c-7.949-9.612-12.042-15.957-12.649-21.707A15.082,15.082,0,0,1,1891.226,1590.828Z" transform="translate(-1811.31 -1582.721)" fill="#f09959"/>
      <path id="Path_5757" data-name="Path 5757" d="M1922.756,1643.359c-2.954-7.494-5.917-19.862-8.7-31.2-3.961-16.126-8.112-19.955-10.742-21.675-3.18-.8-6.948-.432-12.086.347a15.083,15.083,0,0,0-2.006,9.535c.607,5.75,4.7,12.094,12.649,21.706,6.85,8.283,14.876,15.71,20.887,21.288Z" transform="translate(-1811.31 -1582.722)" fill="#e38540"/>
      <path id="Path_5758" data-name="Path 5758" d="M1869.09,1603.579s-3.385,25.534-6.535,28.129c-2.254,1.857-3.851,1.98-5.426-5.635s2.451-36.038,2.451-36.038Z" transform="translate(-1785.301 -1582.721)" fill="#2e5b9a"/>
      <path id="Path_5759" data-name="Path 5759" d="M1777.641,1635.933l-31.32,5.263L1764,1615.842l13.457-2.74,8.07,1.856Z" transform="translate(-1696.548 -1601.258)" fill="#f09959"/>
      <path id="Path_5760" data-name="Path 5760" d="M2103.57,1911.651c-1.015,4.092-.893,7.117.871,8.632s8.43,12.779,8.43,12.779l2.076-.315-4.808-10.306Z" transform="translate(-1983.122 -1841.177)" fill="#2e5b9a"/>
      <path id="Path_5761" data-name="Path 5761" d="M2117.359,1932.537c2.214.592,8.688-2.245,12.7-5.577s1.638-4.96-2.046-4.4a1.591,1.591,0,0,1-.617-.031c-1.84,4.11-7.892,7.194-9.845,2.851-1.936-4.3-10.228-12.867-13.568-14.7a.786.786,0,0,1,0,.191c-.38,2.747-2.117,5.3,3.665,8.4S2115.144,1931.945,2117.359,1932.537Z" transform="translate(-1983.533 -1840.395)" fill="#2e5b9a"/>
      <path id="Path_5762" data-name="Path 5762" d="M1552.4,1594.824c-11.112,19.941-3.521,32.615,9.984,33.907s34.826-1.175,47.254-11.5,22.63-21.247,21.2-22.876S1552.4,1594.824,1552.4,1594.824Z" transform="translate(-1536.411 -1585.694)" fill="#e38540"/>
      <path id="Path_5763" data-name="Path 5763" d="M1885.069,1625.282c2.276-6.827,4.9-12.064,9.977-12.159,5.339-.1,8.624,2.678,8.852,11.414.272,10.4.638,44.853.158,60.171-.364,11.595,3.016,15.308,2.73,27.4-.215,9.1,9.491,4.5,5.742,9.226-2.578,3.247-10.253,2.185-14.967,1.586-4.2-.534,2.175-13.122-3.639-16.488-4.988-2.888-5.086-7.577-1.936-11.126s.35-14.052-1.75-21.4-5.358-15.305-7.5-32.688C1882.128,1636.255,1883.68,1629.452,1885.069,1625.282Z" transform="translate(-1806.064 -1601.274)" fill="#f09959"/>
      <path id="Path_5764" data-name="Path 5764" d="M1938.885,2052.914a22.012,22.012,0,0,1-5.318,1.089c-3.5.116-4.551-3.734-4.784-8.966-.2-4.568-3.521-11.76-6.923-14.677-.063.083-.127.164-.2.241-3.151,3.549-3.053,8.238,1.936,11.126,5.813,3.366-.561,15.954,3.639,16.488,4.714.6,12.389,1.661,14.967-1.586C1944.643,2053.562,1941.619,2053.318,1938.885,2052.914Z" transform="translate(-1835.742 -1936.573)" fill="#2e5b9a"/>
      <path id="Path_5765" data-name="Path 5765" d="M1915.3,2024.963s-5.105,5.331-4.638,7.549,2.041,7.818,2.3,12.136.5,9.274.5,9.274,1.838,0,1.984-.522,1.167-17.55,1.167-17.55Z" transform="translate(-1828.587 -1932.236)" fill="#2e5b9a"/>
      <path id="Path_5766" data-name="Path 5766" d="M1536.92,1590.034s-6.591,27.971,1.736,35.724,42.906.779,51.051.314c5.514-.314,10.853,6.415,10.853,6.415s-3.851-15.606-1.225-28.209,6.863-13.45,6.863-13.45l-5.637-.794Z" transform="translate(-1526.281 -1582.721)" fill="#75a1de"/>
      <path id="Path_5767" data-name="Path 5767" d="M1533.6,1552.795c2.819,5.979-3.034,16.307-.983,19.283s13.793.417,21.488-5.776,22.258-7.554,22.258-7.554Z" transform="translate(-1524.456 -1552.795)" fill="#a8ceff"/>
      <path id="Path_5768" data-name="Path 5768" d="M1565.886,1779.867c23.281.875,47.786.462,47.786-3.007s-1.05-5.92-19.08-4.519-30.282,3.326-35.708,2.1S1565.886,1779.867,1565.886,1779.867Z" transform="translate(-1544.819 -1728.902)" fill="#2e5b9a"/>
    </g>
    <rect id="Rectangle_2884" data-name="Rectangle 2884" width="333.078" height="6.338" rx="3.169" transform="translate(-1241.625 -1201.469)" fill="#2e5b9a"/>
    <g id="Group_2466" data-name="Group 2466" transform="translate(-1011.435 -1309.759)">
      <path id="Path_5769" data-name="Path 5769" d="M2993.279,1092.736c2.255,7.951-3.253,16.145-9.321,17.866s-10.4-3.682-12.654-11.633.836-15.792,6.9-17.513S2991.023,1084.784,2993.279,1092.736Z" transform="translate(-2849.342 -1069.384)" fill="#f09959"/>
      <path id="Path_5770" data-name="Path 5770" d="M2884.224,1924.823s15.552,24.154,17.652,25.2,7.351,1.313,5.383,5.251-2.757,19.429-4.595,20.216-17.591,2.625-15.228,0,3.816-1.313,5.009-6.039,2.867-13.652.636-15.49-15.884-18.378-15.884-18.378Z" transform="translate(-2774.309 -1747.396)" fill="#f09959"/>
      <path id="Path_5771" data-name="Path 5771" d="M2384.936,1977.643s-18.9,31.157-22.405,33.957-15.053,7-5.6,7.7,14-3.151,19.954-4.9,13.3-2.8,10.5-7.352-1.637-14.486,4.4-20.788S2384.936,1977.643,2384.936,1977.643Z" transform="translate(-2353.292 -1789.843)" fill="#f09959"/>
      <path id="Path_5772" data-name="Path 5772" d="M2578.042,1609.655s-46.8-1.224-65.351,14c-10.852,16.454-37.106,65-39.147,70.351,1.4,1.4,9.277,3.927,12.778,3.577,10.327-12.314,23.978-22.959,29.406-32.618,6.69-11.9,8.752-17.854,19.6-18.9s35.358-4.551,42.709-4.551S2578.042,1609.655,2578.042,1609.655Z" transform="translate(-2449.928 -1494.104)" fill="#6791c9"/>
      <path id="Path_5773" data-name="Path 5773" d="M3131.43,1889.885h-2.453l-17.591-73.391h5.4Z" transform="translate(-2962.507 -1660.342)" fill="#2e5b9a"/>
      <path id="Path_5774" data-name="Path 5774" d="M2839.274,1879.268h2.453l20.185-75.985h-5.4Z" transform="translate(-2743.834 -1649.725)" fill="#2e5b9a"/>
      <path id="Path_5775" data-name="Path 5775" d="M2764.892,1593.429l-27.208,4.7s-36.155.332-52.682,3.41c-15.036,2.8-17.251,19.885,0,43.41,9.8,13.364,18.086,24.023,35.03,36.043,4.31-3.165,5.959-4.362,7.15-11.976-1.226-1.681-4.4-12.206-5.385-14.265-9.373-19.591-21.882-26.716-22.056-28.643,2.1-3.413,55.636,17.791,66.281,5.318C2776.185,1619.513,2764.892,1593.429,2764.892,1593.429Z" transform="translate(-2610.118 -1481.083)" fill="#75a1de"/>
      <path id="Path_5776" data-name="Path 5776" d="M3005.1,1278.518a28.469,28.469,0,0,0-21.289,5.3c-5.964,6.08-12.713,16.105-12.3,32.644.525,21-3.25,22.353.688,28.128,16.425,6.783,44.518,35.925,37.9,4.682-4.79-22.623,10.506-39.485-1.833-64.579C3007.265,1282.649,3006.009,1280.668,3005.1,1278.518Z" transform="translate(-2849.196 -1227.768)" fill="#f37168"/>
      <path id="Path_5777" data-name="Path 5777" d="M2971.511,1345.836c-.32,10.95-1.866,14.176-.684,17.609,6.7.684,18.945,3.363,22.006,7.648,3.5,4.9,7,5.6,5.368,1.984s-5.951-8.752.7-26.373,9.8-29.523,3.267-41.776Z" transform="translate(-2849.199 -1249.24)" fill="#d54a41"/>
      <path id="Path_5778" data-name="Path 5778" d="M3060.043,1189.019a85.456,85.456,0,0,1-5.5-22.181L3043,1170.25s6.564,14.7.262,19.953a60.254,60.254,0,0,0-4.5,4.113A28.47,28.47,0,0,1,3060.043,1189.019Z" transform="translate(-2904.138 -1138.269)" fill="#f09959"/>
      <path id="Path_5779" data-name="Path 5779" d="M3072.321,1172.148c-.684-.609-1.54-1.369-2.44-2.164l-9.423,2.784-.02.051a38.5,38.5,0,0,1,2.944,11.508c2.808-1.7,5.882-4.482,9.4-9.334C3072.59,1173.917,3072.438,1172.957,3072.321,1172.148Z" transform="translate(-2921.564 -1140.797)" fill="#e38540"/>
      <path id="Path_5780" data-name="Path 5780" d="M2818.621,1295.16c-11.9,4.161-10.578,16.7-21.529,35.181-5.667,9.567-10.93,9.424-10.93,9.424a253.593,253.593,0,0,1-29.367-1.859c-10.066-1.231-10.7,1.766-3.7,4.269,14.12,5.048,28.773,10.482,40.587,9.169s32.022-31.457,33.063-39.3C2828.184,1301.189,2824.613,1293.065,2818.621,1295.16Z" transform="translate(-2670.838 -1241.125)" fill="#f09959"/>
      <g id="Group_2462" data-name="Group 2462" transform="translate(100.138 80.24)">
        <path id="Path_5781" data-name="Path 5781" d="M2904.714,1508.609q-1.107,0-2.269-.029a112.851,112.851,0,0,1-21.547-2.653c-6.258-1.272-9.705-1.972-13.769-.031a2.749,2.749,0,1,1-2.371-4.961c5.725-2.736,10.553-1.755,17.234-.4a108.02,108.02,0,0,0,20.588,2.544c10.343.256,16.671-1.295,19.9-4.879,2.887-3.2,3.737-8.538,2.676-16.8-.36-2.8-.719-5.122-1.036-7.173-.89-5.756-1.478-9.559-.752-15.421.677-5.465,2.49-12.756,6.69-26.9a2.75,2.75,0,1,1,5.271,1.565c-7.856,26.458-7.457,29.042-5.776,39.916.323,2.084.688,4.446,1.056,7.313,1.282,9.967,0,16.7-4.046,21.178C2922.4,1506.5,2915.611,1508.609,2904.714,1508.609Z" transform="translate(-2863.193 -1429.946)" fill="#2e5b9a"/>
      </g>
      <path id="Path_5782" data-name="Path 5782" d="M2386.22,2111.357c-12.543,6.135-19.294,9.65-23.316,9.315-.95-.079-1.736-.176-2.4-.279-4.473,2.644-11.614,5.768-3.579,6.363,9.452.7,14-3.151,19.954-4.9s13.3-2.8,10.5-7.352A9.585,9.585,0,0,1,2386.22,2111.357Z" transform="translate(-2353.292 -1897.297)" fill="#d54a41"/>
      <path id="Path_5783" data-name="Path 5783" d="M2944.157,2055.773c-.307,9.931-1.672,19.772-7.746,21.631a10.2,10.2,0,0,1-4.376.39c-.956,1.181-2.121,1.194-3.686,2.933-2.363,2.625,13.39.788,15.228,0s2.626-16.278,4.595-20.216C2949.789,2057.276,2946.535,2056.521,2944.157,2055.773Z" transform="translate(-2815.222 -1852.629)" fill="#d54a41"/>
      <g id="Group_2463" data-name="Group 2463" transform="translate(21.916 68.691)">
        <path id="Path_5784" data-name="Path 5784" d="M2523.592,1411.3h-39.849a2.749,2.749,0,0,1-2.493-1.59l-16.1-34.658a2.749,2.749,0,1,1,4.986-2.317L2485.5,1405.8h38.095a2.749,2.749,0,0,1,0,5.5Z" transform="translate(-2464.89 -1371.142)" fill="#75a1de"/>
      </g>
      <path id="Path_5785" data-name="Path 5785" d="M2661.262,1498.407c-8.052-.116-16.037-4.916-20-4.216s-16.921,9.685-15.287,10.035,11.9-4.973,12.252-5.053,2.567,3.686,8.052,5.07.039-4.11,17.04,1.024C2674.37,1508.606,2661.262,1498.407,2661.262,1498.407Z" transform="translate(-2572.306 -1401.279)" fill="#f09959"/>
      <path id="Path_5786" data-name="Path 5786" d="M3029.6,1231.247l1.185,9.532s-10.419.62-15.6,3.537-12.836,11.346-12.836,11.346l6.251-10.763.9-6.885Z" transform="translate(-2874.875 -1190.029)" fill="#f2e5de"/>
      <path id="Path_5787" data-name="Path 5787" d="M2870.191,1289.886c-7.739-1.45-11.319,5.484-16.337,16.8s-13.583,25.067-15.286,26.839-28.707,0-28.707,0-.817,7.818,0,8.752,5.485.817,5.485.817,1.867,1.491,3.617,2.671,16.57,3.4,23.455,3.047,13.186-.933,14.119-1.984,19.721-29.99,20.888-40.376S2874.14,1290.626,2870.191,1289.886Z" transform="translate(-2719.905 -1236.999)" fill="#f2e5de"/>
      <path id="Path_5788" data-name="Path 5788" d="M2951.3,1026.643c-14.637.7-12.341,22.719-12.341,22.719s3.8,1.174,11.766-.139c-.612-2.363-.35-8.4-.35-8.4a55.027,55.027,0,0,0,2.1,7.877c1.684.772,3.588.088,6.827-.7,1.663,7,6.362,9.953,9.579,10.964,3.555,1.118,7.318,2.451,11.519.35s1.891-23.572-.34-27.89c-3.348-6.481-8.913-12.282-18.541-9.219A71.5,71.5,0,0,0,2951.3,1026.643Z" transform="translate(-2823.839 -1021.366)" fill="#303c60"/>
      <path id="Path_5789" data-name="Path 5789" d="M3131.946,1174.947l5.984,8.74s-6.632,16.57,12.656,24.078c15.106,5.879,13.327,16.239,6.5,26.657s4.084,19.516,4.084,19.516,1.664-11.541,16.341-13.719c20.013-2.97,25.679-29.839,10.731-43.274-12.369-11.117-16.133-1.911-24.505-11.887s-24.179-3.238-24.179-3.238l-5.793-8.449Z" transform="translate(-2979.029 -1143.52)" fill="#303c60"/>
      <g id="Group_2464" data-name="Group 2464" transform="translate(160.053 34.549)">
        <path id="Path_5790" data-name="Path 5790" d="M3224.326,1243.177a.479.479,0,0,1-.42-.708c5.044-9.218.928-20.387-1.142-23.412-.219-.32-.426-.643-.645-.986-2.035-3.176-4.568-7.129-18.065-9.559-3.233-.582-5.856-2.507-8.633-4.546-5.758-4.227-12.284-9.018-26.464-2.492a.478.478,0,0,1-.4-.869c14.691-6.761,21.459-1.793,27.43,2.59,2.685,1.971,5.221,3.833,8.236,4.375,13.909,2.5,16.566,6.652,18.7,9.984.216.337.419.654.63.962a25.907,25.907,0,0,1,3.419,9.926,23.3,23.3,0,0,1-2.227,14.486A.479.479,0,0,1,3224.326,1243.177Z" transform="translate(-3168.279 -1197.288)" fill="#303c60"/>
      </g>
      <g id="Group_2465" data-name="Group 2465" transform="translate(134.137 19.618)">
        <path id="Path_5791" data-name="Path 5791" d="M3051.9,1141.972a20.984,20.984,0,0,1-3.1-.25c-5.1-.764-11.946-3.666-12.484-19.968a.478.478,0,0,1,.462-.494.471.471,0,0,1,.494.462c.223,6.748,1.563,11.742,3.983,14.845a11.214,11.214,0,0,0,7.686,4.208c4.763.713,7.922-.17,9.389-2.626a.479.479,0,0,1,.822.491C3057.831,1140.857,3055.4,1141.972,3051.9,1141.972Z" transform="translate(-3036.318 -1121.261)" fill="#303c60"/>
      </g>
    </g>
    <g id="Group_2470" data-name="Group 2470" transform="translate(-1354.815 -1308.215)">
      <path id="Path_5792" data-name="Path 5792" d="M641.107,1285.624c-16.988,9.714-40.617,50.094-35.629,56.684s31.768-10.738,31.768-10.738Z" transform="translate(-604.801 -1235.27)" fill="#96cfe0"/>
      <path id="Path_5793" data-name="Path 5793" d="M822.057,1032.749c-6.487-.176-4.08-5-11.54-3.073-3.922,1.012-1.027,2.625-6.122,2.1s-7.6-1.05-8.244,2.276-.953,4.376-3.4,4.9-3.557,4.9,0,7.877,1.828,4.2,1.04,6.651,1.9,2.626,3.355,4.9-1.342,2.706.758,4.678a7.442,7.442,0,0,0,5.047,1.8l8.843-16.954Z" transform="translate(-754.012 -1029.224)" fill="#303c60"/>
      <path id="Path_5794" data-name="Path 5794" d="M1579.914,2054.1s9.451.262,16.8-2.625,12.34-7.351,11.027-2.1-7.351,14.26-12.6,15.137-7.089,6.654-9.977,6.654-7.089-6.654-14.44-9.979C1564.025,2058.157,1579.914,2054.1,1579.914,2054.1Z" transform="translate(-1379.706 -1847.078)" fill="#2e5b9a"/>
      <path id="Path_5795" data-name="Path 5795" d="M1196.621,2053.217a36.348,36.348,0,0,0,10.893,9.294c7.144,3.938,15.388,5.834,10.277,7.615s-12.584,3.166-19.873,1.049c-5.113-1.484-11.106-1.8-12.69-4.211s1.864-8.481.43-17.548C1184.508,2042.153,1196.621,2053.217,1196.621,2053.217Z" transform="translate(-1070.897 -1847.079)" fill="#2e5b9a"/>
      <path id="Path_5796" data-name="Path 5796" d="M963.363,1630.224s54.752,20.5,59.163,26.232,61.963,57.938,61.963,61.789-9.8,10.852-9.8,10.852-49.361-30.282-61.614-45.685-42.157-22.829-58.055-24.256S963.363,1630.224,963.363,1630.224Z" transform="translate(-881.898 -1512.195)" fill="#3e6bab"/>
      <path id="Path_5797" data-name="Path 5797" d="M846.872,1627.677s37.458-1.4,45.51,0,25.713,1.384,14.161,33.986c-9.054,25.554-12.043,57.907-12.043,57.907l-18,4.423s.714-58.175,9.3-73.666a288.778,288.778,0,0,0-33.653,7.594c-29.523,8.443-45.71,4.215-45.71,4.215l-4.4-15.4Z" transform="translate(-763.307 -1509.649)" fill="#4476bd"/>
      <path id="Path_5798" data-name="Path 5798" d="M833.578,1137.762l-9.153,27.042,11.563,7.614,6.553-23.367Z" transform="translate(-781.294 -1116.446)" fill="#a86b48"/>
      <path id="Path_5799" data-name="Path 5799" d="M860.775,1168.73l5.518-19.679-8.963-11.289-3.348,9.892A56.331,56.331,0,0,0,860.775,1168.73Z" transform="translate(-805.047 -1116.446)" fill="#7a4e34"/>
      <path id="Path_5800" data-name="Path 5800" d="M894.378,1104.56c.3,8.225-3.743,15.343-10.165,15.976s-12.282-5.493-13.089-13.683,3.743-15.343,10.164-15.976S893.909,1091.581,894.378,1104.56Z" transform="translate(-818.747 -1078.667)" fill="#a86b48"/>
      <path id="Path_5801" data-name="Path 5801" d="M738.623,1271.449c-28.094,18.974-10.62,49.634-4.451,72.039,5.255,19.083,5.083,30.616,5.871,30.616s20.109-2.888,31.136-12.865a168.948,168.948,0,0,0,18.482-19.64s-14.127-2.516-18.744-20.792c-2.344-9.278-1.278-14.315-6.622-29.018S738.623,1271.449,738.623,1271.449Z" transform="translate(-699.887 -1223.879)" fill="#a2dff2"/>
      <path id="Path_5802" data-name="Path 5802" d="M802.043,1241.322l3.009-7.363s9.54,6.3,13.347,9.277a21.453,21.453,0,0,0,6.155,3.676s1.376,10.554.482,9.6C813.777,1244.441,802.043,1241.322,802.043,1241.322Z" transform="translate(-763.307 -1193.752)" fill="#a2dff2"/>
      <g id="Group_2468" data-name="Group 2468" transform="translate(20.487 88.918)">
        <path id="Path_5803" data-name="Path 5803" d="M738.642,1889.885H741.1l17.59-73.391h-5.4Z" transform="translate(-732.845 -1750.803)" fill="#2e5b9a"/>
        <path id="Path_5804" data-name="Path 5804" d="M1020.18,1879.268h-2.453l-20.185-75.985h5.4Z" transform="translate(-940.9 -1740.186)" fill="#2e5b9a"/>
        <g id="Group_2467" data-name="Group 2467">
          <path id="Path_5805" data-name="Path 5805" d="M742.245,1550.435c-9.827,0-16.052-1.765-20.025-5.635-4.925-4.8-5.944-12.229-5.959-21.911-.031-20.354-1.157-24.563-6.887-36.993a2.749,2.749,0,1,1,4.994-2.3c6.057,13.138,7.36,17.968,7.392,39.287.015,9.813,1.26,15.022,4.3,17.981,3.115,3.035,8.747,4.286,18.26,4.048a108.033,108.033,0,0,0,20.588-2.544c6.682-1.358,11.51-2.339,17.234.4a2.749,2.749,0,1,1-2.371,4.961c-4.063-1.941-7.51-1.241-13.768.031a112.848,112.848,0,0,1-21.547,2.653Q743.321,1550.434,742.245,1550.435Z" transform="translate(-709.122 -1481.994)" fill="#2e5b9a"/>
        </g>
      </g>
      <g id="Group_2469" data-name="Group 2469" transform="translate(132.405 66.83)">
        <path id="Path_5806" data-name="Path 5806" d="M1321.6,1409.681h-39.849a2.749,2.749,0,1,1,0-5.5h38.095l15.365-33.067a2.749,2.749,0,0,1,4.987,2.317l-16.1,34.657A2.749,2.749,0,0,1,1321.6,1409.681Z" transform="translate(-1279.005 -1369.524)" fill="#3e6bab"/>
      </g>
      <path id="Path_5807" data-name="Path 5807" d="M807.34,1303.914s7,21.355,15.666,30.194,26.1,11.809,31.561,11.462c-4.353-1.75-12.641-6.729-15.974-19.922-2.344-9.278-1.278-14.316-6.622-29.018-3.967-10.914-16.188-16.832-22.224-19.157,7.534,5.411,16.954,14.322,19.848,21.1C832.808,1306.1,807.34,1303.914,807.34,1303.914Z" transform="translate(-767.564 -1228.719)" fill="#96cfe0"/>
      <path id="Path_5808" data-name="Path 5808" d="M1280.593,1486.989s12.077-5.513,13.39-4.988,14.7,8.61,14.7,9.95-11.814-4.993-11.814-4.993,1.313,3.5.525,5.179-9.87,1.679-18.062,1.154S1280.593,1486.989,1280.593,1486.989Z" transform="translate(-1144.179 -1393.053)" fill="#a86b48"/>
      <path id="Path_5809" data-name="Path 5809" d="M801.162,1322.96c-11.133,22.818,27.056,45.949,49.712,48s49.574-5.358,49.574-5.358l-3.035-7.407s-45.39-5.924-46.539-6.754S805.24,1314.6,801.162,1322.96Z" transform="translate(-761 -1264.264)" fill="#a2dff2"/>
      <path id="Path_5810" data-name="Path 5810" d="M852,1126.359c1.032,2.713.275,5.519-1.69,6.266s-4.395-.847-5.427-3.56-.275-5.519,1.69-6.267S850.97,1123.645,852,1126.359Z" transform="translate(-797.365 -1104.273)" fill="#a86b48"/>
      <path id="Path_5811" data-name="Path 5811" d="M886.9,1042.518c3.076-1.284,6.54-2.659,5.468,2.567-.467,2.275,0,1.634.817,3.734s-2.059,3.75-2.992,4.917,1.359,2.435-.508,3.835-4.329-.519-6.068,0c-5.193,1.55-4.551-2.534-7.468-3.384s-4.347-.719-4.9,1.149,2.042,8.012-.175,7.428-2.716,4.376-3.313,7.176-2.118-1.933-2.019-5.136c.151-4.913-1.069-6.978-2.879-8.352s-2.581-13.876,6.171-14.342,8.807-1.311,12.542-2.1S885.495,1043.1,886.9,1042.518Z" transform="translate(-811.25 -1037.805)" fill="#303c60"/>
    </g>
    <g id="Group_2473" data-name="Group 2473" transform="translate(-1145.259 -1455.05)">
      <path id="Path_5812" data-name="Path 5812" d="M1737.462,314.344a32.8,32.8,0,1,0-56.919,22.228,14.877,14.877,0,0,1,3.941,10.087v14.7a17.346,17.346,0,0,0,17.295,17.295h5.766a17.346,17.346,0,0,0,17.295-17.295v-14.7a15.034,15.034,0,0,1,4-10.153A32.681,32.681,0,0,0,1737.462,314.344Z" transform="translate(-1671.863 -281.544)" fill="#f5dc95"/>
      <path id="Path_5813" data-name="Path 5813" d="M1751.63,344.3a28.218,28.218,0,1,0-48.967,19.123,12.8,12.8,0,0,1,3.39,8.678v12.649a14.922,14.922,0,0,0,14.879,14.879h4.96a14.922,14.922,0,0,0,14.878-14.879V372.1a12.936,12.936,0,0,1,3.442-8.735A28.112,28.112,0,0,0,1751.63,344.3Z" transform="translate(-1690.613 -309.302)" fill="#fff" opacity="0.5"/>
      <g id="Group_2471" data-name="Group 2471" transform="translate(14.049 41.404)">
        <path id="Path_5814" data-name="Path 5814" d="M1767,521.983h-10.8a.982.982,0,0,1-.978-.892c-.019-.21-2.035-21.061-11.359-26.9a.982.982,0,0,1,1.042-1.665c9.1,5.7,11.68,23.265,12.177,27.493h8.88a32.17,32.17,0,0,1,.884-7.874,43.25,43.25,0,0,1,10.564-19.451.982.982,0,0,1,1.446,1.328c-12.259,13.346-10.9,26.734-10.881,26.868a.982.982,0,0,1-.976,1.093Z" transform="translate(-1743.398 -492.376)" fill="#94bdf2"/>
      </g>
      <g id="Group_2472" data-name="Group 2472" transform="translate(12.835 31.349)">
        <path id="Path_5815" data-name="Path 5815" d="M1770.119,454.385c-3.646,0-8.618-2.591-13.854-5.4-6.763,3.6-13.079,6.832-16.614,4.689-1.662-1.007-2.456-2.978-2.429-6.027.026-2.87.848-4.8,2.445-5.749,3.542-2.1,9.871,1.248,16.6,4.861,6.863-3.66,13.325-7.068,16.854-4.919,1.585.965,2.369,2.926,2.332,5.829-.039,3.021-.907,5.053-2.581,6.039A5.33,5.33,0,0,1,1770.119,454.385Zm-11.767-6.511c5.392,2.866,11.034,5.61,13.524,4.142,1.042-.614,1.585-2.085,1.614-4.373.028-2.16-.44-3.548-1.389-4.126C1769.693,442.051,1763.847,444.959,1758.351,447.874Zm-16.031-4.67a3.209,3.209,0,0,0-1.653.384c-.964.571-1.463,1.943-1.482,4.077-.021,2.264.478,3.721,1.482,4.33,2.423,1.469,8.083-1.261,13.512-4.126C1749.791,445.527,1745.184,443.2,1742.32,443.2Z" transform="translate(-1737.22 -441.171)" fill="#94bdf2"/>
      </g>
      <rect id="Rectangle_2885" data-name="Rectangle 2885" width="14.336" height="8.641" rx="4.321" transform="translate(25.963 93.138)" fill="#94bdf2"/>
      <path id="Path_5816" data-name="Path 5816" d="M1731.28,634.135v10.4a18.165,18.165,0,0,0,18.112,18.112h6.038a18.165,18.165,0,0,0,18.112-18.112v-10.4Z" transform="translate(-1719.611 -564.891)" fill="#94bdf2"/>
      <rect id="Rectangle_2886" data-name="Rectangle 2886" width="46.085" height="4.975" rx="2.488" transform="translate(10.023 67.542)" fill="#9ec8ff"/>
      <path id="Path_5817" data-name="Path 5817" d="M1767.349,649.515l-41.06,5.072a2.363,2.363,0,0,1-2.628-2.05l-.032-.26a2.363,2.363,0,0,1,2.05-2.628l41.06-5.072a2.363,2.363,0,0,1,2.628,2.05l.032.26A2.364,2.364,0,0,1,1767.349,649.515Z" transform="translate(-1713.449 -573.268)" fill="#9ec8ff"/>
      <path id="Path_5818" data-name="Path 5818" d="M1767.349,686.107l-41.06,5.072a2.363,2.363,0,0,1-2.628-2.05l-.032-.26a2.363,2.363,0,0,1,2.05-2.628l41.06-5.072a2.363,2.363,0,0,1,2.628,2.05l.032.26A2.363,2.363,0,0,1,1767.349,686.107Z" transform="translate(-1713.449 -602.674)" fill="#9ec8ff"/>
      <path id="Path_5819" data-name="Path 5819" d="M1783.225,725.271l-34.2,4.224a2.169,2.169,0,0,1-2.412-1.881l-.08-.645a2.169,2.169,0,0,1,1.881-2.412l34.2-4.224a2.169,2.169,0,0,1,2.412,1.881l.08.645A2.169,2.169,0,0,1,1783.225,725.271Z" transform="translate(-1731.858 -634.148)" fill="#9ec8ff"/>
    </g>
    <g id="Group_2475" data-name="Group 2475" transform="translate(-819.853 -1379.731)">
      <path id="Path_5820" data-name="Path 5820" d="M3350.868,702.821h22.042a22.042,22.042,0,1,1-22.042-22.042Z" transform="translate(-3328.826 -677.693)" fill="#1b78fe"/>
      <g id="Group_2474" data-name="Group 2474" transform="translate(3.692)">
        <path id="Path_5821" data-name="Path 5821" d="M3481.9,687.106a22.042,22.042,0,0,0-22.042-22.042v22.042Z" transform="translate(-3437.817 -665.064)" fill="#f39892"/>
        <path id="Path_5822" data-name="Path 5822" d="M3347.623,777.3a22.041,22.041,0,0,0,22.041,22.042A22.147,22.147,0,0,1,3347.623,777.3Z" transform="translate(-3347.623 -755.258)" fill="#f39892"/>
        <path id="Path_5823" data-name="Path 5823" d="M3369.664,665.064a22.041,22.041,0,0,0-22.041,22.042A22.147,22.147,0,0,1,3369.664,665.064Z" transform="translate(-3347.623 -665.064)" fill="#f39892"/>
        <path id="Path_5824" data-name="Path 5824" d="M3459.859,799.342A22.042,22.042,0,0,0,3481.9,777.3,22.147,22.147,0,0,1,3459.859,799.342Z" transform="translate(-3437.817 -755.258)" fill="#f39892"/>
      </g>
    </g>
    <g id="Group_2476" data-name="Group 2476" transform="translate(-1229.197 -1387.845)">
      <rect id="Rectangle_2887" data-name="Rectangle 2887" width="4.814" height="13.929" transform="translate(0 18.662)" fill="#9ec8ff"/>
      <rect id="Rectangle_2888" data-name="Rectangle 2888" width="4.814" height="9.398" transform="translate(61.704 23.193)" fill="#9ec8ff"/>
      <rect id="Rectangle_2889" data-name="Rectangle 2889" width="4.814" height="32.591" transform="translate(20.402)" fill="#9ec8ff"/>
      <rect id="Rectangle_2890" data-name="Rectangle 2890" width="4.814" height="14.649" transform="translate(30.603 17.942)" fill="#9ec8ff"/>
      <rect id="Rectangle_2891" data-name="Rectangle 2891" width="4.814" height="18.796" transform="translate(40.804 13.795)" fill="#9ec8ff"/>
      <rect id="Rectangle_2892" data-name="Rectangle 2892" width="4.814" height="23.126" transform="translate(10.201 9.465)" fill="#9ec8ff"/>
      <rect id="Rectangle_2893" data-name="Rectangle 2893" width="4.814" height="28.484" transform="translate(51.039 4.107)" fill="#9ec8ff"/>
    </g>
    <g id="Group_2478" data-name="Group 2478" transform="translate(-1410.682 -1439.016)">
      <g id="Group_2477" data-name="Group 2477" clip-path="url(#clip-path)">
        <path id="Path_5825" data-name="Path 5825" d="M469.123,520.862l-25.246-15.438-4.567,29.239A29.626,29.626,0,0,0,469.123,520.862Z" transform="translate(-415.943 -477.491)" fill="#a2dff2"/>
        <path id="Path_5826" data-name="Path 5826" d="M487.837,463.6c.068-.111.157-.265.154-.259a29.6,29.6,0,0,0,.655-29.131c-8.934,4.681-3.614,1.837-26.082,13.986C487.852,463.656,483.925,461.271,487.837,463.6Z" transform="translate(-434.631 -420.259)" fill="#9cd499"/>
        <path id="Path_5827" data-name="Path 5827" d="M321.248,374.235,349,384.461l26.034-14.078C362.857,347.863,330.078,350.563,321.248,374.235Z" transform="translate(-321.067 -356.528)" fill="#9ec8ff"/>
        <path id="Path_5828" data-name="Path 5828" d="M336.82,492.818l4.567-29.239-27.753-10.226C307.035,471.046,318.748,489.969,336.82,492.818Z" transform="translate(-313.453 -435.646)" fill="#f39892"/>
        <path id="Path_5829" data-name="Path 5829" d="M309.807,420.677a2.846,2.846,0,0,1,1.4.363,28.288,28.288,0,0,1,1.008-3.938l15.069,5.553s0-.009,0-.014a2.677,2.677,0,0,1,.655-1.838l-1.509-.556L312.9,415.261a28.992,28.992,0,0,1,4.359-7.33,2.932,2.932,0,0,1-1.5-1.263,30.994,30.994,0,0,0-4.7,7.915l-.016-.006-.342.916-.344.924.016.006a30.289,30.289,0,0,0-1.1,4.309A2.723,2.723,0,0,1,309.807,420.677Z" transform="translate(-311.442 -398.129)" fill="#fff"/>
        <path id="Path_5830" data-name="Path 5830" d="M364.788,366.769l.016-.009-.467-.864c-.009-.018-.02-.034-.029-.052l-.382-.711-.015.008a30.216,30.216,0,0,0-12.2-11.832,31.044,31.044,0,0,0-33.912,3.7,3.035,3.035,0,0,1,1.248,1.52,28.677,28.677,0,0,1,16.532-6.6,28.168,28.168,0,0,1,26.547,14.041l-7.689,4.158c-1.587.854-3.807,2.055-7.522,4.065l-9.211,4.983-.237.128-.773-.473-.042.27-5.415-2a2.708,2.708,0,0,1-.724,1.826l5.83,2.148-4.288,27.456a28.8,28.8,0,0,1-23.232-27.767,2.812,2.812,0,0,1-.954.175,2.865,2.865,0,0,1-1.009-.184,30.755,30.755,0,0,0,24.892,29.717l0,.017.967.153.972.153,0-.017a30.6,30.6,0,0,0,29.332-13.613l.02.012.192-.315s.313-.514.313-.514c.048-.078.106-.176.138-.232l.021-.035.015-.027.312-.509-.014-.009A30.7,30.7,0,0,0,364.788,366.769ZM334,408.847l4.186-26.8,10.893,6.662c4.392,2.686,6.9,4.223,8.486,5.188l3.76,2.3A28.5,28.5,0,0,1,334,408.847ZM362.364,394.5l-.187-.11c-1.031-.611-1.48-.876-3.535-2.13l-19.235-11.762,15.967-8.634c2.345-1.262,3.306-1.764,5.687-3.009l2.04-1.067A28.726,28.726,0,0,1,362.364,394.5Z" transform="translate(-309.506 -352.508)" fill="#e7f3fe"/>
      </g>
    </g>
    <g id="Group_2480" data-name="Group 2480" transform="translate(-1303.873 -1443.914)">
      <path id="Rectangle_2894" data-name="Rectangle 2894" d="M8.169,0H76.453a8.17,8.17,0,0,1,8.17,8.17v21.9a8.17,8.17,0,0,1-8.17,8.17H8.169A8.169,8.169,0,0,1,0,30.074V8.169A8.169,8.169,0,0,1,8.169,0Z" fill="#9ec8ff"/>
      <rect id="Rectangle_2895" data-name="Rectangle 2895" width="79.996" height="26.401" rx="6.6" transform="translate(2.314 10.048)" fill="#fff"/>
      <g id="Group_2479" data-name="Group 2479" transform="translate(3.489 2.814)">
        <path id="Rectangle_2896" data-name="Rectangle 2896" d="M1.492,0h.332A1.492,1.492,0,0,1,3.315,1.492v0A1.492,1.492,0,0,1,1.823,2.984H1.492A1.492,1.492,0,0,1,0,1.492v0A1.492,1.492,0,0,1,1.492,0Z" fill="#fff"/>
        <path id="Rectangle_2897" data-name="Rectangle 2897" d="M1.492,0h.332A1.492,1.492,0,0,1,3.315,1.492v0A1.492,1.492,0,0,1,1.823,2.984H1.492A1.492,1.492,0,0,1,0,1.492v0A1.492,1.492,0,0,1,1.492,0Z" transform="translate(6.028)" fill="#fff"/>
        <path id="Rectangle_2898" data-name="Rectangle 2898" d="M1.492,0h.332A1.492,1.492,0,0,1,3.315,1.492v0A1.492,1.492,0,0,1,1.823,2.984H1.492A1.492,1.492,0,0,1,0,1.492v0A1.492,1.492,0,0,1,1.492,0Z" transform="translate(12.055)" fill="#fff"/>
      </g>
      <path id="Path_5832" data-name="Path 5832" d="M1088.416,408.512H1046.1a1.266,1.266,0,1,1,0-2.532h42.314a1.266,1.266,0,0,1,0,2.532Z" transform="translate(-1009.361 -392.678)" fill="#9ec8ff"/>
      <path id="Path_5833" data-name="Path 5833" d="M926.36,507.956H884.046a1.266,1.266,0,1,1,0-2.532H926.36a1.266,1.266,0,0,1,0,2.532Z" transform="translate(-879.131 -472.592)" fill="#9ec8ff"/>
      <rect id="Rectangle_2899" data-name="Rectangle 2899" width="5.244" height="2.532" rx="1.266" transform="translate(50.213 32.832)" fill="#9ec8ff"/>
      <rect id="Rectangle_2900" data-name="Rectangle 2900" width="5.244" height="2.532" rx="1.266" transform="translate(56.813 32.832)" fill="#9ec8ff"/>
      <path id="Path_5834" data-name="Path 5834" d="M978.571,439.925H908.5a.859.859,0,1,1,0-1.718h70.071a.859.859,0,0,1,0,1.718Z" transform="translate(-899.109 -418.576)" fill="#9ec8ff"/>
      <path id="Path_5835" data-name="Path 5835" d="M978.571,458.8H908.5a.859.859,0,1,1,0-1.718h70.071a.859.859,0,0,1,0,1.718Z" transform="translate(-899.109 -433.745)" fill="#9ec8ff"/>
    </g>
    <g id="Group_2481" data-name="Group 2481" transform="translate(-1049.153 -1451.084)">
      <path id="Path_5836" data-name="Path 5836" d="M2197.368,322.8h-36.135V301.736h27.176l8.959,8.96Z" transform="translate(-2161.233 -301.736)" fill="#ffb8b3"/>
      <path id="Path_5837" data-name="Path 5837" d="M2296.233,301.736v11.242h9.623v-2.16l-9.021-9.021Z" transform="translate(-2269.721 -301.736)" fill="#f39892"/>
      <path id="Path_5838" data-name="Path 5838" d="M2299.611,301.736v9.082h8.959Z" transform="translate(-2272.436 -301.736)" fill="#ffb8b3"/>
      <path id="Path_5839" data-name="Path 5839" d="M2195.475,336.757h-16.1a.638.638,0,1,1,0-1.277h16.1a.638.638,0,0,1,0,1.277Z" transform="translate(-2175.296 -328.853)" fill="#fff"/>
      <path id="Path_5840" data-name="Path 5840" d="M2195.475,353.385h-16.1a.638.638,0,1,1,0-1.276h16.1a.638.638,0,0,1,0,1.276Z" transform="translate(-2175.296 -342.216)" fill="#fff"/>
      <path id="Path_5841" data-name="Path 5841" d="M2195.475,370.884h-16.1a.638.638,0,1,1,0-1.276h16.1a.638.638,0,0,1,0,1.276Z" transform="translate(-2175.296 -356.279)" fill="#fff"/>
    </g>
    <circle id="Ellipse_105" data-name="Ellipse 105" cx="1.08" cy="1.08" r="1.08" transform="translate(-1033.245 -1450.545)" fill="#3e6bab"/>
    <rect id="Rectangle_2901" data-name="Rectangle 2901" width="22.966" height="27.691" transform="translate(-1190.946 -1454.411) rotate(10.935)" fill="#fae8b6"/>
    <path id="Path_5842" data-name="Path 5842" d="M1478.878,352.6l-11.955-2.31a.589.589,0,1,1,.224-1.157l11.955,2.31a.589.589,0,1,1-.224,1.157Z" transform="translate(-2652.045 -1790.901)" fill="#9ec8ff"/>
    <path id="Path_5843" data-name="Path 5843" d="M1475.938,367.819l-11.955-2.31a.589.589,0,0,1,.224-1.157l11.955,2.31a.589.589,0,0,1-.224,1.157Z" transform="translate(-2649.683 -1803.131)" fill="#9ec8ff"/>
    <path id="Path_5844" data-name="Path 5844" d="M1472.917,383.456l-11.955-2.31a.589.589,0,0,1,.224-1.157l11.955,2.31a.589.589,0,0,1-.224,1.157Z" transform="translate(-2647.255 -1815.697)" fill="#9ec8ff"/>
    <path id="Path_5845" data-name="Path 5845" d="M1480.579,298.579a.982.982,0,1,1-.778-1.15A.982.982,0,0,1,1480.579,298.579Z" transform="translate(-2661.84 -1749.345)" fill="#3e6bab"/>
    <path id="Path_5846" data-name="Path 5846" d="M2287.354,454.479l-34.9-3.676,2.3-21.874,27.67,2.915,6.466,7.989Z" transform="translate(-3283.694 -1855.033)" fill="#9ec8ff"/>
    <path id="Path_5847" data-name="Path 5847" d="M2288.315,440.521l-25.976-2.736-1.944,18.456,32.293,3.4,1.139-10.807-6.318-.666Z" transform="translate(-3290.074 -1862.151)" fill="#fff"/>
    <path id="Path_5848" data-name="Path 5848" d="M2313.2,472.853l-16.827-1.772a.7.7,0,0,1,.148-1.4l16.827,1.773a.7.7,0,1,1-.147,1.4Z" transform="translate(-3318.476 -1887.778)" fill="#9ec8ff"/>
    <path id="Path_5849" data-name="Path 5849" d="M2311.207,491.736l-16.826-1.773a.7.7,0,1,1,.148-1.4l16.826,1.772a.705.705,0,0,1-.148,1.4Z" transform="translate(-3316.877 -1902.952)" fill="#9ec8ff"/>
    <path id="Path_5850" data-name="Path 5850" d="M2309.13,511.449l-16.826-1.773a.7.7,0,1,1,.148-1.4l16.826,1.773a.7.7,0,1,1-.148,1.4Z" transform="translate(-3315.208 -1918.794)" fill="#9ec8ff"/>
    <circle id="Ellipse_106" data-name="Ellipse 106" cx="1.08" cy="1.08" r="1.08" transform="translate(-1016.955 -1422.135)" fill="#3e6bab"/>
    <g id="Group_2482" data-name="Group 2482" transform="translate(-1381.085 -1357.566)">
      <rect id="Rectangle_2902" data-name="Rectangle 2902" width="75.936" height="31.292" rx="15.646" transform="translate(75.936 31.292) rotate(180)" fill="#9ec8ff"/>
      <path id="Path_5851" data-name="Path 5851" d="M729.594,902.468v17.264L709.7,899.838S729.19,902.468,729.594,902.468Z" transform="translate(-662.83 -875.897)" fill="#9ec8ff"/>
      <rect id="Rectangle_2903" data-name="Rectangle 2903" width="68.081" height="25.087" rx="12.544" transform="translate(72.008 28.189) rotate(180)" fill="#fff"/>
      <path id="Path_5852" data-name="Path 5852" d="M643.4,814.282h30.752a1.349,1.349,0,0,0,0-2.7H643.4a1.349,1.349,0,0,0,0,2.7Z" transform="translate(-608.466 -804.975)" fill="#9ec8ff"/>
      <rect id="Rectangle_2904" data-name="Rectangle 2904" width="58.537" height="1.515" rx="0.758" transform="translate(67.034 14.463) rotate(180)" fill="#9ec8ff"/>
      <rect id="Rectangle_2905" data-name="Rectangle 2905" width="58.537" height="1.515" rx="0.758" transform="translate(67.034 17.399) rotate(180)" fill="#9ec8ff"/>
    </g>
    <g id="Group_2483" data-name="Group 2483" transform="translate(-888.859 -1353.919)">
      <rect id="Rectangle_2906" data-name="Rectangle 2906" width="6.424" height="5.782" rx="2.891" transform="translate(29.787 5.782) rotate(180)" fill="#9ec8ff"/>
      <path id="Rectangle_2907" data-name="Rectangle 2907" d="M2.891,0h.643A2.891,2.891,0,0,1,6.425,2.891v0A2.891,2.891,0,0,1,3.533,5.782H2.891A2.891,2.891,0,0,1,0,2.891v0A2.891,2.891,0,0,1,2.891,0Z" transform="translate(18.106 5.782) rotate(180)" fill="#9ec8ff"/>
      <rect id="Rectangle_2908" data-name="Rectangle 2908" width="6.425" height="5.782" rx="2.891" transform="translate(6.425 5.782) rotate(180)" fill="#9ec8ff"/>
    </g>
  </g>
</svg>
