<svg xmlns="http://www.w3.org/2000/svg" width="846.999" height="449.395" viewBox="0 0 846.999 449.395">
  <g id="Group_1670" data-name="Group 1670" transform="translate(-233.355 -311.223)">
    <path id="Path_3358" data-name="Path 3358" d="M277.5,1756.889h788.194c-24.948-6.354-47.181-4.932-71.773-5.988-60.57-2.6-123.149-2.236-183.741-4.068-76.815-2.323-153.65-4.031-230.491-4.643C479.4,1741.391,376.528,1735.514,277.5,1756.889Z" transform="translate(-28.004 -996.27)" fill="#ab97ff"/>
    <g id="Group_1676" data-name="Group 1676" transform="translate(233.355 311.223)">
      <g id="Group_1669" data-name="Group 1669" transform="matrix(0.921, 0.391, -0.391, 0.921, 378.544, 0)">
        <path id="Path_3362" data-name="Path 3362" d="M1.434,3.521,0,2.415C.616,1.615,1.227.81,1.826,0L3.281,1.08C2.675,1.9,2.057,2.712,1.434,3.521Z" transform="translate(296.674 165.8)" fill="#3d3c3b" fill-rule="evenodd"/>
        <path id="Path_3363" data-name="Path 3363" d="M1.394,3.507,0,2.347Q.965,1.182,1.91,0L3.328,1.132Q2.373,2.325,1.394,3.507Z" transform="translate(293.282 170.105)" fill="#3d3c3b" fill-rule="evenodd"/>
        <path id="Path_3364" data-name="Path 3364" d="M1.337,3.481,0,2.259Q1.013,1.146,2,0L3.372,1.185q-1,1.162-2.035,2.3Z" transform="translate(289.742 174.267)" fill="#3d3c3b" fill-rule="evenodd"/>
        <path id="Path_3365" data-name="Path 3365" d="M1.543,3.543,0,2.6.787,1.3,1.554,0,3.118.914,2.34,2.235l-.8,1.308Z" transform="translate(305.938 152.211)" fill="#3d3c3b" fill-rule="evenodd"/>
        <path id="Path_3366" data-name="Path 3366" d="M1.507,3.539,0,2.536c.282-.419.557-.841.831-1.265S1.384.428,1.652,0L3.18.975c-.271.43-.554.856-.831,1.284s-.555.858-.842,1.28Z" transform="translate(303.014 156.843)" fill="#3d3c3b" fill-rule="evenodd"/>
        <path id="Path_3367" data-name="Path 3367" d="M1.473,3.534,0,2.478C.584,1.654,1.171.834,1.739,0L3.232,1.028C2.657,1.871,2.065,2.7,1.473,3.534Z" transform="translate(299.939 161.352)" fill="#3d3c3b" fill-rule="evenodd"/>
        <path id="Path_3368" data-name="Path 3368" d="M1.652,3.513,0,2.767.618,1.389,1.2,0l1.67.7-.6,1.413-.628,1.4Z" transform="translate(313.593 137.679)" fill="#3d3c3b" fill-rule="evenodd"/>
        <path id="Path_3369" data-name="Path 3369" d="M1.616,3.532,0,2.712C.444,1.809.909.915,1.33,0L2.966.78c-.428.928-.9,1.836-1.35,2.752Z" transform="translate(311.253 142.619)" fill="#3d3c3b" fill-rule="evenodd"/>
        <path id="Path_3370" data-name="Path 3370" d="M1.58,3.539,0,2.652c.252-.436.491-.88.73-1.323L1.452,0l1.6.85L2.321,2.2c-.244.448-.486.9-.741,1.34Z" transform="translate(308.705 147.444)" fill="#3d3c3b" fill-rule="evenodd"/>
        <path id="Path_3371" data-name="Path 3371" d="M1.751,3.385,0,2.92.365,1.461C.482.974.617.491.714,0L2.482.4c-.1.5-.238,1-.358,1.494l-.373,1.49Z" transform="translate(319.097 122.268)" fill="#3d3c3b" fill-rule="evenodd"/>
        <path id="Path_3372" data-name="Path 3372" d="M1.721,3.442,0,2.872C.167,2.4.31,1.917.459,1.437L.9,0,2.643.513,2.189,1.979c-.153.489-.3.98-.468,1.462Z" transform="translate(317.548 127.489)" fill="#3d3c3b" fill-rule="evenodd"/>
        <path id="Path_3373" data-name="Path 3373" d="M1.687,3.484,0,2.821C.381,1.89.714.942,1.063,0L2.77.612c-.356.958-.7,1.924-1.082,2.871Z" transform="translate(315.711 132.605)" fill="#3d3c3b" fill-rule="evenodd"/>
        <path id="Path_3374" data-name="Path 3374" d="M1.811,3.08,0,3.009l.053-1.5L.047.015,1.859,0l.006,1.54L1.811,3.08Z" transform="translate(321.573 106.231)" fill="#3d3c3b" fill-rule="evenodd"/>
        <path id="Path_3375" data-name="Path 3375" d="M1.8,3.2,0,2.984.166,1.494C.227,1,.247.5.289,0L2.1.137C2.053.648,2.033,1.161,1.97,1.67L1.8,3.2Z" transform="translate(321.147 111.613)" fill="#3d3c3b" fill-rule="evenodd"/>
        <path id="Path_3376" data-name="Path 3376" d="M1.779,3.305,0,2.959.27,1.482C.314,1.234.364.989.4.742L.512,0,2.3.275l-.112.76c-.039.254-.091.5-.136.757L1.779,3.305Z" transform="translate(320.313 116.939)" fill="#3d3c3b" fill-rule="evenodd"/>
        <path id="Path_3377" data-name="Path 3377" d="M2.536,2.978.775,3.4.607,2.676l-.2-.719L0,.52,1.736,0l.42,1.485.207.742.174.751Z" transform="translate(319.276 89.854)" fill="#3d3c3b" fill-rule="evenodd"/>
        <path id="Path_3378" data-name="Path 3378" d="M2.287,3.041.493,3.294C.381,2.3.171,1.329,0,.349L1.779,0c.177,1.012.393,2.019.508,3.041Z" transform="translate(320.558 95.223)" fill="#3d3c3b" fill-rule="evenodd"/>
        <path id="Path_3379" data-name="Path 3379" d="M2.028,3.074.217,3.161.183,2.414.166,2.04.134,1.668,0,.179,1.8,0l.138,1.536.033.384.018.385.036.77Z" transform="translate(321.334 100.675)" fill="#3d3c3b" fill-rule="evenodd"/>
        <path id="Path_3380" data-name="Path 3380" d="M3.135,2.624l-1.567.91-.373-.648c-.123-.216-.246-.433-.386-.64L0,.989,1.518,0l.834,1.3c.143.214.27.437.4.66l.385.668Z" transform="translate(312.483 74.855)" fill="#3d3c3b" fill-rule="evenodd"/>
        <path id="Path_3381" data-name="Path 3381" d="M2.968,2.764l-1.645.76-.307-.682C.912,2.617.793,2.4.681,2.175L0,.845,1.6,0l.7,1.372c.115.231.239.455.346.689l.317.7Z" transform="translate(315.204 79.616)" fill="#3d3c3b" fill-rule="evenodd"/>
        <path id="Path_3382" data-name="Path 3382" d="M2.768,2.885l-1.711.6-.24-.707-.272-.7L0,.689,1.676,0l.563,1.437.281.718.248.73Z" transform="translate(317.472 84.604)" fill="#3d3c3b" fill-rule="evenodd"/>
        <path id="Path_3383" data-name="Path 3383" d="M3.441,2.155,2.142,3.42l-.518-.543-.541-.521L0,1.314,1.248,0,2.355,1.066l.554.533.532.555Z" transform="translate(302.103 62.199)" fill="#3d3c3b" fill-rule="evenodd"/>
        <path id="Path_3384" data-name="Path 3384" d="M3.363,2.317,1.974,3.482C1.315,2.729.671,1.965,0,1.222L1.338,0c.688.76,1.349,1.545,2.025,2.317Z" transform="translate(305.887 66.123)" fill="#3d3c3b" fill-rule="evenodd"/>
        <path id="Path_3385" data-name="Path 3385" d="M3.266,2.471,1.787,3.517.917,2.3c-.141-.206-.3-.4-.453-.6L0,1.115,1.429,0l.477.6c.159.2.32.4.466.612l.895,1.254Z" transform="translate(309.34 70.33)" fill="#3d3c3b" fill-rule="evenodd"/>
        <path id="Path_3386" data-name="Path 3386" d="M3.527,1.684,2.5,3.175c-.408-.284-.814-.569-1.236-.83S.427,1.8,0,1.55L.938,0c.444.263.872.55,1.307.824s.859.566,1.283.86Z" transform="translate(289.383 52.009)" fill="#3d3c3b" fill-rule="evenodd"/>
        <path id="Path_3387" data-name="Path 3387" d="M3.523,1.859,2.4,3.281c-.383-.323-.789-.62-1.191-.921L0,1.456,1.079,0,2.307.921c.41.306.823.609,1.215.938Z" transform="translate(293.807 55.125)" fill="#3d3c3b" fill-rule="evenodd"/>
        <path id="Path_3388" data-name="Path 3388" d="M3.483,2.011,2.275,3.362l-1.127-1-.564-.5L0,1.392,1.161,0l.6.485.575.508L3.483,2.011Z" transform="translate(298.046 58.51)" fill="#3d3c3b" fill-rule="evenodd"/>
        <path id="Path_3389" data-name="Path 3389" d="M3.356.682,2.9,2.435l-.718-.189-.725-.161C.971,1.979.489,1.862,0,1.781L.341,0c.508.086,1.01.206,1.513.317l.754.169.748.2Z" transform="translate(274.524 46.042)" fill="#3d3c3b" fill-rule="evenodd"/>
        <path id="Path_3390" data-name="Path 3390" d="M3.461,1.042,2.8,2.728c-.462-.179-.919-.369-1.39-.523S.474,1.868,0,1.726L.551,0c.494.148.976.332,1.463.5s.967.358,1.447.545Z" transform="translate(279.687 47.403)" fill="#3d3c3b" fill-rule="evenodd"/>
        <path id="Path_3391" data-name="Path 3391" d="M3.518,1.381l-.86,1.6C1.791,2.5.9,2.072,0,1.648L.753,0c.932.44,1.863.883,2.765,1.381Z" transform="translate(284.638 49.395)" fill="#3d3c3b" fill-rule="evenodd"/>
        <path id="Path_3392" data-name="Path 3392" d="M3.067,0l.119,1.808-1.493.12c-.5.037-.993.1-1.49.153L0,.28C.511.229,1.019.162,1.531.122L3.067,0Z" transform="translate(258.311 45.284)" fill="#3d3c3b" fill-rule="evenodd"/>
        <path id="Path_3393" data-name="Path 3393" d="M3.084.022,3.031,1.833c-1-.021-1.989-.034-2.985,0L0,.021C1.027-.013,2.055,0,3.084.022Z" transform="translate(263.821 45.158)" fill="#3d3c3b" fill-rule="evenodd"/>
        <path id="Path_3394" data-name="Path 3394" d="M3.21.326,2.961,2.121c-.49-.08-.983-.122-1.476-.179-.248-.026-.494-.057-.742-.079L0,1.807.138,0l.77.058c.256.022.511.055.768.082C2.188.2,2.7.244,3.21.326Z" transform="translate(269.196 45.311)" fill="#3d3c3b" fill-rule="evenodd"/>
        <path id="Path_3395" data-name="Path 3395" d="M2.943,0l.485,1.746c-.967.276-1.935.548-2.9.851L0,.864C.976.558,1.96.28,2.943,0Z" transform="translate(242.162 48.213)" fill="#3d3c3b" fill-rule="evenodd"/>
        <path id="Path_3396" data-name="Path 3396" d="M2.987,0l.388,1.771c-.98.224-1.958.444-2.93.7L0,.71C.99.453,1.989.229,2.987,0Z" transform="translate(247.458 46.879)" fill="#3d3c3b" fill-rule="evenodd"/>
        <path id="Path_3397" data-name="Path 3397" d="M3.031,0,3.3,1.792,1.815,2.03C1.321,2.109.83,2.208.337,2.3L0,.516C.5.426,1.007.325,1.513.243L3.031,0Z" transform="translate(252.818 45.883)" fill="#3d3c3b" fill-rule="evenodd"/>
        <path id="Path_3398" data-name="Path 3398" d="M2.829,0l.676,1.682c-.937.38-1.874.759-2.807,1.153L0,1.163C.939.768,1.884.384,2.829,0Z" transform="translate(226.688 53.607)" fill="#3d3c3b" fill-rule="evenodd"/>
        <path id="Path_3399" data-name="Path 3399" d="M2.863,0l.626,1.7c-.947.346-1.89.71-2.833,1.072L0,1.084C.952.719,1.9.35,2.863,0Z" transform="translate(231.775 51.63)" fill="#3d3c3b" fill-rule="evenodd"/>
        <path id="Path_3400" data-name="Path 3400" d="M2.9,0l.566,1.722c-.481.153-.957.317-1.434.48S1.076,2.524.6,2.7L0,.987C.479.813.965.652,1.447.486S2.413.155,2.9,0Z" transform="translate(236.906 49.825)" fill="#3d3c3b" fill-rule="evenodd"/>
        <path id="Path_3401" data-name="Path 3401" d="M2.766,0l.762,1.644L.768,2.931,0,1.29,2.766,0Z" transform="translate(211.667 60.202)" fill="#3d3c3b" fill-rule="evenodd"/>
        <path id="Path_3402" data-name="Path 3402" d="M2.783,0l.74,1.653L.755,2.909,0,1.261,2.783,0Z" transform="translate(216.634 57.928)" fill="#3d3c3b" fill-rule="evenodd"/>
        <path id="Path_3403" data-name="Path 3403" d="M2.8,0l.715,1.665c-.931.4-1.858.8-2.787,1.211L0,1.219Q1.4.6,2.8,0Z" transform="translate(221.616 55.731)" fill="#3d3c3b" fill-rule="evenodd"/>
        <path id="Path_3404" data-name="Path 3404" d="M2.754,0l.779,1.636L.774,2.945,0,1.307,2.754,0Z" transform="translate(196.819 67.232)" fill="#3d3c3b" fill-rule="evenodd"/>
        <path id="Path_3405" data-name="Path 3405" d="M2.754,0l.779,1.636L.779,2.947,0,1.312,2.754,0Z" transform="translate(201.758 64.879)" fill="#3d3c3b" fill-rule="evenodd"/>
        <path id="Path_3406" data-name="Path 3406" d="M2.758,0l.774,1.639L.777,2.944,0,1.306,2.758,0Z" transform="translate(206.683 62.54)" fill="#3d3c3b" fill-rule="evenodd"/>
        <path id="Path_3407" data-name="Path 3407" d="M2.784,0l.742,1.654-2.8,1.24L0,1.234,2.784,0Z" transform="translate(181.903 74.151)" fill="#3d3c3b" fill-rule="evenodd"/>
        <path id="Path_3408" data-name="Path 3408" d="M2.77,0l.76,1.646L.75,2.917,0,1.267,2.77,0Z" transform="translate(186.89 71.89)" fill="#3d3c3b" fill-rule="evenodd"/>
        <path id="Path_3409" data-name="Path 3409" d="M2.76,0l.77,1.64L.766,2.935,0,1.293,2.76,0Z" transform="translate(191.837 69.587)" fill="#3d3c3b" fill-rule="evenodd"/>
        <path id="Path_3410" data-name="Path 3410" d="M2.846,0,3.5,1.692c-.951.371-1.913.722-2.87,1.082L0,1.074C.951.716,1.9.369,2.846,0Z" transform="translate(166.718 80.482)" fill="#3d3c3b" fill-rule="evenodd"/>
        <path id="Path_3411" data-name="Path 3411" d="M2.824,0l.686,1.677Q2.094,2.258.667,2.821L0,1.136Q1.42.579,2.824,0Z" transform="translate(171.812 78.47)" fill="#3d3c3b" fill-rule="evenodd"/>
        <path id="Path_3412" data-name="Path 3412" d="M2.8,0,3.52,1.665c-.94.4-1.876.8-2.818,1.2L0,1.189C.936.8,1.87.4,2.8,0Z" transform="translate(176.85 76.365)" fill="#3d3c3b" fill-rule="evenodd"/>
        <path id="Path_3413" data-name="Path 3413" d="M2.93,0l.5,1.743c-.989.274-1.973.556-2.966.81L0,.8C.981.549,1.953.27,2.93,0Z" transform="translate(151.124 85.712)" fill="#3d3c3b" fill-rule="evenodd"/>
        <path id="Path_3414" data-name="Path 3414" d="M2.9,0l.555,1.725c-.972.318-1.953.615-2.932.916L0,.906C.968.609,1.938.316,2.9,0Z" transform="translate(156.366 84.127)" fill="#3d3c3b" fill-rule="evenodd"/>
        <path id="Path_3415" data-name="Path 3415" d="M2.874,0l.6,1.708c-.965.336-1.929.68-2.9,1L0,.992C.962.674,1.917.334,2.874,0Z" transform="translate(161.54 82.387)" fill="#3d3c3b" fill-rule="evenodd"/>
        <path id="Path_3416" data-name="Path 3416" d="M3,0l.271,1.791-1.525.223c-.508.071-1.02.13-1.53.2L0,.411C.5.346,1,.289,1.5.219L3,0Z" transform="translate(135.096 89.233)" fill="#3d3c3b" fill-rule="evenodd"/>
        <path id="Path_3417" data-name="Path 3417" d="M2.981,0l.355,1.776c-.5.108-1.007.195-1.513.291S.817,2.261.309,2.342L0,.556C.5.477,1,.375,1.493.285s1-.18,1.488-.285Z" transform="translate(140.473 88.291)" fill="#3d3c3b" fill-rule="evenodd"/>
        <path id="Path_3418" data-name="Path 3418" d="M2.955,0l.431,1.76-1.495.36-1.5.336L0,.686,1.48.355,2.955,0Z" transform="translate(145.795 87.113)" fill="#3d3c3b" fill-rule="evenodd"/>
        <path id="Path_3419" data-name="Path 3419" d="M3.115.091,3.089,1.9C2.059,1.9,1.028,1.847,0,1.811L.088,0C1.1.035,2.1.089,3.115.091Z" transform="translate(118.718 90.295)" fill="#3d3c3b" fill-rule="evenodd"/>
        <path id="Path_3420" data-name="Path 3420" d="M3.029,0l.079,1.811c-1.028.035-2.056.082-3.085.083L0,.082C1.011.081,2.02.036,3.029,0Z" transform="translate(124.234 90.307)" fill="#3d3c3b" fill-rule="evenodd"/>
        <path id="Path_3421" data-name="Path 3421" d="M3.018,0,3.2,1.8c-.512.056-1.024.1-1.536.14L.125,2.066,0,.258,1.51.138C2.013.1,2.519.056,3.018,0Z" transform="translate(129.646 89.916)" fill="#3d3c3b" fill-rule="evenodd"/>
        <path id="Path_3422" data-name="Path 3422" d="M3.386.665,3.018,2.439c-.506-.1-1.006-.213-1.51-.33L0,1.76.435,0,1.908.342c.49.114.983.229,1.478.323Z" transform="translate(102.257 87.96)" fill="#3d3c3b" fill-rule="evenodd"/>
        <path id="Path_3423" data-name="Path 3423" d="M3.307.476,3.053,2.27l-1.53-.223L0,1.784.318,0,1.81.257l1.5.219Z" transform="translate(107.685 89.079)" fill="#3d3c3b" fill-rule="evenodd"/>
        <path id="Path_3424" data-name="Path 3424" d="M3.214.291,3.076,2.1,1.537,1.96.766,1.89,0,1.8.2,0,.953.088l.753.068L3.214.291Z" transform="translate(113.155 89.855)" fill="#3d3c3b" fill-rule="evenodd"/>
        <path id="Path_3425" data-name="Path 3425" d="M3.53,1.212l-.7,1.672C1.876,2.5.94,2.07,0,1.646L.755,0C1.676.414,2.595.835,3.53,1.212Z" transform="translate(86.566 82.575)" fill="#3d3c3b" fill-rule="evenodd"/>
        <path id="Path_3426" data-name="Path 3426" d="M3.5,1.043,2.9,2.755,1.443,2.242,0,1.69.654,0,2.067.54l1.429.5Z" transform="translate(91.671 84.684)" fill="#3d3c3b" fill-rule="evenodd"/>
        <path id="Path_3427" data-name="Path 3427" d="M3.446.865,2.964,2.611,1.478,2.181l-.74-.217L0,1.727.546,0l.721.231.725.213L3.446.865Z" transform="translate(96.884 86.477)" fill="#3d3c3b" fill-rule="evenodd"/>
        <path id="Path_3428" data-name="Path 3428" d="M3.552,1.658,2.579,3.189c-.439-.269-.865-.552-1.293-.836L0,1.5,1.013,0,2.276.836c.422.279.843.559,1.276.822Z" transform="translate(72.107 74.559)" fill="#3d3c3b" fill-rule="evenodd"/>
        <path id="Path_3429" data-name="Path 3429" d="M3.556,1.521,2.669,3.1c-.454-.244-.9-.507-1.34-.768L0,1.552.935,0,2.241.768c.437.256.869.514,1.315.753Z" transform="translate(76.766 77.485)" fill="#3d3c3b" fill-rule="evenodd"/>
        <path id="Path_3430" data-name="Path 3430" d="M3.547,1.374,2.749,3l-.693-.336L1.37,2.311,0,1.6.847,0,2.195.7l.671.349.682.329Z" transform="translate(81.567 80.153)" fill="#3d3c3b" fill-rule="evenodd"/>
        <path id="Path_3431" data-name="Path 3431" d="M3.5,1.987,2.326,3.369C1.544,2.705.76,2.045,0,1.356L1.2,0C1.949.68,2.726,1.33,3.5,1.987Z" transform="translate(59.031 64.522)" fill="#3d3c3b" fill-rule="evenodd"/>
        <path id="Path_3432" data-name="Path 3432" d="M3.519,1.89,2.409,3.321C2.005,3,1.592,2.7,1.193,2.374L0,1.4,1.147,0,2.323.956c.392.322.8.623,1.2.934Z" transform="translate(63.233 68.049)" fill="#3d3c3b" fill-rule="evenodd"/>
        <path id="Path_3433" data-name="Path 3433" d="M3.539,1.781,2.493,3.262l-.632-.44-.622-.456L0,1.453,1.084,0,2.3.9l.613.449.622.434Z" transform="translate(67.569 71.387)" fill="#3d3c3b" fill-rule="evenodd"/>
        <path id="Path_3434" data-name="Path 3434" d="M3.407,2.22,2.095,3.468C1.394,2.724.68,1.988,0,1.225L1.334,0c.676.755,1.381,1.483,2.074,2.22Z" transform="translate(47.254 53.033)" fill="#3d3c3b" fill-rule="evenodd"/>
        <path id="Path_3435" data-name="Path 3435" d="M3.437,2.154,2.166,3.445c-.37-.354-.729-.718-1.088-1.083L0,1.267,1.295,0,2.362,1.082c.355.362.71.722,1.075,1.072Z" transform="translate(51.04 56.99)" fill="#3d3c3b" fill-rule="evenodd"/>
        <path id="Path_3436" data-name="Path 3436" d="M3.468,2.073,2.244,3.409C1.5,2.71.742,2.016,0,1.311L1.25,0c.736.7,1.48,1.382,2.218,2.073Z" transform="translate(54.942 60.812)" fill="#3d3c3b" fill-rule="evenodd"/>
        <path id="Path_3437" data-name="Path 3437" d="M3.311,2.39,1.9,3.523C1.256,2.725.632,1.916,0,1.113L1.43,0c.626.8,1.248,1.6,1.88,2.39Z" transform="translate(36.605 40.512)" fill="#3d3c3b" fill-rule="evenodd"/>
        <path id="Path_3438" data-name="Path 3438" d="M3.345,2.337,1.962,3.506C1.3,2.723.639,1.947,0,1.149L1.4,0c.633.792,1.291,1.561,1.943,2.337Z" transform="translate(40.036 44.775)" fill="#3d3c3b" fill-rule="evenodd"/>
        <path id="Path_3439" data-name="Path 3439" d="M3.375,2.285,2.022,3.493,0,1.185,1.373,0l2,2.285Z" transform="translate(43.564 48.935)" fill="#3d3c3b" fill-rule="evenodd"/>
        <path id="Path_3440" data-name="Path 3440" d="M3.218,2.511,1.73,3.545,0,1.017,1.5,0,3.218,2.511Z" transform="translate(26.909 27.251)" fill="#3d3c3b" fill-rule="evenodd"/>
        <path id="Path_3441" data-name="Path 3441" d="M3.25,2.472,1.785,3.538c-.3-.413-.606-.823-.9-1.239L0,1.048,1.478,0l.878,1.242c.292.414.6.819.895,1.23Z" transform="translate(30.044 31.733)" fill="#3d3c3b" fill-rule="evenodd"/>
        <path id="Path_3442" data-name="Path 3442" d="M3.287,2.43l-1.443,1.1C1.231,2.712.607,1.9,0,1.079L1.456,0c.6.817,1.22,1.619,1.831,2.43Z" transform="translate(33.254 36.139)" fill="#3d3c3b" fill-rule="evenodd"/>
        <path id="Path_3443" data-name="Path 3443" d="M5.167,10.995,0,3.268,1.869,0S5.785,1.182,5.845,1.538s-.3,4.919-.364,5.717-.314,3.74-.314,3.74Z" transform="translate(20.286 27.961)" fill="#aa2e5b"/>
        <path id="Path_3444" data-name="Path 3444" d="M.27.139A.688.688,0,0,1,1.018.086L40.557,22.133a.684.684,0,0,1-.144,1.256l-8.084,2.315a2.059,2.059,0,0,0-1.364,1.269l-4.32,11.8a.684.684,0,0,1-.647.449.7.7,0,0,1-.641-.456l-2.743-7.737a.682.682,0,0,0-1.065-.311l-11.1,8.659a.688.688,0,0,1-.527.136L9.8,39.49a.689.689,0,0,1-.441-.484L.02.847A.683.683,0,0,1,.27.139Z" transform="translate(0 0)" fill="#ff496a"/>
        <path id="Path_3445" data-name="Path 3445" d="M.323,0,31.358,26.064a2.054,2.054,0,0,0-.669.9l-4.32,11.8a.684.684,0,0,1-.647.45.694.694,0,0,1-.641-.456l-2.743-7.737-.09-.14v-.03L0,.126A.675.675,0,0,1,.323,0Z" transform="translate(0.276 0.01)" fill="#cb3d66"/>
      </g>
      <g id="Group_1674" data-name="Group 1674" transform="translate(0 31.208)">
        <g id="Group_1673" data-name="Group 1673" transform="translate(114.727 8)">
          <g id="Group_1670-2" data-name="Group 1670" transform="translate(306.277 104.613)">
            <path id="Path_3446" data-name="Path 3446" d="M1715.166,940.532a1.487,1.487,0,0,1-1.484-1.487V928.562a1.485,1.485,0,0,1,2.971,0v10.484a1.49,1.49,0,0,1-1.487,1.487Z" transform="translate(-1708.439 -927.077)" fill="#f4a0bd"/>
            <path id="Path_3447" data-name="Path 3447" d="M1711.314,944.382h-10.487a1.486,1.486,0,1,1,0-2.971h10.487a1.486,1.486,0,0,1,0,2.971Z" transform="translate(-1699.341 -936.17)" fill="#f4a0bd"/>
          </g>
          <g id="Group_1671" data-name="Group 1671" transform="translate(718.815 167.464)">
            <path id="Path_3448" data-name="Path 3448" d="M2843.467,1112.431a1.487,1.487,0,0,1-1.485-1.487V1100.46a1.486,1.486,0,0,1,2.971,0v10.484a1.489,1.489,0,0,1-1.487,1.487Z" transform="translate(-2836.739 -1098.976)" fill="#fcfcfc"/>
            <path id="Path_3449" data-name="Path 3449" d="M2839.615,1116.281h-10.487a1.485,1.485,0,1,1,0-2.971h10.487a1.485,1.485,0,0,1,0,2.971Z" transform="translate(-2827.643 -1108.069)" fill="#fcfcfc"/>
          </g>
          <g id="Group_1672" data-name="Group 1672">
            <path id="Path_3450" data-name="Path 3450" d="M875.76,654.992a2.075,2.075,0,0,1-2.931-.04l-10.209-10.475a2.073,2.073,0,0,1,2.969-2.893L875.8,652.059a2.078,2.078,0,0,1-.037,2.933Z" transform="translate(-861.898 -640.959)" fill="#ff637d"/>
            <path id="Path_3451" data-name="Path 3451" d="M875.662,644.871l-10.477,10.211a2.072,2.072,0,1,1-2.893-2.968L872.769,641.9a2.072,2.072,0,0,1,2.893,2.969Z" transform="translate(-861.665 -641.184)" fill="#ff637d"/>
          </g>
        </g>
        <path id="Path_3452" data-name="Path 3452" d="M272.984,1638.52l-.913-1.565.647-.374c.216-.124.433-.247.64-.387l1.256-.812.991,1.517-1.3.836c-.213.144-.437.271-.659.4l-.667.386Z" transform="translate(-257.915 -1271.794)" fill="#3d3c3b" fill-rule="evenodd"/>
        <path id="Path_3453" data-name="Path 3453" d="M308.217,1610.375l-1.268-1.3.542-.519.52-.542,1.04-1.085,1.316,1.246-1.064,1.109-.532.555-.554.533Z" transform="translate(-280.041 -1253.747)" fill="#3d3c3b" fill-rule="evenodd"/>
        <path id="Path_3454" data-name="Path 3454" d="M297.233,1620.667l-1.168-1.386c.751-.661,1.515-1.306,2.256-1.978l1.225,1.335c-.759.69-1.543,1.352-2.313,2.029Z" transform="translate(-273.137 -1260.324)" fill="#3d3c3b" fill-rule="evenodd"/>
        <path id="Path_3455" data-name="Path 3455" d="M285.527,1630.034l-1.049-1.478,1.216-.873c.206-.141.4-.3.6-.453l.587-.465,1.117,1.427-.6.478c-.2.159-.4.321-.612.467l-1.252.9Z" transform="translate(-265.786 -1266.328)" fill="#3d3c3b" fill-rule="evenodd"/>
        <path id="Path_3456" data-name="Path 3456" d="M336.923,1575.623l-1.493-1.028c.283-.408.568-.815.828-1.238s.54-.834.792-1.261l1.552.935c-.262.444-.548.872-.822,1.308s-.564.86-.857,1.284Z" transform="translate(-298.109 -1231.646)" fill="#3d3c3b" fill-rule="evenodd"/>
        <path id="Path_3457" data-name="Path 3457" d="M328.062,1587.733l-1.423-1.123c.323-.383.618-.789.918-1.193l.9-1.208,1.457,1.077-.918,1.23c-.305.41-.608.823-.937,1.217Z" transform="translate(-292.532 -1239.332)" fill="#3d3c3b" fill-rule="evenodd"/>
        <path id="Path_3458" data-name="Path 3458" d="M318.531,1599.3l-1.353-1.206.994-1.129.5-.565.475-.584,1.394,1.158-.484.6-.507.576-1.016,1.154Z" transform="translate(-286.53 -1246.695)" fill="#3d3c3b" fill-rule="evenodd"/>
        <path id="Path_3459" data-name="Path 3459" d="M355.454,1534.778l-1.754-.455.188-.719.16-.725c.105-.484.221-.965.3-1.455l1.781.338c-.085.509-.2,1.01-.314,1.513l-.168.754-.195.748Z" transform="translate(-309.699 -1205.846)" fill="#3d3c3b" fill-rule="evenodd"/>
        <path id="Path_3460" data-name="Path 3460" d="M350.889,1549.015l-1.686-.663c.178-.463.367-.92.52-1.391s.335-.932.476-1.407l1.727.548c-.147.495-.331.976-.495,1.465s-.356.967-.543,1.448Z" transform="translate(-306.846 -1214.809)" fill="#3d3c3b" fill-rule="evenodd"/>
        <path id="Path_3461" data-name="Path 3461" d="M344.693,1562.623l-1.6-.857c.479-.868.9-1.765,1.325-2.662l1.649.751c-.438.932-.88,1.865-1.376,2.768Z" transform="translate(-302.972 -1223.405)" fill="#3d3c3b" fill-rule="evenodd"/>
        <path id="Path_3462" data-name="Path 3462" d="M358.735,1490.137l-1.808.122-.123-1.493c-.038-.5-.1-.994-.156-1.489l1.8-.208c.052.511.12,1.019.161,1.532l.125,1.535Z" transform="translate(-311.569 -1177.708)" fill="#3d3c3b" fill-rule="evenodd"/>
        <path id="Path_3463" data-name="Path 3463" d="M359.517,1505.226l-1.812-.05c.02-.995.031-1.989,0-2.986l1.811-.049c.035,1.027.025,2.056,0,3.084Z" transform="translate(-312.237 -1187.27)" fill="#3d3c3b" fill-rule="evenodd"/>
        <path id="Path_3464" data-name="Path 3464" d="M358.328,1520.059l-1.8-.245c.079-.49.12-.985.177-1.478.025-.247.056-.492.077-.741l.055-.743,1.807.135-.057.77c-.022.256-.054.512-.08.768-.058.511-.1,1.024-.183,1.534Z" transform="translate(-311.496 -1196.601)" fill="#3d3c3b" fill-rule="evenodd"/>
        <path id="Path_3465" data-name="Path 3465" d="M349.75,1445.863l-1.745.489c-.277-.967-.551-1.935-.856-2.9l1.732-.535c.308.975.587,1.958.869,2.941Z" transform="translate(-305.543 -1149.702)" fill="#3d3c3b" fill-rule="evenodd"/>
        <path id="Path_3466" data-name="Path 3466" d="M353.65,1460.387l-1.77.391c-.226-.978-.448-1.957-.7-2.929l1.755-.448c.259.99.486,1.989.716,2.986Z" transform="translate(-308.099 -1158.887)" fill="#3d3c3b" fill-rule="evenodd"/>
        <path id="Path_3467" data-name="Path 3467" d="M356.694,1475.087l-1.792.269-.24-1.482c-.08-.493-.18-.984-.27-1.478l1.781-.34c.091.5.193,1.006.275,1.512l.246,1.519Z" transform="translate(-310.138 -1168.184)" fill="#3d3c3b" fill-rule="evenodd"/>
        <path id="Path_3468" data-name="Path 3468" d="M334.51,1403.456l-1.681.68c-.381-.937-.763-1.872-1.158-2.8l1.671-.7c.4.939.782,1.883,1.167,2.827Z" transform="translate(-295.724 -1122.873)" fill="#3d3c3b" fill-rule="evenodd"/>
        <path id="Path_3469" data-name="Path 3469" d="M340.05,1417.392l-1.7.63c-.347-.948-.714-1.889-1.077-2.832l1.688-.658c.367.952.737,1.9,1.089,2.861Z" transform="translate(-299.278 -1131.692)" fill="#3d3c3b" fill-rule="evenodd"/>
        <path id="Path_3470" data-name="Path 3470" d="M345.145,1431.454l-1.721.57c-.154-.481-.319-.956-.483-1.434s-.323-.955-.5-1.429l1.708-.6c.175.48.336.965.5,1.446s.333.965.489,1.452Z" transform="translate(-302.559 -1140.589)" fill="#3d3c3b" fill-rule="evenodd"/>
        <path id="Path_3471" data-name="Path 3471" d="M316.23,1362.343l-1.643.764-1.292-2.758,1.639-.771,1.3,2.764Z" transform="translate(-284.067 -1096.832)" fill="#3d3c3b" fill-rule="evenodd"/>
        <path id="Path_3472" data-name="Path 3472" d="M322.513,1375.934l-1.651.743-1.261-2.766,1.646-.758,1.266,2.781Z" transform="translate(-288.067 -1105.442)" fill="#3d3c3b" fill-rule="evenodd"/>
        <path id="Path_3473" data-name="Path 3473" d="M328.6,1389.568l-1.664.717c-.4-.929-.808-1.857-1.216-2.784l1.657-.732q.618,1.4,1.224,2.8Z" transform="translate(-291.951 -1114.08)" fill="#3d3c3b" fill-rule="evenodd"/>
        <path id="Path_3474" data-name="Path 3474" d="M296.908,1321.756l-1.634.782-1.314-2.755,1.636-.778,1.312,2.751Z" transform="translate(-271.801 -1071.093)" fill="#3d3c3b" fill-rule="evenodd"/>
        <path id="Path_3475" data-name="Path 3475" d="M303.362,1335.253l-1.634.782-1.317-2.752,1.634-.782,1.317,2.751Z" transform="translate(-275.893 -1079.655)" fill="#3d3c3b" fill-rule="evenodd"/>
        <path id="Path_3476" data-name="Path 3476" d="M309.79,1348.714l-1.637.778-1.31-2.753,1.636-.78,1.311,2.755Z" transform="translate(-279.974 -1088.191)" fill="#3d3c3b" fill-rule="evenodd"/>
        <path id="Path_3477" data-name="Path 3477" d="M278,1281.024l-1.652.745-1.245-2.794,1.658-.732,1.239,2.781Z" transform="translate(-259.837 -1045.234)" fill="#3d3c3b" fill-rule="evenodd"/>
        <path id="Path_3478" data-name="Path 3478" d="M284.167,1294.638l-1.645.762-1.276-2.777,1.649-.754,1.272,2.769Z" transform="translate(-263.736 -1053.879)" fill="#3d3c3b" fill-rule="evenodd"/>
        <path id="Path_3479" data-name="Path 3479" d="M290.457,1308.148l-1.638.773-1.3-2.762,1.641-.769,1.3,2.758Z" transform="translate(-267.715 -1062.456)" fill="#3d3c3b" fill-rule="evenodd"/>
        <path id="Path_3480" data-name="Path 3480" d="M260.816,1239.585l-1.691.652c-.373-.95-.725-1.911-1.087-2.868l1.7-.629c.359.95.708,1.9,1.078,2.844Z" transform="translate(-249.013 -1018.907)" fill="#3d3c3b" fill-rule="evenodd"/>
        <path id="Path_3481" data-name="Path 3481" d="M266.263,1253.487l-1.676.689q-.584-1.415-1.148-2.842l1.684-.67q.56,1.419,1.141,2.822Z" transform="translate(-252.439 -1027.739)" fill="#3d3c3b" fill-rule="evenodd"/>
        <path id="Path_3482" data-name="Path 3482" d="M271.977,1267.234l-1.664.719c-.4-.939-.807-1.874-1.2-2.816l1.67-.7c.392.935.795,1.867,1.194,2.8Z" transform="translate(-256.039 -1036.474)" fill="#3d3c3b" fill-rule="evenodd"/>
        <path id="Path_3483" data-name="Path 3483" d="M246.819,1197.044l-1.742.5c-.275-.989-.559-1.971-.815-2.965l1.752-.464c.253.981.533,1.952.805,2.929Z" transform="translate(-240.274 -991.866)" fill="#3d3c3b" fill-rule="evenodd"/>
        <path id="Path_3484" data-name="Path 3484" d="M251.027,1211.344l-1.724.558c-.321-.972-.619-1.952-.922-2.93l1.734-.526c.3.968.594,1.937.911,2.9Z" transform="translate(-242.887 -1000.957)" fill="#3d3c3b" fill-rule="evenodd"/>
        <path id="Path_3485" data-name="Path 3485" d="M255.694,1225.46l-1.707.608c-.337-.965-.683-1.928-1.005-2.9l1.716-.582c.32.961.661,1.916,1,2.872Z" transform="translate(-245.805 -1009.928)" fill="#3d3c3b" fill-rule="evenodd"/>
        <path id="Path_3486" data-name="Path 3486" d="M237.7,1153.3l-1.791.274-.226-1.525c-.072-.508-.132-1.02-.2-1.529l1.8-.223c.066.5.124,1,.195,1.5l.222,1.5Z" transform="translate(-234.708 -964.066)" fill="#3d3c3b" fill-rule="evenodd"/>
        <path id="Path_3487" data-name="Path 3487" d="M240.077,1167.978l-1.775.358c-.109-.5-.2-1.007-.293-1.512s-.2-1.006-.278-1.514l1.785-.313c.08.5.183,1,.273,1.493s.182,1,.288,1.488Z" transform="translate(-236.13 -973.394)" fill="#3d3c3b" fill-rule="evenodd"/>
        <path id="Path_3488" data-name="Path 3488" d="M243.128,1182.5l-1.759.433-.363-1.495-.339-1.5,1.769-.391.333,1.479.358,1.475Z" transform="translate(-237.994 -982.625)" fill="#3d3c3b" fill-rule="evenodd"/>
        <path id="Path_3489" data-name="Path 3489" d="M235.167,1108.626l-1.812-.022c0-1.03.053-2.061.087-3.089l1.811.084c-.033,1.009-.086,2.016-.086,3.027Z" transform="translate(-233.355 -935.66)" fill="#3d3c3b" fill-rule="evenodd"/>
        <path id="Path_3490" data-name="Path 3490" d="M235.26,1123.619l-1.81.083c-.037-1.028-.085-2.056-.089-3.085l1.812-.027c0,1.011.05,2.02.087,3.029Z" transform="translate(-233.359 -945.224)" fill="#3d3c3b" fill-rule="evenodd"/>
        <path id="Path_3491" data-name="Path 3491" d="M236.059,1138.411l-1.8.183c-.057-.511-.1-1.023-.143-1.535l-.125-1.538,1.808-.128.122,1.51c.039.5.084,1.008.141,1.508Z" transform="translate(-233.757 -954.614)" fill="#3d3c3b" fill-rule="evenodd"/>
        <path id="Path_3492" data-name="Path 3492" d="M239.97,1063.864l-1.774-.365c.1-.506.211-1.007.327-1.511l.347-1.508,1.76.431-.34,1.474c-.113.491-.227.984-.32,1.479Z" transform="translate(-236.426 -907.092)" fill="#3d3c3b" fill-rule="evenodd"/>
        <path id="Path_3493" data-name="Path 3493" d="M237.419,1078.634l-1.795-.251.22-1.53.26-1.524,1.785.315-.254,1.491-.216,1.5Z" transform="translate(-234.795 -916.512)" fill="#3d3c3b" fill-rule="evenodd"/>
        <path id="Path_3494" data-name="Path 3494" d="M235.808,1093.508l-1.806-.135.135-1.54.068-.77.088-.766,1.8.2-.086.753-.066.753-.133,1.508Z" transform="translate(-233.765 -926.006)" fill="#3d3c3b" fill-rule="evenodd"/>
        <path id="Path_3495" data-name="Path 3495" d="M253.3,1021.068l-1.673-.7c.384-.956.811-1.892,1.233-2.833l1.648.752c-.412.921-.833,1.841-1.208,2.777Z" transform="translate(-244.947 -879.851)" fill="#3d3c3b" fill-rule="evenodd"/>
        <path id="Path_3496" data-name="Path 3496" d="M247.951,1035.005l-1.713-.591.511-1.459.548-1.445,1.692.651-.538,1.414-.5,1.429Z" transform="translate(-241.528 -888.714)" fill="#3d3c3b" fill-rule="evenodd"/>
        <path id="Path_3497" data-name="Path 3497" d="M243.5,1049.221l-1.747-.479.428-1.487.215-.74.235-.738,1.728.543-.229.721-.211.725-.419,1.455Z" transform="translate(-238.683 -897.764)" fill="#3d3c3b" fill-rule="evenodd"/>
        <path id="Path_3498" data-name="Path 3498" d="M274.178,981.5l-1.533-.97c.268-.44.551-.865.834-1.294l.848-1.288,1.5,1.01L275,980.224c-.279.422-.558.844-.82,1.277Z" transform="translate(-258.279 -854.736)" fill="#3d3c3b" fill-rule="evenodd"/>
        <path id="Path_3499" data-name="Path 3499" d="M266.487,994.264l-1.581-.883c.243-.454.505-.9.766-1.341l.778-1.331,1.554.933-.766,1.307c-.256.437-.513.87-.751,1.316Z" transform="translate(-253.37 -862.83)" fill="#3d3c3b" fill-rule="evenodd"/>
        <path id="Path_3500" data-name="Path 3500" d="M259.537,1007.4l-1.628-.8.335-.693.353-.687.707-1.372,1.6.845-.694,1.348-.348.672-.328.683Z" transform="translate(-248.931 -871.169)" fill="#3d3c3b" fill-rule="evenodd"/>
        <path id="Path_3501" data-name="Path 3501" d="M300.922,945.636l-1.385-1.168c.663-.782,1.321-1.569,2.009-2.329l1.358,1.2c-.679.749-1.328,1.527-1.983,2.3Z" transform="translate(-275.339 -832.019)" fill="#3d3c3b" fill-rule="evenodd"/>
        <path id="Path_3502" data-name="Path 3502" d="M291.479,957.168l-1.433-1.108c.316-.4.621-.819.945-1.217l.968-1.2,1.406,1.144-.954,1.178c-.321.392-.621.8-.932,1.2Z" transform="translate(-269.318 -839.32)" fill="#3d3c3b" fill-rule="evenodd"/>
        <path id="Path_3503" data-name="Path 3503" d="M282.58,969.065l-1.482-1.043.439-.633.455-.622.91-1.241,1.455,1.081-.9,1.221-.448.614-.433.622Z" transform="translate(-263.642 -846.855)" fill="#3d3c3b" fill-rule="evenodd"/>
        <path id="Path_3504" data-name="Path 3504" d="M331.88,913.279l-1.25-1.31c.744-.7,1.478-1.418,2.239-2.1L334.1,911.2c-.754.677-1.48,1.384-2.216,2.078Z" transform="translate(-295.064 -811.549)" fill="#3d3c3b" fill-rule="evenodd"/>
        <path id="Path_3505" data-name="Path 3505" d="M321.185,923.683l-1.293-1.269c.353-.371.716-.73,1.081-1.091l1.092-1.08,1.27,1.293-1.08,1.069c-.361.356-.72.711-1.069,1.078Z" transform="translate(-288.252 -818.13)" fill="#3d3c3b" fill-rule="evenodd"/>
        <path id="Path_3506" data-name="Path 3506" d="M310.893,934.405l-1.337-1.222c.7-.748,1.39-1.5,2.094-2.247l1.313,1.248c-.7.737-1.379,1.482-2.07,2.221Z" transform="translate(-281.695 -824.913)" fill="#3d3c3b" fill-rule="evenodd"/>
        <path id="Path_3507" data-name="Path 3507" d="M365.809,884l-1.136-1.413c.8-.641,1.605-1.266,2.406-1.9l1.117,1.428c-.8.627-1.6,1.251-2.387,1.884Z" transform="translate(-316.66 -793.034)" fill="#3d3c3b" fill-rule="evenodd"/>
        <path id="Path_3508" data-name="Path 3508" d="M354.249,893.436l-1.172-1.381c.782-.66,1.557-1.326,2.354-1.966l1.151,1.4c-.791.634-1.559,1.294-2.333,1.947Z" transform="translate(-309.303 -799)" fill="#3d3c3b" fill-rule="evenodd"/>
        <path id="Path_3509" data-name="Path 3509" d="M342.962,903.136l-1.21-1.351,2.3-2.026,1.188,1.37-2.282,2.007Z" transform="translate(-302.119 -805.134)" fill="#3d3c3b" fill-rule="evenodd"/>
        <path id="Path_3510" data-name="Path 3510" d="M401.87,857.322l-1.037-1.487,2.525-1.734,1.02,1.5-2.508,1.723Z" transform="translate(-339.598 -776.17)" fill="#3d3c3b" fill-rule="evenodd"/>
        <path id="Path_3511" data-name="Path 3511" d="M389.678,865.948l-1.068-1.463c.413-.3.822-.608,1.237-.9l1.249-.886,1.051,1.476-1.24.88c-.414.293-.819.6-1.228.9Z" transform="translate(-331.845 -781.622)" fill="#3d3c3b" fill-rule="evenodd"/>
        <path id="Path_3512" data-name="Path 3512" d="M377.7,874.785l-1.1-1.441c.815-.615,1.624-1.24,2.445-1.848l1.081,1.454c-.815.6-1.617,1.223-2.426,1.835Z" transform="translate(-324.228 -787.205)" fill="#3d3c3b" fill-rule="evenodd"/>
        <path id="Path_3513" data-name="Path 3513" d="M416.222,851.994l7.679-5.238-.513-3.729s-4.073-.366-4.262-.058-1.56,4.674-1.8,5.439l-1.105,3.586Z" transform="translate(-349.361 -769.03)" fill="#25124c"/>
        <path id="Path_3514" data-name="Path 3514" d="M439.635,794.533a.69.69,0,0,0-.675-.329l-44.912,5.684a.684.684,0,0,0-.336,1.219l6.634,5.167a2.059,2.059,0,0,1,.791,1.686l-.4,12.564a.685.685,0,0,0,.433.659.7.7,0,0,0,.765-.184l5.434-6.153a.67.67,0,0,1,.579-.229.68.68,0,0,1,.525.338l7.066,12.18a.69.69,0,0,0,.438.324l.121.017a.687.687,0,0,0,.589-.284L439.6,795.282a.685.685,0,0,0,.033-.75Z" transform="translate(-334.913 -738.17)" fill="#43299d"/>
        <path id="Path_3515" data-name="Path 3515" d="M452.021,794.448,413.5,807.034a2.059,2.059,0,0,1,.284,1.084l-.4,12.564a.685.685,0,0,0,.433.659.7.7,0,0,0,.765-.184L420.011,815l.136-.1.011-.028,32.115-20.195a.673.673,0,0,0-.252-.238Z" transform="translate(-347.557 -738.328)" fill="#31185e"/>
      </g>
      <g id="Group_1675" data-name="Group 1675" transform="translate(448.475 5.716)">
        <path id="Path_3516" data-name="Path 3516" d="M1475.769,584.693a1.487,1.487,0,0,1-1.485-1.487V572.722a1.486,1.486,0,0,1,2.971,0v10.484a1.489,1.489,0,0,1-1.487,1.487Z" transform="translate(-1469.041 -571.238)" fill="#31185e"/>
        <path id="Path_3517" data-name="Path 3517" d="M1471.917,588.543h-10.486a1.485,1.485,0,1,1,0-2.971h10.486a1.485,1.485,0,0,1,0,2.971Z" transform="translate(-1459.944 -580.331)" fill="#31185e"/>
      </g>
    </g>
    <g id="Group_1683" data-name="Group 1683" transform="translate(902.849 434.157)">
      <path id="Path_3549" data-name="Path 3549" d="M2119.751,1687.608l-1.57-20.63-11.072,1.458,2.577,21.669,10.591-1.879-.526-.618Z" transform="translate(-2091.508 -1383.563)" fill="#f8bd8c"/>
      <path id="Path_3550" data-name="Path 3550" d="M2220.988,1692.355l-1.571-20.63-11.071,1.458,2.575,21.668,10.591-1.879-.526-.618Z" transform="translate(-2155.73 -1386.575)" fill="#f8bd8c"/>
      <path id="Path_3551" data-name="Path 3551" d="M2203.542,1732.526l2.2-8.274a1.905,1.905,0,0,1,2.346-1.591c2.516.883,7.235,1.823,10.382-1.912a1.615,1.615,0,0,1,2.2-.347l18.8,12.657a2.571,2.571,0,0,1,1.01,2.2h0a2.218,2.218,0,0,1-1.98,2.385l-33.211-.8a2.234,2.234,0,0,1-1.877-2.482l.025-1.126A3.049,3.049,0,0,1,2203.542,1732.526Z" transform="translate(-2152.602 -1417.27)" fill="#0b0635"/>
      <path id="Path_3552" data-name="Path 3552" d="M2204.319,1119.719l9.668,38.286a9.507,9.507,0,0,0,9.556,7.1h0a8.947,8.947,0,0,0,8.648-10.236l-7.344-38.787-20.528,3.641Z" transform="translate(-2153.175 -1034.087)" fill="#f8bd8c"/>
      <path id="Path_3553" data-name="Path 3553" d="M2197.591,1079.641l6.208,18.047,26.52-9.624-9.978-17.965c-2.52-4.814-7.619-7.135-14.123-6.952l.9.519a12.379,12.379,0,0,0-9.524,15.976Z" transform="translate(-2148.523 -1000.503)" fill="#0b0635"/>
      <path id="Path_3554" data-name="Path 3554" d="M2234.379,1163.88c15.825-9.7,37.954-20.75,37.954-20.75l8.28,7.811-34.418,29.211a10.086,10.086,0,0,1-15.389-2.828h0a10.081,10.081,0,0,1,3.572-13.443Z" transform="translate(-2169.189 -1051.248)" fill="#f8bd8c"/>
      <path id="Path_3555" data-name="Path 3555" d="M2211.842,975.995a4.108,4.108,0,0,0,3.92,4.264,4.068,4.068,0,0,0,4.12-4.038,4.11,4.11,0,0,0-3.923-4.263,4.064,4.064,0,0,0-4.117,4.038Z" transform="translate(-2157.947 -942.66)" fill="#f8bd8c"/>
      <path id="Path_3556" data-name="Path 3556" d="M2177.02,1008.624l.689,13.76c.24,4.648-2.876,6.721-8.012,6.866h0c-4.385.123-9.29-1.532-9.3-5.637l.092-20.866,16.532,5.877Z" transform="translate(-2125.311 -962.193)" fill="#f8bd8c"/>
      <path id="Path_3557" data-name="Path 3557" d="M2161.04,1035.482l16.452-11.683c.235-3.964-16.747-2.809-16.747-2.809l-.062,13.748Z" transform="translate(-2125.493 -973.666)" fill="#eab186"/>
      <path id="Path_3558" data-name="Path 3558" d="M2172.654,931.291l.183,13.446.006.425c.053,6.629-3.473,12.935-11.326,13.252-9.423-.266-19.624-6.956-19.861-16.685l-.177-6.856-.1-3.953c.19-8.059,7.64-14.469,15.429-14.922.428-.025.86-.031,1.291-.018A15.236,15.236,0,0,1,2172.654,931.291Z" transform="translate(-2113.246 -907.147)" fill="#f8bd8c"/>
      <path id="Path_3559" data-name="Path 3559" d="M2174.27,962.091s4.243-.816,4.4.419c0,0,.085.838-2.468,1.27s-4.564.569-4.879-.195,1.566-1.344,2.946-1.494Z" transform="translate(-2132.221 -936.235)" fill="#090329"/>
      <path id="Path_3560" data-name="Path 3560" d="M2210.969,961.611s3.454.141,3.333,1.38c0,0,.158.837-2.113.7-2.585-.152-3.572-.413-3.71-1.228s1.109-1.014,2.489-.854Z" transform="translate(-2155.807 -936.065)" fill="#090329"/>
      <path id="Path_3561" data-name="Path 3561" d="M2213.517,975.414a1.295,1.295,0,1,0,1.273-1.316,1.3,1.3,0,0,0-1.273,1.316Z" transform="translate(-2159.009 -944.019)" fill="#090329"/>
      <path id="Path_3562" data-name="Path 3562" d="M2180.425,977.189a1.3,1.3,0,1,0,1.382-1.2,1.3,1.3,0,0,0-1.382,1.2Z" transform="translate(-2138.015 -945.216)" fill="#090329"/>
      <g id="Group_1681" data-name="Group 1681" transform="translate(51.544 33.874)">
        <path id="Path_3563" data-name="Path 3563" d="M2205.664,988.437a.183.183,0,0,1-.087-.344l1.095-.588a.343.343,0,0,0,.054-.433l-1.293-2.324a.183.183,0,0,1,.32-.178l1.287,2.315a.708.708,0,0,1-.144.909.178.178,0,0,1-.032.022l-1.115.6A.179.179,0,0,1,2205.664,988.437Zm1.114-.782h0Z" transform="translate(-2205.411 -984.477)" fill="#090329"/>
      </g>
      <path id="Path_3564" data-name="Path 3564" d="M2101.318,1733.151v-3.613c0-4.163,4.184-11.716,4.184-14.492,0-2.261,7.673.658,10.517,1.818a1.861,1.861,0,0,1,1.157,1.379,13.575,13.575,0,0,0,3.866,7.132,9.854,9.854,0,0,1,2.78,5.724,1.9,1.9,0,0,1-1.977,2.052Z" transform="translate(-2087.833 -1413.526)" fill="#0b0635"/>
      <path id="Path_3565" data-name="Path 3565" d="M2158.669,910.029c-.671-.762-6.038-2.669-6.633-2.813a23.628,23.628,0,0,0-8.03-.527c-5.14.547-10.53,2.581-11.524,8.253-.573,3.269-1.126,6.7-1.392,9.121a1.009,1.009,0,0,1-.356.66c-.842.72-1.881,3.161,1.721,10.975.418.907-1.569,2.1-2.425,1.586-2.742-1.646-6.947-6.246-8.708-19.1-2.015-14.708,5.738-16.679,8.022-16.942a1.019,1.019,0,0,0,.83-.614c.8-1.891,4.075-7.859,14.029-8.719,5.058-.437,10.436,1.083,13.962,4.872a11.123,11.123,0,0,1,2.874,5.4c.536,2.8-.907,5.553-1.985,8.076C2159.112,910.169,2158.775,910.151,2158.669,910.029Z" transform="translate(-2100.313 -891.831)" fill="#090329"/>
      <path id="Path_3566" data-name="Path 3566" d="M2201.344,1285.84s6.819,12.219,8.336,66.193c1.522,54.159-.7,87.21-.7,87.21l-24.147.022-10.5-150.215,6.523-5.247,20.488,2.036Z" transform="translate(-2134.152 -1140.488)" fill="#d6d6d7"/>
      <path id="Path_3567" data-name="Path 3567" d="M2093.609,1287.407s-3.989,4.444-3.49,30.228c.615,31.811,2.195,118.127,2.195,118.127l23.715,1.453,18.631-149.807-19.21-4.16Z" transform="translate(-2080.702 -1140.135)" fill="#c7c7c9"/>
      <path id="Path_3568" data-name="Path 3568" d="M2135.521,980.534a3.03,3.03,0,0,0,2.89,3.143,3,3,0,0,0,3.037-2.977,3.029,3.029,0,0,0-2.892-3.143,3,3,0,0,0-3.035,2.977Z" transform="translate(-2109.53 -946.212)" fill="#f8bd8c"/>
      <g id="Group_1682" data-name="Group 1682" transform="translate(46.198 41.086)">
        <path id="Path_3569" data-name="Path 3569" d="M2192.993,1008.244a2.08,2.08,0,0,1-1.75-.726c-.868-1.121-.226-3.107-.2-3.191a.181.181,0,0,1,.231-.116l.009,0a.175.175,0,0,1,.082-.012.183.183,0,0,1,.16.133,5.979,5.979,0,0,0,6.06.746.183.183,0,0,1,.249.236,5.357,5.357,0,0,1-4.569,2.917Q2193.127,1008.244,2192.993,1008.244Zm-1.661-3.588a3.4,3.4,0,0,0,.2,2.638,1.876,1.876,0,0,0,1.711.575,5.048,5.048,0,0,0,4-2.242,6.466,6.466,0,0,1-5.645-.765A2.551,2.551,0,0,1,2191.332,1004.657Z" transform="translate(-2190.791 -1004.201)" fill="#090329"/>
      </g>
      <path id="Path_3570" data-name="Path 3570" d="M2134.021,1063.147l-34.786-.01c-5.129,0-.873,3.881-1.411,8.982l-9.919,82.194,62.962.409-6.86-82.429a10.026,10.026,0,0,0-9.986-9.146Z" transform="translate(-2079.324 -1000.503)" fill="#0b0635"/>
      <path id="Path_3571" data-name="Path 3571" d="M2146.875,1102.451a32.454,32.454,0,0,1,.592-5.563c.575-1.926,3.555-5.561,3.555-5.561s.4-.26.691.465c.457,1.124-1.733,2.666-.87,4.186s-3.969,6.473-3.969,6.473Z" transform="translate(-2116.733 -1018.357)" fill="#f8bd8c"/>
      <path id="Path_3572" data-name="Path 3572" d="M2149.5,1106.445s-7.818-3.412-8.021-6.411c0,0,3.088-7.076,3.724-9.338.7-2.482,5.936-9.189,7.849-9.659,5.068-1.248,5.087-.956,5.259.25s-3.448,1.308-4.33,2.2a17.945,17.945,0,0,0-1.387,3.271,4.942,4.942,0,0,1,3.882-2.221c1.915.14,3.638.087,4.036,1.005.716,1.66-3.742,1.256-4.122,2.3-.136.378-1.281,2.614-1.281,2.614.747-.351,1.5-1.368,2.257-1.555.974-.241,4.66-.22,4.689.707.05,1.444-3.282,1.308-3.945,2.226-.264.365-1.055,2.195-1.055,2.195a8.814,8.814,0,0,1,2.186-.915c.771-.066,3.739.431,3.522,1.035-.571,1.579-3.168.585-4.72,2.331-1.288,1.449-3.109,5.624-5.158,6.547a8.692,8.692,0,0,0-3.384,3.416Z" transform="translate(-2113.307 -1011.346)" fill="#f8bd8c"/>
      <path id="Path_3573" data-name="Path 3573" d="M2351.255,1110.043a53.27,53.27,0,0,1-3.69,6.713c-1.514,2.037-4.236,8.2.97,10.954s15.876-4.586,15.876-4.586a7.685,7.685,0,0,0,2.29-7.333c1.667-1.491.632-5.1.632-5.1l1.8-3.417c-3.855-1.9-3.516,2.143-7.907,5.754-1.06.872-3.987,1.513-5.394,2.074l0,0a28.627,28.627,0,0,1-3.615,1.167.019.019,0,0,0,0-.014,35.284,35.284,0,0,0,.238-5.313c-.173-1.767-1.2-.891-1.2-.891Z" transform="translate(-2242.729 -1028.191)" fill="#f8bd8c"/>
      <path id="Path_3574" data-name="Path 3574" d="M2171.4,930.558c.152.493-2.169,2.155-12.32,2.155s-14.852,5.828-16.825,6.862-2.914-5.17,0-8.272,11.1-7.708,15.374-7.144S2169.339,923.891,2171.4,930.558Z" transform="translate(-2112.631 -912.31)" fill="#090329"/>
      <path id="Path_3575" data-name="Path 3575" d="M2148.176,1051.148l8.837,4.522v4.624l-15.722-4.573Z" transform="translate(-2113.191 -992.898)" fill="#090329"/>
      <path id="Path_3576" data-name="Path 3576" d="M2191.86,1051.148l-9.347,4.973v5.087l16.629-5.03Z" transform="translate(-2139.342 -992.898)" fill="#090329"/>
      <path id="Path_3577" data-name="Path 3577" d="M2068.031,1119.2l-3.551,28.689c0,4.14-.6,13.214,2.721,15.6l2.932,2c4.835-6.105,6.358-4.13,8.037-9.072l5.146-35.652-14.767-5.4Z" transform="translate(-2064.438 -1033.632)" fill="#f8bd8c"/>
      <path id="Path_3578" data-name="Path 3578" d="M2074.13,1069.658l-8.082,17.529,25.5,8.74,4.558-15.06a12.378,12.378,0,0,0-3.632-14.252h0a12.377,12.377,0,0,0-18.346,3.044Z" transform="translate(-2065.459 -1000.934)" fill="#0b0635"/>
      <path id="Path_3579" data-name="Path 3579" d="M2067.608,1166.535c8.719-11.923,26.018-32.141,26.018-32.141l9,5.1-21.532,35.542a7.928,7.928,0,0,1-12.115,2.521h0a8.11,8.11,0,0,1-1.372-11.024Z" transform="translate(-2065.46 -1045.706)" fill="#f8bd8c"/>
    </g>
    <g id="Group_1686" data-name="Group 1686" transform="translate(508.348 468.513)">
      <path id="Path_3580" data-name="Path 3580" d="M1141.835,1015.071s-18.387-7.753-26.336,3.183c-5.768,7.935-6.1,22.695,4.328,28.288,9.936,5.33,10.9-28.946,10.9-28.946l11.106-2.525Z" transform="translate(-1065.415 -1002.676)" fill="#010103"/>
      <path id="Path_3581" data-name="Path 3581" d="M1144.7,1101.6l-2.145,10.961c-.745,3.851-3.517,5.45-7.3,4.686h0c-3.23-.651-5.929-2.931-5.683-6.218l4.2-17.087,10.924,7.658Z" transform="translate(-1076.873 -1054.403)" fill="#f8bd8c"/>
      <path id="Path_3582" data-name="Path 3582" d="M1150.187,1115.357l-9.092-13.635,10.925,4.906-1.636,7.762Z" transform="translate(-1084.193 -1059.336)" fill="#eab186"/>
      <path id="Path_3583" data-name="Path 3583" d="M1140.118,1059.528h0c6.529.862,12.549-3.208,13.4-8.129l1.921-11.619c1.06-6.165-3.351-12.086-9.966-13.38h0c-6.773-1.325-14.51,2.454-15.818,8.727l-1.435,9.363c-1.11,7.243,4.156,13.524,11.9,15.038Z" transform="translate(-1075.929 -1011.386)" fill="#f8bd8c"/>
      <path id="Path_3584" data-name="Path 3584" d="M1130.437,1043.556l-6.482,8-7.452-11.4,13.934,3.4Z" transform="translate(-1068.593 -1020.278)" fill="#010103"/>
      <path id="Path_3585" data-name="Path 3585" d="M1122.918,1063.565a3.069,3.069,0,1,0,3.617-2.4,3.069,3.069,0,0,0-3.617,2.4Z" transform="translate(-1072.624 -1033.568)" fill="#f8bd8c"/>
      <g id="Group_1684" data-name="Group 1684" transform="translate(69.565 34.472)">
        <path id="Path_3586" data-name="Path 3586" d="M1176.858,1083.465l-.06,0-.983-.073a.092.092,0,0,1-.085-.1.1.1,0,0,1,.1-.085l.983.073a.581.581,0,0,0,.449-.155.592.592,0,0,0,.194-.433l.035-2.522a.1.1,0,0,1,.094-.091.092.092,0,0,1,.091.094l-.035,2.522a.784.784,0,0,1-.781.773Z" transform="translate(-1175.729 -1080.077)" fill="#090516"/>
      </g>
      <path id="Path_3587" data-name="Path 3587" d="M1159.478,1060.55s2.852-.13,2.834,1.068c0,0-.034.808-2.521.87s-3.124-.15-3.321-.918,1.674-1.065,3.008-1.019Z" transform="translate(-1093.938 -1033.215)" fill="#090516"/>
      <path id="Path_3588" data-name="Path 3588" d="M1190.264,1062.859s-2.306-.513-2.622.582c0,0-.2.743,1.826,1.147s2.719.208,2.982-.38c.3-.667-1.08-1.2-2.186-1.348Z" transform="translate(-1113.718 -1034.606)" fill="#090516"/>
      <path id="Path_3589" data-name="Path 3589" d="M1191.321,1072.935a1.194,1.194,0,1,0,1.256-1.169,1.215,1.215,0,0,0-1.256,1.169Z" transform="translate(-1116.054 -1040.332)" fill="#090516"/>
      <path id="Path_3590" data-name="Path 3590" d="M1162.145,1070.238a1.195,1.195,0,1,0,1.255-1.169,1.217,1.217,0,0,0-1.255,1.169Z" transform="translate(-1097.546 -1038.621)" fill="#090516"/>
      <g id="Group_1685" data-name="Group 1685" transform="translate(64.742 40.231)">
        <path id="Path_3591" data-name="Path 3591" d="M1166.164,1099.406h0c-2.215,0-3.563-3.31-3.62-3.451a.092.092,0,0,1,.116-.121l5.922,2.061a.093.093,0,0,1,.059.064.092.092,0,0,1-.021.085A3.433,3.433,0,0,1,1166.164,1099.406Zm-3.365-3.328c.324.708,1.569,3.144,3.365,3.144h0a3.166,3.166,0,0,0,2.225-1.2Z" transform="translate(-1162.537 -1095.829)" fill="#090516"/>
      </g>
      <path id="Path_3592" data-name="Path 3592" d="M1152.853,1018.361s9.077,2.818,5.558,14.885a.416.416,0,0,1-.511.283l-4.444-1.251a.415.415,0,0,1-.3-.4l-.026-3.464a.414.414,0,0,0-.783-.184l-1.782,3.509a.413.413,0,0,1-.422.223l-19.429-2.534a.414.414,0,0,1-.355-.344l-1.491-9.152a.414.414,0,0,1,.324-.472l8.951-1.865a.433.433,0,0,1,.106-.008l14.6.769Z" transform="translate(-1076.432 -1005.966)" fill="#010103"/>
      <path id="Path_3593" data-name="Path 3593" d="M1302.237,1315.375l9.552,2.91s6.366,5.292,5.672,8.479c-.51,2.339-2.821,4.867-4.862,6a1.573,1.573,0,0,1-2.318-1.011,14.492,14.492,0,0,0-2.561-5.931s-8.187-.437-10.747-3.827c-1.3-1.725-1.188-9.917-1.188-9.917l6.452,3.293Z" transform="translate(-1182.322 -1192.782)" fill="#f8bd8c"/>
      <path id="Path_3594" data-name="Path 3594" d="M1087.906,1692.4l-.355-24.06-12.213-.649.337,25.842,11.779.076.452-1.209Z" transform="translate(-1042.479 -1418.368)" fill="#f8bd8c"/>
      <path id="Path_3595" data-name="Path 3595" d="M1063.946,1734.977l2.483-6.436a1.923,1.923,0,0,1,2.4-1.139c2.482.829,7.158,1.814,10.428-.981a1.9,1.9,0,0,1,2.211-.162l18.324,10.982a1.929,1.929,0,0,1,.932,1.792h0a1.928,1.928,0,0,1-2.058,1.786l-33.116-2.333a1.928,1.928,0,0,1-1.787-2.061l.064-.891A1.923,1.923,0,0,1,1063.946,1734.977Z" transform="translate(-1035.13 -1455.348)" fill="#003aa6"/>
      <path id="Path_3596" data-name="Path 3596" d="M1209.409,1699.6l-3.215-23.847-12.2.808,3.411,25.619,11.7-1.326.3-1.254Z" transform="translate(-1117.748 -1423.483)" fill="#f8bd8c"/>
      <path id="Path_3597" data-name="Path 3597" d="M1192.774,1742.656l1.7-6.686a1.922,1.922,0,0,1,2.243-1.416c2.562.527,7.323.949,10.238-2.215a1.9,1.9,0,0,1,2.176-.424l19.5,8.723a1.927,1.927,0,0,1,1.138,1.667h0a1.927,1.927,0,0,1-1.831,2.018l-33.158,1.625a1.928,1.928,0,0,1-2.02-1.833l-.043-.892A1.931,1.931,0,0,1,1192.774,1742.656Z" transform="translate(-1116.939 -1459.005)" fill="#003aa6"/>
      <path id="Path_3598" data-name="Path 3598" d="M1159.414,993.471a6.885,6.885,0,1,1-6.049-7.63A6.885,6.885,0,0,1,1159.414,993.471Z" transform="translate(-1087.107 -985.795)" fill="#010103"/>
      <path id="Path_3599" data-name="Path 3599" d="M1169.573,1202.3l12.087-3.689,1.6,16.644a5.67,5.67,0,0,1-4.984,6.111l-.109.016h0a6.324,6.324,0,0,1-7.175-5.072l-1.417-14.01Z" transform="translate(-1102.259 -1120.798)" fill="#f8bd8c"/>
      <path id="Path_3600" data-name="Path 3600" d="M1222.856,1255.694l-42.075-37.19s-4.079,4.364-6.233,6.459h0a5.266,5.266,0,0,0,.134,7.679l43.958,29.11,2.268-6.058Z" transform="translate(-1104.402 -1133.419)" fill="#f8bd8c"/>
      <path id="Path_3601" data-name="Path 3601" d="M1128.21,1339.673l13.316,84.32h26.431c-1.524-12.446-9.417-75.3-12.789-95.421-8.962-53.471-14.675-66.322-14.675-66.322l-19.9-3.574-2.2,3.208,17.208.537-7.4,77.251Z" transform="translate(-1069.797 -1158.904)" fill="#0b0635"/>
      <path id="Path_3602" data-name="Path 3602" d="M1079.313,1267.037l-7.682-.239s-13.109,13.987-13.794,39.86c-.455,17.259-1.4,97.329-.919,122.487h27.176l5.029-84.319,7.4-77.251-17.208-.537Z" transform="translate(-1030.709 -1164.055)" fill="#07052d"/>
      <path id="Path_3603" data-name="Path 3603" d="M1099.722,1143.36l-18.922,2.647a3.9,3.9,0,0,0-3.307,4.549l6.556,38.541h30.456l7.943-37.019a5.806,5.806,0,0,0-5.086-6.8l-17.64-1.921Z" transform="translate(-1043.808 -1085.75)" fill="#fcfcfc"/>
      <path id="Path_3604" data-name="Path 3604" d="M1012.317,1172.068l5.489,13.549s-18.219,5.347-21.951,7.7a27.408,27.408,0,0,0-3.324,2.621,9.491,9.491,0,0,1-2.7,1.964,1.828,1.828,0,0,1-2.231-.705,10.153,10.153,0,0,1-2.043-7.4c.441-3.012,3.735-4.632,5.964-6.513Z" transform="translate(-985.467 -1103.961)" fill="#f8bd8c"/>
      <path id="Path_3605" data-name="Path 3605" d="M1054.972,1151.569a9.819,9.819,0,0,1,12.942,3.222c3.034,4.629,4.369,11.3-.348,14.2-3.376,2.074-19.01,7.161-19.01,7.161l-6.867-19.015,13.283-5.568Z" transform="translate(-1021.133 -1090.187)" fill="#fcfcfc"/>
      <path id="Path_3606" data-name="Path 3606" d="M1020.033,1244.367l-19.89-26.319a7.141,7.141,0,0,0-9.577-.922h0c-2.94,2.24-2.343,6.5.313,9l23.224,22.189,5.93-3.948Z" transform="translate(-987.461 -1131.642)" fill="#f8bd8c"/>
      <path id="Path_3607" data-name="Path 3607" d="M1122.551,1129.29a2.826,2.826,0,1,1-2.826-2.826A2.826,2.826,0,0,1,1122.551,1129.29Z" transform="translate(-1068.843 -1075.031)" fill="#ff637d"/>
      <path id="Path_3608" data-name="Path 3608" d="M1115.885,1138.029s.183,2.986-2.133,3.9a11.147,11.147,0,0,1-3.656.914s-.121-2.988,1.219-4.382S1115.885,1138.029,1115.885,1138.029Z" transform="translate(-1064.526 -1082.164)" fill="#ff637d"/>
      <path id="Path_3609" data-name="Path 3609" d="M1162.84,1156.234a7.229,7.229,0,0,1,14.132-3.035,108.631,108.631,0,0,1,1.611,13.14l-14.879,4.541-.864-14.646Z" transform="translate(-1097.906 -1088.476)" fill="#fcfcfc"/>
      <path id="Path_3610" data-name="Path 3610" d="M1075.089,1294.647l-5.456-5.456a1.91,1.91,0,0,1,0-2.7l13.721-13.722a1.91,1.91,0,0,1,2.7,0l5.456,5.456a1.91,1.91,0,0,1,0,2.7l-13.721,13.721A1.911,1.911,0,0,1,1075.089,1294.647Z" transform="translate(-1038.504 -1167.488)" fill="#c5a2fd"/>
      <path id="Path_3611" data-name="Path 3611" d="M1080.855,1287.605l-7.711-4.528,1.054-1.458a1.231,1.231,0,0,0-.193-1.67,1.829,1.829,0,0,0-1.995-.255l-8.618,4.234-6.095,4.822c3.959,3.772,6.884,4.063,8.667,3.622.186.078.371.161.563.233l6.613,2.463a1.467,1.467,0,0,0,1.767-.33c.286-.357.461-.961-.774-1.685l1.235.724a1.517,1.517,0,0,0,1.856-.368c.374-.465.115-1.166-.595-1.685l.959.453a1.537,1.537,0,0,0,1.982-.488,1.148,1.148,0,0,0-.525-1.57l-1.362-.8,1.68.555a1.65,1.65,0,0,0,2.082-.616,1.249,1.249,0,0,0-.589-1.658Z" transform="translate(-1031.034 -1172.12)" fill="#f8bd8c"/>
      <path id="Path_3612" data-name="Path 3612" d="M1121.853,1128.938s-3.844.723-4.955,1.008c0,0,3.429,8.37,14.569,7.571,12.628-.9,5.183-8.84,5.183-8.84l-4.817-.838-9.98,1.1Z" transform="translate(-1068.843 -1075.904)" fill="#ff637d"/>
    </g>
    <g id="Group_1692" data-name="Group 1692" transform="translate(389.154 447.706)">
      <g id="Group_1691" data-name="Group 1691" transform="translate(11.228)">
        <g id="Group_1687" data-name="Group 1687" transform="translate(9.807 144.284)">
          <path id="Path_3613" data-name="Path 3613" d="M730.052,1707.876l4.553-25.187,13.9,1.83-3.234,27.2-13.294-2.358.661-.776Z" transform="translate(-725.28 -1551.363)" fill="#f8bd8c"/>
          <path id="Path_3614" data-name="Path 3614" d="M899.56,1656.12l-14.545-21.061,11.14-8.508,16.9,21.556-11.085,7.709-.079-1.016Z" transform="translate(-823.584 -1515.75)" fill="#f8bd8c"/>
          <path id="Path_3615" data-name="Path 3615" d="M923.572,1676.04l-7.67-4.031a2.414,2.414,0,0,0-3.207.9c-1.661,2.835-5.267,7.634-10.67,7.7a2.391,2.391,0,0,0-2.224,1.676l-8.241,25.537a2.422,2.422,0,0,0,.6,2.464h0a2.422,2.422,0,0,0,3.423-.014l29.378-29.594a2.422,2.422,0,0,0-.014-3.427l-.8-.789A2.415,2.415,0,0,0,923.572,1676.04Z" transform="translate(-827.662 -1544.41)" fill="#261a5b"/>
          <path id="Path_3616" data-name="Path 3616" d="M750.55,1323.509c-4.089,38.775,5.707,69.477,5.707,69.477l41.76,68.792,25.073-21.1-38.042-63.415-5.632-53.753Z" transform="translate(-737.65 -1323.509)" fill="#1d134c"/>
          <path id="Path_3617" data-name="Path 3617" d="M780.664,1323.509s.423,14.654-6.653,37.509-27.444,110.612-27.444,110.612L717,1469.879l27.323-146.369Z" transform="translate(-717 -1323.509)" fill="#16103d"/>
        </g>
        <g id="Group_1690" data-name="Group 1690">
          <path id="Path_3618" data-name="Path 3618" d="M733.325,1082.911s-10.4.656-17.342,33.258l22.791,7.716-5.449-40.974Z" transform="translate(-706.548 -1026.597)" fill="#c7c7c9"/>
          <path id="Path_3619" data-name="Path 3619" d="M774.822,1066.452l-18.47,6.018-4.07,87.969,52.277.546,3.548-35.4-5.062-53.116-20-6.018Z" transform="translate(-729.575 -1016.155)" fill="#c7c7c9"/>
          <path id="Path_3620" data-name="Path 3620" d="M821.925,1022.864l-.222,14.9c-.067,5.032-3.1,7.1-7.9,6.981h0c-4.095-.1-8.564-2.158-8.318-6.594l1.394-22.534,15.046,7.246Z" transform="translate(-763.319 -983.908)" fill="#f8bd8c"/>
          <path id="Path_3621" data-name="Path 3621" d="M805.792,1047.425l16.382-13.26c.222-4.29-15.64-3.04-15.64-3.04l-.742,15.044Z" transform="translate(-763.52 -993.637)" fill="#eab186"/>
          <path id="Path_3622" data-name="Path 3622" d="M792.433,987.037h0c-7.587,1.816-15.314-2.877-17.054-9.225l-3.566-13.3a15.119,15.119,0,0,1,9.769-18.557h0c7.806-2.445,17.52,1.684,20.008,9.755l2.656,10.4a17.164,17.164,0,0,1-11.813,20.931Z" transform="translate(-741.607 -939.27)" fill="#f8bd8c"/>
          <path id="Path_3623" data-name="Path 3623" d="M814.349,989.083s-4.26.466-4.068,1.637c0,0,.154.787,2.7.456s4.5-.782,4.586-1.568-1.864-.779-3.219-.524Z" transform="translate(-766.364 -966.978)" fill="#221344"/>
          <path id="Path_3624" data-name="Path 3624" d="M781.71,992.221s-3.411.39-3.2,1.608c0,0-.1.84,2.146.541,2.546-.339,3.5-.669,3.58-1.485s-1.172-.923-2.525-.664Z" transform="translate(-746.206 -968.986)" fill="#221344"/>
          <path id="Path_3625" data-name="Path 3625" d="M788.038,954.671l-3.127-11.944s-5.5,5.01-9.426,2.675-9.731,2.151-9.731,2.151-9.969,6.563-12.9,1.43-.926-15.726,10.494-18.849c9.407-2.574,21.121-.852,27.463,2.391a8.569,8.569,0,0,1,4.327,6.562c1.179,7.145-.651,14.159-3.106,17.434l-3.991-1.849Z" transform="translate(-729.169 -928.889)" fill="#221344"/>
          <path id="Path_3626" data-name="Path 3626" d="M856.468,997.511a3.946,3.946,0,0,1-2.508,4.961,3.9,3.9,0,0,1-4.859-2.653,3.948,3.948,0,0,1,2.509-4.963,3.9,3.9,0,0,1,4.858,2.655Z" transform="translate(-790.878 -970.628)" fill="#f8bd8c"/>
          <path id="Path_3627" data-name="Path 3627" d="M780.592,1012.573a3.946,3.946,0,0,1-2.508,4.961,3.9,3.9,0,0,1-4.859-2.653,3.949,3.949,0,0,1,2.509-4.963,3.9,3.9,0,0,1,4.858,2.655Z" transform="translate(-742.744 -980.183)" fill="#f8bd8c"/>
          <path id="Path_3628" data-name="Path 3628" d="M907.4,1161.436l2.418,25.941c.37,4.023,1.768,12.787-1.248,15.4l-2.67,2.207c-5.245-5.5-8.935-10.679-11.009-15.331l-5.8-26.949,17.582-6.57Z" transform="translate(-816.362 -1073.046)" fill="#f8bd8c"/>
          <path id="Path_3629" data-name="Path 3629" d="M859.556,1226.323c-13.2-5.79-37.706-14.378-37.706-14.378l-5.1,8.717,35.586,19.445A7.737,7.737,0,0,0,863.8,1236.3h0a7.914,7.914,0,0,0-4.244-9.976Z" transform="translate(-770.474 -1108.452)" fill="#f8bd8c"/>
          <path id="Path_3630" data-name="Path 3630" d="M886.817,1082.911s14.025,3.125,18.87,30.521l-20.724,7.574-.627-14.731,2.481-23.363Z" transform="translate(-813.346 -1026.597)" fill="#c6c6c6"/>
          <path id="Path_3631" data-name="Path 3631" d="M795.214,1202.827l-8.775-4.766s-8.237-.824-10.021,1.906c-1.309,2-1.489,5.425-.868,7.677a1.573,1.573,0,0,0,2.346.943,14.477,14.477,0,0,1,6.023-2.335s6.054,5.528,10.267,4.974c2.143-.282,7.9-6.111,7.9-6.111l-6.874-2.288Z" transform="translate(-744.117 -1099.57)" fill="#f8bd8c"/>
          <path id="Path_3632" data-name="Path 3632" d="M807.748,1231.481H778.883v-3.258h28.865a1.63,1.63,0,0,1,1.628,1.629h0a1.63,1.63,0,0,1-1.628,1.629Z" transform="translate(-746.45 -1118.779)" fill="#3c2a91"/>
          <path id="Path_3633" data-name="Path 3633" d="M788.117,1004.65a1.264,1.264,0,1,1-1.491-.986,1.264,1.264,0,0,1,1.491.986Z" transform="translate(-750.719 -976.308)" fill="#221344"/>
          <path id="Path_3634" data-name="Path 3634" d="M820.018,999.372a1.265,1.265,0,1,1-1.57-.854,1.264,1.264,0,0,1,1.57.854Z" transform="translate(-770.973 -973.027)" fill="#221344"/>
          <g id="Group_1688" data-name="Group 1688" transform="translate(39.654 30.109)">
            <path id="Path_3635" data-name="Path 3635" d="M800.225,1015.038l-1.188-.336a.158.158,0,0,1-.036-.014.7.7,0,0,1-.331-.842l.739-2.477a.183.183,0,1,1,.351.1l-.743,2.487a.333.333,0,0,0,.14.4l1.167.329a.183.183,0,0,1-.011.355A.188.188,0,0,1,800.225,1015.038Zm-1.141-.511h0Z" transform="translate(-798.631 -1011.239)" fill="#221344"/>
          </g>
          <g id="Group_1689" data-name="Group 1689" transform="translate(42.116 40.479)">
            <path id="Path_3636" data-name="Path 3636" d="M808.309,1040.968a13.351,13.351,0,0,0,2.835-.977.183.183,0,0,0,.087-.244c-.043-.091-.143-.081-.244-.087-5-.278-5.49.453-5.6,1.143-.008.045-.008.125-.018.225a.183.183,0,0,0,.165.2A9.862,9.862,0,0,0,808.309,1040.968Z" transform="translate(-805.365 -1039.6)" fill="#221344"/>
          </g>
          <path id="Path_3637" data-name="Path 3637" d="M740.23,1237.13h13.163s-1.8,2.661-11.616,1.577Z" transform="translate(-721.929 -1124.428)" fill="#f8bd8c"/>
          <path id="Path_3638" data-name="Path 3638" d="M741.54,1179.631H702.415a4.631,4.631,0,0,1-4.463-3.39l-2.341-8.405-1.132-4.07-1.143-4.1-.062-.228-1.232-4.429-1.805-6.49a1.6,1.6,0,0,1,1.536-2.027h39.588a1.9,1.9,0,0,1,1.839,1.422Z" transform="translate(-690.177 -1066.93)" fill="#43299d"/>
        </g>
      </g>
      <path id="Path_3639" data-name="Path 3639" d="M705.892,1750.476l-2.592-8.269a2.415,2.415,0,0,0-2.911-1.622c-3.178.837-9.119,1.694-12.992-2.074a2.391,2.391,0,0,0-2.758-.382l-23.858,12.283a2.421,2.421,0,0,0-1.313,2.17h0a2.422,2.422,0,0,0,2.436,2.405l41.7-.244a2.422,2.422,0,0,0,2.408-2.438l-.008-1.122A2.414,2.414,0,0,0,705.892,1750.476Z" transform="translate(-659.468 -1442.076)" fill="#261a5b"/>
    </g>
    <g id="Group_1698" data-name="Group 1698" transform="translate(360.449 421.511)">
      <g id="Group_1693" data-name="Group 1693" transform="translate(0 18.398)">
        <path id="Path_3640" data-name="Path 3640" d="M652.282,949.581h39.56V929.568a3.005,3.005,0,0,0-3-3.006H652.282a3.006,3.006,0,0,0-3,3.006v17.01a3,3,0,0,0,3,3Z" transform="translate(-649.278 -926.562)" fill="#fff"/>
        <path id="Path_3641" data-name="Path 3641" d="M705.348,952.091l.03,10.17-8.684-10.142,8.654-.028Z" transform="translate(-662.787 -933.835)" fill="#fff"/>
        <path id="Path_3642" data-name="Path 3642" d="M667.477,941.532a1.916,1.916,0,1,1-1.92-1.909,1.914,1.914,0,0,1,1.92,1.909Z" transform="translate(-653.371 -930.283)" fill="#221344"/>
        <path id="Path_3643" data-name="Path 3643" d="M678.971,941.5a1.917,1.917,0,1,1-1.922-1.91,1.912,1.912,0,0,1,1.922,1.91Z" transform="translate(-656.646 -930.272)" fill="#221344"/>
        <path id="Path_3644" data-name="Path 3644" d="M690.462,941.461a1.916,1.916,0,1,1-1.922-1.913,1.916,1.916,0,0,1,1.922,1.913Z" transform="translate(-659.919 -930.262)" fill="#221344"/>
      </g>
      <g id="Group_1694" data-name="Group 1694" transform="translate(623.864 0)">
        <path id="Path_3645" data-name="Path 3645" d="M2371.023,908.777h-50.805v-25.7a3.859,3.859,0,0,1,3.857-3.86h46.949a3.86,3.86,0,0,1,3.857,3.86v21.845a3.859,3.859,0,0,1-3.857,3.856Z" transform="translate(-2320.181 -879.216)" fill="#fff"/>
        <path id="Path_3646" data-name="Path 3646" d="M2320.2,915.118l-.037,13.061,11.152-13.025-11.115-.036Z" transform="translate(-2320.163 -891.673)" fill="#fff"/>
        <path id="Path_3647" data-name="Path 3647" d="M2375.846,900.036a2.46,2.46,0,1,0,2.465-2.454,2.455,2.455,0,0,0-2.465,2.454Z" transform="translate(-2339.483 -885.588)" fill="#090329"/>
        <path id="Path_3648" data-name="Path 3648" d="M2359.68,899.985a2.461,2.461,0,1,0,2.468-2.453,2.457,2.457,0,0,0-2.468,2.453Z" transform="translate(-2333.874 -885.571)" fill="#090329"/>
        <path id="Path_3649" data-name="Path 3649" d="M2343.52,899.935a2.461,2.461,0,1,0,2.468-2.456,2.459,2.459,0,0,0-2.468,2.456Z" transform="translate(-2328.266 -885.553)" fill="#090329"/>
      </g>
      <g id="Group_1697" data-name="Group 1697" transform="translate(244.277 18.398)">
        <path id="Path_3650" data-name="Path 3650" d="M1345.339,984.369H1290.3c-1.535,0-2.779-2.156-2.779-4.818V947.77c0-2.66,1.244-4.817,2.779-4.817h55.038c1.536,0,2.78,2.156,2.78,4.817v31.782c0,2.661-1.244,4.818-2.78,4.818Z" transform="translate(-1287.521 -942.952)" fill="#fff"/>
        <path id="Path_3651" data-name="Path 3651" d="M1309.226,1004.167V1022.9l20.6-18.731Z" transform="translate(-1296.496 -968.262)" fill="#fff"/>
        <g id="Group_1695" data-name="Group 1695" transform="translate(7.906 15.291)">
          <path id="Path_3652" data-name="Path 3652" d="M1301.587,970.329a.587.587,0,0,1-.326-1.075c.192-.128.591-.394,42.854-.1a.586.586,0,0,1,0,1.173h0c-16.3-.114-40.913-.213-42.353-.024A.586.586,0,0,1,1301.587,970.329Z" transform="translate(-1301 -969.022)" fill="#31185e"/>
        </g>
        <g id="Group_1696" data-name="Group 1696" transform="translate(19.93 25.836)">
          <path id="Path_3653" data-name="Path 3653" d="M1339.83,988.173h-17.743a.587.587,0,1,1,0-1.173h17.743a.587.587,0,1,1,0,1.173Z" transform="translate(-1321.5 -987)" fill="#31185e"/>
        </g>
      </g>
    </g>
    <g id="Group_1701" data-name="Group 1701" transform="translate(305.58 476.164)">
      <path id="Path_3654" data-name="Path 3654" d="M556.352,1215.082l19.628-.614a127.926,127.926,0,0,0-1.209,20.232,10.314,10.314,0,0,1-10.892,10.542h0a10.315,10.315,0,0,1-9.73-10.524l2.2-19.636Z" transform="translate(-509.082 -1138.511)" fill="#0b0635"/>
      <path id="Path_3655" data-name="Path 3655" d="M622.818,1206.92,579.8,1223.38a8.589,8.589,0,0,0-3.779,11.841h0c2.377,4.353,6.749,3.032,10.941.384l38.611-21.343-2.756-7.343Z" transform="translate(-522.29 -1133.722)" fill="#0b0635"/>
      <path id="Path_3656" data-name="Path 3656" d="M600.311,1702.406l-14.03-.873-1.789-19.138,14.029.875,1.79,19.137Z" transform="translate(-528.332 -1435.351)" fill="#fba799"/>
      <path id="Path_3657" data-name="Path 3657" d="M547.22,1264.436s4.472,11.326,7.956,66.83c3.515,55.992,5.352,93.057,5.352,93.057l-21.44.348-19.943-156.123,6.637-5.6,21.437,1.484Z" transform="translate(-486.878 -1169.268)" fill="#c5a2fd"/>
      <path id="Path_3658" data-name="Path 3658" d="M473.816,1695.137l-13.543.451.7-20.291,14.029.875-1.181,18.964Z" transform="translate(-449.531 -1430.848)" fill="#fba799"/>
      <path id="Path_3659" data-name="Path 3659" d="M474.367,1260.625s-12.12,14.345-14.357,40.8c-2.581,30.52-2.505,117.937-2.505,117.937l19.3.613L502.846,1262.6l-28.478-1.971Z" transform="translate(-447.775 -1167.792)" fill="#bb9df4"/>
      <path id="Path_3660" data-name="Path 3660" d="M442.307,1180.9l16.753,10.409c-4.5,8.2-8.014,12.487-9.868,17.495-2.089,5.647-6.794,9.954-12.256,7.422h0a10.316,10.316,0,0,1-5.16-13.372l10.532-21.953Z" transform="translate(-430.935 -1117.215)" fill="#0b0635"/>
      <path id="Path_3661" data-name="Path 3661" d="M467.2,1136.249c3.5-4.89,8.453-6.207,13.2-4.623,5.121,1.712,4.286,13.806,2.425,18.876-1.332,3.63-.937,2.993-4.337,9.185l-16.99-9.916,5.7-13.523Z" transform="translate(-450.308 -1085.555)" fill="#0b0635"/>
      <path id="Path_3662" data-name="Path 3662" d="M544.437,1010.879s11.157-.348,10.434,12.773c-.467,8.505-1.9,19.664-1.822,25.146.019,1.365.373,11.33-.992,11.288-8.565-.269-21.294-7.631-35.5-7.815-.5-.007-3.511.265-3.656-.214-.658-2.167-1.3-16.392-.35-24.174,1.163-9.541,5.838-16.479,11.08-19.428s16.6-2.128,20.8,2.424Z" transform="translate(-482.391 -1006.723)" fill="#31185e"/>
      <path id="Path_3663" data-name="Path 3663" d="M557.962,1015.791s-24.183-11.587-31.9-.711c-5.6,7.891-1.583,23.649,8.768,29.044,9.863,5.139,10.418-28.672,10.418-28.672l8.979,1.518Z" transform="translate(-489.662 -1009.071)" fill="#31185e"/>
      <path id="Path_3664" data-name="Path 3664" d="M565.018,1098.276l-1.989,10.834c-.689,3.806-3.4,5.416-7.144,4.707h0c-3.194-.605-5.882-2.821-5.677-6.066l3.947-16.9,10.862,7.425Z" transform="translate(-506.576 -1060.092)" fill="#f8bd8c"/>
      <path id="Path_3665" data-name="Path 3665" d="M567.615,1108.41s-9.85-3.6-11.308-12.714l12.812,4.546-1.5,8.168Z" transform="translate(-510.452 -1063.165)" fill="#eab186"/>
      <path id="Path_3666" data-name="Path 3666" d="M558.289,1054.187h0c6.366,1.283,13.865-3.54,15.1-8.84l1.606-11.8a12.577,12.577,0,0,0-8.739-15.068h0c-6.569-1.8-14.506,1.9-16.306,8.641l-2.177,10.1a14.284,14.284,0,0,0,10.518,16.971Z" transform="translate(-504.821 -1013.892)" fill="#f8bd8c"/>
      <path id="Path_3667" data-name="Path 3667" d="M580.542,1062.687s2.765-.532,2.906.537c0,0,.075.729-2.341,1.148s-3.066.322-3.362-.335,1.489-1.195,2.8-1.35Z" transform="translate(-524.032 -1042.141)" fill="#0b0635"/>
      <path id="Path_3668" data-name="Path 3668" d="M612.542,1065.5s-2.219-.679-2.609.179c0,0-.247.586,1.7,1.144s2.646.479,2.947.026c.339-.511-.969-1.107-2.042-1.349Z" transform="translate(-544.465 -1043.849)" fill="#0b0635"/>
      <path id="Path_3669" data-name="Path 3669" d="M574.127,1020.355c-1.179,1.521-2.446,2.981-3.754,4.391a22.329,22.329,0,0,1-5.313,4.261,30.656,30.656,0,0,1-3.1,1.514c-.487.208-5.473,2.4-6.02,2.076s-1.453-13.171-1.122-13.08,10.4-5.738,10.4-5.738l6.747.671Z" transform="translate(-509.462 -1011.199)" fill="#31185e"/>
      <path id="Path_3670" data-name="Path 3670" d="M600.259,1015.639c1.073.308,11.16,3.48,11.236,13.676,0,.025,0,.052,0,.077l-.1,1.691a.943.943,0,0,1-1.131.869l-6.446-1.321a9.32,9.32,0,0,1-5.534-3.456c-.651-.851-1.146-1.6-.987-1.744.317-.284.419-6.516.447-9a.943.943,0,0,1,1.017-.929l1.315.1A.909.909,0,0,1,600.259,1015.639Z" transform="translate(-536.437 -1012.291)" fill="#31185e"/>
      <path id="Path_3671" data-name="Path 3671" d="M562.4,1151.7a9.581,9.581,0,0,1,9.043-9.357c5.392-.3,13.221,4.554,11.4,11.338-1.471,5.476-2.162,15.024-2.162,15.024l-2.669.423-16.457-.366.846-17.062Z" transform="translate(-513.78 -1092.749)" fill="#0b0635"/>
      <path id="Path_3672" data-name="Path 3672" d="M497.337,1130.99l16.873,0,11.813,2.1,7.05,3.47a3.029,3.029,0,0,1,1.662,3.032l-.442,4.191h0s4.419,18.734-2.382,22.6l2.79,15.961-42.068-3.111v-35.988c.073-2.275,2.426-12.217,4.7-12.261Z" transform="translate(-470.059 -1085.555)" fill="#0b0635"/>
      <path id="Path_3673" data-name="Path 3673" d="M610.082,1077.15a1.243,1.243,0,0,0,1.275,1.206,1.229,1.229,0,0,0,1.107-1.349,1.2,1.2,0,1,0-2.382.144Z" transform="translate(-544.564 -1050.542)" fill="#0b0635"/>
      <path id="Path_3674" data-name="Path 3674" d="M583.953,1073.693a1.246,1.246,0,0,0,1.275,1.206,1.233,1.233,0,0,0,1.109-1.349,1.2,1.2,0,1,0-2.384.144Z" transform="translate(-527.988 -1048.349)" fill="#0b0635"/>
      <g id="Group_1699" data-name="Group 1699" transform="translate(60.384 27.941)">
        <path id="Path_3675" data-name="Path 3675" d="M596.137,1086.635a.092.092,0,0,1,0-.184l.985-.04a.6.6,0,0,0,.572-.659l-.255-2.509a.092.092,0,0,1,.082-.1.1.1,0,0,1,.1.082l.255,2.509a.783.783,0,0,1-.747.862l-.985.04Z" transform="translate(-596.045 -1083.141)" fill="#090516"/>
      </g>
      <path id="Path_3676" data-name="Path 3676" d="M563.732,1126.992l1.195-4.367-11.595-3.747-3.136,5.753,13.341,2.9Z" transform="translate(-506.576 -1077.871)" fill="#0b0635"/>
      <path id="Path_3677" data-name="Path 3677" d="M544.2,1041.269a86.8,86.8,0,0,0-2.005,26.51c.166,2.089-1.387,4.353-3.37,3.675a59.078,59.078,0,0,1-5.629-2.847,2.906,2.906,0,0,1-1.551-3.024c.805-5.388,3.173-20.085,5.77-25.4,1.6-3.28,3.317-3.822,4.63-3.542a2.856,2.856,0,0,1,2.192,2.885l-.038,1.743Z" transform="translate(-494.79 -1025.662)" fill="#31185e"/>
      <g id="Group_1700" data-name="Group 1700" transform="translate(57.542 35.215)">
        <path id="Path_3678" data-name="Path 3678" d="M589.7,1104.335a.09.09,0,0,1-.058-.021l-1.34-1.081a.092.092,0,0,1,.1-.152.108.108,0,0,1,.04-.012,18.087,18.087,0,0,1,3.543.158c.323.038.634.075.936.1a.092.092,0,0,1,.015.181c-.732.192-1.467.378-2.2.564l-1.016.258A.083.083,0,0,1,589.7,1104.335Zm-1.091-1.091,1.114.9.971-.247c.569-.145,1.137-.288,1.7-.435l-.431-.05A18.106,18.106,0,0,0,588.613,1103.245Z" transform="translate(-588.272 -1103.038)" fill="#090516"/>
      </g>
      <path id="Path_3679" data-name="Path 3679" d="M487.577,1351.377s-1.773.177-2.83,10.812c-.068.688-.947,2.336-.256,2.334a1.5,1.5,0,0,0,1.369-.889l1.59-3.774,4.286,10.822c.156.5.611,1.568,1.124,1.447a1,1,0,0,0,.731-1.261c-.558-1.875-1.645-5.664-1.215-5.4a30.773,30.773,0,0,1,3.636,5.666c.3.633.63,1.118,1.234.757.508-.3.414-.683.189-1.229l-3.076-6.718,5.325,4.312c.633.5,1.129.619,1.458-.12.214-.482,0-.66-.32-1.044-.468-.558-1.289-1.291-1.753-1.853-.926-1.123-3.008-3.574-2.482-3.484.278-.035.847.473,1.156.738.335.286.657.587.988.879a7.209,7.209,0,0,0,2.085,1.414.438.438,0,0,0,.538-.146.351.351,0,0,0,.12-.283.509.509,0,0,0-.105-.208c-.05-.076-.084-.163-.133-.241a2.732,2.732,0,0,0-.362-.444,23.087,23.087,0,0,1-2.433-3.15q-1.264-1.831-2.555-3.645-1.058-1.488-2.135-2.963-.582-.8-1.169-1.59a11.206,11.206,0,0,0-1.223-1.638Z" transform="translate(-464.727 -1224.792)" fill="#f8bd8c"/>
      <path id="Path_3680" data-name="Path 3680" d="M459.581,1276.752l-12.321-41.811a8.592,8.592,0,0,0-11.792-3.933h0a8.589,8.589,0,0,0-3.305,12.083l19.485,38.915,7.933-5.253Z" transform="translate(-430.893 -1148.369)" fill="#0b0635"/>
      <path id="Path_3681" data-name="Path 3681" d="M449.092,1733.134l2.548-6.432a1.992,1.992,0,0,1,2.469-1.135c2.561.833,7.386,1.828,10.754-.961a2.013,2.013,0,0,1,2.28-.158l18.922,11.021a1.922,1.922,0,0,1,.965,1.794h0a1.96,1.96,0,0,1-2.119,1.782l-34.161-2.4a1.958,1.958,0,0,1-1.848-2.064l.064-.891A1.857,1.857,0,0,1,449.092,1733.134Z" transform="translate(-442.314 -1461.851)" fill="#0b0635"/>
      <path id="Path_3682" data-name="Path 3682" d="M579.923,1736.87l1.826-6.693a2.061,2.061,0,0,1,2.385-1.424c2.717.518,7.767.925,10.869-2.25a2.115,2.115,0,0,1,2.31-.431l20.662,8.66a1.917,1.917,0,0,1,1.2,1.663h0a1.992,1.992,0,0,1-1.95,2.025l-35.187,1.735a1.987,1.987,0,0,1-2.137-1.826l-.042-.892A1.813,1.813,0,0,1,579.923,1736.87Z" transform="translate(-525.393 -1462.952)" fill="#0b0635"/>
    </g>
    <g id="Group_1711" data-name="Group 1711" transform="translate(632.601 533)">
      <g id="Group_1710" data-name="Group 1710" transform="translate(0 0)">
        <g id="Group_1702" data-name="Group 1702" transform="translate(13.969 147.196)">
          <path id="Path_3683" data-name="Path 3683" d="M1366.379,1640.083l-2.87-.565L1377,1570.954a18.674,18.674,0,0,1,2.454-6.2l2.484,1.544a15.758,15.758,0,0,0-2.07,5.226Z" transform="translate(-1363.509 -1564.755)" fill="#31185e"/>
        </g>
        <g id="Group_1703" data-name="Group 1703" transform="translate(60.377 149.857)">
          <path id="Path_3684" data-name="Path 3684" d="M1506.149,1644.726l-14.861-68.878a15.64,15.64,0,0,0-.85-2.683l2.7-1.131a18.559,18.559,0,0,1,1.011,3.192l14.863,68.883Z" transform="translate(-1490.437 -1572.033)" fill="#31185e"/>
        </g>
        <path id="Path_3685" data-name="Path 3685" d="M1684.688,1699.538l-7.677-24.384-12.213-.648,7.659,26.165,11.779.076.451-1.209Z" transform="translate(-1540.67 -1487.182)" fill="#f8bd8c"/>
        <path id="Path_3686" data-name="Path 3686" d="M1601.536,1483.088l10.615.673A17.617,17.617,0,0,1,1628,1496.606l16.634,64.069-23.05-2.145L1603,1502.252l-1.466-19.164Z" transform="translate(-1500.538 -1365.751)" fill="#d6d6d7"/>
        <path id="Path_3687" data-name="Path 3687" d="M1575.634,1700.1l-.355-24.06-12.212-.649.337,25.843,11.778.076.452-1.209Z" transform="translate(-1476.134 -1487.741)" fill="#f8bd8c"/>
        <path id="Path_3688" data-name="Path 3688" d="M1433.79,1444.635l24,14.242,24.8.508c7.237,0,13.135,4.365,13.243,11.6.331,22.25-1.389,68.491-2.437,68.281-1.411-.281-21.738,0-21.738,0l-2.065-50.522-15.926,1.733c-3.926.033-15.4.772-18.9-1-7.247-3.674-12.81-7.61-6.5-27.263Z" transform="translate(-1388.88 -1341.358)" fill="#ccccce"/>
        <path id="Path_3689" data-name="Path 3689" d="M1675.852,1368.084l13.345-6.672s10.889-.8,17.5.635a1.256,1.256,0,0,1,.967,1.52h0a1.249,1.249,0,0,1-1.35.95l-6.108-.67,3.29,2.237a1.4,1.4,0,0,1-.179,2.416h0a1.388,1.388,0,0,1-1.271-.028c-1.826-1.011-7.571-3.644-13.171-.494l5.223,2.347a1.656,1.656,0,0,1,.548,2.625h0a1.662,1.662,0,0,1-1.44.529l-4.861-.63s-5.718,2.33-11.015-.211l-1.482-4.555Z" transform="translate(-1547.682 -1288.422)" fill="#f8bd8c"/>
        <path id="Path_3690" data-name="Path 3690" d="M1645.387,1467.465H1685.9v-4.572h-40.515a2.287,2.287,0,0,0-2.285,2.286h0a2.287,2.287,0,0,0,2.285,2.286Z" transform="translate(-1526.906 -1352.94)" fill="#ea4266"/>
        <path id="Path_3691" data-name="Path 3691" d="M1745.575,1389.919h58.165a6.887,6.887,0,0,0,6.635-5.041l11.472-41.215a2.373,2.373,0,0,0-2.285-3.01h-58.854a2.83,2.83,0,0,0-2.737,2.111l-12.4,47.155Z" transform="translate(-1591.912 -1275.394)" fill="#ff637d"/>
        <g id="Group_1704" data-name="Group 1704" transform="translate(169.791 119.95)">
          <rect id="Rectangle_2562" data-name="Rectangle 2562" width="2.925" height="102.291" fill="#31185e"/>
        </g>
        <g id="Group_1705" data-name="Group 1705" transform="translate(238.467 119.95)">
          <rect id="Rectangle_2563" data-name="Rectangle 2563" width="2.925" height="102.291" fill="#31185e"/>
        </g>
        <g id="Group_1706" data-name="Group 1706" transform="translate(126.708 119.95)">
          <rect id="Rectangle_2564" data-name="Rectangle 2564" width="2.925" height="102.291" fill="#31185e"/>
        </g>
        <path id="Path_3692" data-name="Path 3692" d="M1546.852,1486.249h178.817V1475.4H1546.852v10.851Z" transform="translate(-1465.848 -1360.873)" fill="#0b0635"/>
        <path id="Path_3693" data-name="Path 3693" d="M1485.71,1180.414l-15.03.894c.59-2.38,1.187-4.764,1.549-7.192.353-2.372.34-4.671,1.318-6.92.365-.841,1.439-2.252,1.382-3.187-.063-1.035-.574-.935-1.645-1.172a20.08,20.08,0,0,0-5.28-.513,24.954,24.954,0,0,0-7.135,1.6c-8.743,3.157-11.8,14.144-16.56,21.131-1.479,2.169-2.887,4.39-4.164,6.684-7.138,12.837.463,29.831.463,29.831l34.878,1.531C1486.576,1203.934,1485.71,1180.414,1485.71,1180.414Z" transform="translate(-1396.216 -1162.257)" fill="#31185e"/>
        <path id="Path_3694" data-name="Path 3694" d="M1544.354,1321.458c4.227,10.353,9.761,32.214,9.761,32.214l33.4-15.731,4.417,11.465-28.334,19.349-30.994-1.293-2.3-24.24,13.537-20.52Z" transform="translate(-1455.352 -1263.218)" fill="#b69eef"/>
        <path id="Path_3695" data-name="Path 3695" d="M1471.572,1294.923a17.08,17.08,0,0,1,5.576,6.75l2.007,57.853s-35.506,7.476-54.791-1.141c0,0,.544-48.45,11.526-61.274,0,0,3.461-6.81,21.066-6.842a24.159,24.159,0,0,1,14.615,4.653Z" transform="translate(-1388.145 -1243.433)" fill="#c5a2fd"/>
        <path id="Path_3696" data-name="Path 3696" d="M1549.211,1228.1a3.246,3.246,0,1,0,3.676-2.751,3.246,3.246,0,0,0-3.676,2.751Z" transform="translate(-1467.323 -1202.225)" fill="#f8bd8c"/>
        <path id="Path_3697" data-name="Path 3697" d="M1507.369,1254.152l-1.536,11.14c-.533,3.913-3.228,5.677-7.074,5.123h0c-3.285-.471-6.127-2.611-6.064-5.929l3.26-17.415,11.414,7.082Z" transform="translate(-1431.491 -1216.028)" fill="#f8bd8c"/>
        <path id="Path_3698" data-name="Path 3698" d="M1510.216,1269.676c-6.675.99-11.021-9.7-11.021-9.7l12.415,1.79-1.393,8.409Z" transform="translate(-1435.616 -1224.217)" fill="#eab186"/>
        <path id="Path_3699" data-name="Path 3699" d="M1500.9,1207.588h0c5.39-.424,12.456-4.3,13.051-9.684l1.328-12.713a12.59,12.59,0,0,0-10.719-13.843h0c-6.88-.989-14.468,3.613-15.458,10.493l-.956,10.237c-.74,7.917,4.284,14.664,12.754,15.509Z" transform="translate(-1428.559 -1167.907)" fill="#f8bd8c"/>
        <path id="Path_3700" data-name="Path 3700" d="M1516.584,1212.319s2.811-.591,2.954.322c0,0,.075.621-2.382,1.1s-3.12.425-3.419-.125,1.516-1.1,2.846-1.3Z" transform="translate(-1444.821 -1193.863)" fill="#31185e"/>
        <path id="Path_3701" data-name="Path 3701" d="M1548.666,1214.352s-2.368.005-2.5.888c0,0-.073.595,2,.552s2.729-.307,2.893-.8c.185-.554-1.267-.726-2.388-.644Z" transform="translate(-1465.411 -1195.261)" fill="#31185e"/>
        <path id="Path_3702" data-name="Path 3702" d="M1522.707,1222.8a1.142,1.142,0,1,1-.79-1.409A1.142,1.142,0,0,1,1522.707,1222.8Z" transform="translate(-1449.109 -1199.713)" fill="#31185e"/>
        <path id="Path_3703" data-name="Path 3703" d="M1551.568,1223.116a1.142,1.142,0,1,1-.789-1.41A1.142,1.142,0,0,1,1551.568,1223.116Z" transform="translate(-1467.418 -1199.911)" fill="#31185e"/>
        <g id="Group_1707" data-name="Group 1707" transform="translate(75.898 24)">
          <path id="Path_3704" data-name="Path 3704" d="M1534.578,1231.774a.67.67,0,0,1-.15-.016l-1.465-.32a.1.1,0,1,1,.041-.187l1.465.321a.583.583,0,0,0,.479-.123,1.036,1.036,0,0,0,.383-.756l.162-2.79a.091.091,0,0,1,.1-.09.1.1,0,0,1,.09.1l-.161,2.79a1.217,1.217,0,0,1-.458.9A.806.806,0,0,1,1534.578,1231.774Z" transform="translate(-1532.888 -1227.811)" fill="#31185e"/>
        </g>
        <g id="Group_1708" data-name="Group 1708" transform="translate(71.565 30.809)">
          <path id="Path_3705" data-name="Path 3705" d="M1524.986,1248.689h-.01a6.214,6.214,0,0,1-3.767-1.96c-.052-.052-.1-.106-.12-.117a.093.093,0,0,1-.043-.126.1.1,0,0,1,.131-.044.753.753,0,0,1,.169.153,6.03,6.03,0,0,0,3.65,1.9.1.1,0,0,1-.01.191Z" transform="translate(-1521.036 -1246.433)" fill="#31185e"/>
        </g>
        <path id="Path_3706" data-name="Path 3706" d="M1477.874,1223.137a3.246,3.246,0,1,0,3.676-2.751,3.247,3.247,0,0,0-3.676,2.751Z" transform="translate(-1422.069 -1199.079)" fill="#f8bd8c"/>
        <path id="Path_3707" data-name="Path 3707" d="M1488.433,1184.792c-1.025.427.477-13.433,3.7-16.065,1.451-1.187,12.312-5.815,14.963-4.235,2.9,1.731-2.589,9.6-2.589,9.6S1500.358,1179.822,1488.433,1184.792Z" transform="translate(-1428.586 -1163.437)" fill="#31185e"/>
        <path id="Path_3708" data-name="Path 3708" d="M1525.173,1172.589l10.565,8.47,2.861-.308s4.455-12.474-10.506-17.512S1525.173,1172.589,1525.173,1172.589Z" transform="translate(-1449.19 -1162.169)" fill="#31185e"/>
        <path id="Path_3709" data-name="Path 3709" d="M1634.943,1439.014l8.775-4.766s8.236-.825,10.021,1.906c1.309,2,1.49,5.426.868,7.677a1.573,1.573,0,0,1-2.347.943,14.483,14.483,0,0,0-6.022-2.335s-6.054,5.528-10.267,4.974c-2.143-.282-7.9-6.11-7.9-6.11l6.874-2.288Z" transform="translate(-1517.37 -1334.694)" fill="#f8bd8c"/>
        <path id="Path_3710" data-name="Path 3710" d="M1488.323,1275.392c.48.174,17.069.874,17.123,1.4s.5,8.658.5,8.658l-2.356,5.423s-7.03.962-7.605.787-6.785-1.749-6.785-1.749Z" transform="translate(-1428.719 -1233.995)" fill="#c5a2fd"/>
        <path id="Path_3711" data-name="Path 3711" d="M1472.62,1338.944l4.711,23.7a4.033,4.033,0,0,0,3.809,3.4l40.963,1.776a4.032,4.032,0,0,1,3.858,4.029v9.026a4.033,4.033,0,0,1-4.13,4.032l-47.5-1.151c-.079,0-.159,0-.238,0a5.613,5.613,0,0,1-4.145-1.362.606.606,0,0,0-.664-.091.611.611,0,0,1-.33.055c-1.634-.173-13.561-2.877-17.514-44.754-.729-7.726,10.263-11.278,15.9-7.785,1.977,1.225,3.867,3.238,4.243,5.616Z" transform="translate(-1405.302 -1267.671)" fill="#bb9df4"/>
        <g id="Group_1709" data-name="Group 1709" transform="translate(0 69.444)">
          <path id="Path_3712" data-name="Path 3712" d="M1403.2,1434.907h-33.122a39.041,39.041,0,0,1-14.286-2.581c-11.774-4.613-19.88-15.294-22.241-29.3l-8.219-48.791a1.828,1.828,0,1,1,3.605-.607l8.219,48.79c2.174,12.9,9.266,22.314,19.969,26.508a35.42,35.42,0,0,0,12.953,2.329H1403.2a1.828,1.828,0,0,1,0,3.656Z" transform="translate(-1325.304 -1352.1)" fill="#10071a"/>
        </g>
        <path id="Path_3713" data-name="Path 3713" d="M1556.364,1742.046l1.368-6.761a1.922,1.922,0,0,1,2.17-1.525c2.586.4,7.361.587,10.116-2.717a1.905,1.905,0,0,1,2.153-.53l19.907,7.753a1.927,1.927,0,0,1,1.219,1.61h0a1.927,1.927,0,0,1-1.73,2.105l-33.039,3.255a1.928,1.928,0,0,1-2.108-1.732l-.087-.888A1.929,1.929,0,0,1,1556.364,1742.046Z" transform="translate(-1471.857 -1522.626)" fill="#261a5b"/>
        <path id="Path_3714" data-name="Path 3714" d="M1979.579,1423.667h-12.064a.569.569,0,0,0-.569.568v17.778a.569.569,0,0,0,.569.568h12.064a.568.568,0,0,0,.568-.568v-2.8a.567.567,0,0,1,.458-.556,5.647,5.647,0,0,0,0-11.074.568.568,0,0,1-.458-.556v-2.8A.569.569,0,0,0,1979.579,1423.667Zm1.383,12.309a.566.566,0,0,1-.814-.513v-4.679a.566.566,0,0,1,.814-.514,3.209,3.209,0,0,1,0,5.705Z" transform="translate(-1732.344 -1328.056)" fill="#bb9df4"/>
      </g>
      <path id="Path_3715" data-name="Path 3715" d="M1672.025,1743.048l2.064-6.583a1.923,1.923,0,0,1,2.318-1.292c2.529.667,7.259,1.349,10.343-1.651a1.9,1.9,0,0,1,2.2-.3l18.994,9.778a1.928,1.928,0,0,1,1.045,1.727h0a1.928,1.928,0,0,1-1.939,1.915l-33.2-.195a1.929,1.929,0,0,1-1.917-1.941l.006-.893A1.918,1.918,0,0,1,1672.025,1743.048Z" transform="translate(-1545.194 -1524.29)" fill="#261a5b"/>
    </g>
  </g>
</svg>
