<svg xmlns="http://www.w3.org/2000/svg" width="1748" height="1748" viewBox="0 0 1748 1748">
  <g id="circile-effect" transform="translate(-1062 -1017)">
    <g id="Ellipse_52" data-name="Ellipse 52" transform="translate(1062 1017)" fill="rgba(255,255,255,0.03)" stroke="#fff" stroke-width="1" opacity="0.15">
      <circle cx="874" cy="874" r="874" stroke="none"/>
      <circle cx="874" cy="874" r="873.5" fill="none"/>
    </g>
    <g id="Ellipse_37" data-name="Ellipse 37" transform="translate(1840 1795)" fill="rgba(255,255,255,0.03)" stroke="#fff" stroke-width="1" opacity="0.15">
      <circle cx="96" cy="96" r="96" stroke="none"/>
      <circle cx="96" cy="96" r="95.5" fill="none"/>
    </g>
    <g id="Ellipse_38" data-name="Ellipse 38" transform="translate(1804 1759)" fill="rgba(255,255,255,0.03)" stroke="#fff" stroke-width="1" opacity="0.15">
      <circle cx="132" cy="132" r="132" stroke="none"/>
      <circle cx="132" cy="132" r="131.5" fill="none"/>
    </g>
    <g id="Ellipse_39" data-name="Ellipse 39" transform="translate(1770 1725)" fill="rgba(255,255,255,0.03)" stroke="#fff" stroke-width="1" opacity="0.15">
      <circle cx="166" cy="166" r="166" stroke="none"/>
      <circle cx="166" cy="166" r="165.5" fill="none"/>
    </g>
    <g id="Ellipse_40" data-name="Ellipse 40" transform="translate(1729 1684)" fill="rgba(255,255,255,0.03)" stroke="#fff" stroke-width="1" opacity="0.15">
      <circle cx="207" cy="207" r="207" stroke="none"/>
      <circle cx="207" cy="207" r="206.5" fill="none"/>
    </g>
    <g id="Ellipse_41" data-name="Ellipse 41" transform="translate(1670 1625)" fill="rgba(255,255,255,0.03)" stroke="#fff" stroke-width="1" opacity="0.15">
      <circle cx="266" cy="266" r="266" stroke="none"/>
      <circle cx="266" cy="266" r="265.5" fill="none"/>
    </g>
    <g id="Ellipse_42" data-name="Ellipse 42" transform="translate(1624 1579)" fill="rgba(255,255,255,0.03)" stroke="#fff" stroke-width="1" opacity="0.15">
      <circle cx="312" cy="312" r="312" stroke="none"/>
      <circle cx="312" cy="312" r="311.5" fill="none"/>
    </g>
    <g id="Ellipse_43" data-name="Ellipse 43" transform="translate(1577 1532)" fill="rgba(255,255,255,0.03)" stroke="#fff" stroke-width="1" opacity="0.15">
      <circle cx="359" cy="359" r="359" stroke="none"/>
      <circle cx="359" cy="359" r="358.5" fill="none"/>
    </g>
    <g id="Ellipse_44" data-name="Ellipse 44" transform="translate(1503 1458)" fill="rgba(255,255,255,0.03)" stroke="#fff" stroke-width="1" opacity="0.15">
      <circle cx="433" cy="433" r="433" stroke="none"/>
      <circle cx="433" cy="433" r="432.5" fill="none"/>
    </g>
    <g id="Ellipse_45" data-name="Ellipse 45" transform="translate(1447 1402)" fill="rgba(255,255,255,0.03)" stroke="#fff" stroke-width="1" opacity="0.15">
      <circle cx="489" cy="489" r="489" stroke="none"/>
      <circle cx="489" cy="489" r="488.5" fill="none"/>
    </g>
    <g id="Ellipse_46" data-name="Ellipse 46" transform="translate(1392 1347)" fill="rgba(255,255,255,0.03)" stroke="#fff" stroke-width="1" opacity="0.15">
      <circle cx="544" cy="544" r="544" stroke="none"/>
      <circle cx="544" cy="544" r="543.5" fill="none"/>
    </g>
    <g id="Ellipse_47" data-name="Ellipse 47" transform="translate(1336 1291)" fill="rgba(255,255,255,0.03)" stroke="#fff" stroke-width="1" opacity="0.15">
      <circle cx="600" cy="600" r="600" stroke="none"/>
      <circle cx="600" cy="600" r="599.5" fill="none"/>
    </g>
    <g id="Ellipse_48" data-name="Ellipse 48" transform="translate(1283 1238)" fill="rgba(255,255,255,0.03)" stroke="#fff" stroke-width="1" opacity="0.15">
      <circle cx="653" cy="653" r="653" stroke="none"/>
      <circle cx="653" cy="653" r="652.5" fill="none"/>
    </g>
    <g id="Ellipse_49" data-name="Ellipse 49" transform="translate(1237 1192)" fill="rgba(255,255,255,0.03)" stroke="#fff" stroke-width="1" opacity="0.15">
      <circle cx="699" cy="699" r="699" stroke="none"/>
      <circle cx="699" cy="699" r="698.5" fill="none"/>
    </g>
    <g id="Ellipse_50" data-name="Ellipse 50" transform="translate(1183 1138)" fill="rgba(255,255,255,0.03)" stroke="#fff" stroke-width="1" opacity="0.15">
      <circle cx="753" cy="753" r="753" stroke="none"/>
      <circle cx="753" cy="753" r="752.5" fill="none"/>
    </g>
    <g id="Ellipse_51" data-name="Ellipse 51" transform="translate(1125 1080)" fill="rgba(255,255,255,0.03)" stroke="#fff" stroke-width="1" opacity="0.15">
      <circle cx="811" cy="811" r="811" stroke="none"/>
      <circle cx="811" cy="811" r="810.5" fill="none"/>
    </g>
  </g>
</svg>
