<svg id="Content_Marketing_Services" data-name="Content Marketing Services" xmlns="http://www.w3.org/2000/svg" width="88.455" height="79.948" viewBox="0 0 88.455 79.948">
  <path id="Path_5017" data-name="Path 5017" d="M141.823,399.173a4.036,4.036,0,0,1-1.642-.352,3.987,3.987,0,0,1-2.1-2.229l-7.5-19.767a4,4,0,0,1,2.317-5.162l25.994-9.864,10.343,27.246L143.25,398.91A3.971,3.971,0,0,1,141.823,399.173Zm15.378-33.58-23.247,8.828a1.072,1.072,0,0,0-.626,1.378l7.5,19.767a1.072,1.072,0,0,0,1.378.626l23.247-8.828Z" transform="translate(-123.416 -336.509)" fill="#0253e9"/>
  <path id="Path_5018" data-name="Path 5018" d="M68.516,529.774a5.241,5.241,0,0,1-4.9-3.383l-3.568-9.414a5.246,5.246,0,0,1,3.04-6.755l6.657-2.522,7.293,19.2-6.677,2.532A5.108,5.108,0,0,1,68.516,529.774Zm-.489-18.291-3.91,1.486a2.311,2.311,0,0,0-1.339,2.972l3.568,9.414a2.311,2.311,0,0,0,2.972,1.339l3.91-1.486Z" transform="translate(-59.709 -468.146)" fill="#0253e9"/>
  <path id="Path_5019" data-name="Path 5019" d="M439.953,161.859a1.947,1.947,0,0,1-.411-.039h0l-32.74-5.738-9.9-26.063,20.686-26.014a2.407,2.407,0,0,1,4.135.645L442.192,158.6a2.419,2.419,0,0,1-.391,2.385A2.385,2.385,0,0,1,439.953,161.859Zm-31.009-8.378,30.188,5.289-19.816-52.213-19.073,23.99Z" transform="translate(-363.936 -103.095)" fill="#0253e9"/>
  <path id="Path_5020" data-name="Path 5020" d="M276.68,671.521a1.967,1.967,0,0,1-1.76-1.085L264.9,650.756l16.492-6.257,1.955,5.142a6.057,6.057,0,0,1-.762,5.709l-1,1.378,4.683,8.925a1.962,1.962,0,0,1,.1,1.623,2,2,0,0,1-1.154,1.154l-7.831,2.972A2.171,2.171,0,0,1,276.68,671.521ZM269,652.33l8.143,16.013,6.032-2.288-5.035-9.58,2.072-2.855a3.081,3.081,0,0,0,.391-2.943l-.909-2.4Z" transform="translate(-244.841 -591.572)" fill="#0253e9"/>
  <rect id="Rectangle_2719" data-name="Rectangle 2719" width="2.933" height="9.277" transform="translate(84.949 20.537) rotate(69.218)" fill="#0253e9"/>
  <rect id="Rectangle_2720" data-name="Rectangle 2720" width="2.933" height="9.287" transform="translate(73.998 4.815) rotate(43.797)" fill="#0253e9"/>
  <rect id="Rectangle_2721" data-name="Rectangle 2721" width="9.277" height="2.933" transform="translate(79.208 38.644) rotate(4.639)" fill="#0253e9"/>
  <rect id="Rectangle_2722" data-name="Rectangle 2722" width="2.933" height="15.358" transform="translate(30.563 35.257) rotate(69.218)" fill="#0253e9"/>
</svg>
