<svg xmlns="http://www.w3.org/2000/svg" width="63.99" height="64" viewBox="0 0 63.99 64">
  <g id="Data_Backed_" data-name="Data Backed " transform="translate(-2.005 -2)" opacity="0.71">
    <path id="Path_5058" data-name="Path 5058" d="M33.98,2H33.9a32,32,0,1,0,22.78,54.566h0A31.819,31.819,0,0,0,66,33.98v-.073A32.019,32.019,0,0,0,33.98,2ZM53.365,33.946A19.359,19.359,0,0,1,34.294,53.357c-.082,0-.163.013-.245.013a19.367,19.367,0,0,1-.263-38.732c.052,0,.1-.008.155-.008H34A19.387,19.387,0,0,1,53.365,33.946ZM33.908,4A30.009,30.009,0,0,1,54.43,12.044L48.337,18.17a21.4,21.4,0,0,0-14.4-5.54h0c-.066,0-.131.01-.2.01a21.23,21.23,0,0,0-14.167,5.6l-6.118-6.085A29.687,29.687,0,0,1,33.908,4ZM12.04,13.577l6.119,6.084a21.369,21.369,0,0,0,.087,28.769l-6.093,6.125a29.987,29.987,0,0,1-.113-40.977ZM34.015,64a29.777,29.777,0,0,1-20.444-8.034l6.094-6.128a21.342,21.342,0,0,0,28.758-.079l6.126,6.094A29.881,29.881,0,0,1,34.015,64ZM64,33.98A29.821,29.821,0,0,1,55.96,54.434l-6.126-6.093a21.34,21.34,0,0,0-.081-28.758l6.094-6.127A29.752,29.752,0,0,1,64,33.912Z" fill="#fff"/>
    <path id="Path_5059" data-name="Path 5059" d="M25.759,32.053H22.217a2,2,0,0,0-2,2v8.2a2,2,0,0,0,2,2h3.542a2,2,0,0,0,2-2v-8.2A2,2,0,0,0,25.759,32.053Zm0,10.2H22.217v-8.2h3.542Z" fill="#fff"/>
    <path id="Path_5060" data-name="Path 5060" d="M30.229,23.178V42.253a2,2,0,0,0,2,2h3.542a2,2,0,0,0,2-2V23.178a2,2,0,0,0-2-2H32.229A2,2,0,0,0,30.229,23.178Zm5.542,19.075H32.229V23.178h3.542Z" fill="#fff"/>
    <path id="Path_5061" data-name="Path 5061" d="M42.241,44.253h3.542a2,2,0,0,0,2-2V29a2,2,0,0,0-2-2H42.241a2,2,0,0,0-2,2v13.25A2,2,0,0,0,42.241,44.253Zm0-15.25h3.542V42.253H42.241Z" fill="#fff"/>
  </g>
</svg>
