<svg xmlns="http://www.w3.org/2000/svg" width="74.696" height="61.8" viewBox="0 0 74.696 61.8">
  <g id="Dedicated_Account_" data-name="Dedicated Account " opacity="0.71">
    <path id="Path_5012" data-name="Path 5012" d="M41.129,42.461a14.425,14.425,0,1,1,14.432-14.43A14.425,14.425,0,0,1,41.129,42.461Zm0-26.4a11.965,11.965,0,1,0,0-.006Z" transform="translate(-12.223 -13.61)" fill="#fff"/>
    <path id="Path_5013" data-name="Path 5013" d="M4.285,96.266A1.225,1.225,0,0,1,3.06,95.041,28.355,28.355,0,0,1,24.5,67.477a1.225,1.225,0,0,1,1.348.557l6.027,10.04,5.109-9.942a1.225,1.225,0,0,1,1.39-.613,27.613,27.613,0,0,1,5.727,2.1A1.225,1.225,0,1,1,42.986,71.8,24.752,24.752,0,0,0,38.7,70.117L33.65,80.034a1.9,1.9,0,0,1-1.666,1h0a2.009,2.009,0,0,1-1.715-.931l-6.034-9.984A25.911,25.911,0,0,0,5.51,95.041a1.225,1.225,0,0,1-1.225,1.225ZM32.333,78.809Z" transform="translate(-3.06 -34.467)" fill="#fff"/>
    <path id="Path_5014" data-name="Path 5014" d="M95.289,90.4a6.505,6.505,0,1,1,3.24-.87h0a6.462,6.462,0,0,1-3.24.87Zm2.628-1.93ZM95.271,79.84A4.055,4.055,0,1,0,97.3,87.411h0a4.055,4.055,0,0,0-2.034-7.571Z" transform="translate(-36.27 -38.321)" fill="#fff"/>
    <path id="Path_5015" data-name="Path 5015" d="M93.681,93.888H85.234a1.225,1.225,0,0,1-1.225-1.225V89.294a12.1,12.1,0,0,1-1.421-.821L79.85,90.115a1.225,1.225,0,0,1-1.7-.453l-4.245-7.6a1.225,1.225,0,0,1,.441-1.648l2.665-1.593a12.523,12.523,0,0,1,0-1.905l-2.665-1.593a1.225,1.225,0,0,1-.441-1.648l4.227-7.589a1.225,1.225,0,0,1,1.721-.478l2.75,1.642c.19-.123.392-.251.613-.386s.539-.306.8-.435V63.065a1.225,1.225,0,0,1,1.225-1.225h8.447a1.225,1.225,0,0,1,1.225,1.225v3.369a12.082,12.082,0,0,1,1.421.821l2.732-1.642a1.225,1.225,0,0,1,1.7.453l4.227,7.589a1.225,1.225,0,0,1-.441,1.648L101.883,76.9a12.562,12.562,0,0,1,0,1.905l2.665,1.593a1.225,1.225,0,0,1,.441,1.648l-4.227,7.589a1.225,1.225,0,0,1-1.7.453l-2.75-1.642c-.19.123-.392.251-.613.386s-.539.306-.8.435v3.369a1.225,1.225,0,0,1-1.225,1.256Zm-7.222-2.45h6V88.5a1.225,1.225,0,0,1,.778-1.139,8.423,8.423,0,0,0,1.225-.613,9.8,9.8,0,0,0,1.047-.711,1.225,1.225,0,0,1,1.39-.092l2.352,1.409,3.032-5.446-2.322-1.384a1.225,1.225,0,0,1-.613-1.225,10.138,10.138,0,0,0,0-2.861,1.225,1.225,0,0,1,.613-1.225l2.315-1.384-3.063-5.446-2.34,1.409a1.225,1.225,0,0,1-1.378-.08A9.646,9.646,0,0,0,93.2,68.388a1.225,1.225,0,0,1-.766-1.133v-2.94H86.459v2.94a1.225,1.225,0,0,1-.778,1.139,8.479,8.479,0,0,0-1.225.613,9.754,9.754,0,0,0-1.047.7,1.225,1.225,0,0,1-1.39.092l-2.352-1.409L76.634,73.84l2.322,1.384a1.225,1.225,0,0,1,.613,1.225,10.125,10.125,0,0,0,0,2.861,1.225,1.225,0,0,1-.613,1.225L76.64,81.919,79.7,87.365l2.34-1.409a1.225,1.225,0,0,1,1.378.08,9.672,9.672,0,0,0,2.291,1.323,1.225,1.225,0,0,1,.766,1.133Z" transform="translate(-30.448 -32.297)" fill="#fff"/>
  </g>
</svg>
