<svg xmlns="http://www.w3.org/2000/svg" width="124.384" height="124.384" viewBox="0 0 124.384 124.384">
  <g id="demand" transform="translate(-1 -1)">
    <path id="Path_3722" data-name="Path 3722" d="M54.074,17.037A12.037,12.037,0,1,0,42.037,29.074,12.049,12.049,0,0,0,54.074,17.037Zm-20.062,0a8.025,8.025,0,1,1,8.025,8.025A8.033,8.033,0,0,1,34.012,17.037Z" transform="translate(29.18 4.025)"/>
    <path id="Path_3723" data-name="Path 3723" d="M55.019,20.025a2.008,2.008,0,0,1,2.006,2.006h4.012a6.01,6.01,0,0,0-4.012-5.649V12H53.012v4.012H49v6.019a6.026,6.026,0,0,0,6.019,6.019,2.008,2.008,0,0,1,2.006,2.006v2.006H55.019a2.008,2.008,0,0,1-2.006-2.006H49a6.01,6.01,0,0,0,4.012,5.649v4.382h4.012V36.074h4.012V30.056a6.026,6.026,0,0,0-6.019-6.019,2.008,2.008,0,0,1-2.006-2.006V20.025Z" transform="translate(48.297 11.068)"/>
    <path id="Path_3724" data-name="Path 3724" d="M125.384,37.111a22.074,22.074,0,0,0-34.256-18.4,20.055,20.055,0,1,0-29.6,19.907,6.652,6.652,0,0,0-1.4,1.477L50.238,54.93A14,14,0,0,1,43.9,60.112a14.05,14.05,0,1,0-20.413,1.254A17.939,17.939,0,0,0,9.145,72.535L1.488,91.68A6.814,6.814,0,0,0,1,94.212v.277a6.821,6.821,0,0,0,13.116,2.624l6.945-16.667V92.884l-9.5,22.812a6.774,6.774,0,0,0-.528,2.63v.215a6.842,6.842,0,0,0,13.131,2.7L34.243,97.716l4.875,7.918v12.906a6.85,6.85,0,0,0,6.841,6.843h67.388V56.744A22.078,22.078,0,0,0,125.384,37.111ZM55.167,21.062a16.05,16.05,0,1,1,16.05,16.05A16.068,16.068,0,0,1,55.167,21.062ZM51.731,98.37,51.087,97.3h10.1v24.074H52.531a6.783,6.783,0,0,0,.63-2.831V103.532a10.022,10.022,0,0,0-1.43-5.162ZM65.2,97.3h2.837l5.188-5.188v29.262H65.2Zm12.037-9.2,8.025-8.025v41.3H77.235ZM89.272,76.06,97.3,68.035v53.337H89.272Zm-22.9,17.225H48.679l-1.537-2.562v-1.45h16.88L95.552,57.743a21.856,21.856,0,0,0,5.1,1.26ZM62.361,85.26H47.142V74.812A25.579,25.579,0,0,0,62.237,63.555L65.2,58.744v2.442a6.019,6.019,0,1,0,12.037,0V40.2a19.985,19.985,0,0,0,4.077-1.828,22.049,22.049,0,0,0,10.438,17.5ZM69.21,41.021a19.72,19.72,0,0,0,4.012,0V61.186a2.006,2.006,0,1,1-4.012,0ZM23.068,51.155A10.031,10.031,0,1,1,33.1,61.186,10.042,10.042,0,0,1,23.068,51.155Zm23.111,70.217h-.221a2.834,2.834,0,0,1-2.829-2.831V105.635a4.026,4.026,0,0,0-.6-2.1L36.227,93.285h-4.45l-11.3,26.371a2.83,2.83,0,0,1-5.431-1.115v-.215a2.812,2.812,0,0,1,.217-1.087l9.814-23.553V73.223H19.724L10.413,95.57a2.809,2.809,0,0,1-5.4-1.081v-.277a2.783,2.783,0,0,1,.2-1.043l7.656-19.143A13.974,13.974,0,0,1,25.909,65.2H38.554a18.013,18.013,0,0,0,15.022-8.041l9.893-14.838A2.668,2.668,0,0,1,65.2,41.186v9.9L58.82,61.453a21.552,21.552,0,0,1-14.079,9.8l-1.611.321V91.834l5.16,8.6a6.014,6.014,0,0,1,.859,3.1v15.008a2.834,2.834,0,0,1-2.829,2.831Zm63.155,0H101.31V64.022l5.082-5.082a21.7,21.7,0,0,0,2.943-.616Zm-6.019-66.2A17.77,17.77,0,0,1,85.388,35.248a20.024,20.024,0,0,0,5.669-11.367,18.048,18.048,0,1,1,12.258,31.287Z"/>
  </g>
</svg>
