<svg xmlns="http://www.w3.org/2000/svg" width="345.058" height="30.862" viewBox="0 0 345.058 30.862">
  <g id="economic-times" transform="translate(1893.1 -5205.498)" opacity="0.5">
    <path id="Path_5236" data-name="Path 5236" d="M101.416,156.209h3.29l1.8-.313.94-.313.235-.862.313-5.953V133.415l-.313-6.188h-3.29l-1.8.313-1.488.548-.862.862-.94.94-.548,1.175-.313,1.175-.627,3.525H97.5V126.6h26.945v9.165l-.548-3.525-.627-2.037-.862-1.253-1.253-.862-1.488-.548-2.037-.313h-3.916v27.807l.627.548,1.488.313,1.8.313h2.35l.313.548H101.416v-.548" transform="translate(-1990.6 5078.898)" fill="#fff" fill-rule="evenodd"/>
    <path id="Path_5237" data-name="Path 5237" d="M152.857,138.635h.548v.627h2.115l.627.313.313.313.313,7.128V156.1l-.313,2.037-.313.313-.627.313h-2.663v.313h.548v.627h-.548l9.008-.313,11.671.313v-8.851h-.548l-.313,2.35c-1.1,6.345-6.188,6.11-11.358,5.326H161v-2.977l-.313-6.815h2.977l.94.313.627.627.627.627.627.548.313,1.175v2.663h.627V142.786H166.8v2.663c-.548,2.585-2.272,2.272-4.465,2.663h-1.488l.313-6.188v-2.35l.627-.313c5.64.235,8.46-1.175,10.183,5.326l.313,2.35h.627v-8.3H152.857M139.384,159v.627l-5.718-.313-6.266.313V159l2.977-.313.94-.313.313-.313V139.732l-.313-.313-.94-.313H127.4v-.627h11.984v.627h-2.428l-.94.313-.313.313-.313,2.35v6.188h9.87v-6.815l-.313-1.8-.313-.313-.548-.313h-2.663V138.4h11.044v.627h-2.115l-.627.313-.313.313-.313,2.037v13.864l.313,2.663h.313l.627.313,2.428.313v-.313h-.313v.862h.313l-5.718-.313-5.718.313v-.627l2.35-.313h.862l.313-.313.313-2.663v-6.5h-9.87v6.5l.313,2.35.627.313.862.313Z" transform="translate(-1997.079 5076.341)" fill="#fff" fill-rule="evenodd"/>
    <path id="Path_5238" data-name="Path 5238" d="M351.053,158.592h.313v.548h-.313Zm0-6.266.94,2.35c3.447,6.736,14.569,7.206,16.136-2.037V150.6h-.548v2.037l-.313,1.488c-2.428,6.736-12.3,7.52-12.3-2.977l-.313-2.35.313-2.35.313-2.037.313-1.8.548-1.488.94-1.175.862-.862,1.175-.313,1.175-.313c4.23,1.018,2.742.235,5.091,3.525l.627,1.488.313,1.8.313,2.115h.627V137.6h-.313l-.627,1.488-.862,1.175h-.313l-1.175-1.175-1.175-.627-1.175-.313-1.175-.313-2.115.313-1.8.627-1.488.862-1.488,1.488-1.488,2.037-.94,2.663v6.5Zm0-13.864h.313v.627h-.313Zm0,0H339.382v.627h2.742l.862.313.313.313v2.037l.313,5.013-.313,7.99v3.29l-.313.313-.862.313h-2.742v.548h11.671v-.548l-2.428-.313h-.862l-.313-.313v-2.663l-.313-6.815.313-6.188v-2.663l.313-.313.862-.313h2.428Zm0,7.363v6.5l-.313-1.488v-3.525ZM313.3,159.141v-.313l1.8-.313.862-.548.862-1.175v-1.8l-.313-11.828v-2.037l-.627-1.175-.862-.548-1.8-.313v-.627h8.225l4.465,14.8h.313l4.778-14.8h8.381v.627h-2.663l-.862.313-.313.313v18.329l.313.313.862.313h2.663v.548H327.4v-.548H331l.627-.548V139.793H331l-2.977,9.713-1.488,4.7-1.175,5.013h-1.175L317.92,139.4h-.627l.313,13.316v2.977l.548,1.8.627.627.862.313.862.313h1.488v.548H313.3Zm0-7.363.313-1.488.235-1.488-.235-1.488-.313-1.488Zm-.235-12.689h.313v-.627h-.313Zm.235,6.736-.627-2.037c-1.175-2.82-3.995-5.4-7.206-5.64l-1.488-.313v.548l1.253.313,1.175.313.862.862.627,1.488.548,1.488.627,2.037.313,2.037v4.7l-.313,2.037-.627,1.488-.548,1.488-.627.862-.862.862-1.175.313-1.253.313v.627l1.8-.313a9.824,9.824,0,0,0,7.52-7.676Zm0,13h-.313v.313h.313Zm-9.243-20.992v.548l-1.488.313-.862.313c-2.82,2.663-2.428,3.447-2.977,7.05v4.7c.392,2.9.548,5.64,2.977,7.676l1.175.313,1.175.313v.627h-.313l-1.8-.313-1.8-.627-1.8-.862-1.488-1.488-.862-1.175-.94-1.8v-9.165l.94-2.037,2.977-2.977,1.488-.627,1.8-.627Zm-8.068.627h-.94v.627h.94Zm-.94,0h-8.068v.627h1.175l1.175.313.94.313.548.548.627,1.8v10.966L280.4,138.54h-6.345v.627h1.253l.862.313.94.548.627,1.175.313,11.828v.862l-.313,2.115-.627,1.488-.94.627-2.115.548v.548h9.008v-.548H281.81c-3.29-.548-3.447-2.663-3.6-5.64v-11.2l8.695,11.514,2.115,2.663,2.428,3.838h.627V141.83l.627-1.488.313-.548.548-.313,1.488-.313Zm0,5.953-.627,2.35-.235,2.35.235,2.115.313,2.037.313.313Zm-20.992,8.225v-7.676l.627,1.8v4.151Zm-.548-14.178h.627v.627h-.627Zm.548,6.5v7.676l-.94,2.037-1.488,1.8-1.488,1.488-1.488.862-1.8.627-2.115.313v-.627l1.488-.313.94-.313c2.977-2.585,2.272-2.9,3.055-6.815V147c-.392-2.742-.627-7.363-3.917-8.3l-1.175-.313h-.313v-.548h.313c5.4.862,5.4,1.41,8.695,5.953Zm0,14.178h-.313v-.548h.313ZM253.689,150.6v2.037l-.313,1.8c-3.212,8.068-13.786,6.266-16.449-.862l-.313-2.037-.313-2.35.313-2.35.313-2.037.862-1.723,1.175-1.8,1.488-1.488,1.488-.862,1.8-.627,2.115-.313,1.175.313,1.488.313.94.627,1.175,1.175h.313l.94-1.175.627-1.488h.313v9.556h-.313L252.2,145.2l-.627-1.8c-1.88-7.206-11.123-6.971-11.123,2.977v4.7c.078,10.1,9.791,10.1,12.3,2.977l.313-1.488v-2.037h.627Zm11.123-12.768-1.8.313c-10.418,2.585-10.809,18.407-.313,21.306l2.115.313v-.627l-1.175-.313c-5.483-1.332-5.875-19.191,0-20.131l1.175-.313v-.548Z" transform="translate(-2020.678 5076.514)" fill="#fff" fill-rule="evenodd"/>
    <path id="Path_5239" data-name="Path 5239" d="M440.6,158.6h2.663l.862-.313h.313v-3.525l.313-7.99-.313-5.013v-2.037l-.313-.313-.862-.313H440.6v-.627h11.984v.627h-2.663l-.94.313-.313.313-.313,2.663v13l.313,2.663.313.313.94.313h2.663v.548H440.6V158.6m16.763-19.269h-.313v13.316l.313,2.977.627,1.8.627.627.627.548h1.175l1.175.313v.313h-5.718l-2.977.313v-.548l1.8-.313,1.175-.548.627-.862.313-1.8L456.5,143.4V141.29l-.627-1.175-.627-.627-.548-.313h-1.8v-.627h8.068l4.778,14.8,4.465-14.8h8.381v.627h-2.663l-.627.313h-.235l-.313,3.212v14.178l.313,1.488h.235l.627.313,2.663.313v.313H466.919v-.313l3.6-.313.313-.313.313-1.175V139.723h-.627l-2.977,9.791-1.488,5.013-1.175,4.7h-1.253ZM479.843,158.6h2.663l.94-.313.313-.313.313-6.5v-9.791l-.313-2.037-.313-.313-.627-.313h-2.977v-.627h19.191v7.99h-.627l-.313-2.037c-.783-6.423-4.543-5.091-9.635-5.326l-.627.313v2.35l-.313,6.188h1.175l2.428-.313.627-.313.548-.627.627-.627.313-.862v-2.977h.627v12.141h-.627v-2.663l-.313-1.175-.313-.548-.548-.627-.627-.627-.862-.313H487.6l.313,6.815v2.977h.313l.548.313h4.778l1.488-.313,1.175-.548.862-.548.627-.862.862-1.488.313-1.723.627-2.35h.313v8.538H479.765V158.6Zm22.481,1.175V150.3h.313l.627,2.037.862,1.8.862,1.488.862,1.488,1.175.862.862.548,1.488.548h1.253l1.8-.313,1.488-.627.862-1.488v-2.663l-.313-.862-.627-.862-.627-.548-1.8-.862-2.977-.627-3.29-1.175c-7.755-3.525-2.428-14.334,5.4-10.653l1.175.862,1.488,1.175.627-.313.313-.627.548-1.8h.627v7.99H514.7l-.313-1.723-.627-1.488-.94-1.175c-1.41-2.115-2.82-3.133-5.4-2.977h-1.8l-1.488.862-.94,1.175-.313,1.488.313.862.313.862.627.627.548.548,2.115.627,2.977.862,3.29.862c7.99,3.6,2.35,16.214-5.953,11.514l-1.253-.862-1.488-1.488-.548.627-.627.548-.94,2.037h.078Z" transform="translate(-2064.951 5076.506)" fill="#fff" fill-rule="evenodd"/>
    <path id="Path_5240" data-name="Path 5240" d="M195.778,155.9h4.23l1.253-.313.313-.627.313-2.977V131.3l-.313-3.212-.313-.313-1.253-.313-4.23-.313V126.6h29.06v11.828h-.94l-.313-3.29c-1.723-8.381-7.363-8.538-14.961-7.676l-.627.313-.313,3.525v9.165h1.8c4.856-.157,6.188-1.253,6.58-5.875l.313-2.35h.627v17.7h-.627l-.313-2.35c0-4.308-1.723-6.345-5.953-6.5h-2.428v10.026l.313,4.151.313.313,1.175.313h6.893l2.428-.313,1.8-.862,1.175-.862,1.175-1.488,1.175-2.037.627-2.663.548-3.29h.94V157.07l-17.076-.313-13.473.313V155.9" transform="translate(-2011.88 5078.898)" fill="#fff" fill-rule="evenodd"/>
    <path id="Path_5241" data-name="Path 5241" d="M414.638,156.209h3.29l1.8-.313.94-.313.313-.862.313-5.953V127.227h-3.6c-2.742.078-5.718,2.193-6.031,5.013l-.548,3.525H410.8V126.6h26.945v9.165l-.627-3.525-.627-2.115-.862-1.175-1.175-.862-1.488-.627-2.115-.313h-3.916v27.807l.627.627,1.488.313,1.8.313h2.428l.313.548H414.716v-.548" transform="translate(-2058.493 5078.898)" fill="#fff" fill-rule="evenodd"/>
    <path id="Path_5374" data-name="Path 5374" d="M101.416,156.209h3.29l1.8-.313.94-.313.235-.862.313-5.953V133.415l-.313-6.188h-3.29l-1.8.313-1.488.548-.862.862-.94.94-.548,1.175-.313,1.175-.627,3.525H97.5V126.6h26.945v9.165l-.548-3.525-.627-2.037-.862-1.253-1.253-.862-1.488-.548-2.037-.313h-3.916v27.807l.627.548,1.488.313,1.8.313h2.35l.313.548H101.416v-.548" transform="translate(-1990.6 5078.898)" fill="#fff" fill-rule="evenodd"/>
    <path id="Path_5375" data-name="Path 5375" d="M152.857,138.635h.548v.627h2.115l.627.313.313.313.313,7.128V156.1l-.313,2.037-.313.313-.627.313h-2.663v.313h.548v.627h-.548l9.008-.313,11.671.313v-8.851h-.548l-.313,2.35c-1.1,6.345-6.188,6.11-11.358,5.326H161v-2.977l-.313-6.815h2.977l.94.313.627.627.627.627.627.548.313,1.175v2.663h.627V142.786H166.8v2.663c-.548,2.585-2.272,2.272-4.465,2.663h-1.488l.313-6.188v-2.35l.627-.313c5.64.235,8.46-1.175,10.183,5.326l.313,2.35h.627v-8.3H152.857M139.384,159v.627l-5.718-.313-6.266.313V159l2.977-.313.94-.313.313-.313V139.732l-.313-.313-.94-.313H127.4v-.627h11.984v.627h-2.428l-.94.313-.313.313-.313,2.35v6.188h9.87v-6.815l-.313-1.8-.313-.313-.548-.313h-2.663V138.4h11.044v.627h-2.115l-.627.313-.313.313-.313,2.037v13.864l.313,2.663h.313l.627.313,2.428.313v-.313h-.313v.862h.313l-5.718-.313-5.718.313v-.627l2.35-.313h.862l.313-.313.313-2.663v-6.5h-9.87v6.5l.313,2.35.627.313.862.313Z" transform="translate(-1997.079 5076.341)" fill="#fff" fill-rule="evenodd"/>
    <path id="Path_5376" data-name="Path 5376" d="M351.053,158.592h.313v.548h-.313Zm0-6.266.94,2.35c3.447,6.736,14.569,7.206,16.136-2.037V150.6h-.548v2.037l-.313,1.488c-2.428,6.736-12.3,7.52-12.3-2.977l-.313-2.35.313-2.35.313-2.037.313-1.8.548-1.488.94-1.175.862-.862,1.175-.313,1.175-.313c4.23,1.018,2.742.235,5.091,3.525l.627,1.488.313,1.8.313,2.115h.627V137.6h-.313l-.627,1.488-.862,1.175h-.313l-1.175-1.175-1.175-.627-1.175-.313-1.175-.313-2.115.313-1.8.627-1.488.862-1.488,1.488-1.488,2.037-.94,2.663v6.5Zm0-13.864h.313v.627h-.313Zm0,0H339.382v.627h2.742l.862.313.313.313v2.037l.313,5.013-.313,7.99v3.29l-.313.313-.862.313h-2.742v.548h11.671v-.548l-2.428-.313h-.862l-.313-.313v-2.663l-.313-6.815.313-6.188v-2.663l.313-.313.862-.313h2.428Zm0,7.363v6.5l-.313-1.488v-3.525ZM313.3,159.141v-.313l1.8-.313.862-.548.862-1.175v-1.8l-.313-11.828v-2.037l-.627-1.175-.862-.548-1.8-.313v-.627h8.225l4.465,14.8h.313l4.778-14.8h8.381v.627h-2.663l-.862.313-.313.313v18.329l.313.313.862.313h2.663v.548H327.4v-.548H331l.627-.548V139.793H331l-2.977,9.713-1.488,4.7-1.175,5.013h-1.175L317.92,139.4h-.627l.313,13.316v2.977l.548,1.8.627.627.862.313.862.313h1.488v.548H313.3Zm0-7.363.313-1.488.235-1.488-.235-1.488-.313-1.488Zm-.235-12.689h.313v-.627h-.313Zm.235,6.736-.627-2.037c-1.175-2.82-3.995-5.4-7.206-5.64l-1.488-.313v.548l1.253.313,1.175.313.862.862.627,1.488.548,1.488.627,2.037.313,2.037v4.7l-.313,2.037-.627,1.488-.548,1.488-.627.862-.862.862-1.175.313-1.253.313v.627l1.8-.313a9.824,9.824,0,0,0,7.52-7.676Zm0,13h-.313v.313h.313Zm-9.243-20.992v.548l-1.488.313-.862.313c-2.82,2.663-2.428,3.447-2.977,7.05v4.7c.392,2.9.548,5.64,2.977,7.676l1.175.313,1.175.313v.627h-.313l-1.8-.313-1.8-.627-1.8-.862-1.488-1.488-.862-1.175-.94-1.8v-9.165l.94-2.037,2.977-2.977,1.488-.627,1.8-.627Zm-8.068.627h-.94v.627h.94Zm-.94,0h-8.068v.627h1.175l1.175.313.94.313.548.548.627,1.8v10.966L280.4,138.54h-6.345v.627h1.253l.862.313.94.548.627,1.175.313,11.828v.862l-.313,2.115-.627,1.488-.94.627-2.115.548v.548h9.008v-.548H281.81c-3.29-.548-3.447-2.663-3.6-5.64v-11.2l8.695,11.514,2.115,2.663,2.428,3.838h.627V141.83l.627-1.488.313-.548.548-.313,1.488-.313Zm0,5.953-.627,2.35-.235,2.35.235,2.115.313,2.037.313.313Zm-20.992,8.225v-7.676l.627,1.8v4.151Zm-.548-14.178h.627v.627h-.627Zm.548,6.5v7.676l-.94,2.037-1.488,1.8-1.488,1.488-1.488.862-1.8.627-2.115.313v-.627l1.488-.313.94-.313c2.977-2.585,2.272-2.9,3.055-6.815V147c-.392-2.742-.627-7.363-3.917-8.3l-1.175-.313h-.313v-.548h.313c5.4.862,5.4,1.41,8.695,5.953Zm0,14.178h-.313v-.548h.313ZM253.689,150.6v2.037l-.313,1.8c-3.212,8.068-13.786,6.266-16.449-.862l-.313-2.037-.313-2.35.313-2.35.313-2.037.862-1.723,1.175-1.8,1.488-1.488,1.488-.862,1.8-.627,2.115-.313,1.175.313,1.488.313.94.627,1.175,1.175h.313l.94-1.175.627-1.488h.313v9.556h-.313L252.2,145.2l-.627-1.8c-1.88-7.206-11.123-6.971-11.123,2.977v4.7c.078,10.1,9.791,10.1,12.3,2.977l.313-1.488v-2.037h.627Zm11.123-12.768-1.8.313c-10.418,2.585-10.809,18.407-.313,21.306l2.115.313v-.627l-1.175-.313c-5.483-1.332-5.875-19.191,0-20.131l1.175-.313v-.548Z" transform="translate(-2020.678 5076.514)" fill="#fff" fill-rule="evenodd"/>
    <path id="Path_5377" data-name="Path 5377" d="M440.6,158.6h2.663l.862-.313h.313v-3.525l.313-7.99-.313-5.013v-2.037l-.313-.313-.862-.313H440.6v-.627h11.984v.627h-2.663l-.94.313-.313.313-.313,2.663v13l.313,2.663.313.313.94.313h2.663v.548H440.6V158.6m16.763-19.269h-.313v13.316l.313,2.977.627,1.8.627.627.627.548h1.175l1.175.313v.313h-5.718l-2.977.313v-.548l1.8-.313,1.175-.548.627-.862.313-1.8L456.5,143.4V141.29l-.627-1.175-.627-.627-.548-.313h-1.8v-.627h8.068l4.778,14.8,4.465-14.8h8.381v.627h-2.663l-.627.313h-.235l-.313,3.212v14.178l.313,1.488h.235l.627.313,2.663.313v.313H466.919v-.313l3.6-.313.313-.313.313-1.175V139.723h-.627l-2.977,9.791-1.488,5.013-1.175,4.7h-1.253ZM479.843,158.6h2.663l.94-.313.313-.313.313-6.5v-9.791l-.313-2.037-.313-.313-.627-.313h-2.977v-.627h19.191v7.99h-.627l-.313-2.037c-.783-6.423-4.543-5.091-9.635-5.326l-.627.313v2.35l-.313,6.188h1.175l2.428-.313.627-.313.548-.627.627-.627.313-.862v-2.977h.627v12.141h-.627v-2.663l-.313-1.175-.313-.548-.548-.627-.627-.627-.862-.313H487.6l.313,6.815v2.977h.313l.548.313h4.778l1.488-.313,1.175-.548.862-.548.627-.862.862-1.488.313-1.723.627-2.35h.313v8.538H479.765V158.6Zm22.481,1.175V150.3h.313l.627,2.037.862,1.8.862,1.488.862,1.488,1.175.862.862.548,1.488.548h1.253l1.8-.313,1.488-.627.862-1.488v-2.663l-.313-.862-.627-.862-.627-.548-1.8-.862-2.977-.627-3.29-1.175c-7.755-3.525-2.428-14.334,5.4-10.653l1.175.862,1.488,1.175.627-.313.313-.627.548-1.8h.627v7.99H514.7l-.313-1.723-.627-1.488-.94-1.175c-1.41-2.115-2.82-3.133-5.4-2.977h-1.8l-1.488.862-.94,1.175-.313,1.488.313.862.313.862.627.627.548.548,2.115.627,2.977.862,3.29.862c7.99,3.6,2.35,16.214-5.953,11.514l-1.253-.862-1.488-1.488-.548.627-.627.548-.94,2.037h.078Z" transform="translate(-2064.951 5076.506)" fill="#fff" fill-rule="evenodd"/>
    <path id="Path_5378" data-name="Path 5378" d="M195.778,155.9h4.23l1.253-.313.313-.627.313-2.977V131.3l-.313-3.212-.313-.313-1.253-.313-4.23-.313V126.6h29.06v11.828h-.94l-.313-3.29c-1.723-8.381-7.363-8.538-14.961-7.676l-.627.313-.313,3.525v9.165h1.8c4.856-.157,6.188-1.253,6.58-5.875l.313-2.35h.627v17.7h-.627l-.313-2.35c0-4.308-1.723-6.345-5.953-6.5h-2.428v10.026l.313,4.151.313.313,1.175.313h6.893l2.428-.313,1.8-.862,1.175-.862,1.175-1.488,1.175-2.037.627-2.663.548-3.29h.94V157.07l-17.076-.313-13.473.313V155.9" transform="translate(-2011.88 5078.898)" fill="#fff" fill-rule="evenodd"/>
    <path id="Path_5379" data-name="Path 5379" d="M414.638,156.209h3.29l1.8-.313.94-.313.313-.862.313-5.953V127.227h-3.6c-2.742.078-5.718,2.193-6.031,5.013l-.548,3.525H410.8V126.6h26.945v9.165l-.627-3.525-.627-2.115-.862-1.175-1.175-.862-1.488-.627-2.115-.313h-3.916v27.807l.627.627,1.488.313,1.8.313h2.428l.313.548H414.716v-.548" transform="translate(-2058.493 5078.898)" fill="#fff" fill-rule="evenodd"/>
  </g>
</svg>
