<svg xmlns="http://www.w3.org/2000/svg" width="103.911" height="103.911" viewBox="0 0 103.911 103.911">
  <g id="elastic" transform="translate(-1 -1)">
    <path id="Path_3731" data-name="Path 3731" d="M104.911,25.744V16.481l-4.4-1.2c-.144-.384-.305-.768-.479-1.148l2.264-3.964-6.55-6.55L91.783,5.88c-.38-.174-.763-.335-1.148-.479L89.432,1H80.169l-1.2,4.4c-.384.144-.768.305-1.148.479L73.853,3.615l-6.55,6.55,2.264,3.964c-.1.206-.166.417-.251.627a21.434,21.434,0,0,0-4.966,1.478A28.477,28.477,0,0,0,12.732,32.844c0,.039,0,.077,0,.116a13.4,13.4,0,0,0,1.673,26.7h.982L37.872,82.141v22.77H68.039V82.141L90.521,59.66H91.5a13.4,13.4,0,0,0,7.619-24.427l3.174-3.174-2.264-3.964c.174-.38.335-.763.479-1.148ZM64.687,80.753v20.806H41.224V80.753L16.981,56.51a3.065,3.065,0,0,1,4.334-4.334l13.1,13.1a18.565,18.565,0,0,0,10.43,5.216l4.361.623-1.334,16L52.956,92.2l5.087-5.087L56.708,71.1l4.363-.612A18.565,18.565,0,0,0,71.5,65.274l13.1-13.1a3.064,3.064,0,0,1,4.334,4.332ZM39.663,59.66a13.341,13.341,0,0,0,2.955,6.853,15.18,15.18,0,0,1-5.837-3.61L33.538,59.66Zm26.584,0h6.126L69.129,62.9a15.2,15.2,0,0,1-5.837,3.61,13.355,13.355,0,0,0,2.956-6.855ZM54.573,85.84l-1.617,1.617L51.338,85.84l1.2-14.459.248,0c.055,0,.111.008.166.008h.414Zm-1.617-17.8A10.056,10.056,0,1,1,63.011,57.984,10.066,10.066,0,0,1,52.956,68.039Zm48.6-21.788A10.065,10.065,0,0,1,92.874,56.2a6.349,6.349,0,0,0,.305-1.86,6.416,6.416,0,0,0-10.953-4.537l-6.5,6.5H66.248a13.4,13.4,0,0,0-26.584,0H30.186l-6.5-6.5a6.378,6.378,0,0,0-10.648,6.4A10.05,10.05,0,1,1,22.66,40.5l2.75-1.919a13.439,13.439,0,0,0-9.322-5.633c0-.035-.005-.07-.005-.107A25.125,25.125,0,0,1,62.365,19.275l.828,1.287,1.358-.707a18.241,18.241,0,0,1,8.517-2.095,18.525,18.525,0,0,1,18.127,15.1A13.417,13.417,0,0,0,78.1,46.252h3.352a10.056,10.056,0,1,1,20.112,0ZM90.927,23.792A22.022,22.022,0,0,0,80.7,15.817a6.683,6.683,0,0,1,10.23,7.974ZM98.115,31.5,95.983,33.63a13.258,13.258,0,0,0-1.354-.4,21.444,21.444,0,0,0-1.8-6.136A10.031,10.031,0,0,0,77,14.778a21.573,21.573,0,0,0-3.815-.364l.2-.369-1.894-3.318,2.93-2.93,3.318,1.894.813-.432a13.2,13.2,0,0,1,2.3-.959l.878-.27,1.009-3.679h4.145L87.88,8.027l.878.27a13.336,13.336,0,0,1,2.3.959l.813.432,3.318-1.894,2.93,2.93-1.894,3.318.432.813a13.2,13.2,0,0,1,.959,2.3l.27.878,3.677,1.011v4.145l-3.675,1.007-.27.878a13.336,13.336,0,0,1-.959,2.3l-.432.813Z" transform="translate(0 0)"/>
    <path id="Path_3732" data-name="Path 3732" d="M57.319,22.663l2.167,2.167H24l2.167-2.167-2.37-2.37-6.213,6.213L23.8,32.719l2.37-2.37L24,28.182H59.486l-2.167,2.167,2.37,2.37L65.9,26.506l-6.213-6.213Z" transform="translate(11.212 13.042)"/>
    <path id="Path_3733" data-name="Path 3733" d="M31.022,8.119a21.509,21.509,0,0,0-3.634-.94l-.553,3.307a18.439,18.439,0,0,1,3.07.793Z" transform="translate(17.464 4.177)"/>
    <path id="Path_3734" data-name="Path 3734" d="M33.666,7A21.711,21.711,0,0,0,12.18,25.159l3.307.553a18.365,18.365,0,0,1,18.179-15.36Z" transform="translate(7.558 4.056)"/>
  </g>
</svg>
