<svg xmlns="http://www.w3.org/2000/svg" width="178.995" height="70.444" viewBox="0 0 178.995 70.444">
  <g id="google-partner" transform="translate(-986.908 -5463.004)">
    <g id="Group_2148" data-name="Group 2148" transform="translate(1024.894 5495.876)">
      <path id="Path_5143" data-name="Path 5143" d="M36.653,58.763V71.712H32.546V39.741H43.44A9.849,9.849,0,0,1,50.5,42.509a9.241,9.241,0,0,1,0,13.531,9.837,9.837,0,0,1-7.056,2.723Zm0-15.094V54.833H43.53a5.429,5.429,0,0,0,4.063-1.651A5.6,5.6,0,0,0,43.53,43.67Z" transform="translate(-32.546 -39.741)" fill="#262626"/>
      <path id="Path_5144" data-name="Path 5144" d="M52.716,44.2a10.194,10.194,0,0,1,7.19,2.433,8.636,8.636,0,0,1,2.633,6.675V66.793H58.611V63.756h-.179a7.839,7.839,0,0,1-6.787,3.752A8.816,8.816,0,0,1,45.6,65.363a6.837,6.837,0,0,1-2.433-5.357,6.5,6.5,0,0,1,2.568-5.4,10.819,10.819,0,0,1,6.854-2.011,12.143,12.143,0,0,1,6.027,1.34V53a4.674,4.674,0,0,0-1.7-3.638,5.821,5.821,0,0,0-3.973-1.5,6.3,6.3,0,0,0-5.449,2.9l-3.615-2.278Q46.868,44.2,52.716,44.2ZM47.4,60.095a3.278,3.278,0,0,0,1.361,2.679,5.013,5.013,0,0,0,3.195,1.073,6.554,6.554,0,0,0,4.62-1.92,6.017,6.017,0,0,0,2.032-4.511A8.444,8.444,0,0,0,53.253,55.9,6.962,6.962,0,0,0,49.078,57.1,3.577,3.577,0,0,0,47.4,60.095Z" transform="translate(-20.836 -34.822)" fill="#262626"/>
      <path id="Path_5145" data-name="Path 5145" d="M54.584,48.051h3.931v3.573h.179q1.83-4.2,7.546-4.2l.848.09V51.8l-1.83-.179a6.557,6.557,0,0,0-4.711,1.764,5.919,5.919,0,0,0-1.853,4.486V69.931H54.584Zm25.63,22.238a6.24,6.24,0,0,1-4.442-1.653,6.117,6.117,0,0,1-1.809-4.6V51.8h-3.84V48.051h3.84v-6.7h4.107v6.7H83.43V51.8H78.071V62.7a3.983,3.983,0,0,0,.85,2.97,2.752,2.752,0,0,0,1.918.782,4.185,4.185,0,0,0,.961-.111,5.221,5.221,0,0,0,.871-.29l1.3,3.661A11.09,11.09,0,0,1,80.214,70.289Z" transform="translate(-8.237 -37.961)" fill="#262626"/>
      <path id="Path_5146" data-name="Path 5146" d="M70.274,44.913H74.2V47.95h.179a7.314,7.314,0,0,1,2.881-2.679A8.263,8.263,0,0,1,81.3,44.2a8.087,8.087,0,0,1,6.185,2.3,9.185,9.185,0,0,1,2.166,6.543V66.793H85.544V53.308q-.133-5.36-5.4-5.359a5.132,5.132,0,0,0-4.107,1.987,7.2,7.2,0,0,0-1.653,4.755v12.1H70.274Z" transform="translate(9.071 -34.822)" fill="#262626"/>
      <path id="Path_5147" data-name="Path 5147" d="M92.26,67.508A10.464,10.464,0,0,1,84.312,64.2a11.66,11.66,0,0,1-3.125-8.349,11.884,11.884,0,0,1,3.037-8.328,10.918,10.918,0,0,1,15.516-.177q2.88,3.145,2.879,8.818l-.044.446H85.385a7.129,7.129,0,0,0,2.143,5.18,6.852,6.852,0,0,0,4.911,1.964q3.931,0,6.162-3.929l3.661,1.785a10.9,10.9,0,0,1-4.084,4.33A11.3,11.3,0,0,1,92.26,67.508ZM85.7,53.218H98.243a5.447,5.447,0,0,0-1.853-3.773,6.489,6.489,0,0,0-4.488-1.5,5.955,5.955,0,0,0-4,1.43A6.833,6.833,0,0,0,85.7,53.218Z" transform="translate(21.108 -34.822)" fill="#262626"/>
      <path id="Path_5148" data-name="Path 5148" d="M97.27,66.747H93.161V44.867h3.931V48.44h.179a5.938,5.938,0,0,1,2.566-2.97,7.134,7.134,0,0,1,3.819-1.228,7.7,7.7,0,0,1,3.037.536l-1.251,3.975a6.807,6.807,0,0,0-2.41-.313,5.313,5.313,0,0,0-4.042,1.876A6.268,6.268,0,0,0,97.27,54.69Z" transform="translate(34.316 -34.776)" fill="#262626"/>
    </g>
    <path id="Path_5153" data-name="Path 5153" d="M42.406,35.73v2.789h6.673a5.9,5.9,0,0,1-2.191,4.107A7.484,7.484,0,0,1,37.2,41.9a7.583,7.583,0,0,1,0-10.509,7,7,0,0,1,5.205-2.166,7.154,7.154,0,0,1,5.031,1.992L49.4,29.255a9.825,9.825,0,0,0-7-2.814,10.273,10.273,0,0,0-5.18,1.394,10.1,10.1,0,0,0-3.811,3.76,10.07,10.07,0,0,0,3.811,13.87,10.254,10.254,0,0,0,5.18,1.4,9.526,9.526,0,0,0,6.848-2.591,8.954,8.954,0,0,0,2.69-6.8,9.016,9.016,0,0,0-.149-1.741Z" transform="translate(991.797 5441.465)" fill="#276ab3"/>
    <path id="Path_5154" data-name="Path 5154" d="M48.579,29.9a6.4,6.4,0,0,0-4.707,1.891,6.706,6.706,0,0,0,.025,9.365,6.6,6.6,0,0,0,11.281-4.684,6.267,6.267,0,0,0-1.918-4.681A6.365,6.365,0,0,0,48.579,29.9ZM51.2,39.31a3.585,3.585,0,0,1-5.256,0,4,4,0,0,1-1.07-2.839,3.89,3.89,0,0,1,1.07-2.837,3.612,3.612,0,0,1,5.279,0,3.881,3.881,0,0,1,1.07,2.837A4,4,0,0,1,51.2,39.31Z" transform="translate(1002.755 5445.279)" fill="#e71c1f"/>
    <rect id="Rectangle_2779" data-name="Rectangle 2779" width="2.889" height="19.324" transform="translate(1088.115 5468.603)" fill="#009e3a"/>
    <path id="Path_5155" data-name="Path 5155" d="M55.423,29.9a6.4,6.4,0,0,0-4.707,1.891,6.706,6.706,0,0,0,.025,9.365,6.6,6.6,0,0,0,11.281-4.684A6.267,6.267,0,0,0,60.1,31.79,6.365,6.365,0,0,0,55.423,29.9Zm2.614,9.411a3.583,3.583,0,0,1-5.253,0,4,4,0,0,1-1.07-2.839,3.89,3.89,0,0,1,1.07-2.837,3.612,3.612,0,0,1,5.279,0,3.881,3.881,0,0,1,1.07,2.837A4,4,0,0,1,58.038,39.31Z" transform="translate(1010.304 5445.279)" fill="orange"/>
    <path id="Path_5156" data-name="Path 5156" d="M71.168,40.456a3.365,3.365,0,0,1-3.188-1.992l8.791-3.636-.3-.747a7.267,7.267,0,0,0-.909-1.693,6.554,6.554,0,0,0-1.283-1.333,5.436,5.436,0,0,0-1.594-.858,5.62,5.62,0,0,0-1.842-.3,5.9,5.9,0,0,0-4.433,1.868,6.632,6.632,0,0,0-1.767,4.7,6.405,6.405,0,0,0,1.868,4.684,6.635,6.635,0,0,0,10.135-1.022L74.4,38.639A3.735,3.735,0,0,1,71.168,40.456ZM68.5,33.533a3.381,3.381,0,0,1,2.44-1.1,2.984,2.984,0,0,1,1.521.387,2.032,2.032,0,0,1,.921,1.007l-5.878,2.442A3.593,3.593,0,0,1,68.5,33.533Z" transform="translate(1027.755 5445.279)" fill="#e71c1f"/>
    <path id="Path_5157" data-name="Path 5157" d="M65.529,31.367h-.1A4.29,4.29,0,0,0,61.969,29.9a6,6,0,0,0-4.433,1.941,6.709,6.709,0,0,0,0,9.289,6.089,6.089,0,0,0,4.433,1.918,4.258,4.258,0,0,0,3.462-1.5h.1v.673q0,4.133-3.51,4.133a3.248,3.248,0,0,1-1.994-.648,4.044,4.044,0,0,1-1.319-1.693l-2.515,1.047a6.656,6.656,0,0,0,.946,1.579,5.984,5.984,0,0,0,1.331,1.222,6.591,6.591,0,0,0,1.657.8,6.229,6.229,0,0,0,1.893.286,5.968,5.968,0,0,0,4.593-1.781A7.165,7.165,0,0,0,68.27,42.1V30.3h-2.74Zm-.822,7.969a3.241,3.241,0,0,1-2.49,1.121A3.436,3.436,0,0,1,59.6,39.31a4.305,4.305,0,0,1,.025-5.653,3.439,3.439,0,0,1,2.589-1.169,3.162,3.162,0,0,1,2.49,1.146,4.486,4.486,0,0,1,0,5.7Z" transform="translate(1017.854 5445.279)" fill="#276ab3"/>
    <rect id="Rectangle_2780" data-name="Rectangle 2780" width="20.955" height="70.444" transform="translate(986.908 5463.004)" fill="#e24137"/>
    <text id="PREMIER" transform="translate(1001.176 5527.254) rotate(-90)" fill="#fff" font-size="11" font-family="SegoeUI, Segoe UI" letter-spacing="0.2em"><tspan x="0" y="0">PREMIER</tspan></text>
  </g>
</svg>
