<svg id="google_analytics-ar21" xmlns="http://www.w3.org/2000/svg" width="200.495" height="74.383" viewBox="0 0 200.495 74.383">
  <g id="Group_2141" data-name="Group 2141" transform="translate(64.201 0)">
    <path id="Path_5126" data-name="Path 5126" d="M79.24,8.994l4.4,11.543H75.118L79.242,8.994Zm-1.65-3.866L67.973,30.405h3.572l2.473-6.867H84.732L87.2,30.405h3.572L81.158,5.128H77.587Zm51.917,25.3h3.314V5.146h-3.314V30.424ZM95.725,15.57a7.033,7.033,0,0,1,5.5-3.023c4.4,0,6.595,3.023,6.595,7.419V30.682H104.5V20.515c0-3.572-1.924-4.947-4.4-4.947-2.749,0-4.671,2.749-4.671,5.221v9.618H92.12V12.846h3.314l.276,2.749Zm14.839,9.636c0-3.866,3.572-6.046,7.7-6.046,2.473,0,4.124.552,4.671,1.1v-.552a4.107,4.107,0,0,0-4.4-4.124c-1.924,0-3.572.825-4.124,2.473l-3.023-1.373c.552-1.65,2.749-4.124,7.143-4.124,4.124,0,7.7,2.473,7.7,7.419V30.42H123.2V27.948h-.276a6.619,6.619,0,0,1-5.77,3.023c-3.572,0-6.595-2.2-6.595-5.77M122.926,23a6.907,6.907,0,0,0-4.124-1.1c-3.314,0-4.671,1.924-4.671,3.314,0,1.924,1.924,2.749,3.572,2.749,2.473,0,5.221-2.2,5.221-4.947" transform="translate(-67.973 36.26)" fill="#262626"/>
    <path id="Path_5127" data-name="Path 5127" d="M107.106,34.983l3.866-9.067L104.1,9.979h3.314l5.221,12.09,5.221-12.09h3.314l-10.715,25h-3.314ZM155.47,15.745a5.215,5.215,0,0,0-4.671-3.572c-2.749,0-5.221,2.473-5.221,6.046s2.473,6.046,5.221,6.046a5.317,5.317,0,0,0,4.671-3.314l2.749,1.65a8.072,8.072,0,0,1-7.419,4.947c-4.671,0-8.518-4.124-8.518-9.343,0-5.5,3.866-9.343,8.518-9.343a8.053,8.053,0,0,1,7.419,4.947l-2.749,1.924Z" transform="translate(-37.585 39.4)" fill="#262626" fill-rule="evenodd"/>
    <path id="Path_5128" data-name="Path 5128" d="M152.732,27.711c4.4,0,6.595-2.473,6.595-5.5,0-6.595-9.618-4.124-9.618-7.968,0-1.373,1.1-2.2,3.023-2.2a5.471,5.471,0,0,1,4.671,2.2l1.924-1.924A10.227,10.227,0,0,0,152.46,9.01c-4.124,0-6.32,2.473-6.32,5.5,0,6.32,9.892,4.124,9.892,7.419,0,1.65-1.1,2.749-3.314,2.749s-3.314-1.373-4.4-2.749l-2.441,1.942c1.65,1.65,4.124,3.866,6.867,3.866Zm-31.325-.549h3.314V9.577h-3.314Z" transform="translate(-23.033 39.525)" fill="#262626"/>
    <path id="Path_5129" data-name="Path 5129" d="M129.071,4.7a2.2,2.2,0,0,1,0,4.4,2.364,2.364,0,0,1-2.2-2.2A2.364,2.364,0,0,1,129.071,4.7ZM124.4,28.057l.552,2.473h-3.314c-3.023,0-4.4-2.2-4.4-5.5V16.483h-3.314V13.169h3.314V7.981h3.314V13.2h3.866v3.314h-3.866v9.067c0,2.473,1.924,2.473,3.866,2.473Z" transform="translate(-29.323 35.9)" fill="#262626" fill-rule="evenodd"/>
    <path id="Path_5130" data-name="Path 5130" d="M83.827-3.893V.231h9.618a8.257,8.257,0,0,1-2.2,4.947A9.869,9.869,0,0,1,83.827,8.2,10.5,10.5,0,0,1,73.384-2.514,10.674,10.674,0,0,1,83.827-13.229,10.624,10.624,0,0,1,90.97-10.48l2.749-2.749a14.29,14.29,0,0,0-9.892-4.124A14.9,14.9,0,0,0,68.988-2.809,14.894,14.894,0,0,0,83.827,11.735c4.4,0,7.7-1.373,10.166-4.124a12.978,12.978,0,0,0,3.572-9.343A6.784,6.784,0,0,0,97.288-4.2H83.825Zm24.453-3.314a9.111,9.111,0,0,0-9.343,9.343,9.112,9.112,0,0,0,9.343,9.343,9.26,9.26,0,0,0,9.343-9.343A9.1,9.1,0,0,0,108.279-7.207Zm0,15.1a5.534,5.534,0,0,1-5.221-5.77,5.517,5.517,0,0,1,5.221-5.751c2.749,0,5.223,2.209,5.223,5.762S111.03,7.9,108.281,7.9Zm45.05-13.174a7.131,7.131,0,0,0-5.221-2.2c-4.671,0-8.793,4.124-8.793,9.343s4.124,9.343,8.793,9.343a6.471,6.471,0,0,0,4.947-2.2h.276v1.373c0,3.572-1.924,5.5-4.947,5.5a5.244,5.244,0,0,1-4.671-3.314l-3.572,1.373a9.094,9.094,0,0,0,8.244,5.5c4.947,0,9.067-2.749,9.067-9.892V-7.5h-3.866v2.2ZM148.659,7.9c-2.749,0-4.947-2.473-4.947-5.77s2.2-5.77,4.947-5.77,4.947,2.473,4.947,5.77S151.407,7.9,148.659,7.9ZM128.6-7.192a9.111,9.111,0,0,0-9.343,9.343,9.112,9.112,0,0,0,9.343,9.343,9.26,9.26,0,0,0,9.343-9.343C138.216-3.345,133.816-7.192,128.6-7.192Zm0,15.1a5.534,5.534,0,0,1-5.221-5.77,5.534,5.534,0,0,1,5.221-5.77c2.749,0,5.221,2.2,5.221,5.77S131.346,7.9,128.6,7.9ZM160.51-17.082h4.124V11.494H160.51Zm15.387,25a5.317,5.317,0,0,1-4.671-2.749L183.867-.047l-.552-1.1c-.825-2.2-3.314-6.046-7.968-6.046-4.947,0-8.793,3.866-8.793,9.343a9.26,9.26,0,0,0,9.343,9.343,10,10,0,0,0,7.968-4.124l-3.314-2.2a5.317,5.317,0,0,1-4.671,2.749Zm-.276-11.543a3.68,3.68,0,0,1,3.572,2.2l-8.518,3.572C170.674-1.975,173.423-3.621,175.621-3.621Z" transform="translate(-67.119 17.353)" fill="#262626"/>
  </g>
  <g id="Group_2143" data-name="Group 2143" transform="translate(0 1.573)">
    <path id="Path_5131" data-name="Path 5131" d="M25.821,9.268V57.536c0,5.4,3.73,8.41,7.679,8.41,3.657,0,7.679-2.56,7.679-8.41V9.634A7.688,7.688,0,0,0,33.5,1.589,7.8,7.8,0,0,0,25.821,9.268Z" transform="translate(14.403 -1.589)" fill="#f9ab00"/>
    <g id="Group_2142" data-name="Group 2142" transform="translate(0 24.5)">
      <path id="Path_5132" data-name="Path 5132" d="M14.9,22.575V46.344c0,5.4,3.73,8.41,7.679,8.41,3.657,0,7.679-2.56,7.679-8.41v-23.4A7.688,7.688,0,0,0,22.575,14.9,7.8,7.8,0,0,0,14.9,22.575Z" transform="translate(5.215 -14.896)" fill="#e37400"/>
      <circle id="Ellipse_59" data-name="Ellipse 59" cx="7.679" cy="7.679" r="7.679" transform="translate(0 24.5)" fill="#e37400"/>
    </g>
  </g>
</svg>
