<svg xmlns="http://www.w3.org/2000/svg" width="59.756" height="64.843" viewBox="0 0 59.756 64.843">
  <g id="Group_2175" data-name="Group 2175" transform="translate(-1832.856 808.713)">
    <rect id="Rectangle_2790" data-name="Rectangle 2790" width="9.437" height="2.362" transform="translate(1882.924 -785.924) rotate(-8.87)" fill="#1b78fe"/>
    <rect id="Rectangle_2791" data-name="Rectangle 2791" width="6.768" height="2.362" transform="matrix(0.862, -0.507, 0.507, 0.862, 1879.589, -794.361)" fill="#1b78fe"/>
    <rect id="Rectangle_2792" data-name="Rectangle 2792" width="9.39" height="2.362" transform="translate(1873.157 -800.183) rotate(-65.29)" fill="#1b78fe"/>
    <rect id="Rectangle_2793" data-name="Rectangle 2793" width="2.362" height="6.768" transform="translate(1861.858 -807.684) rotate(-0.37)" fill="#1b78fe"/>
    <rect id="Rectangle_2794" data-name="Rectangle 2794" width="2.353" height="9.46" transform="matrix(0.944, -0.331, 0.331, 0.944, 1847.902, -807.779)" fill="#1b78fe"/>
    <rect id="Rectangle_2795" data-name="Rectangle 2795" width="2.362" height="6.768" transform="translate(1838.316 -795.638) rotate(-61.46)" fill="#1b78fe"/>
    <rect id="Rectangle_2796" data-name="Rectangle 2796" width="2.362" height="9.295" transform="translate(1832.856 -785.628) rotate(-80.4)" fill="#1b78fe"/>
    <path id="Path_5411" data-name="Path 5411" d="M26.374,51.235c0-4.724-2.468-8.882-4.417-12.248-.449-.78-.874-1.512-1.24-2.2a15.744,15.744,0,0,1-1.866-7.382c0-8.516,7.571-15.709,16.535-15.709v2.362c-7.547,0-14.173,6.236-14.173,13.346a13.382,13.382,0,0,0,1.583,6.3c.354.673.768,1.382,1.181,2.126,2.091,3.614,4.724,8.1,4.724,13.429Z" transform="translate(1826.991 -811.074)" fill="#1b78fe"/>
    <path id="Path_5412" data-name="Path 5412" d="M41.862,51.235H39.5c0-5.327,2.646-9.815,4.724-13.417.437-.756.85-1.465,1.181-2.138a13.276,13.276,0,0,0,1.618-6.272c0-7.087-6.626-13.346-14.173-13.346V13.7c8.965,0,16.535,7.193,16.535,15.709a15.744,15.744,0,0,1-1.866,7.417c-.366.685-.791,1.417-1.24,2.2C44.33,42.4,41.9,46.546,41.862,51.235Z" transform="translate(1829.526 -811.074)" fill="#1b78fe"/>
    <path id="Path_5413" data-name="Path 5413" d="M43.635,51.562H26.285a3.7,3.7,0,0,1,0-7.382h17.35a3.7,3.7,0,0,1,0,7.382Zm-17.35-5.02a1.335,1.335,0,0,0,0,2.657h17.35a1.335,1.335,0,0,0,0-2.657Z" transform="translate(1827.706 -805.554)" fill="#1b78fe"/>
    <path id="Path_5414" data-name="Path 5414" d="M42.055,55.812H27.445a3.7,3.7,0,0,1,0-7.382h14.61a3.7,3.7,0,0,1,0,7.382Zm-14.61-5.02a1.335,1.335,0,0,0,0,2.657h14.61a1.335,1.335,0,0,0,0-2.657Z" transform="translate(1827.916 -804.784)" fill="#1b78fe"/>
    <path id="Path_5415" data-name="Path 5415" d="M33.865,59.969a5.161,5.161,0,0,1-4.984-5.327V53.65h2.362v.992a2.646,2.646,0,1,0,5.244,0V53.65h2.362v.992a5.173,5.173,0,0,1-4.984,5.327Z" transform="translate(1828.807 -803.839)" fill="#1b78fe"/>
    <path id="Path_5416" data-name="Path 5416" d="M25.922,27.78l-2.362-.118a10.063,10.063,0,0,1,10.559-9.52l-.13,2.362a7.724,7.724,0,0,0-8.067,7.276Z" transform="translate(1827.844 -810.271)" fill="#1b78fe"/>
  </g>
</svg>
