<svg xmlns="http://www.w3.org/2000/svg" width="89.458" height="80.96" viewBox="0 0 89.458 80.96">
  <g id="Group_2286" data-name="Group 2286" transform="translate(-398 -312.083)">
    <circle id="Ellipse_179" data-name="Ellipse 179" cx="37.5" cy="37.5" r="37.5" transform="translate(398 318.043)" fill="#daf5e2"/>
    <g id="banking-icon" transform="translate(-2339.242 -3088.917)">
      <path id="Path_5490" data-name="Path 5490" d="M39.279,12a1.516,1.516,0,0,0-.734.237L10.5,29.623a1.516,1.516,0,0,0-.711,1.3v3.813a1.516,1.516,0,0,0,1.516,1.516h4.548V57.477H11.306q-.071,0-.142,0a1.516,1.516,0,0,0-.924.45l-3.79,3.79A1.516,1.516,0,0,0,6,62.783v5.306A1.516,1.516,0,0,0,7.516,69.6H71.184A1.516,1.516,0,0,0,72.7,68.089V62.783a1.516,1.516,0,0,0-.45-1.066l-3.79-3.79a1.516,1.516,0,0,0-1.066-.45H62.847V36.255h4.548a1.516,1.516,0,0,0,1.516-1.516V30.926a1.516,1.516,0,0,0-.711-1.3L40.155,12.238A1.516,1.516,0,0,0,39.279,12Zm.071,3.292L65.878,31.755v1.469H12.822V31.755ZM18.885,36.255H30.255V57.478H18.885Zm14.4,0H45.414V57.478H33.286Zm15.159,0H59.815V57.478H48.445ZM11.922,60.509H66.778l2.89,2.89v3.174H9.032V63.4l2.89-2.89Z" transform="translate(2754 3389)" fill="#0ba257"/>
    </g>
  </g>
</svg>
