<svg xmlns="http://www.w3.org/2000/svg" width="97" height="97" viewBox="0 0 97 97">
  <g id="Group_3685" data-name="Group 3685" transform="translate(-232 -522)">
    <circle id="Ellipse_84" data-name="Ellipse 84" cx="48.5" cy="48.5" r="48.5" transform="translate(232 522)" fill="#eef5ff"/>
    <g id="Group_2207" data-name="Group 2207" transform="translate(-2473.113 -211.446)">
      <g id="Group_2206" data-name="Group 2206" transform="translate(2724.042 760.086)">
        <path id="Path_5452" data-name="Path 5452" d="M16.128,970.362a1.324,1.324,0,0,0-1.159,1.278v23.9l-8.754,13.737a1.348,1.348,0,0,0,1.079,1.977H61.016a1.348,1.348,0,0,0,1.079-1.977L53.342,995.54v-23.9a1.329,1.329,0,0,0-1.279-1.278H16.128Zm1.4,2.556H50.783v21.724H17.527Zm8.814,3.175a1.324,1.324,0,0,0-1.139,1.3v11.5H23.163a1.279,1.279,0,1,0,.12,2.556H45.027a1.278,1.278,0,1,0,0-2.556H43.109V982.5a1.279,1.279,0,1,0-2.558,0v6.389H35.434v-8.945a1.279,1.279,0,1,0-2.558,0v8.945H27.76v-11.5a1.335,1.335,0,0,0-1.419-1.3Zm-9.393,21.1H51.363l7.335,11.5H9.613Zm12.611,7.028a1.279,1.279,0,1,0,.12,2.556h8.954a1.278,1.278,0,1,0,0-2.556H29.558Z" transform="translate(-6.042 -970.362)" fill="#2279f5"/>
      </g>
    </g>
  </g>
</svg>
