<svg xmlns="http://www.w3.org/2000/svg" width="95" height="95" viewBox="0 0 95 95">
  <g id="Group_2271" data-name="Group 2271" transform="translate(-700 -515)">
    <g id="Group_2268" data-name="Group 2268">
      <circle id="Ellipse_96" data-name="Ellipse 96" cx="47.5" cy="47.5" r="47.5" transform="translate(700 515)" fill="#002a9e" opacity="0.1"/>
      <path id="Path_5486" data-name="Path 5486" d="M80.294,49.475H72.826a22.762,22.762,0,0,0-21.8-21.788V20.219a.919.919,0,0,0-1.838,0v7.468a22.762,22.762,0,0,0-21.8,21.788H19.919a.919.919,0,1,0,0,1.838h7.468A22.762,22.762,0,0,0,49.188,73.1v7.455a.919.919,0,0,0,1.838,0V73.087A22.762,22.762,0,0,0,72.826,51.3h7.468a.913.913,0,0,0,.919-.919A.9.9,0,0,0,80.294,49.475ZM51.025,35.313A15.137,15.137,0,0,1,65.2,49.475H59.858a9.8,9.8,0,0,0-8.82-8.82V35.313Zm14.175,16A15.137,15.137,0,0,1,51.025,65.474V60.132a9.8,9.8,0,0,0,8.82-8.82ZM49.188,29.524v3.951a16.968,16.968,0,0,0-16.013,16H29.238A20.913,20.913,0,0,1,49.188,29.524ZM35.013,49.475A15.137,15.137,0,0,1,49.188,35.313v5.342a9.811,9.811,0,0,0-8.833,8.82ZM49.188,60.132v5.342A15.137,15.137,0,0,1,35.013,51.312h5.342A9.811,9.811,0,0,0,49.188,60.132Zm0,11.117A20.934,20.934,0,0,1,29.224,51.3h3.951a16.968,16.968,0,0,0,16.013,16Zm.919-18.086a.913.913,0,0,0-.919.919v4.2a7.961,7.961,0,0,1-6.983-6.969h4.2a.919.919,0,1,0,0-1.838h-4.2a7.961,7.961,0,0,1,6.983-6.969v4.2a.919.919,0,0,0,1.838,0v-4.2a7.974,7.974,0,0,1,6.983,6.969h-4.2a.919.919,0,1,0,0,1.838h4.2a7.961,7.961,0,0,1-6.983,6.969v-4.2A.921.921,0,0,0,50.106,53.163Zm.919,18.086V67.312a16.968,16.968,0,0,0,16.013-16h3.951A20.923,20.923,0,0,1,51.025,71.249ZM67.038,49.475a16.968,16.968,0,0,0-16.013-16V29.524a20.934,20.934,0,0,1,19.963,19.95Z" transform="translate(696.894 512.263)" fill="#002a9e"/>
    </g>
  </g>
</svg>
