<svg id="Group_2147" data-name="Group 2147" xmlns="http://www.w3.org/2000/svg" xmlns:xlink="http://www.w3.org/1999/xlink" width="275.644" height="279.553" viewBox="0 0 275.644 279.553">
  <defs>
    <clipPath id="clip-path">
      <path id="Path_5138" data-name="Path 5138" d="M0,0H79.334V98.906H0Z"/>
    </clipPath>
    <clipPath id="clip-path-2">
      <path id="Path_5140" data-name="Path 5140" d="M0,0H180.248V224.717H0Z" fill="#262626"/>
    </clipPath>
    <clipPath id="clip-path-3">
      <path id="Path_5142" data-name="Path 5142" d="M0,0H180.248V224.717H0Z"/>
    </clipPath>
  </defs>
  <g id="Group_2144" data-name="Group 2144" transform="translate(18.726 180.647)" clip-path="url(#clip-path)">
    <path id="Path_5133" data-name="Path 5133" d="M15.511,9.039a14.188,14.188,0,0,1,3.352-5.312A13.128,13.128,0,0,1,39.51,6.794c3.162,5.755,6.514,11.383,9.77,17.075L65.6,52.263A13.071,13.071,0,1,1,42.735,64.942L28.38,40.026a2.865,2.865,0,0,0-.348-.506,5.144,5.144,0,0,1-1.043-1.549L16.428,19.663a13.094,13.094,0,0,1-1.739-6.956,9.694,9.694,0,0,1,.822-3.668" transform="translate(11.65 0.005)" fill="#3c8bd9"/>
    <path id="Path_5134" data-name="Path 5134" d="M25.567,5.042a18.187,18.187,0,0,0-.6,3.478,13.659,13.659,0,0,0,1.9,7.431l10.4,17.992c.316.538.569,1.075.885,1.581l-5.723,9.834-8,13.786c-.126,0-.158-.063-.19-.158a1.96,1.96,0,0,1,.126-.727A12.726,12.726,0,0,0,21.33,45.705,12.051,12.051,0,0,0,13.9,41.879a12.833,12.833,0,0,0-10.15,2.814c-.538.411-.885,1.012-1.518,1.328a.211.211,0,0,1-.221-.158L6.532,37.99,25.345,5.39c.063-.126.158-.221.221-.348" transform="translate(1.595 4.001)" fill="#fabc04"/>
    <path id="Path_5135" data-name="Path 5135" d="M3.535,29.8l1.8-1.613a13.069,13.069,0,0,1,20.9,7.937,13.9,13.9,0,0,1-.506,6.735,3.307,3.307,0,0,1-.126.538c-.285.506-.538,1.043-.854,1.549C21.938,49.6,17.8,51.9,12.357,51.557A12.98,12.98,0,0,1,.373,40.237a12.651,12.651,0,0,1,1.739-8.411c.316-.569.7-1.075,1.043-1.644.158-.126.095-.379.379-.379" transform="translate(0.196 20.156)" fill="#34a852"/>
    <path id="Path_5136" data-name="Path 5136" d="M2.237,27.913c-.126.126-.126.348-.348.379-.032-.221.095-.348.221-.506Z" transform="translate(1.495 22.046)" fill="#fabc04"/>
    <path id="Path_5137" data-name="Path 5137" d="M14.41,35.676c-.126-.221,0-.379.126-.538l.126.126Z" transform="translate(11.392 27.879)" fill="#e1c025"/>
  </g>
  <g id="Group_2145" data-name="Group 2145" transform="translate(95.396)" clip-path="url(#clip-path-2)">
    <path id="Path_5139" data-name="Path 5139" d="M14.871,104.311a14.551,14.551,0,1,0,0,29.1,13.408,13.408,0,0,0,10.2-4.095,14.289,14.289,0,0,0,3.233-11.782H14.871v3.951h9.555a8.366,8.366,0,0,1-2.155,5.029,9.9,9.9,0,0,1-7.4,2.945,10.561,10.561,0,0,1,0-21.121,9.87,9.87,0,0,1,7.184,2.874l2.8-2.8a13.79,13.79,0,0,0-9.986-4.095Zm24.354,10.417a9.484,9.484,0,1,0,9.339,9.483,9.264,9.264,0,0,0-9.339-9.483m0,15.23a5.771,5.771,0,0,1,0-11.495c2.8,0,5.244,2.3,5.244,5.747a5.447,5.447,0,0,1-5.244,5.747m20.259-15.23a9.484,9.484,0,1,0,9.339,9.483,9.221,9.221,0,0,0-9.339-9.483m0,15.23a5.771,5.771,0,0,1,0-11.495c2.8,0,5.244,2.3,5.244,5.747,0,3.377-2.371,5.747-5.244,5.747m20.187-15.23a9.387,9.387,0,0,0,0,18.75,6.278,6.278,0,0,0,4.885-2.155H84.7v1.365c0,3.592-1.868,5.532-4.957,5.532a5.126,5.126,0,0,1-4.67-3.3l-3.592,1.509a8.81,8.81,0,0,0,8.262,5.532c4.813,0,8.836-2.874,8.836-9.77V115.374H84.7v1.509h-.144a6.278,6.278,0,0,0-4.885-2.155m.359,15.087a5.371,5.371,0,0,1-5.173-5.675c0-3.3,2.371-5.747,5.173-5.747s4.957,2.443,4.957,5.747-2.155,5.675-4.957,5.675M91.6,105.461h4.095v27.73H91.6Zm15.087,9.267c-4.885,0-8.98,3.808-8.98,9.483a9.28,9.28,0,0,0,9.411,9.483,9.393,9.393,0,0,0,7.9-4.167l-3.233-2.155a5.429,5.429,0,0,1-4.67,2.586,4.7,4.7,0,0,1-4.6-2.874l12.716-5.244-.431-1.078c-.79-2.083-3.233-6.035-8.118-6.035m-4.885,9.2a5.2,5.2,0,0,1,4.957-5.532,3.582,3.582,0,0,1,3.52,2.012Z" transform="translate(0 82.762)" fill="#262626"/>
  </g>
  <g id="Group_2146" data-name="Group 2146" transform="translate(0 33.746)" clip-path="url(#clip-path-3)">
    <path id="Path_5141" data-name="Path 5141" d="M68.259,131.33l9.483-25.216h3.664l9.483,25.216H87.3L84.854,124.5H74.293l-2.443,6.825Zm7.112-9.842h8.405l-4.095-11.351h-.144Zm18.822,7.759a9.509,9.509,0,0,1-2.371-6.538,9.767,9.767,0,0,1,2.371-6.537,7.526,7.526,0,0,1,5.819-2.658,7.62,7.62,0,0,1,3.448.79,5.982,5.982,0,0,1,2.443,2.155h.144l-.144-2.371v-7.974h3.233V131.33h-3.089v-2.371H105.9a6.543,6.543,0,0,1-2.443,2.155,7.155,7.155,0,0,1-3.448.79,7.422,7.422,0,0,1-5.819-2.658m10.2-2.012a7.168,7.168,0,0,0,0-8.98,5.226,5.226,0,0,0-7.759,0,7.067,7.067,0,0,0,0,8.908,5.131,5.131,0,0,0,3.879,1.724,4.646,4.646,0,0,0,3.879-1.652m19.684,3.089a8.5,8.5,0,0,1-9.555.216,7.692,7.692,0,0,1-2.8-3.592l2.874-1.221a5.327,5.327,0,0,0,1.868,2.443,4.515,4.515,0,0,0,2.658.862,4.936,4.936,0,0,0,2.586-.647,1.824,1.824,0,0,0,1.006-1.581c0-1.078-.862-1.94-2.514-2.443l-2.945-.718c-3.377-.862-5.029-2.443-5.029-4.885a4.572,4.572,0,0,1,1.94-3.808,8.2,8.2,0,0,1,4.885-1.437,8.377,8.377,0,0,1,4.167,1.078,6.037,6.037,0,0,1,2.586,2.945l-2.874,1.221a4.059,4.059,0,0,0-1.58-1.724,4.853,4.853,0,0,0-2.514-.647,4.273,4.273,0,0,0-2.3.647,1.887,1.887,0,0,0-1.006,1.581c0,1.006.934,1.724,2.8,2.083l2.586.647c3.448.862,5.1,2.586,5.1,5.173a4.481,4.481,0,0,1-1.94,3.808" transform="translate(54.157 84.192)" fill="#262626"/>
  </g>
</svg>
