<svg xmlns="http://www.w3.org/2000/svg" width="55" height="55" viewBox="0 0 55 55">
  <g id="Group_2566" data-name="Group 2566" transform="translate(-222.649 -727.237)">
    <circle id="Ellipse_201" data-name="Ellipse 201" cx="27.5" cy="27.5" r="27.5" transform="translate(222.649 727.237)" fill="#f9f2ea"/>
    <g id="Group_2560" data-name="Group 2560" transform="translate(237.507 740.894)">
      <g id="Group_2274" data-name="Group 2274" transform="translate(0 0)">
        <path id="Path_5494" data-name="Path 5494" d="M2.816,10.653,1.391,9.6,2.816,8.524ZM9.642,3.245H22.749v8.172l-8.951,6.6a.876.876,0,0,1-1.017,0L3.858,11.422V3.245Zm2.7-1.9a1.572,1.572,0,0,1,1.857,0l1.154.866H11.2ZM25.214,9.6,23.79,10.649V8.533ZM15.77,17.854l7.772-5.729a.523.523,0,0,0,.07-.052l1.953-1.439V25.066Zm-4.057.666.45.332a1.884,1.884,0,0,0,.829.343l.023,0c.041.006.083.011.125.014s.085,0,.127,0h.022a1.9,1.9,0,0,0,1.127-.366l.477-.352,9.6,7.065H2.145ZM1.041,10.635l1.95,1.441a.52.52,0,0,0,.074.055l7.771,5.742-9.8,7.213ZM26.606,9.6c0-.014,0-.028,0-.042s0-.01,0-.015a.515.515,0,0,0-.026-.111l0-.01c-.005-.014-.011-.027-.018-.041l-.009-.017-.018-.031-.013-.02L26.5,9.295l-.011-.013-.015-.018-.025-.027-.013-.013c-.012-.011-.025-.022-.038-.032l0,0,0,0,0,0-2.6-1.952V2.724a.52.52,0,0,0-.521-.52H17.087L14.823.506a2.632,2.632,0,0,0-3.109,0L9.468,2.2H3.337a.521.521,0,0,0-.521.52v4.5L.214,9.183l0,0,0,0L.2,9.194l-.035.03-.014.014-.025.027-.014.018L.1,9.294l-.01.015L.08,9.328c-.007.011-.013.021-.018.032l-.009.016c-.007.014-.013.028-.018.043l0,.008A.517.517,0,0,0,0,9.539c0,.005,0,.01,0,.015s0,.027,0,.041S0,9.6,0,9.6V25.611a.969.969,0,0,0,.3.695.517.517,0,0,0,.2.153,1.069,1.069,0,0,0,.543.147H25.565a1.02,1.02,0,0,0,1.041-1V9.6s0-.006,0-.009Z" transform="translate(0 0)" fill="#f27228" fill-rule="evenodd"/>
      </g>
    </g>
  </g>
</svg>
