<svg xmlns="http://www.w3.org/2000/svg" width="73.95" height="77.231" viewBox="0 0 73.95 77.231">
  <g id="Group_2560" data-name="Group 2560" transform="translate(-629.08 -858.095)">
    <ellipse id="Ellipse_121" data-name="Ellipse 121" cx="33.325" cy="33.325" rx="33.325" ry="33.325" transform="translate(629.08 868.675)" fill="#eef5ff"/>
    <g id="Group_2207" data-name="Group 2207" transform="translate(-2086.988 98.009)">
      <g id="Group_2206" data-name="Group 2206" transform="translate(2724.042 760.086)">
        <path id="Path_5452" data-name="Path 5452" d="M17.877,970.362a1.554,1.554,0,0,0-1.36,1.5v28.044L6.245,1016.025a1.582,1.582,0,0,0,1.266,2.32H70.549a1.581,1.581,0,0,0,1.266-2.32L61.543,999.906V971.862a1.559,1.559,0,0,0-1.5-1.5H17.877Zm1.642,3H58.541v25.491H19.518Zm10.342,3.725a1.554,1.554,0,0,0-1.337,1.523v13.5H26.132a1.5,1.5,0,1,0,.141,3H51.787a1.5,1.5,0,1,0,0-3H49.536v-7.5a1.5,1.5,0,1,0-3,0v7.5h-6v-10.5a1.5,1.5,0,1,0-3,0v10.5h-6v-13.5a1.566,1.566,0,0,0-1.665-1.523Zm-11.022,24.765H59.222l8.607,13.5h-57.6Zm14.8,8.247a1.5,1.5,0,1,0,.141,3H44.283a1.5,1.5,0,1,0,0-3H33.636Z" transform="translate(-6.042 -970.362)" fill="#2279f5"/>
      </g>
    </g>
  </g>
</svg>
