<svg xmlns="http://www.w3.org/2000/svg" width="69" height="69" viewBox="0 0 69 69">
  <g id="Group_2224" data-name="Group 2224" transform="translate(-746 -510)">
    <g id="Ellipse_92" data-name="Ellipse 92" transform="translate(746 510)" fill="none" stroke="#e20e4f" stroke-width="1" stroke-dasharray="2">
      <circle cx="34.5" cy="34.5" r="34.5" stroke="none"/>
      <circle cx="34.5" cy="34.5" r="34" fill="none"/>
    </g>
    <g id="Group_2222" data-name="Group 2222" transform="translate(749.267 -441.801)">
      <g id="Group_2204" data-name="Group 2204" transform="translate(13.008 967.354)">
        <path id="Path_5451" data-name="Path 5451" d="M18.071.9a.909.909,0,0,0,.849.9l3.428.545L2.275,13.681a.941.941,0,0,0-.433,1.282.938.938,0,0,0,1.314.288L23.166,3.956l-.481,3a.911.911,0,1,0,1.794.288l.833-5.351A.958.958,0,0,0,24.56.832L19.193,0c-.625-.016-1.105.288-1.121.9Zm9.965,6.344a.993.993,0,0,0-.913.9V30.759a.943.943,0,0,0,.913.9h4.518a.928.928,0,0,0,.9-.9V8.138a.928.928,0,0,0-.9-.9Zm.9,1.81h2.724V29.846H28.933Zm-9.949,1.81a.991.991,0,0,0-.9.9v19a.94.94,0,0,0,.9.9h4.534a.94.94,0,0,0,.9-.9v-19a.94.94,0,0,0-.9-.9Zm.913,1.81h2.707V29.846H19.9Zm-9.949,1.81a.993.993,0,0,0-.913.9v15.38a.943.943,0,0,0,.913.9h4.518a.943.943,0,0,0,.913-.9V15.379a.931.931,0,0,0-.913-.9Zm.9,1.794H13.57v13.57H10.846ZM.9,18.087A.993.993,0,0,0,0,19V30.759a.94.94,0,0,0,.9.9H5.431a.94.94,0,0,0,.9-.9V19a.943.943,0,0,0-.9-.913ZM1.81,19.9H4.518v9.949H1.81Z" transform="translate(0 0.001)" fill="#e20e4f"/>
      </g>
    </g>
  </g>
</svg>
