<svg xmlns="http://www.w3.org/2000/svg" width="635.504" height="615.178" viewBox="0 0 635.504 615.178">
  <g id="Group_3684" data-name="Group 3684" transform="translate(-151 -2398.822)">
    <g id="contact" transform="translate(103 2340.323)">
      <g id="freepik--background-complete--inject-96" transform="translate(144.096 58.499)">
        <path id="Path_5951" data-name="Path 5951" d="M260.177,71.392,110.44,265.929l402.7-100.108L288.837,64.2a23.737,23.737,0,0,0-28.661,7.189Z" transform="translate(-108.316 -56.447)" fill="#ebebeb"/>
        <path id="Path_5952" data-name="Path 5952" d="M109.09,267.6,260.29,71.194a24.461,24.461,0,0,1,29.667-7.378L516.473,166.425ZM279.764,63.109a22.793,22.793,0,0,0-18.153,9.029h0L113.321,264.85,511.392,165.89,289.28,65.217a22.966,22.966,0,0,0-9.517-2.029Z" transform="translate(-109.09 -56.737)" fill="#e0e0e0"/>
        <path id="Path_5953" data-name="Path 5953" d="M0,0H416.412V225.682a16.847,16.847,0,0,1-16.847,16.847H16.847A16.847,16.847,0,0,1,0,225.682Z" transform="translate(2.111 209.489) rotate(-13.96)" fill="#f0f0f0"/>
        <path id="Path_5954" data-name="Path 5954" d="M488.636,179.4l-140,143.035-211.6-47.631L112.824,162.57a22.652,22.652,0,0,1,16.6-27.088L435.531,59.4a22.62,22.62,0,0,1,27.434,16.517Z" transform="translate(-107.287 -58.371)" fill="#fff"/>
        <path id="Path_5955" data-name="Path 5955" d="M310.863,221.413,144.61,395.138h0a18.53,18.53,0,0,0,22.463,13.512l368.561-91.629a18.53,18.53,0,0,0,13.512-22.447l-.346-1.384L331.407,216.505A19.443,19.443,0,0,0,310.863,221.413Z" transform="translate(-88.736 31.406)" fill="#e0e0e0"/>
        <rect id="Rectangle_2969" data-name="Rectangle 2969" width="123.404" height="12.6" transform="translate(49.256 123.473) rotate(-13.97)" fill="#e0e0e0"/>
        <rect id="Rectangle_2970" data-name="Rectangle 2970" width="273.801" height="14.236" transform="translate(56.965 154.473) rotate(-13.97)" fill="#e0e0e0"/>
        <rect id="Rectangle_2971" data-name="Rectangle 2971" width="273.801" height="14.236" transform="translate(65.37 188.224) rotate(-13.97)" fill="#e0e0e0"/>
        <path id="Path_5956" data-name="Path 5956" d="M418.416,167.928l-8.321,8.321L187.039,234.561l-29.148-6.811-1.1-3.162L421.641,158.71l1.148,4.577Z" transform="translate(-81.757 -1.075)" fill="#e0e0e0"/>
        <path id="Path_5957" data-name="Path 5957" d="M334.636,208.585l-100.485,24.98-30.721-7.016L353.607,189.19Z" transform="translate(-55.03 16.391)" fill="#e0e0e0"/>
        <path id="Path_5958" data-name="Path 5958" d="M305.514,223.24a4.155,4.155,0,0,1-.378.472l-1.2,1.306-4.625,4.955-17.13,18.137c-14.5,15.274-34.607,36.384-56.865,59.523s-42.708,43.9-57.62,58.784c-7.456,7.44-13.528,13.449-17.744,17.555l-4.861,4.719-1.29,1.211a2.344,2.344,0,0,1-.456.393,3.14,3.14,0,0,1,.393-.456l1.227-1.274,4.719-4.829,17.571-17.728c14.8-14.991,35.141-35.8,57.447-58.957s42.472-44.045,57.022-59.35l17.3-17.948,4.719-4.845,1.258-1.243C305.356,223.366,305.514,223.24,305.514,223.24Z" transform="translate(-89.458 35.902)" fill="#fafafa"/>
        <path id="Path_5959" data-name="Path 5959" d="M476.89,291.31c-.079.22-46.436-15.872-103.537-35.944S270.021,218.841,270.1,218.621s46.436,15.856,103.537,35.928S476.969,291.074,476.89,291.31Z" transform="translate(-16.827 33.254)" fill="#fafafa"/>
        <path id="Path_5960" data-name="Path 5960" d="M404.228,131.06a2.621,2.621,0,0,1-.3.393l-.881,1.085-3.728,4.137-13.89,15.085c-11.766,12.694-28.157,30.092-46.53,49.078s-35.33,35.928-47.631,48.1l-14.645,14.346-4.027,3.854-1.054.991c-.252.22-.378.33-.393.315a3.151,3.151,0,0,1,.33-.378l.991-1.054,3.917-3.964,14.44-14.535c12.207-12.285,28.991-29.306,47.364-48.276S373.019,164,384.911,151.415l14.079-14.9,3.854-4.027,1.022-1.038A2.173,2.173,0,0,1,404.228,131.06Z" transform="translate(-16.225 -16.92)" fill="#fafafa"/>
        <path id="Path_5961" data-name="Path 5961" d="M324.372,241.353a2.449,2.449,0,0,1-.551-.094l-1.573-.378-6.292-1.573c-5.38-1.353-13.2-3.256-22.872-5.521-19.333-4.578-46.153-10.476-75.789-16.894s-56.44-12.411-75.741-17.146c-9.658-2.36-17.461-4.342-22.825-5.789l-6.182-1.683-1.573-.456a2.168,2.168,0,0,1-.535-.189l.551.11,1.573.362,6.292,1.573c5.4,1.353,13.213,3.24,22.888,5.521,19.333,4.578,46.137,10.476,75.789,16.894s56.44,12.411,75.741,17.146c9.658,2.36,17.461,4.326,22.825,5.789l6.166,1.683,1.573.456Z" transform="translate(-108.316 17.789)" fill="#fafafa"/>
        <path id="Path_5962" data-name="Path 5962" d="M488.825,179.529s-.157-.519-.425-1.573l-1.148-4.452c-1.007-3.948-2.47-9.721-4.357-17.162l-15.84-63.11q-1.258-5-2.564-10.24c-.425-1.73-.865-3.508-1.321-5.285-.22-.9-.44-1.793-.724-2.658a17.513,17.513,0,0,0-.944-2.58A22.2,22.2,0,0,0,443.8,59.4a21.865,21.865,0,0,0-5.993,0c-1.982.346-4,.9-6.025,1.384l-12.348,3.146L393.625,70.3,278.936,98.927,164.1,127.431l-25.782,6.386-6.292,1.573a35.123,35.123,0,0,0-5.978,1.809,22.352,22.352,0,0,0-9.312,7.535,23,23,0,0,0-2.769,5.207,24.257,24.257,0,0,0-1.274,5.647c-.456,3.854.613,7.566,1.369,11.231q2.36,11.011,4.515,21.094c5.742,26.883,10.382,48.622,13.591,63.676,1.573,7.519,2.816,13.339,3.665,17.3.393,1.966.708,3.476.928,4.515s.283,1.573.283,1.573-.142-.519-.378-1.573-.566-2.533-1.007-4.483c-.881-3.98-2.155-9.8-3.807-17.3-3.288-15.038-8.022-36.777-13.874-63.613-1.447-6.717-2.989-13.748-4.577-21.094-.755-3.618-1.856-7.456-1.384-11.436a23.6,23.6,0,0,1,1.29-5.836,24.177,24.177,0,0,1,2.847-5.38,22.1,22.1,0,0,1,4.231-4.515,21.41,21.41,0,0,1,5.364-3.272,34.812,34.812,0,0,1,6.088-1.856l6.292-1.573,25.829-6.386L278.794,98.094l114.831-28.5L419.407,63.2l12.348-3.052c2.029-.5,4.011-1.038,6.088-1.4A22.955,22.955,0,0,1,462.288,72.2a17.948,17.948,0,0,1,.975,2.658c.283.9.5,1.793.724,2.69.44,1.778.865,3.555,1.306,5.3.865,3.492,1.7,6.906,2.533,10.24l15.573,63.22c1.809,7.456,3.225,13.245,4.184,17.193.472,1.966.834,3.461,1.07,4.483A5.01,5.01,0,0,1,488.825,179.529Z" transform="translate(-107.475 -58.499)" fill="#e0e0e0"/>
      </g>
      <g id="freepik--Floor--inject-96" transform="translate(48 672.328)">
        <path id="Path_5963" data-name="Path 5963" d="M683.5,449.16c0,.236-142.265.425-317.752.425S48,449.412,48,449.16s142.249-.44,317.752-.44S683.5,448.94,683.5,449.16Z" transform="translate(-48 -448.72)" fill="#263238"/>
      </g>
      <g id="freepik--mail-sent--inject-96" transform="translate(126.46 89.489)">
        <path id="Path_5964" data-name="Path 5964" d="M264.041,85.216,248.484,97.061l.755,22.62L235,108.371l-7.865,6.733L197.25,78.2Z" transform="translate(-40.935 -78.2)" fill="#2f55d4"/>
        <path id="Path_5965" data-name="Path 5965" d="M228.879,93.25c0,.692,6.607,17.807,6.607,17.807L221.25,99.747Z" transform="translate(-27.182 -69.576)" fill="#2f55d4"/>
        <g id="Group_2541" data-name="Group 2541" transform="translate(194.068 23.674)" opacity="0.3">
          <path id="Path_5966" data-name="Path 5966" d="M228.879,93.25c0,.692,6.607,17.807,6.607,17.807L221.25,99.747Z" transform="translate(-221.25 -93.25)"/>
        </g>
        <path id="Path_5967" data-name="Path 5967" d="M197.25,78.2l45.382,23.674,6.607,17.807-.755-22.62Z" transform="translate(-40.935 -78.2)" fill="#2f55d4"/>
        <path id="Path_5968" data-name="Path 5968" d="M197.25,78.2l45.382,23.674,6.607,17.807-.755-22.62Z" transform="translate(-40.935 -78.2)" opacity="0.1"/>
        <path id="Path_5969" data-name="Path 5969" d="M280.19,272.936a20.308,20.308,0,0,1-8.07-1.966A20.307,20.307,0,0,1,280.19,272.936Z" transform="translate(1.968 32.263)" fill="#263238"/>
        <path id="Path_5970" data-name="Path 5970" d="M287.184,274.7c0,.236-1.18.157-2.5-.157s-2.36-.786-2.312-1.022,1.18-.157,2.517.173S287.247,274.463,287.184,274.7Z" transform="translate(7.841 33.646)" fill="#263238"/>
        <path id="Path_5971" data-name="Path 5971" d="M254.61,103.406a12.254,12.254,0,0,1-4.106-.645,11.5,11.5,0,0,1-3.964-1.243,9.25,9.25,0,0,1,4.169.409,8.762,8.762,0,0,1,3.9,1.479Z" transform="translate(-12.69 -64.883)" fill="#263238"/>
        <path id="Path_5972" data-name="Path 5972" d="M264.049,108.192a28.2,28.2,0,0,1-7.409-3.712,8.949,8.949,0,0,1,3.948,1.353C262.649,106.871,264.175,107.988,264.049,108.192Z" transform="translate(-6.903 -63.141)" fill="#263238"/>
        <path id="Path_5973" data-name="Path 5973" d="M272.034,115.177c-.173.173-1.573-1.007-3.335-2.485s-3.146-2.737-2.942-2.942a9.124,9.124,0,0,1,3.539,2.281C271.011,113.541,272.207,115.02,272.034,115.177Z" transform="translate(-1.69 -60.121)" fill="#263238"/>
        <path id="Path_5974" data-name="Path 5974" d="M277.8,124.075c-.22.11-1.258-1.416-2.517-3.3a12.348,12.348,0,0,1-2.045-3.618c.173-.142,1.494,1.211,2.769,3.146a8.936,8.936,0,0,1,1.793,3.775Z" transform="translate(2.609 -55.884)" fill="#263238"/>
        <path id="Path_5975" data-name="Path 5975" d="M280.589,134.331a12.585,12.585,0,0,1-1.384-3.917,11.9,11.9,0,0,1-.865-4.074,9.17,9.17,0,0,1,1.683,3.838,8.588,8.588,0,0,1,.566,4.153Z" transform="translate(5.532 -50.614)" fill="#263238"/>
        <path id="Path_5976" data-name="Path 5976" d="M280.407,144.94a12.96,12.96,0,0,1-.173-4.153,11.861,11.861,0,0,1,.378-4.137,9.172,9.172,0,0,1,.488,4.153A8.982,8.982,0,0,1,280.407,144.94Z" transform="translate(6.564 -44.706)" fill="#263238"/>
        <path id="Path_5977" data-name="Path 5977" d="M277.58,154.9a12.806,12.806,0,0,1,1.164-3.98,13.212,13.212,0,0,1,1.573-3.822,8.321,8.321,0,0,1-.834,4.106A8.541,8.541,0,0,1,277.58,154.9Z" transform="translate(5.096 -38.718)" fill="#263238"/>
        <path id="Path_5978" data-name="Path 5978" d="M271.475,162.88c-.157-.189,1.07-1.573,2.564-3.272s2.69-3.146,2.894-2.973a8.6,8.6,0,0,1-2.249,3.539C273.158,161.936,271.632,163.053,271.475,162.88Z" transform="translate(1.59 -33.262)" fill="#263238"/>
        <path id="Path_5979" data-name="Path 5979" d="M262.65,167.678a12.992,12.992,0,0,1,3.555-2.139,12.711,12.711,0,0,1,3.791-1.7,8.7,8.7,0,0,1-3.4,2.47,8.573,8.573,0,0,1-3.948,1.368Z" transform="translate(-3.459 -29.126)" fill="#263238"/>
        <path id="Path_5980" data-name="Path 5980" d="M252.39,168.89a12.584,12.584,0,0,1,4.106-.771,12.948,12.948,0,0,1,4.153-.267,8.6,8.6,0,0,1-4.043,1.117,8.4,8.4,0,0,1-4.216-.079Z" transform="translate(-9.338 -26.862)" fill="#263238"/>
        <path id="Path_5981" data-name="Path 5981" d="M242.09,166.54a44.924,44.924,0,0,1,7.865,2.407,8.164,8.164,0,0,1-4.153-.566,8.008,8.008,0,0,1-3.712-1.84Z" transform="translate(-15.24 -27.579)" fill="#263238"/>
        <path id="Path_5982" data-name="Path 5982" d="M234.79,159.3c.236-.079.96,1.573,2.249,3.429s2.533,3.146,2.36,3.382-1.715-.944-3.067-2.879A6.292,6.292,0,0,1,234.79,159.3Z" transform="translate(-19.424 -31.728)" fill="#263238"/>
        <path id="Path_5983" data-name="Path 5983" d="M241.605,151.112c0,.252-1.715.8-3.508,2.076s-2.753,2.863-2.973,2.737.472-2.014,2.47-3.429a5.757,5.757,0,0,1,4.011-1.384Z" transform="translate(-19.254 -36.423)" fill="#263238"/>
        <path id="Path_5984" data-name="Path 5984" d="M250.463,156.837c-.22.126-1.227-1.416-2.863-2.926s-3.3-2.265-3.146-2.5a5.742,5.742,0,0,1,3.807,1.872,6.1,6.1,0,0,1,2.2,3.555Z" transform="translate(-13.892 -36.249)" fill="#263238"/>
        <path id="Path_5985" data-name="Path 5985" d="M248.61,168.021a19.934,19.934,0,0,1,.771-4.043,20.214,20.214,0,0,1,.771-4.058,7.173,7.173,0,0,1,0,4.216,7.032,7.032,0,0,1-1.542,3.885Z" transform="translate(-11.504 -31.372)" fill="#263238"/>
        <path id="Path_5986" data-name="Path 5986" d="M241.764,174.9c-.142-.2,1.29-1.384,3-2.847s3.146-2.721,3.256-2.564-.912,1.7-2.69,3.146S241.889,175.1,241.764,174.9Z" transform="translate(-15.433 -25.899)" fill="#263238"/>
        <path id="Path_5987" data-name="Path 5987" d="M232.41,179.041A10.444,10.444,0,0,1,236,176.917a10.177,10.177,0,0,1,3.948-1.337,20.072,20.072,0,0,1-7.535,3.461Z" transform="translate(-20.787 -22.398)" fill="#263238"/>
        <path id="Path_5988" data-name="Path 5988" d="M223,184.05c-.126-.2,1.369-1.321,3.351-2.517a9.437,9.437,0,0,1,3.87-1.573c.126.236-1.479,1.2-3.445,2.328A10.161,10.161,0,0,1,223,184.05Z" transform="translate(-26.182 -19.889)" fill="#263238"/>
        <path id="Path_5989" data-name="Path 5989" d="M215.007,191.56c-.173-.157.912-1.7,2.564-3.319a9.233,9.233,0,0,1,3.351-2.5c.157.189-1.117,1.573-2.737,3.146S215.258,191.717,215.007,191.56Z" transform="translate(-30.77 -16.576)" fill="#263238"/>
        <path id="Path_5990" data-name="Path 5990" d="M209,200.636a9.155,9.155,0,0,1,1.7-3.823c1.211-1.966,2.454-3.382,2.643-3.24a11.671,11.671,0,0,1-1.9,3.7C210.243,199.205,209.22,200.747,209,200.636Z" transform="translate(-34.202 -12.093)" fill="#263238"/>
        <path id="Path_5991" data-name="Path 5991" d="M205.165,210.731a8.824,8.824,0,0,1,.755-4.106,8.951,8.951,0,0,1,1.809-3.775,28,28,0,0,1-2.564,7.865Z" transform="translate(-36.408 -6.772)" fill="#263238"/>
        <path id="Path_5992" data-name="Path 5992" d="M203.9,221.314a15.415,15.415,0,0,1,.566-8.274,12.1,12.1,0,0,1,0,4.153,11.908,11.908,0,0,1-.566,4.121Z" transform="translate(-37.31 -0.933)" fill="#263238"/>
        <path id="Path_5993" data-name="Path 5993" d="M205.8,231.693a10.114,10.114,0,0,1-1.306-3.964,8.462,8.462,0,0,1-.346-4.168,13.1,13.1,0,0,1,1.2,4,10.162,10.162,0,0,1,.456,4.137Z" transform="translate(-37.047 5.095)" fill="#263238"/>
        <path id="Path_5994" data-name="Path 5994" d="M210.571,241.135c-.2.126-1.321-1.384-2.344-3.461a8.778,8.778,0,0,1-1.337-3.964A11.986,11.986,0,0,1,209,237.3,11.861,11.861,0,0,1,210.571,241.135Z" transform="translate(-35.411 10.912)" fill="#263238"/>
        <path id="Path_5995" data-name="Path 5995" d="M217.521,249.168c-.157.157-1.573-1.038-3.146-2.8a9.312,9.312,0,0,1-2.265-3.524c.2-.157,1.447,1.227,2.926,2.957S217.694,248.995,217.521,249.168Z" transform="translate(-32.42 16.139)" fill="#263238"/>
        <path id="Path_5996" data-name="Path 5996" d="M226.114,255.342a9,9,0,0,1-3.681-2c-1.856-1.353-3.146-2.706-3.02-2.894a12.047,12.047,0,0,1,3.539,2.2C224.777,253.989,226.24,255.138,226.114,255.342Z" transform="translate(-28.24 20.504)" fill="#263238"/>
        <path id="Path_5997" data-name="Path 5997" d="M235.972,259.229a8.8,8.8,0,0,1-4.058-1.022,8.574,8.574,0,0,1-3.634-2.076,12.583,12.583,0,0,1,3.948,1.274A13.148,13.148,0,0,1,235.972,259.229Z" transform="translate(-23.154 23.759)" fill="#263238"/>
        <path id="Path_5998" data-name="Path 5998" d="M238.566,259.617c0,.22-.142.409-.22.393s-.11-.22,0-.456.142-.409.22-.393S238.613,259.381,238.566,259.617Z" transform="translate(-17.427 25.495)" fill="#263238"/>
        <rect id="Rectangle_2972" data-name="Rectangle 2972" width="18.106" height="11.263" transform="matrix(0.95, 0.312, -0.312, 0.95, 191.912, 238.266)" fill="#2f55d4"/>
        <g id="Group_2542" data-name="Group 2542" transform="translate(188.398 238.266)" opacity="0.3">
          <rect id="Rectangle_2973" data-name="Rectangle 2973" width="18.106" height="11.263" transform="matrix(0.95, 0.312, -0.312, 0.95, 3.514, 0)"/>
        </g>
        <path id="Path_5999" data-name="Path 5999" d="M237.053,235.343a71.367,71.367,0,0,1-9.973,4.09l-.3.11-.189-.252-.3-.378a70.642,70.642,0,0,1-6.434-9.234,74.046,74.046,0,0,1,7.126,8.715l.283.378-.488-.142a66.965,66.965,0,0,1,10.272-3.288Z" transform="translate(-27.979 8.602)" fill="#2f55d4"/>
        <g id="Group_2543" data-name="Group 2543" transform="translate(191.881 238.282)" opacity="0.1">
          <path id="Path_6000" data-name="Path 6000" d="M237.053,235.343a71.367,71.367,0,0,1-9.973,4.09l-.3.11-.189-.252-.3-.378a70.642,70.642,0,0,1-6.434-9.234,74.046,74.046,0,0,1,7.126,8.715l.283.378-.488-.142a66.965,66.965,0,0,1,10.272-3.288Z" transform="translate(-219.86 -229.68)"/>
        </g>
        <path id="Path_6001" data-name="Path 6001" d="M226.089,233.85a12.93,12.93,0,0,1-4.043,2.47A13.827,13.827,0,0,1,217.61,238a13.372,13.372,0,0,1,4.058-2.47A13.952,13.952,0,0,1,226.089,233.85Z" transform="translate(-29.268 10.992)" fill="#2f55d4"/>
        <g id="Group_2544" data-name="Group 2544" transform="translate(188.342 244.842)" opacity="0.1">
          <path id="Path_6002" data-name="Path 6002" d="M226.089,233.85a12.93,12.93,0,0,1-4.043,2.47A13.827,13.827,0,0,1,217.61,238a13.372,13.372,0,0,1,4.058-2.47A13.952,13.952,0,0,1,226.089,233.85Z" transform="translate(-217.61 -233.85)"/>
        </g>
        <path id="Path_6003" data-name="Path 6003" d="M230.1,243.166a12.962,12.962,0,0,1-2.2-3.98c-1.038-2.344-1.73-4.357-1.416-4.326a13.151,13.151,0,0,1,2.218,3.98A12.238,12.238,0,0,1,230.1,243.166Z" transform="translate(-24.23 11.571)" fill="#2f55d4"/>
        <g id="Group_2545" data-name="Group 2545" transform="translate(202.171 246.43)" opacity="0.1">
          <path id="Path_6004" data-name="Path 6004" d="M230.1,243.166a12.962,12.962,0,0,1-2.2-3.98c-1.038-2.344-1.73-4.357-1.416-4.326a13.151,13.151,0,0,1,2.218,3.98A12.238,12.238,0,0,1,230.1,243.166Z" transform="translate(-226.401 -234.86)"/>
        </g>
        <rect id="Rectangle_2974" data-name="Rectangle 2974" width="46.562" height="28.975" transform="matrix(0.95, 0.312, -0.312, 0.95, 235.02, 271.306)" fill="#2f55d4"/>
        <path id="Path_6005" data-name="Path 6005" d="M291.522,265.225a11.3,11.3,0,0,1-1.982.9l-5.506,2.155c-4.719,1.778-11.153,4.2-18.4,6.858l-.3.11-.189-.252-.739-.975c-4.813-6.292-9.155-12.16-12.254-16.391l-3.7-5.018a12.589,12.589,0,0,1-1.243-1.919,12.429,12.429,0,0,1,1.573,1.715l3.854,4.861c3.225,4.121,7.629,9.863,12.458,16.234l.739.96-.488-.142c7.236-2.643,13.764-4.971,18.483-6.607l5.6-1.9A11.612,11.612,0,0,1,291.522,265.225Z" transform="translate(-12.306 20.642)" fill="#2f55d4"/>
        <g id="Group_2546" data-name="Group 2546" transform="translate(234.904 271.332)" opacity="0.2">
          <path id="Path_6006" data-name="Path 6006" d="M291.522,265.225a11.3,11.3,0,0,1-1.982.9l-5.506,2.155c-4.719,1.778-11.153,4.2-18.4,6.858l-.3.11-.189-.252-.739-.975c-4.813-6.292-9.155-12.16-12.254-16.391l-3.7-5.018a12.589,12.589,0,0,1-1.243-1.919,12.429,12.429,0,0,1,1.573,1.715l3.854,4.861c3.225,4.121,7.629,9.863,12.458,16.234l.739.96-.488-.142c7.236-2.643,13.764-4.971,18.483-6.607l5.6-1.9A11.612,11.612,0,0,1,291.522,265.225Z" transform="translate(-247.21 -250.69)"/>
        </g>
        <path id="Path_6007" data-name="Path 6007" d="M263.328,261.42a87.654,87.654,0,0,1-10.728,5.71,88.422,88.422,0,0,1-11.09,4.939,83.036,83.036,0,0,1,10.712-5.726,82.851,82.851,0,0,1,11.106-4.923Z" transform="translate(-15.573 26.79)" fill="#2f55d4"/>
        <g id="Group_2547" data-name="Group 2547" transform="translate(225.937 288.21)" opacity="0.2">
          <path id="Path_6008" data-name="Path 6008" d="M263.328,261.42a87.654,87.654,0,0,1-10.728,5.71,88.422,88.422,0,0,1-11.09,4.939,83.036,83.036,0,0,1,10.712-5.726,82.851,82.851,0,0,1,11.106-4.923Z" transform="translate(-241.51 -261.42)"/>
        </g>
        <path id="Path_6009" data-name="Path 6009" d="M273.527,285.377a80.223,80.223,0,0,1-5.049-10.508A79.353,79.353,0,0,1,264.23,264a79.851,79.851,0,0,1,5.049,10.524,78.751,78.751,0,0,1,4.247,10.854Z" transform="translate(-2.554 28.269)" fill="#2f55d4"/>
        <g id="Group_2548" data-name="Group 2548" transform="translate(261.676 292.269)" opacity="0.2">
          <path id="Path_6010" data-name="Path 6010" d="M273.527,285.377a80.223,80.223,0,0,1-5.049-10.508A79.353,79.353,0,0,1,264.23,264a79.851,79.851,0,0,1,5.049,10.524,78.751,78.751,0,0,1,4.247,10.854Z" transform="translate(-264.23 -264)"/>
        </g>
        <path id="Path_6011" data-name="Path 6011" d="M252.8,259.544a6.906,6.906,0,1,1,2.741-4.523A6.906,6.906,0,0,1,252.8,259.544Z" transform="translate(-15.399 18.567)" fill="#263238"/>
        <path id="Path_6012" data-name="Path 6012" d="M251.894,250.77a31.573,31.573,0,0,1-4.64,2.863l-1.1.613-.2.11-.11-.189a22.317,22.317,0,0,1-1.888-3.728,20.748,20.748,0,0,1,2.281,3.508l-.3-.094,1.1-.629a31.234,31.234,0,0,1,4.861-2.454Z" transform="translate(-14.175 20.498)" fill="#fff"/>
        <rect id="Rectangle_2975" data-name="Rectangle 2975" width="24.398" height="15.18" transform="matrix(0.95, 0.312, -0.312, 0.95, 227.662, 241.13)" fill="#2f55d4"/>
        <g id="Group_2549" data-name="Group 2549" transform="translate(222.926 241.13)" opacity="0.2">
          <rect id="Rectangle_2976" data-name="Rectangle 2976" width="24.398" height="15.18" transform="matrix(0.95, 0.312, -0.312, 0.95, 4.736, 0)"/>
        </g>
        <path id="Path_6013" data-name="Path 6013" d="M265.745,239.113a5.255,5.255,0,0,1-1.022.472l-2.894,1.133c-2.438.928-5.836,2.2-9.643,3.586h-.157l-.094-.142-.378-.5c-2.533-3.335-4.719-6.371-6.434-8.589l-1.888-2.564a6.918,6.918,0,0,1-.645-1.007,5.943,5.943,0,0,1,.786.9l2.029,2.548c1.683,2.155,4,5.16,6.512,8.494l.393.519h-.252c3.791-1.384,7.2-2.611,9.69-3.461l2.926-.991A5.067,5.067,0,0,1,265.745,239.113Z" transform="translate(-14.954 9.645)" fill="#2f55d4"/>
        <g id="Group_2550" data-name="Group 2550" transform="translate(227.636 241.145)" opacity="0.2">
          <path id="Path_6014" data-name="Path 6014" d="M265.745,239.113a5.255,5.255,0,0,1-1.022.472l-2.894,1.133c-2.438.928-5.836,2.2-9.643,3.586h-.157l-.094-.142-.378-.5c-2.533-3.335-4.719-6.371-6.434-8.589l-1.888-2.564a6.918,6.918,0,0,1-.645-1.007,5.943,5.943,0,0,1,.786.9l2.029,2.548c1.683,2.155,4,5.16,6.512,8.494l.393.519h-.252c3.791-1.384,7.2-2.611,9.69-3.461l2.926-.991A5.067,5.067,0,0,1,265.745,239.113Z" transform="translate(-242.59 -231.5)" fill="#2f55d4"/>
        </g>
        <path id="Path_6015" data-name="Path 6015" d="M251.006,237.12a47.421,47.421,0,0,1-5.616,2.989,46.812,46.812,0,0,1-5.82,2.6,43.307,43.307,0,0,1,5.616-3,44.15,44.15,0,0,1,5.82-2.58Z" transform="translate(-16.684 12.866)" fill="#2f55d4"/>
        <g id="Group_2551" data-name="Group 2551" transform="translate(222.886 249.986)" opacity="0.2">
          <path id="Path_6016" data-name="Path 6016" d="M251.006,237.12a47.421,47.421,0,0,1-5.616,2.989,46.812,46.812,0,0,1-5.82,2.6,43.307,43.307,0,0,1,5.616-3,44.15,44.15,0,0,1,5.82-2.58Z" transform="translate(-239.57 -237.12)" fill="#2f55d4"/>
        </g>
        <path id="Path_6017" data-name="Path 6017" d="M256.346,249.67a41.514,41.514,0,0,1-2.643-5.506,44.479,44.479,0,0,1-2.234-5.694,80.077,80.077,0,0,1,4.876,11.2Z" transform="translate(-9.865 13.639)" fill="#2f55d4"/>
        <g id="Group_2552" data-name="Group 2552" transform="translate(241.605 252.109)" opacity="0.2">
          <path id="Path_6018" data-name="Path 6018" d="M256.346,249.67a41.514,41.514,0,0,1-2.643-5.506,44.479,44.479,0,0,1-2.234-5.694,80.077,80.077,0,0,1,4.876,11.2Z" transform="translate(-251.47 -238.47)" fill="#2f55d4"/>
        </g>
        <path id="Path_6019" data-name="Path 6019" d="M162.564,136.484a32.845,32.845,0,1,1-23.753-39.923A32.845,32.845,0,0,1,162.564,136.484Z" transform="translate(-97.878 -68.262)" fill="#263238"/>
        <path id="Path_6020" data-name="Path 6020" d="M137.468,105.111c.582.236-3.146,11.231-8.337,24.571-.771,1.935-1.573,3.791-2.218,5.616l-.393.991-.991-.378c-10.649-4.106-18.436-7.488-18.247-7.975s8.274,2.061,19,5.946l-1.384.629c.692-1.825,1.416-3.7,2.155-5.631C132.229,115.524,136.9,104.938,137.468,105.111Z" transform="translate(-92.492 -62.781)" fill="#fff"/>
      </g>
      <g id="freepik--Plant--inject-96" transform="translate(531.577 545.069)">
        <path id="Path_6021" data-name="Path 6021" d="M398.174,418.141a30.407,30.407,0,0,1,18.876-2.3c3.429.566,7,1.573,9.344,4.153s2.769,7.11.094,9.328a9.076,9.076,0,0,1-5.883,1.494c-5,0-10.539-.944-14.535,2.061-2.281,1.715-3.791,4.562-6.512,5.411a6.465,6.465,0,0,1-7.079-3.146,11.011,11.011,0,0,1-.8-8.117A12.364,12.364,0,0,1,398.174,418.141Z" transform="translate(-334.887 -340.637)" fill="#2f55d4"/>
        <g id="Group_2553" data-name="Group 2553" transform="translate(56.358 74.619)" opacity="0.2">
          <path id="Path_6022" data-name="Path 6022" d="M398.174,418.141a30.407,30.407,0,0,1,18.876-2.3c3.429.566,7,1.573,9.344,4.153s2.769,7.11.094,9.328a9.076,9.076,0,0,1-5.883,1.494c-5,0-10.539-.944-14.535,2.061-2.281,1.715-3.791,4.562-6.512,5.411a6.465,6.465,0,0,1-7.079-3.146,11.011,11.011,0,0,1-.8-8.117A12.364,12.364,0,0,1,398.174,418.141Z" transform="translate(-391.246 -415.256)" fill="#fff"/>
        </g>
        <path id="Path_6023" data-name="Path 6023" d="M388.489,419.9c3.523,5.018,10.35,3.351,13.512.283s4.515-7.5,5.726-11.735c2.784-9.674,5.584-19.82,3.524-29.667a16.69,16.69,0,0,0-3.791-8.07,8.62,8.62,0,0,0-8.164-2.721c-3.445.912-5.584,4.294-7.126,7.5a70.88,70.88,0,0,0-7,30.359c0,4.892.566,10.02,3.319,14.063" transform="translate(-338.369 -367.82)" fill="#2f55d4"/>
        <path id="Path_6024" data-name="Path 6024" d="M395.9,421.207c3.807-4.53,4.53-11.137,2.831-16.816a32.483,32.483,0,0,0-9.942-14.44,53.766,53.766,0,0,0-17.822-10.445,19.066,19.066,0,0,0-8.022-1.368,8.447,8.447,0,0,0-6.733,4.074c-1.872,3.571-.079,7.865,1.872,11.452a136.586,136.586,0,0,0,11.7,17.838c3.508,4.515,7.535,8.982,12.883,11.011s10.9,1.809,13.733-1.9" transform="translate(-355.418 -361.919)" fill="#2f55d4"/>
        <g id="Group_2554" data-name="Group 2554" transform="translate(0 16.198)" opacity="0.1">
          <path id="Path_6025" data-name="Path 6025" d="M395.9,421.207c3.807-4.53,4.53-11.137,2.831-16.816a32.483,32.483,0,0,0-9.942-14.44,53.766,53.766,0,0,0-17.822-10.445,19.066,19.066,0,0,0-8.022-1.368,8.447,8.447,0,0,0-6.733,4.074c-1.872,3.571-.079,7.865,1.872,11.452a136.586,136.586,0,0,0,11.7,17.838c3.508,4.515,7.535,8.982,12.883,11.011s10.9,1.809,13.733-1.9" transform="translate(-355.418 -378.117)"/>
        </g>
        <path id="Path_6026" data-name="Path 6026" d="M387.16,465.9a11.254,11.254,0,0,0,.315-2.281c.173-1.667.362-3.744.613-6.292a88.843,88.843,0,0,1,1.4-9.124,69.563,69.563,0,0,1,3.319-10.775,39.715,39.715,0,0,1,5.506-9.753,20.45,20.45,0,0,1,6.953-5.789,19.825,19.825,0,0,1,5.852-1.825,11.009,11.009,0,0,0,2.265-.315,9.439,9.439,0,0,0-2.3,0,17.948,17.948,0,0,0-6.119,1.573,20.655,20.655,0,0,0-7.33,5.836,38.983,38.983,0,0,0-5.71,9.942,66.363,66.363,0,0,0-3.288,11.011,75.971,75.971,0,0,0-1.211,9.234c-.2,2.643-.283,4.719-.315,6.292a11.163,11.163,0,0,0,.047,2.265Z" transform="translate(-337.276 -338.105)" fill="#263238"/>
        <path id="Path_6027" data-name="Path 6027" d="M387.572,483.47a3.917,3.917,0,0,0,0-1.054V479.4c0-2.627,0-6.434.126-11.121.236-9.438,1.038-22.353,2.611-36.589s3.649-27.056,5.553-36.18c.441-2.3.9-4.373,1.321-6.182s.755-3.4,1.085-4.719.519-2.171.708-2.942a4.256,4.256,0,0,0,.189-1.054,4.449,4.449,0,0,0-.362.991l-.881,2.91c-.393,1.258-.786,2.816-1.243,4.625s-.975,3.87-1.479,6.182a344.9,344.9,0,0,0-5.773,36.243c-1.573,14.267-2.265,27.261-2.328,36.667,0,4.719,0,8.51.157,11.137q.11,1.84.189,3.02a5.652,5.652,0,0,0,.126,1.086Z" transform="translate(-337.263 -360.491)" fill="#263238"/>
        <path id="Path_6028" data-name="Path 6028" d="M399.651,455.637a19.416,19.416,0,0,0,0-3.146,82.956,82.956,0,0,0-.975-8.557,118.687,118.687,0,0,0-7.991-27.245,78.525,78.525,0,0,0-15.321-23.878,37.668,37.668,0,0,0-3.6-3.35c-.551-.472-1.038-.928-1.573-1.306l-1.384-.96a21.082,21.082,0,0,0-2.674-1.714,95.811,95.811,0,0,1,8.73,7.786A82.947,82.947,0,0,1,389.8,417.051a118.2,118.2,0,0,1,5.238,14.629c1.369,4.577,2.281,8.793,2.973,12.348s1.022,6.465,1.258,8.479a22.025,22.025,0,0,0,.378,3.13Z" transform="translate(-349.279 -357.7)" fill="#263238"/>
      </g>
      <g id="freepik--Device--inject-96" transform="translate(342.707 362.771)">
        <path id="Path_6029" data-name="Path 6029" d="M235.35,324.793h65.863l26.081-72.863h-3.649l-25.861,69.308-62.434.362Z" transform="translate(-235.35 -251.93)" fill="#455a64"/>
      </g>
      <g id="freepik--Desk--inject-96" transform="translate(251.534 435.634)">
        <path id="Path_6030" data-name="Path 6030" d="M216.85,304.713l2.438,228.231h6.7L223.268,303.03Z" transform="translate(-154.778 -295.511)" fill="#263238"/>
        <path id="Path_6031" data-name="Path 6031" d="M306.5,302.69c-.9,4.357,6.04,230.968,6.04,230.968h6.292L313.719,302.69Z" transform="translate(-103.453 -295.706)" fill="#263238"/>
        <path id="Path_6032" data-name="Path 6032" d="M457.436,298.25H177.39V309.8H200.5L185.46,534.944l6.575.362L207.089,309.8H433.872l11,225.6h6.591l-11-225.6h16.973Z" transform="translate(-177.39 -298.25)" fill="#263238"/>
      </g>
      <g id="freepik--Character--inject-96" transform="translate(119.712 217.103)">
        <path id="Path_6033" data-name="Path 6033" d="M266.942,450.154v-17.3l-32.42-.33-.362,25.326,2.013.142c8.935.6,45.492,2.36,51.485.614C294.328,456.65,266.942,450.154,266.942,450.154Z" transform="translate(-13.037 -2.779)" fill="#2f55d4"/>
        <path id="Path_6034" data-name="Path 6034" d="M245.883,451.957A11.216,11.216,0,0,0,241.825,445a11.011,11.011,0,0,0-7.551-2.438l-.094,9.061Z" transform="translate(-13.025 2.968)" fill="#f5f5f5"/>
        <path id="Path_6035" data-name="Path 6035" d="M280.287,446.05s9.627,2.894,8.4,4.467-38.225,1.18-54.537-.425v-.724l43.164.834S278.4,446.113,280.287,446.05Z" transform="translate(-13.043 4.975)" fill="#f5f5f5"/>
        <path id="Path_6036" data-name="Path 6036" d="M233.87,448.14h.551l1.573.126,5.883.315c4.971.236,11.845.456,19.443.551s14.488,0,19.458-.11l5.9-.173,1.573-.079h.551a2.126,2.126,0,0,0-.551,0H261.335c-7.582,0-14.472-.283-19.443-.44l-5.9-.189H233.87Z" transform="translate(-13.203 6.172)" fill="#263238"/>
        <path id="Path_6037" data-name="Path 6037" d="M261.62,450.834a12.945,12.945,0,0,1,1.133-2.8,12.728,12.728,0,0,1,2.029-2.234,5.223,5.223,0,0,0-3.146,5.034Z" transform="translate(2.699 4.831)" fill="#263238"/>
        <path id="Path_6038" data-name="Path 6038" d="M255.57,446.842a4.123,4.123,0,0,0,1.038-1.243c.472-.739.8-1.384.708-1.447s-.551.5-1.038,1.243A3.745,3.745,0,0,0,255.57,446.842Z" transform="translate(-0.768 3.884)" fill="#263238"/>
        <path id="Path_6039" data-name="Path 6039" d="M253.912,445.657c.079.079.6-.252,1.164-.755s.96-.96.881-1.038-.582.252-1.148.739S253.849,445.516,253.912,445.657Z" transform="translate(-1.722 3.715)" fill="#263238"/>
        <path id="Path_6040" data-name="Path 6040" d="M252.88,443.069a3.7,3.7,0,0,0,1.683.236,3.868,3.868,0,0,0,1.7-.157,3.7,3.7,0,0,0-1.683-.236,3.918,3.918,0,0,0-1.7.157Z" transform="translate(-2.31 3.158)" fill="#263238"/>
        <path id="Path_6041" data-name="Path 6041" d="M252.53,441.63a4.814,4.814,0,0,0,3.838.33q-1.92-.149-3.838-.33Z" transform="translate(-2.51 2.442)" fill="#263238"/>
        <path id="Path_6042" data-name="Path 6042" d="M256.29,445.109a6.139,6.139,0,0,0,2.092,0,11.607,11.607,0,0,0,2.218-.456,6.036,6.036,0,0,0,1.274-.519,1.054,1.054,0,0,0,.519-.629.849.849,0,0,0-.3-.849,3.838,3.838,0,0,0-4.719,1.07,3.7,3.7,0,0,0-.708,1.384v.566a5.459,5.459,0,0,1,.96-1.762,3.7,3.7,0,0,1,1.793-1.148,3.256,3.256,0,0,1,2.485.2c.33.252.189.629-.173.849a6.436,6.436,0,0,1-1.18.488,14.265,14.265,0,0,1-2.155.535A10.135,10.135,0,0,0,256.29,445.109Z" transform="translate(-0.356 2.801)" fill="#263238"/>
        <path id="Path_6043" data-name="Path 6043" d="M257.6,445.636a2.076,2.076,0,0,0,.267-1.447,3.6,3.6,0,0,0-.551-1.573,2.108,2.108,0,0,0-1.73-1.085.818.818,0,0,0-.645.959,2.328,2.328,0,0,0,.33.928,7.467,7.467,0,0,0,.975,1.274,2.879,2.879,0,0,0,1.18.849,13.5,13.5,0,0,1-.975-1.038,6.983,6.983,0,0,1-.849-1.258c-.283-.44-.472-1.243,0-1.321s1.054.472,1.369.9a3.618,3.618,0,0,1,.566,1.353A6.292,6.292,0,0,1,257.6,445.636Z" transform="translate(-1.135 2.384)" fill="#263238"/>
        <path id="Path_6044" data-name="Path 6044" d="M234.35,442.569a12.442,12.442,0,0,1,2.391.11,9.857,9.857,0,0,1,8.353,6.921c.472,1.384.519,2.328.582,2.312s0-.236,0-.645a9.436,9.436,0,0,0-.33-1.762,9.894,9.894,0,0,0-8.652-7.047,8.021,8.021,0,0,0-1.793,0A1.477,1.477,0,0,0,234.35,442.569Z" transform="translate(-12.928 2.888)" fill="#263238"/>
        <path id="Path_6045" data-name="Path 6045" d="M236.723,434a108.44,108.44,0,0,0-.315,13.308,55.177,55.177,0,0,0,.346-6.654,59.321,59.321,0,0,0-.031-6.654Z" transform="translate(-11.793 -1.931)" fill="#263238"/>
        <path id="Path_6046" data-name="Path 6046" d="M244.24,446.559a17.812,17.812,0,0,0,4.719.519,17.608,17.608,0,0,0,4.719-.33c0-.11-2.124,0-4.719,0S244.256,446.449,244.24,446.559Z" transform="translate(-7.261 5.252)" fill="#263238"/>
        <path id="Path_6047" data-name="Path 6047" d="M240.2,446.5a8.059,8.059,0,0,0,.378.944c.2.488.33.912.44.912s.173-.519-.079-1.07S240.279,446.426,240.2,446.5Z" transform="translate(-9.576 5.228)" fill="#263238"/>
        <path id="Path_6048" data-name="Path 6048" d="M238.7,444.6a1.623,1.623,0,0,0,.456.755c.33.346.661.566.739.488s-.126-.409-.456-.755S238.779,444.517,238.7,444.6Z" transform="translate(-10.435 4.132)" fill="#263238"/>
        <path id="Path_6049" data-name="Path 6049" d="M236.531,443.762c0,.11.456.11.928.283s.818.44.9.362-.173-.519-.771-.724S236.5,443.668,236.531,443.762Z" transform="translate(-11.679 3.566)" fill="#263238"/>
        <path id="Path_6050" data-name="Path 6050" d="M235,443.31c0,.094.142.267.409.377s.519.11.551,0-.142-.267-.409-.377S235,443.2,235,443.31Z" transform="translate(-12.555 3.357)" fill="#263238"/>
        <path id="Path_6051" data-name="Path 6051" d="M308.923,438.389l-7.11-15.809L272.13,435.62l10.083,23.218,1.888-.692c8.4-3.146,42.472-16.564,47.191-20.622C336.624,432.993,308.923,438.389,308.923,438.389Z" transform="translate(8.721 -8.474)" fill="#2f55d4"/>
        <path id="Path_6052" data-name="Path 6052" d="M290.61,444.328a11.247,11.247,0,0,0-6.575-4.719,11.011,11.011,0,0,0-7.865.9l3.634,8.29Z" transform="translate(11.036 1.081)" fill="#f5f5f5"/>
        <path id="Path_6053" data-name="Path 6053" d="M319.068,431.393s9.957-1.337,9.438.613-34.355,16.8-49.881,22.022l-.236-.676,39.672-17S317.37,432.227,319.068,431.393Z" transform="translate(12.308 -3.681)" fill="#f5f5f5"/>
        <path id="Path_6054" data-name="Path 6054" d="M278.11,453.354l.535-.173,1.573-.551,5.506-2.139c4.625-1.84,11.011-4.452,17.948-7.5s13.2-5.93,17.681-8.1l5.3-2.58,1.431-.739a2.292,2.292,0,0,0,.488-.267l-.519.2-1.463.661-5.348,2.485c-4.515,2.076-10.775,4.939-17.728,7.975s-13.308,5.71-17.9,7.613l-5.443,2.249-1.479.613Z" transform="translate(12.148 -3.478)" fill="#263238"/>
        <path id="Path_6055" data-name="Path 6055" d="M303.99,436.839a12.388,12.388,0,0,1-.126-3.02,14.4,14.4,0,0,1,.928-2.879,4.357,4.357,0,0,0-1.321,2.816,4.4,4.4,0,0,0,.519,3.083Z" transform="translate(26.632 -3.684)" fill="#263238"/>
        <path id="Path_6056" data-name="Path 6056" d="M297.035,435.446a3.586,3.586,0,0,0,.44-1.573c.142-.9.157-1.573,0-1.573s-.3.676-.44,1.573A3.239,3.239,0,0,0,297.035,435.446Z" transform="translate(22.937 -2.905)" fill="#263238"/>
        <path id="Path_6057" data-name="Path 6057" d="M295.094,435.077a3.127,3.127,0,0,0,.739-1.164c.315-.676.472-1.274.378-1.321s-.425.472-.739,1.164S294.969,435.029,295.094,435.077Z" transform="translate(21.858 -2.74)" fill="#263238"/>
        <path id="Path_6058" data-name="Path 6058" d="M293.331,433.3a4.059,4.059,0,0,0,1.573-.488c.865-.362,1.573-.739,1.479-.834a3.381,3.381,0,0,0-1.573.472C294.007,432.812,293.284,433.19,293.331,433.3Z" transform="translate(20.869 -3.102)" fill="#263238"/>
        <path id="Path_6059" data-name="Path 6059" d="M292.45,432.164a3.351,3.351,0,0,0,1.951-.267,3.272,3.272,0,0,0,1.667-1.007,10.528,10.528,0,0,0-1.809.645,10.055,10.055,0,0,0-1.809.629Z" transform="translate(20.365 -3.713)" fill="#263238"/>
        <path id="Path_6060" data-name="Path 6060" d="M296.88,434.06a6.294,6.294,0,0,0,1.9-.849,12.588,12.588,0,0,0,1.825-1.337,6.417,6.417,0,0,0,.96-.991,1.148,1.148,0,0,0,.2-.8.786.786,0,0,0-.614-.629,3.838,3.838,0,0,0-3.948,4.452,1.386,1.386,0,0,0,.173.551,6.292,6.292,0,0,1,.157-2.014,3.713,3.713,0,0,1,1.164-1.778,3.288,3.288,0,0,1,2.344-.834c.409.079.44.488.189.849a6.808,6.808,0,0,1-.865.928,16.359,16.359,0,0,1-1.746,1.369C297.573,433.683,296.849,434,296.88,434.06Z" transform="translate(22.903 -4.539)" fill="#263238"/>
        <path id="Path_6061" data-name="Path 6061" d="M298.625,433.4a2.14,2.14,0,0,0-.362-1.416,3.634,3.634,0,0,0-1.133-1.18,2.108,2.108,0,0,0-2.013-.267.818.818,0,0,0-.2,1.133,2.123,2.123,0,0,0,.692.708,6.747,6.747,0,0,0,1.416.771,2.958,2.958,0,0,0,1.432.283,11.762,11.762,0,0,1-1.321-.551,6.69,6.69,0,0,1-1.306-.787c-.441-.283-.928-.928-.488-1.227a1.856,1.856,0,0,1,1.573.252A3.382,3.382,0,0,1,298,432.121,8.463,8.463,0,0,1,298.625,433.4Z" transform="translate(21.694 -4)" fill="#263238"/>
        <path id="Path_6062" data-name="Path 6062" d="M276.24,440.632a11.706,11.706,0,0,1,2.218-.881,10.162,10.162,0,0,1,10.492,2.784c1.007,1.086,1.431,1.919,1.494,1.872a2.311,2.311,0,0,0-.267-.6,8.147,8.147,0,0,0-1.022-1.447,9.973,9.973,0,0,0-4.939-3.146,10.131,10.131,0,0,0-5.836.236,8.312,8.312,0,0,0-1.573.771A1.741,1.741,0,0,0,276.24,440.632Z" transform="translate(11.076 0.875)" fill="#263238"/>
        <path id="Path_6063" data-name="Path 6063" d="M274.75,431.27a52.771,52.771,0,0,0,2.407,6.292,60.4,60.4,0,0,0,2.784,6.056,56.079,56.079,0,0,0-2.422-6.213,60.441,60.441,0,0,0-2.768-6.135Z" transform="translate(10.222 -3.495)" fill="#263238"/>
        <path id="Path_6064" data-name="Path 6064" d="M286.91,440.96a18.87,18.87,0,0,0,4.53-1.479,17.434,17.434,0,0,0,4.184-2.25c0-.094-1.935.865-4.342,1.888S286.879,440.85,286.91,440.96Z" transform="translate(17.19 -0.082)" fill="#263238"/>
        <path id="Path_6065" data-name="Path 6065" d="M283.21,441.222c0,.11.346.346.739.708s.676.708.771.645,0-.535-.5-.944S283.241,441.128,283.21,441.222Z" transform="translate(15.07 2.189)" fill="#263238"/>
        <path id="Path_6066" data-name="Path 6066" d="M281.06,440.114c0,.11.283.33.724.5s.834.236.881.142-.283-.33-.724-.5S281.091,439.972,281.06,440.114Z" transform="translate(13.838 1.536)" fill="#263238"/>
        <path id="Path_6067" data-name="Path 6067" d="M278.724,440.339c0,.094.456-.079.96-.11a8.512,8.512,0,0,1,.959,0,1.153,1.153,0,0,0-.991-.346C279.038,439.945,278.645,440.26,278.724,440.339Z" transform="translate(12.494 1.437)" fill="#263238"/>
        <path id="Path_6068" data-name="Path 6068" d="M277.13,440.5c0,.11.252.189.535.173s.519-.11.519-.22-.252-.189-.535-.173S277.13,440.391,277.13,440.5Z" transform="translate(11.586 1.667)" fill="#263238"/>
        <path id="Path_6069" data-name="Path 6069" d="M117.061,425.88,93.654,250.975a7.378,7.378,0,0,1,7.865-8.337l56.425,4.719a10.665,10.665,0,0,1,9.737,9.768l13.748,165.593Z" transform="translate(-93.588 -111.598)" fill="#2f55d4"/>
        <g id="Group_2555" data-name="Group 2555" transform="translate(0 131.018)" opacity="0.2">
          <path id="Path_6070" data-name="Path 6070" d="M117.061,425.88,93.654,250.975a7.378,7.378,0,0,1,7.865-8.337l56.425,4.719a10.665,10.665,0,0,1,9.737,9.768l13.748,165.593Z" transform="translate(-93.588 -242.617)"/>
        </g>
        <path id="Path_6071" data-name="Path 6071" d="M144.484,216.559c-.472-6.67-2.218-13.166-3.146-19.773s-1.117-13.56,1.494-19.71A28.739,28.739,0,0,1,159.1,162.195a49.834,49.834,0,0,1,22.306-2.548,10.555,10.555,0,0,1,3.948.9,3.917,3.917,0,0,1,2.249,3.146,2.438,2.438,0,0,1-2.5,2.548,39.64,39.64,0,0,1,8.447,1.809,4.955,4.955,0,0,1,2.737,1.966,3.759,3.759,0,0,1-.378,3.712,11.01,11.01,0,0,1-2.847,2.674,2.611,2.611,0,0,1,3.067,2.061,4.971,4.971,0,0,1-1.085,3.885c-.8,1.133-1.84,2.061-2.674,3.146-3.4,4.515-2.737,10.791-1.919,16.391" transform="translate(-66.585 -159.326)" fill="#263238"/>
        <path id="Path_6072" data-name="Path 6072" d="M143.752,250.19l31.791-.566c.425-3.681,1.038-18,1.038-18s13.292-1.227,14.267-14.378.566-43.51.566-43.51h0a45.822,45.822,0,0,0-46.31,2.942l-2.045,1.384Z" transform="translate(-65.24 -153.884)" fill="#b78876"/>
        <path id="Path_6073" data-name="Path 6073" d="M171.2,187.642a1.9,1.9,0,1,1,1.361.572A1.919,1.919,0,0,1,171.2,187.642Z" transform="translate(-49.433 -144.976)" fill="#263238"/>
        <path id="Path_6074" data-name="Path 6074" d="M175.574,185.176c-.22.22-1.447-.849-3.256-.975s-3.146.739-3.382.488.142-.5.739-.912a4.53,4.53,0,0,1,5.3.393C175.511,184.657,175.684,185.082,175.574,185.176Z" transform="translate(-50.453 -145.703)" fill="#263238"/>
        <path id="Path_6075" data-name="Path 6075" d="M160.889,184.738a1.9,1.9,0,1,1-1.424-.324,1.919,1.919,0,0,1,1.424.324Z" transform="translate(-56.752 -144.966)" fill="#263238"/>
        <path id="Path_6076" data-name="Path 6076" d="M162.987,185.431c-.22.2-1.447-.865-3.256-.991s-3.146.739-3.366.5.126-.519.739-.912a4.452,4.452,0,0,1,5.285.393C162.924,184.9,163.1,185.336,162.987,185.431Z" transform="translate(-57.654 -145.564)" fill="#263238"/>
        <path id="Path_6077" data-name="Path 6077" d="M164.64,200.225a8.777,8.777,0,0,1,2.957-.44c.488,0,.865-.11.912-.362a2.69,2.69,0,0,0-.252-1.384c-.393-1.227-.8-2.47-1.211-3.775-1.652-5.364-2.784-9.784-2.5-9.863s1.825,4.2,3.492,9.564c.393,1.306.755,2.564,1.133,3.791a3.146,3.146,0,0,1,.126,2,1.243,1.243,0,0,1-.865.708,3.746,3.746,0,0,1-.8,0,8.885,8.885,0,0,1-2.989-.236Z" transform="translate(-52.953 -144.959)" fill="#263238"/>
        <path id="Path_6078" data-name="Path 6078" d="M160.869,195.581c-1.809-1.243,5.034,3.146,8.73,3.146a4.987,4.987,0,0,1-6.025,1.573C159.673,198.648,160.869,195.581,160.869,195.581Z" transform="translate(-55.206 -138.679)" fill="#fff"/>
        <path id="Path_6079" data-name="Path 6079" d="M170.543,210.79a30.6,30.6,0,0,1-16.863-5.93s3.476,9.721,16.674,9.344Z" transform="translate(-59.154 -133.234)" fill="#a36957"/>
        <path id="Path_6080" data-name="Path 6080" d="M143.925,190.674l.676,17.067s5.993-1.825,6.387-2-.11-20.906-.11-20.906-.834-7.865,4.263-9.674c5.364-1.935,7.692,1.951,15.29,3.146,25.058,4.231,23.344-3.461,23.344-3.461s3.146-3.382-3.288-7.094-22.526-4.971-31.335-1.935c-17.3,5.962-18.342,11.892-18.342,17.13C140.81,190.422,143.925,190.674,143.925,190.674Z" transform="translate(-66.529 -156.581)" fill="#263238"/>
        <path id="Path_6081" data-name="Path 6081" d="M147.908,182.154c-.283-.11-9.753-1.337-8.856,9.847s11.892,6.591,11.892,6.292S147.908,182.154,147.908,182.154Z" transform="translate(-67.571 -146.298)" fill="#b78876"/>
        <path id="Path_6082" data-name="Path 6082" d="M146.161,193.151a3.471,3.471,0,0,1-.5.33,1.966,1.966,0,0,1-1.463.142,4.719,4.719,0,0,1-2.564-4.137,6.481,6.481,0,0,1,.315-2.847,2.265,2.265,0,0,1,1.353-1.573,1.007,1.007,0,0,1,1.2.44c.173.3.11.535.173.551s.22-.22.094-.661a1.211,1.211,0,0,0-.488-.676,1.573,1.573,0,0,0-1.1-.189,2.737,2.737,0,0,0-1.9,1.888,6.576,6.576,0,0,0-.425,3.146c.252,2.249,1.573,4.263,3.146,4.609a2.108,2.108,0,0,0,1.762-.44C146.161,193.5,146.193,193.23,146.161,193.151Z" transform="translate(-66.532 -144.9)" fill="#a36957"/>
        <path id="Path_6083" data-name="Path 6083" d="M224.08,278.072s15.73-.755,18.876.676c5.443,2.375,21.645,27.78,20.827,27.78h-7.5l-25.168-9.548-5.93,1.494Z" transform="translate(-18.813 -91.395)" fill="#b78876"/>
        <path id="Path_6084" data-name="Path 6084" d="M275.658,324.37s47.065,163.013,47.175,162.211-42.189,20.339-42.189,20.339L252.11,389.037Z" transform="translate(-2.751 -64.752)" fill="#263238"/>
        <path id="Path_6085" data-name="Path 6085" d="M270.491,451.147l44.58-21.755-1.935-5.962L268.21,445.216Z" transform="translate(6.475 -7.987)" fill="#455a64"/>
        <path id="Path_6086" data-name="Path 6086" d="M266.493,404.673c-.236,0-.724-.96-1.117-2.265s-.519-2.454-.283-2.517.724.944,1.117,2.265S266.714,404.594,266.493,404.673Z" transform="translate(4.621 -21.477)" fill="#455a64"/>
        <path id="Path_6087" data-name="Path 6087" d="M268.365,410.738c-.236,0-.755-.944-1.148-2.249s-.551-2.438-.33-2.517.739.944,1.148,2.25S268.585,410.628,268.365,410.738Z" transform="translate(5.659 -17.994)" fill="#455a64"/>
        <path id="Path_6088" data-name="Path 6088" d="M270.318,416.726c-.236.079-.755-.928-1.18-2.234s-.582-2.423-.362-2.5.755.928,1.18,2.234S270.538,416.726,270.318,416.726Z" transform="translate(6.742 -14.544)" fill="#455a64"/>
        <path id="Path_6089" data-name="Path 6089" d="M272.362,422.721c-.236.079-.771-.912-1.211-2.218s-.629-2.422-.393-2.5.771.912,1.211,2.218S272.582,422.721,272.362,422.721Z" transform="translate(7.876 -11.101)" fill="#455a64"/>
        <path id="Path_6090" data-name="Path 6090" d="M274.483,428.709c-.22,0-.787-.912-1.243-2.2s-.661-2.407-.425-2.485.771.9,1.243,2.2S274.735,428.583,274.483,428.709Z" transform="translate(9.058 -7.651)" fill="#455a64"/>
        <path id="Path_6091" data-name="Path 6091" d="M276.667,434.614c-.236,0-.8-.9-1.274-2.187s-.692-2.407-.472-2.485.8.9,1.274,2.187S276.935,434.535,276.667,434.614Z" transform="translate(10.271 -4.259)" fill="#455a64"/>
        <path id="Path_6092" data-name="Path 6092" d="M280.435,452.367a7.426,7.426,0,0,1-.944-1.7c-.551-1.133-1.306-2.784-2.171-4.845-1.746-4.121-3.9-9.926-6.072-16.391s-4-12.38-5.285-16.658c-.6-2.013-1.1-3.712-1.573-5.081a7.614,7.614,0,0,1-.441-1.9,10.238,10.238,0,0,1,.755,1.793c.44,1.18,1.038,2.879,1.762,5l5.521,16.564c2.155,6.465,4.216,12.285,5.82,16.454l1.919,4.924a9.265,9.265,0,0,1,.708,1.84Z" transform="translate(4.034 -18.096)" fill="#455a64"/>
        <path id="Path_6093" data-name="Path 6093" d="M127.49,322.041c.393-8.636-4.515,47.4,38.555,48.874s131.065.834,131.065.834l-10.3,142.092h51.674l10.791-151.168s5.506-43.793-24.461-49.377c-18.751-3.508-135.359-4.625-135.359-4.625Z" transform="translate(-74.162 -73.748)" fill="#263238"/>
        <path id="Path_6094" data-name="Path 6094" d="M228.02,442.373h54.411V433.91l-54.411.079Z" transform="translate(-16.555 -1.982)" fill="#455a64"/>
        <path id="Path_6095" data-name="Path 6095" d="M173.91,345.45a2.182,2.182,0,0,1,.551,0l1.573-.094,6.292-.283,23.359-.9,78.793-2.706h.5v.5c-.708,5.789-1.306,11.908-1.809,18.121-.692,8.888-1.353,17.555-2,25.923s-1.573,16.422-2.375,24.1c-1.573,15.321-3.052,29.132-4.279,40.757s-2.249,20.937-2.957,27.465c-.362,3.146-.645,5.726-.849,7.472q-.142,1.227-.236,1.935a4.367,4.367,0,0,1-.11.661,2.987,2.987,0,0,1,0-.661c0-.488.094-1.133.157-1.951.157-1.762.393-4.279.692-7.488.629-6.528,1.573-15.919,2.69-27.5s2.548-25.436,4.09-40.789c.755-7.676,1.573-15.73,2.312-24.083s1.306-17.036,1.982-25.908q.755-9.438,1.825-18.168l.44.488-78.809,2.407-23.359.645-6.292.126h-1.573a2.027,2.027,0,0,1-.614-.079Z" transform="translate(-47.562 -54.953)" fill="#455a64"/>
        <path id="Path_6096" data-name="Path 6096" d="M178.881,340.229c0,.236-1.1.456-2.485.488s-2.485-.126-2.485-.362,1.1-.472,2.47-.5S178.881,339.993,178.881,340.229Z" transform="translate(-47.562 -55.882)" fill="#455a64"/>
        <path id="Path_6097" data-name="Path 6097" d="M185.217,340.08c0,.236-1.1.456-2.485.488s-2.485-.126-2.5-.362,1.117-.456,2.485-.5S185.217,339.844,185.217,340.08Z" transform="translate(-43.94 -55.97)" fill="#455a64"/>
        <path id="Path_6098" data-name="Path 6098" d="M191.547,339.923c0,.252-1.1.456-2.485.5s-2.485-.142-2.5-.378,1.117-.456,2.485-.488S191.547,339.687,191.547,339.923Z" transform="translate(-40.313 -56.049)" fill="#455a64"/>
        <path id="Path_6099" data-name="Path 6099" d="M197.877,339.773c0,.252-1.1.472-2.485.5s-2.485-.142-2.5-.377,1.117-.456,2.485-.488S197.877,339.537,197.877,339.773Z" transform="translate(-36.686 -56.135)" fill="#455a64"/>
        <path id="Path_6100" data-name="Path 6100" d="M204.207,339.639c0,.236-1.1.456-2.485.488s-2.485-.142-2.5-.378,1.117-.456,2.485-.488S204.207,339.387,204.207,339.639Z" transform="translate(-33.059 -56.221)" fill="#455a64"/>
        <path id="Path_6101" data-name="Path 6101" d="M210.537,339.489c0,.236-1.1.456-2.485.488s-2.485-.142-2.5-.378,1.117-.456,2.485-.488S210.521,339.253,210.537,339.489Z" transform="translate(-29.431 -56.306)" fill="#455a64"/>
        <path id="Path_6102" data-name="Path 6102" d="M216.867,339.339c0,.236-1.1.456-2.485.488s-2.485-.142-2.5-.377,1.1-.456,2.485-.488S216.788,339.1,216.867,339.339Z" transform="translate(-25.804 -56.392)" fill="#455a64"/>
        <path id="Path_6103" data-name="Path 6103" d="M223.2,339.189c0,.236-1.1.456-2.485.488s-2.485-.126-2.5-.377,1.1-.456,2.485-.488S223.181,338.953,223.2,339.189Z" transform="translate(-22.177 -56.478)" fill="#455a64"/>
        <path id="Path_6104" data-name="Path 6104" d="M229.527,339.039c0,.236-1.1.456-2.485.488s-2.485-.126-2.5-.362,1.1-.472,2.485-.5S229.511,338.8,229.527,339.039Z" transform="translate(-18.549 -56.564)" fill="#455a64"/>
        <path id="Path_6105" data-name="Path 6105" d="M235.817,338.889c0,.236-1.117.456-2.485.488s-2.485-.126-2.5-.362,1.1-.472,2.485-.5S235.817,338.653,235.817,338.889Z" transform="translate(-14.945 -56.65)" fill="#455a64"/>
        <path id="Path_6106" data-name="Path 6106" d="M242.187,338.733c0,.236-1.117.456-2.485.488s-2.485-.126-2.5-.362,1.1-.456,2.485-.488S242.171,338.5,242.187,338.733Z" transform="translate(-11.295 -56.731)" fill="#455a64"/>
        <path id="Path_6107" data-name="Path 6107" d="M248.517,338.583c0,.252-1.117.472-2.485.5s-2.5-.142-2.5-.378,1.1-.456,2.485-.488S248.5,338.347,248.517,338.583Z" transform="translate(-7.667 -56.817)" fill="#455a64"/>
        <path id="Path_6108" data-name="Path 6108" d="M246.784,346c-.252,0-.33-1.148-.189-2.517s.425-2.454.661-2.438.33,1.148.189,2.517S247.02,346.027,246.784,346Z" transform="translate(-5.951 -55.199)" fill="#455a64"/>
        <path id="Path_6109" data-name="Path 6109" d="M246.163,352.3c-.236,0-.33-1.148-.189-2.517s.44-2.454.676-2.438.315,1.148.189,2.517S246.4,352.327,246.163,352.3Z" transform="translate(-6.305 -51.589)" fill="#455a64"/>
        <path id="Path_6110" data-name="Path 6110" d="M245.543,358.6c-.236,0-.33-1.148-.189-2.517s.44-2.454.676-2.438.315,1.164.189,2.533S245.779,358.627,245.543,358.6Z" transform="translate(-6.66 -47.979)" fill="#455a64"/>
        <path id="Path_6111" data-name="Path 6111" d="M244.92,364.9c-.236,0-.315-1.148-.189-2.517s.44-2.454.676-2.438.315,1.164.189,2.533S245.188,364.927,244.92,364.9Z" transform="translate(-7.013 -44.369)" fill="#455a64"/>
        <path id="Path_6112" data-name="Path 6112" d="M244.3,371.205c-.236,0-.315-1.164-.189-2.533s.44-2.454.676-2.423.33,1.148.189,2.517S244.536,371.221,244.3,371.205Z" transform="translate(-7.368 -40.753)" fill="#455a64"/>
        <path id="Path_6113" data-name="Path 6113" d="M243.679,377.505c-.236,0-.315-1.164-.173-2.533s.425-2.454.661-2.422.33,1.148.189,2.517S243.93,377.521,243.679,377.505Z" transform="translate(-7.722 -37.143)" fill="#455a64"/>
        <path id="Path_6114" data-name="Path 6114" d="M243.094,383.805c-.252,0-.33-1.148-.189-2.517s.425-2.47.676-2.438.315,1.148.173,2.517S243.3,383.805,243.094,383.805Z" transform="translate(-8.065 -33.533)" fill="#455a64"/>
        <path id="Path_6115" data-name="Path 6115" d="M242.453,390.105c-.236,0-.33-1.148-.189-2.517s.44-2.47.676-2.438.315,1.148.189,2.517S242.689,390.121,242.453,390.105Z" transform="translate(-8.431 -29.923)" fill="#455a64"/>
        <path id="Path_6116" data-name="Path 6116" d="M241.83,396.405c-.236,0-.315-1.148-.189-2.517s.44-2.454.676-2.438.315,1.148.189,2.517S242.066,396.437,241.83,396.405Z" transform="translate(-8.784 -26.313)" fill="#455a64"/>
        <path id="Path_6117" data-name="Path 6117" d="M241.21,402.705c-.236,0-.315-1.148-.189-2.517s.44-2.454.676-2.438.315,1.148.189,2.517S241.446,402.737,241.21,402.705Z" transform="translate(-9.139 -22.703)" fill="#455a64"/>
        <path id="Path_6118" data-name="Path 6118" d="M240.59,409.005c-.236,0-.315-1.148-.189-2.517s.44-2.454.676-2.438.33,1.148.189,2.517S240.826,409.037,240.59,409.005Z" transform="translate(-9.494 -19.093)" fill="#455a64"/>
        <path id="Path_6119" data-name="Path 6119" d="M239.984,415.305c-.252,0-.33-1.148-.189-2.517s.425-2.454.661-2.438.33,1.164.189,2.533S240.157,415.337,239.984,415.305Z" transform="translate(-9.848 -15.483)" fill="#455a64"/>
        <path id="Path_6120" data-name="Path 6120" d="M239.363,421.605c-.236,0-.33-1.148-.189-2.517s.425-2.454.676-2.438.315,1.164.173,2.533S239.6,421.637,239.363,421.605Z" transform="translate(-10.202 -11.873)" fill="#455a64"/>
        <path id="Path_6121" data-name="Path 6121" d="M238.743,427.915c-.236,0-.33-1.164-.189-2.533s.44-2.454.676-2.422.315,1.148.189,2.517S238.979,427.931,238.743,427.915Z" transform="translate(-10.557 -8.257)" fill="#455a64"/>
        <path id="Path_6122" data-name="Path 6122" d="M238.09,434.215c-.236,0-.315-1.148-.189-2.517s.44-2.47.676-2.438.315,1.148.189,2.517S238.374,434.231,238.09,434.215Z" transform="translate(-10.927 -4.647)" fill="#455a64"/>
        <path id="Path_6123" data-name="Path 6123" d="M237.849,435.862c-.236,0-.425-.11-.409-.189s.2-.142.44-.11.425.11.425.189S238.085,435.878,237.849,435.862Z" transform="translate(-11.158 -1.04)" fill="#455a64"/>
        <path id="Path_6124" data-name="Path 6124" d="M242.482,344.56a14.471,14.471,0,0,1-3.382,3.7,15.1,15.1,0,0,1-3.98,3.052,29.275,29.275,0,0,1,7.362-6.748Z" transform="translate(-12.487 -53.182)" fill="#263238"/>
        <path id="Path_6125" data-name="Path 6125" d="M246.247,345.78a23.591,23.591,0,0,1-5.553,2.973,23.112,23.112,0,0,1-5.915,2.171,23.6,23.6,0,0,1,5.553-2.973A23.324,23.324,0,0,1,246.247,345.78Z" transform="translate(-12.682 -52.483)" fill="#263238"/>
        <path id="Path_6126" data-name="Path 6126" d="M203.856,309.272s-5.27-56.456-14.629-81.168l1.856-1.4-2.784-9.737-35.016-4.247.535,7.6a24.964,24.964,0,0,0-11.971,11.389c-12.584,26.647-6.292,57.762-13.04,115.413,0,0-7.865,27.04.252,35.5l76.4-17.807-3.6-17.429c33.348-.629,88.184-6.764,88.184-6.764l-1.573-31.555s-81.939.488-84.613.2" transform="translate(-75.368 -128.73)" fill="#455a64"/>
        <path id="Path_6127" data-name="Path 6127" d="M165.426,215.39a26.445,26.445,0,0,1,2.533,6.292,11.01,11.01,0,0,1,.692,2.674,1.888,1.888,0,0,1-.44,1.306,2.265,2.265,0,0,1-.944.661c-1.321.409-2.076.126-2.076,0s.818-.142,1.809-.614a1.463,1.463,0,0,0,.865-1.384,16.631,16.631,0,0,0-.724-2.438A26.961,26.961,0,0,1,165.426,215.39Z" transform="translate(-52.559 -127.2)" fill="#e0e0e0"/>
        <path id="Path_6128" data-name="Path 6128" d="M193.571,242.265c0,.252-14.157.44-31.461.44s-31.461-.189-31.461-.44,14.157-.425,31.461-.425S193.571,242.092,193.571,242.265Z" transform="translate(-72.351 -112.044)" fill="#263238"/>
        <path id="Path_6129" data-name="Path 6129" d="M188.868,232.155c0,.236-12.49.44-27.874.44s-27.874-.2-27.874-.44,12.474-.425,27.874-.425S188.868,231.919,188.868,232.155Z" transform="translate(-70.936 -117.837)" fill="#263238"/>
        <path id="Path_6130" data-name="Path 6130" d="M182.435,223.27c0,.236-10.319.425-23.061.425s-23.045-.189-23.045-.425,10.319-.44,23.045-.44S182.435,223.1,182.435,223.27Z" transform="translate(-69.096 -122.937)" fill="#263238"/>
        <path id="Path_6131" data-name="Path 6131" d="M178.22,216.985a174.606,174.606,0,0,1-17.665.441,174.606,174.606,0,0,1-17.665-.441c0-.236,7.865-.425,17.665-.425S178.22,216.749,178.22,216.985Z" transform="translate(-65.337 -126.53)" fill="#263238"/>
        <path id="Path_6132" data-name="Path 6132" d="M196.3,252c0,.236-14.9.425-33.27.425s-33.27-.189-33.27-.425,14.9-.44,33.27-.44S196.3,251.749,196.3,252Z" transform="translate(-72.861 -106.474)" fill="#263238"/>
        <path id="Path_6133" data-name="Path 6133" d="M198.993,261.77c0,.236-15.494.425-34.607.425s-34.607-.189-34.607-.425,15.494-.44,34.607-.44S198.993,261.534,198.993,261.77Z" transform="translate(-72.85 -100.875)" fill="#263238"/>
        <path id="Path_6134" data-name="Path 6134" d="M200.7,270.765c0,.252-15.888.44-35.472.44s-35.472-.189-35.472-.44,15.888-.425,35.472-.425S200.7,270.529,200.7,270.765Z" transform="translate(-72.861 -95.712)" fill="#263238"/>
        <path id="Path_6135" data-name="Path 6135" d="M278.6,280.62c0,.236-33.506.425-74.829.425s-74.845-.189-74.845-.425,33.506-.44,74.845-.44S278.6,280.384,278.6,280.62Z" transform="translate(-73.337 -90.074)" fill="#263238"/>
        <path id="Path_6136" data-name="Path 6136" d="M279.386,288.495c0,.252-33.757.44-75.4.44s-75.411-.189-75.411-.44,33.757-.425,75.411-.425S279.386,288.259,279.386,288.495Z" transform="translate(-73.537 -85.552)" fill="#263238"/>
        <path id="Path_6137" data-name="Path 6137" d="M199.49,298.215c0,.252-16.124.44-36.022.44s-36.038-.189-36.038-.44,16.124-.425,36.038-.425S199.49,297.979,199.49,298.215Z" transform="translate(-74.196 -79.983)" fill="#263238"/>
        <path id="Path_6138" data-name="Path 6138" d="M204.107,307.235c0,.236-17.539.44-39.168.44s-39.168-.2-39.168-.44,17.539-.425,39.168-.425S204.107,307,204.107,307.235Z" transform="translate(-75.147 -74.814)" fill="#263238"/>
        <path id="Path_6139" data-name="Path 6139" d="M133.33,354.235c-.252,0-.44-27.512-.44-61.443s.189-61.442.44-61.442.425,27.512.425,61.442S133.566,354.235,133.33,354.235Z" transform="translate(-71.067 -118.055)" fill="#263238"/>
        <path id="Path_6140" data-name="Path 6140" d="M145.335,363.24c-.236,0-.425-33.631-.425-75.112s.142-75.128.425-75.128.44,33.616.44,75.112S145.586,363.24,145.335,363.24Z" transform="translate(-64.18 -128.57)" fill="#263238"/>
        <path id="Path_6141" data-name="Path 6141" d="M158.6,359.8c-.236,0-.425-32.42-.425-72.359s.189-72.359.425-72.359.44,32.42.44,72.359S158.856,359.8,158.6,359.8Z" transform="translate(-56.576 -127.378)" fill="#263238"/>
        <path id="Path_6142" data-name="Path 6142" d="M169.755,350.853c-.236,0-.425-25.452-.425-56.834s.189-56.849.425-56.849.44,25.452.44,56.849S169.991,350.853,169.755,350.853Z" transform="translate(-50.186 -114.72)" fill="#263238"/>
        <path id="Path_6143" data-name="Path 6143" d="M181.815,274.05a34.878,34.878,0,0,1,.173,5.537c0,3.414,0,8.117-.189,13.308s-.283,9.91-.44,13.308a38.623,38.623,0,0,1-.44,5.521,34.421,34.421,0,0,1-.173-5.521c0-3.413,0-8.117.189-13.323s.283-9.91.44-13.324A33.52,33.52,0,0,1,181.815,274.05Z" transform="translate(-43.669 -93.586)" fill="#263238"/>
        <path id="Path_6144" data-name="Path 6144" d="M194.385,274.47a32.819,32.819,0,0,1,.173,5.191c0,3.146,0,7.6-.157,12.458s-.283,9.281-.425,12.474a29.353,29.353,0,0,1-.44,5.16,32.221,32.221,0,0,1-.173-5.16c0-3.146,0-7.614.173-12.49s.267-9.281.425-12.474A28.623,28.623,0,0,1,194.385,274.47Z" transform="translate(-36.435 -93.346)" fill="#263238"/>
        <path id="Path_6145" data-name="Path 6145" d="M206.9,274.25a27.653,27.653,0,0,1,.189,5.018c0,3.146,0,7.378-.157,12.1s-.267,9-.425,12.081a26.9,26.9,0,0,1-.425,5.018,31.115,31.115,0,0,1-.189-5c0-3.146,0-7.378.173-12.1s.267-9.014.409-12.1a30.792,30.792,0,0,1,.425-5.018Z" transform="translate(-29.252 -93.472)" fill="#263238"/>
        <path id="Path_6146" data-name="Path 6146" d="M219.463,273.9a25.67,25.67,0,0,1,.189,4.861c0,3,0,7.157-.157,11.735s-.252,8.73-.409,11.719a28.318,28.318,0,0,1-.409,4.861,26.331,26.331,0,0,1-.2-4.861c0-3,0-7.157.157-11.735s.267-8.746.409-11.735A26.738,26.738,0,0,1,219.463,273.9Z" transform="translate(-22.046 -93.672)" fill="#263238"/>
        <path id="Path_6147" data-name="Path 6147" d="M170.91,281.555a16.344,16.344,0,0,1,7.33-8.2,42.679,42.679,0,0,1-3.728,4.043,44.037,44.037,0,0,1-3.6,4.153Z" transform="translate(-49.281 -93.982)" fill="#263238"/>
        <path id="Path_6148" data-name="Path 6148" d="M173.846,281.933a8.636,8.636,0,0,1,3.146-8.573c.189.173-1.133,1.777-1.982,4.137S174.192,281.933,173.846,281.933Z" transform="translate(-47.702 -93.982)" fill="#263238"/>
        <path id="Path_6149" data-name="Path 6149" d="M226,304.945A134.514,134.514,0,0,1,224.2,289.86a135.8,135.8,0,0,1-.944-15.18,128.054,128.054,0,0,1,1.809,15.1A133.009,133.009,0,0,1,226,304.945Z" transform="translate(-19.283 -93.225)" fill="#263238"/>
        <path id="Path_6150" data-name="Path 6150" d="M226.051,278.591a2.5,2.5,0,0,0-.5,1.211,1.573,1.573,0,0,0,.393,1.148,1.18,1.18,0,0,0,1.321.173,1.227,1.227,0,0,0,.786-1.085,1.573,1.573,0,0,0-.582-1.07c-.613-.488-1.2-.33-1.227-.456s.582-.566,1.573,0a1.982,1.982,0,0,1,1.038,1.573A1.95,1.95,0,0,1,227.624,282a1.982,1.982,0,0,1-2.265-.409,2.013,2.013,0,0,1-.393-1.809C225.248,278.639,226.066,278.481,226.051,278.591Z" transform="translate(-18.345 -91.191)" fill="#263238"/>
        <path id="Path_6151" data-name="Path 6151" d="M192.471,301.167h.393l1.148.094c1.022.11,2.533.2,4.515.267,3.964.157,9.784.236,17.193.173,14.8-.094,35.959-.645,61.348-1.573h.362v.362c.5,9.8,1.038,20.449,1.573,31.744v.362h-.33c-4.027.755-8.1,1.07-12.27,1.494l-12.71,1.1c-8.636.708-17.524,1.368-26.568,2.013l-33.254,2.234h0c-9.643-.614-19-4.074-25.546-10.429a31.241,31.241,0,0,1-7.409-10.9,77.71,77.71,0,0,1-3.728-11.986c-3.885-15.73-6.292-30.061-8.258-41.953-.944-5.946-1.746-11.31-2.422-16a97.624,97.624,0,0,1-1.4-12.065,14.834,14.834,0,0,1,1.573-7.425,7.487,7.487,0,0,1,1.573-2.092,14.723,14.723,0,0,0-1.463,2.171,15.023,15.023,0,0,0-1.384,7.346,101.138,101.138,0,0,0,1.573,12c.739,4.719,1.573,10.036,2.548,15.982,1.982,11.861,4.5,26.1,8.416,41.842a78.986,78.986,0,0,0,3.728,11.876,30.423,30.423,0,0,0,7.267,10.618c6.292,6.182,15.557,9.564,25.027,10.178h0L227.2,336.34l26.553-2,12.71-1.085c4.137-.425,8.29-.739,12.144-1.463l-.315.425c-.535-11.247-1.038-21.944-1.573-31.759l.393.362c-25.373.928-46.53,1.368-61.348,1.337-7.409,0-13.229-.141-17.193-.377-1.982-.11-3.508-.236-4.53-.393l-1.148-.142A1.571,1.571,0,0,1,192.471,301.167Z" transform="translate(-64.077 -120.782)" fill="#263238"/>
        <path id="Path_6152" data-name="Path 6152" d="M180.8,297.357a14.362,14.362,0,0,1-.818-2.47c-.456-1.573-1.085-3.933-1.84-6.827-1.573-5.773-3.382-13.811-5.4-22.683s-3.854-16.91-5.238-22.715l-1.573-6.874a13.233,13.233,0,0,1-.488-2.548,16.344,16.344,0,0,1,.818,2.47c.488,1.573,1.117,3.917,1.888,6.811,1.573,5.757,3.492,13.78,5.506,22.667s3.665,16.768,5.081,22.73c.629,2.8,1.164,5.112,1.573,6.89a17.3,17.3,0,0,1,.488,2.548Z" transform="translate(-52.41 -116.972)" fill="#263238"/>
        <path id="Path_6153" data-name="Path 6153" d="M178,215.81a7.044,7.044,0,0,1-.173,1.73c-.157,1.117-.409,2.706-.755,4.719a26,26,0,0,1-.661,3.256,2.344,2.344,0,0,1-1.416,1.573,4.138,4.138,0,0,1-2.108,0c-2.6-.535-5.427-1.227-8.384-2.029-5.9-1.573-11.153-3.319-14.975-4.5l-4.515-1.416a6.8,6.8,0,0,1-1.573-.613,6.482,6.482,0,0,1,1.715.283c1.1.252,2.674.629,4.609,1.164,3.87,1.022,9.155,2.627,15.038,4.247,2.942.8,5.742,1.573,8.321,2.092a3.46,3.46,0,0,0,1.715.11,1.573,1.573,0,0,0,.975-1.054c.346-1.007.488-2.171.724-3.146.409-1.951.771-3.524,1.022-4.625A6.4,6.4,0,0,1,178,215.81Z" transform="translate(-65.022 -126.96)" fill="#263238"/>
        <path id="Path_6154" data-name="Path 6154" d="M147.91,354.25l11,149.233,4.593-1.07L161.784,357.4Z" transform="translate(-62.46 -47.629)" fill="#263238"/>
        <path id="Path_6155" data-name="Path 6155" d="M130.455,357.55,97.06,501.419h6.04L150.9,357.55Z" transform="translate(-91.599 -45.738)" fill="#263238"/>
        <path id="Path_6156" data-name="Path 6156" d="M174.44,357.55l45.555,143.869h4.876l-36.2-143.869Z" transform="translate(-47.258 -45.738)" fill="#263238"/>
        <path id="Path_6157" data-name="Path 6157" d="M215.51,363.69,113.42,430.4v3.649L218.357,363.69Z" transform="translate(-82.224 -42.22)" fill="#263238"/>
        <path id="Path_6158" data-name="Path 6158" d="M123.25,364.876l110.615,74.436v-5.694l-107.375-72Z" transform="translate(-76.591 -43.406)" fill="#263238"/>
        <path id="Path_6159" data-name="Path 6159" d="M109.375,366.129l131.537-2.375a8.416,8.416,0,0,0,8.2-9.438h0a8.384,8.384,0,0,0-8.479-7.425L107.22,349.03Z" transform="translate(-85.777 -51.847)" fill="#2f55d4"/>
        <g id="Group_2556" data-name="Group 2556" transform="translate(21.443 295.042)" opacity="0.2">
          <path id="Path_6160" data-name="Path 6160" d="M109.375,366.129l131.537-2.375a8.416,8.416,0,0,0,8.2-9.438h0a8.384,8.384,0,0,0-8.479-7.425L107.22,349.03Z" transform="translate(-107.22 -346.889)"/>
        </g>
        <path id="Path_6161" data-name="Path 6161" d="M103.745,324.2l13.276,101.681,103.71-2.47-.267-61.757a17.3,17.3,0,0,0-18.876-17.492L122.511,351.3,112.1,243.534l-10.508-.9a7.393,7.393,0,0,0-7.865,8.369Z" transform="translate(-93.549 -111.598)" fill="#2f55d4"/>
      </g>
    </g>
  </g>
</svg>
