<svg xmlns="http://www.w3.org/2000/svg" width="96.76" height="82.704" viewBox="0 0 96.76 82.704">
  <g id="Group_3684" data-name="Group 3684" transform="translate(-1091 -3862.454)">
    <circle id="Ellipse_100" data-name="Ellipse 100" cx="37.5" cy="37.5" r="37.5" transform="translate(1091 3870.158)" fill="#daf5e2"/>
    <g id="_6457542_customer_evaluation_feedback_rate_review_icon" data-name="6457542_customer_evaluation_feedback_rate_review_icon" transform="translate(676.5 3724.292)">
      <g id="Group_2284" data-name="Group 2284" transform="translate(396.741 68.767)">
        <path id="Path_5502" data-name="Path 5502" d="M191.83,129.769l-8.683-1.262-3.883-7.868a1.279,1.279,0,0,0-2.294,0l-3.884,7.868-8.683,1.262a1.279,1.279,0,0,0-.71,2.181l6.284,6.125-1.483,8.648a1.279,1.279,0,0,0,1.856,1.348l7.766-4.082,7.766,4.082a1.279,1.279,0,0,0,1.856-1.348l-1.483-8.648,6.283-6.125a1.279,1.279,0,0,0-.71-2.181Zm-7.841,6.945a1.281,1.281,0,0,0-.368,1.132l1.159,6.756-6.067-3.189a1.271,1.271,0,0,0-1.191,0l-6.068,3.189,1.159-6.756a1.281,1.281,0,0,0-.368-1.132l-4.909-4.786,6.783-.986a1.278,1.278,0,0,0,.963-.7l3.034-6.146,3.033,6.146a1.279,1.279,0,0,0,.964.7l6.783.986Z" transform="translate(-96.87 -42.451)" fill="#0ba257"/>
        <path id="Path_5503" data-name="Path 5503" d="M106.379,69.395H56.14A8.149,8.149,0,0,0,48,77.535V107.44a8.149,8.149,0,0,0,8.14,8.14H70.45v12.212a1.279,1.279,0,0,0,2.184.9L85.749,115.58h20.63a8.149,8.149,0,0,0,8.14-8.14V77.535a8.149,8.149,0,0,0-8.14-8.14Zm5.582,38.045a5.588,5.588,0,0,1-5.582,5.582H85.22a1.279,1.279,0,0,0-.9.375L73.008,124.7V114.3a1.279,1.279,0,0,0-1.279-1.279H56.14a5.588,5.588,0,0,1-5.582-5.582V77.535a5.588,5.588,0,0,1,5.582-5.582h50.239a5.588,5.588,0,0,1,5.582,5.582Z" fill="#0ba257"/>
      </g>
    </g>
  </g>
</svg>
