<svg xmlns="http://www.w3.org/2000/svg" width="78.308" height="87.825" viewBox="0 0 78.308 87.825">
  <g id="Group_2559" data-name="Group 2559" transform="translate(-709.08 -611.5)">
    <ellipse id="Ellipse_120" data-name="Ellipse 120" cx="33.325" cy="33.325" rx="33.325" ry="33.325" transform="translate(709.08 632.675)" fill="#daf5e2" opacity="0.7"/>
    <g id="Group_336" data-name="Group 336" transform="translate(-1715.519 -2980.081)">
      <path id="Path_392" data-name="Path 392" d="M79.837,26.13A2.726,2.726,0,0,0,77.031,23.5a4.845,4.845,0,0,0-4.673,4.985l.144,4.445-.751,3.039h-.02a3.5,3.5,0,0,0-2.491,1.022L64.3,41.94l-1.712.3a5.506,5.506,0,0,0-2.947,1.523l-3.4,3.4a5.462,5.462,0,0,0-1.606,3.749L54.5,56.554a4.03,4.03,0,0,0-2.76,3.776l-.079,7.388a4.031,4.031,0,0,0,3.987,4.068l12.256.131h.044a4.035,4.035,0,0,0,4.024-3.987l.079-7.387a4.027,4.027,0,0,0-2.639-3.817l.026-.172a5.832,5.832,0,0,1,1.655-3.288l5.741-5.742a9.089,9.089,0,0,0,2.611-5.463l.613-5.8a3.638,3.638,0,0,0,.067-.639v-.056a.682.682,0,0,0,0-.1Zm-9.823,34.4-.079,7.387a1.979,1.979,0,0,1-.6,1.4,2.013,2.013,0,0,1-1.414.571L55.662,69.76a2,2,0,0,1-1.972-2.015l.079-7.388a2,2,0,0,1,1.993-1.972h.021l12.257.132A2,2,0,0,1,70.013,60.532ZM75.4,46.093l-5.749,5.75a7.857,7.857,0,0,0-2.229,4.429l-.031.211-10.852-.117.122-5.4a3.439,3.439,0,0,1,1.01-2.358l3.4-3.4a3.463,3.463,0,0,1,1.853-.957l2.032-.352a.963.963,0,0,0,.2-.059l.014-.007a1.013,1.013,0,0,0,.322-.214h0l5.171-5.174a1.533,1.533,0,0,1,2.11,0,1.5,1.5,0,0,1,0,2.11l-5.94,5.94a1.016,1.016,0,1,0,1.437,1.436l5.939-5.94a3.523,3.523,0,0,0-.525-5.415l.812-3.284v-.034a.87.87,0,0,0,.015-.1.946.946,0,0,0,.007-.1c0-.011,0-.021,0-.033l-.149-4.584a2.809,2.809,0,0,1,2.7-2.89.727.727,0,0,1,.511.2.683.683,0,0,1,.2.463l.3,9.26-.07.656c0,.021-.006.044-.007.065l-.6,5.669A7.064,7.064,0,0,1,75.4,46.093Z" transform="translate(2422.777 3580.608)" fill="#21bbbb"/>
      <circle id="Ellipse_26" data-name="Ellipse 26" cx="1.739" cy="1.739" r="1.739" transform="translate(2488.62 3640.332)" fill="#21bbbb"/>
      <path id="Path_393" data-name="Path 393" d="M31.927,56.559,31.8,50.916a5.463,5.463,0,0,0-1.606-3.749l-3.4-3.4a5.508,5.508,0,0,0-2.944-1.522l-1.715-.3-4.942-4.95A3.5,3.5,0,0,0,14.7,35.972h-.02l-.751-3.039.144-4.447A4.847,4.847,0,0,0,9.385,23.5a2.754,2.754,0,0,0-2,.8,2.721,2.721,0,0,0-.8,1.84l-.3,9.341a.889.889,0,0,0,.005.117v.018a3.672,3.672,0,0,0,.07.655l.613,5.793a9.09,9.09,0,0,0,2.609,5.462l5.749,5.751A5.827,5.827,0,0,1,17,56.561l.026.175a4.027,4.027,0,0,0-2.639,3.817l.079,7.387a4.035,4.035,0,0,0,4.024,3.987h.043L30.785,71.8a4.031,4.031,0,0,0,3.982-4.068l-.079-7.388a4.03,4.03,0,0,0-2.761-3.781Zm-15.149-4.72-5.749-5.746A7.047,7.047,0,0,1,9,41.853l-.6-5.677a.207.207,0,0,0-.007-.065l-.07-.65.3-9.253a.685.685,0,0,1,.2-.468.7.7,0,0,1,.5-.2,2.81,2.81,0,0,1,2.71,2.888l-.149,4.584v.033a.947.947,0,0,0,.007.1.868.868,0,0,0,.015.1q0,.017,0,.034l.812,3.284a3.523,3.523,0,0,0-.525,5.415l5.94,5.94a1.016,1.016,0,1,0,1.436-1.437l-5.94-5.939a1.5,1.5,0,0,1,0-2.11,1.533,1.533,0,0,1,2.11,0l5.173,5.18h0a1,1,0,0,0,.322.214l.014.007a1.077,1.077,0,0,0,.2.059l2.035.352a3.454,3.454,0,0,1,1.85.956l3.4,3.4a3.434,3.434,0,0,1,1.01,2.358l.122,5.4-10.852.117L19,56.262A7.844,7.844,0,0,0,16.778,51.839Zm13.988,17.92-12.257.132a2,2,0,0,1-2.015-1.971l-.079-7.388a2,2,0,0,1,1.971-2.015l12.257-.132h.021a2,2,0,0,1,1.993,1.972l.079,7.388a2,2,0,0,1-1.971,2.014Z" transform="translate(2437.419 3580.609)" fill="#21bbbb"/>
      <circle id="Ellipse_27" data-name="Ellipse 27" cx="1.739" cy="1.739" r="1.739" transform="translate(2454.527 3640.332)" fill="#21bbbb"/>
      <path id="Path_394" data-name="Path 394" d="M28.8,24.285H30.71a11.915,11.915,0,0,0,.982,2.374L30.341,28.01a2.147,2.147,0,0,0,0,3.025l1.9,1.9a2.147,2.147,0,0,0,3.024,0l1.355-1.353a11.918,11.918,0,0,0,2.374.982v1.909a2.147,2.147,0,0,0,2.142,2.142H43.8a2.147,2.147,0,0,0,2.142-2.142V32.562a11.977,11.977,0,0,0,2.373-.982l1.351,1.351a2.147,2.147,0,0,0,3.025,0l1.9-1.9a2.147,2.147,0,0,0,0-3.025l-1.352-1.35a11.977,11.977,0,0,0,.982-2.374h1.909a2.147,2.147,0,0,0,2.141-2.142V19.469a2.147,2.147,0,0,0-2.141-2.142H54.223a11.915,11.915,0,0,0-.982-2.374L54.593,13.6a2.147,2.147,0,0,0,0-3.025l-1.9-1.9a2.193,2.193,0,0,0-3.025,0l-1.352,1.35a11.936,11.936,0,0,0-2.374-.982V7.142A2.147,2.147,0,0,0,43.8,5H41.13a2.147,2.147,0,0,0-2.141,2.142V9.05a11.937,11.937,0,0,0-2.374.982L35.264,8.68a2.192,2.192,0,0,0-3.026,0l-1.9,1.9a2.147,2.147,0,0,0,0,3.025l1.351,1.351a11.98,11.98,0,0,0-.982,2.374H28.8a2.147,2.147,0,0,0-2.141,2.142v2.675A2.147,2.147,0,0,0,28.8,24.285Zm-.109-4.816a.1.1,0,0,1,.109-.109H31.5a1,1,0,0,0,.3-.051c.016-.005.033-.009.049-.015a.99.99,0,0,0,.256-.141l.041-.034a1.022,1.022,0,0,0,.2-.222c.006-.009.01-.019.016-.03a1,1,0,0,0,.12-.29.021.021,0,0,1,.005-.013,9.931,9.931,0,0,1,1.336-3.227.988.988,0,0,0,.077-.151c0-.007.008-.014.011-.021a1,1,0,0,0,.07-.359V14.78a1.015,1.015,0,0,0-.07-.358A.032.032,0,0,0,33.9,14.4a1,1,0,0,0-.214-.322V14.07l-.008-.008h0l-1.9-1.9a.109.109,0,0,1,0-.152l1.9-1.9a.122.122,0,0,1,.152,0l1.9,1.9a.015.015,0,0,1,.013.009,1.013,1.013,0,0,0,.293.2.624.624,0,0,0,.073.028,1.015,1.015,0,0,0,.338.065h0a1.007,1.007,0,0,0,.339-.066.837.837,0,0,0,.093-.042A.969.969,0,0,0,37,12.156a9.916,9.916,0,0,1,3.227-1.336c.024-.005.045-.015.067-.022a1.012,1.012,0,0,0,.119-.039c.03-.013.057-.031.085-.046a.975.975,0,0,0,.086-.049c.029-.02.055-.045.082-.067a.819.819,0,0,0,.067-.058c.02-.021.044-.053.065-.08a.9.9,0,0,0,.057-.074A.985.985,0,0,0,40.9,10.3a.936.936,0,0,0,.044-.086q.019-.05.033-.1c.008-.029.018-.055.025-.085a.986.986,0,0,0,.013-.135c0-.02.006-.04.006-.061V7.142a.1.1,0,0,1,.109-.109H43.8a.1.1,0,0,1,.109.109V9.829a.2.2,0,0,0,.006.06,1,1,0,0,0,.013.135.768.768,0,0,0,.024.083.977.977,0,0,0,.033.1c.013.031.029.057.043.085s.03.059.047.088.037.048.057.073a.944.944,0,0,0,.066.08c.021.021.045.039.067.058a1,1,0,0,0,.083.067.826.826,0,0,0,.086.049c.029.015.055.033.086.047a1,1,0,0,0,.118.039c.024.007.044.017.067.022a9.916,9.916,0,0,1,3.227,1.338,1.033,1.033,0,0,0,.116.052.96.96,0,0,0,.093.042,1.007,1.007,0,0,0,.339.066h0a1.015,1.015,0,0,0,.338-.065l.073-.028a.987.987,0,0,0,.293-.2.015.015,0,0,0,.013-.009l1.9-1.9a.122.122,0,0,1,.151,0l1.9,1.9a.109.109,0,0,1,0,.151l-1.893,1.893h0l-.008.008v.007a1,1,0,0,0-.214.322.032.032,0,0,1-.007.024,1.012,1.012,0,0,0-.07.358V14.8a1.022,1.022,0,0,0,.07.359c0,.007.007.014.011.021a.99.99,0,0,0,.077.151,9.932,9.932,0,0,1,1.336,3.227.021.021,0,0,0,.005.013,1.006,1.006,0,0,0,.12.289c.006.01.01.02.016.03a1,1,0,0,0,.2.221c.014.011.027.024.042.035a1,1,0,0,0,.255.141l.049.015a1,1,0,0,0,.3.051h2.69a.1.1,0,0,1,.109.109v2.675a.1.1,0,0,1-.109.109H53.406a.969.969,0,0,0-.161.016.2.2,0,0,0-.041.011,1,1,0,0,0-.149.046c-.015.006-.028.015-.043.021a1.047,1.047,0,0,0-.13.071c-.015.01-.028.022-.042.033a.92.92,0,0,0-.108.089c-.015.015-.028.033-.042.049a.971.971,0,0,0-.082.1c-.017.025-.03.052-.045.079a.954.954,0,0,0-.05.092.944.944,0,0,0-.038.114c-.007.024-.017.046-.024.072a9.931,9.931,0,0,1-1.336,3.227.988.988,0,0,0-.077.151c0,.007-.008.014-.011.021a1,1,0,0,0-.07.359v.024a1.015,1.015,0,0,0,.07.358.032.032,0,0,0,.007.024,1,1,0,0,0,.214.322v.007l.008.008h0l1.893,1.893a.109.109,0,0,1,0,.151l-1.9,1.9a.11.11,0,0,1-.153,0l-1.892-1.892h0l-.006-.006H49.2a1.006,1.006,0,0,0-.323-.215l-.026-.008a1.022,1.022,0,0,0-.354-.07h-.028a1,1,0,0,0-.356.07l-.022.011a.989.989,0,0,0-.151.077,9.952,9.952,0,0,1-3.228,1.336.212.212,0,0,0-.059.019.977.977,0,0,0-.126.041.769.769,0,0,0-.081.044c-.027.015-.061.032-.09.051a.91.91,0,0,0-.079.065c-.024.02-.049.039-.071.061s-.043.051-.063.077a.909.909,0,0,0-.059.076.936.936,0,0,0-.046.085.825.825,0,0,0-.045.088,1.064,1.064,0,0,0-.032.1.883.883,0,0,0-.025.085.986.986,0,0,0-.013.135c0,.02-.006.04-.006.061v2.688a.1.1,0,0,1-.109.109H41.132a.1.1,0,0,1-.109-.109V31.784a.205.205,0,0,0-.006-.061A.967.967,0,0,0,41,31.589c-.006-.03-.016-.057-.026-.087a1.038,1.038,0,0,0-.032-.1c-.013-.031-.03-.059-.045-.089s-.029-.057-.046-.085a.854.854,0,0,0-.059-.077,1.33,1.33,0,0,0-.214-.2c-.029-.019-.06-.035-.091-.052s-.052-.031-.081-.044a1.157,1.157,0,0,0-.127-.042c-.02-.006-.039-.015-.059-.019A9.952,9.952,0,0,1,37,29.453a.975.975,0,0,0-.152-.078l-.019-.01a.993.993,0,0,0-.36-.07H36.44a1.035,1.035,0,0,0-.356.07l-.026.008a1.012,1.012,0,0,0-.322.214H35.73l-.007.007h0l-1.893,1.893a.11.11,0,0,1-.152,0l-1.9-1.9a.109.109,0,0,1,0-.151l1.893-1.893h0l.008-.008V27.53a1,1,0,0,0,.214-.322.032.032,0,0,1,.007-.024,1.012,1.012,0,0,0,.07-.358V26.8a1.022,1.022,0,0,0-.07-.359c0-.007-.007-.014-.011-.021a.989.989,0,0,0-.077-.151,9.931,9.931,0,0,1-1.336-3.227c-.006-.027-.017-.05-.026-.076a.966.966,0,0,0-.036-.108,1.052,1.052,0,0,0-.059-.109c-.011-.02-.021-.041-.035-.061a1,1,0,0,0-.1-.121c-.008-.009-.015-.019-.024-.028a1.022,1.022,0,0,0-.13-.1c-.007,0-.013-.011-.02-.016a1.013,1.013,0,0,0-.151-.082l-.021-.011a1.059,1.059,0,0,0-.164-.051l-.028-.008a1.022,1.022,0,0,0-.166-.017H28.8a.1.1,0,0,1-.109-.109Z" transform="translate(2430.845 3586.581)" fill="#21bbbb"/>
      <path id="Path_395" data-name="Path 395" d="M47.9,30.643a4.4,4.4,0,1,0-4.4-4.4,4.4,4.4,0,0,0,4.4,4.4Zm0-6.773a2.371,2.371,0,1,1-2.371,2.371A2.371,2.371,0,0,1,47.9,23.87Z" transform="translate(2425.41 3581.145)" fill="#21bbbb"/>
      <path id="Path_396" data-name="Path 396" d="M45.966,32.769A8.466,8.466,0,1,0,37.5,24.3a8.466,8.466,0,0,0,8.466,8.465Zm0-14.9A6.433,6.433,0,1,1,39.532,24.3,6.433,6.433,0,0,1,45.966,17.87Z" transform="translate(2427.347 3583.083)" fill="#21bbbb"/>
    </g>
  </g>
</svg>
