<svg xmlns="http://www.w3.org/2000/svg" width="97" height="97" viewBox="0 0 97 97">
  <g id="Group_3686" data-name="Group 3686" transform="translate(-700 -586)">
    <path id="Path_5454" data-name="Path 5454" d="M13.565,16.607a7.05,7.05,0,0,1,7.042-7.042.782.782,0,0,0,0-1.565A8.617,8.617,0,0,0,12,16.607a.782.782,0,1,0,1.565,0Z" transform="translate(719.351 607.221)" fill="#e90f83"/>
    <g id="Group_3685" data-name="Group 3685" transform="translate(3 -2152)">
      <circle id="Ellipse_84" data-name="Ellipse 84" cx="48.5" cy="48.5" r="48.5" transform="translate(697 2738)" fill="#fde8f5"/>
      <path id="Path_5455" data-name="Path 5455" d="M45.906,6.695H29.474c-.015,0-.027.007-.041.008A13.29,13.29,0,1,0,10.7,25.433c0,.014-.008.026-.008.041V48.165a.782.782,0,0,0,.782.782H45.906a.782.782,0,0,0,.782-.782V7.477A.783.783,0,0,0,45.906,6.695ZM7.565,15.3A11.737,11.737,0,1,1,19.3,27.039,11.75,11.75,0,0,1,7.565,15.3ZM45.123,47.383H12.26V26.566a13.207,13.207,0,0,0,15.867-1.339c0,.005.006.012.011.017L30.793,27.9,29.7,28.99a.782.782,0,0,0,0,1.106l7.668,7.668a.782.782,0,0,0,1.106,0l3.286-3.286a.782.782,0,0,0,0-1.106L34.1,25.7a.782.782,0,0,0-1.106,0l-1.09,1.09-2.655-2.655c-.005-.005-.012-.006-.017-.011A13.207,13.207,0,0,0,30.566,8.26H45.123Zm-11.58-20.02L40.1,33.924l-2.18,2.18-6.562-6.562Z" transform="translate(717.656 2760.526)" fill="#e90f83"/>
    </g>
    <path id="Path_5456" data-name="Path 5456" d="M35.172,43h-9.39a.782.782,0,0,0,0,1.565h9.39a.782.782,0,0,0,0-1.565Z" transform="translate(716.523 599.607)" fill="#e90f83"/>
    <path id="Path_5457" data-name="Path 5457" d="M20.912,41h-3.13a.782.782,0,0,0-.782.782v3.13a.782.782,0,0,0,.782.782h3.13a.782.782,0,0,0,.782-.782v-3.13A.782.782,0,0,0,20.912,41Zm-.782,3.13H18.565V42.565H20.13Z" transform="translate(718.263 600.042)" fill="#e90f83"/>
    <path id="Path_5458" data-name="Path 5458" d="M35.172,53h-9.39a.782.782,0,1,0,0,1.565h9.39a.782.782,0,1,0,0-1.565Z" transform="translate(716.523 597.432)" fill="#e90f83"/>
    <path id="Path_5459" data-name="Path 5459" d="M20.912,51h-3.13a.782.782,0,0,0-.782.782v3.13a.782.782,0,0,0,.782.782h3.13a.782.782,0,0,0,.782-.782v-3.13A.782.782,0,0,0,20.912,51Zm-.782,3.13H18.565V52.565H20.13Z" transform="translate(718.263 597.867)" fill="#e90f83"/>
  </g>
</svg>
