<svg xmlns="http://www.w3.org/2000/svg" width="521.999" height="561.12" viewBox="0 0 521.999 561.12">
  <g id="Group_2446" data-name="Group 2446" transform="translate(-268.877 -209.537)">
    <g id="Group_2333" data-name="Group 2333" transform="translate(330.244 502.386)">
      <g id="Group_2332" data-name="Group 2332" transform="translate(0 0)">
        <g id="Group_2328" data-name="Group 2328" transform="translate(82.981)">
          <path id="Path_5527" data-name="Path 5527" d="M879.74,1138.828l-97.16-40.885-75.8,51.146,40.245,16.933a17.367,17.367,0,0,1-2.713,1.769,22.272,22.272,0,0,1-4.964,1.445c-3.386.624-7.541.522-9.952,2.148-3.77,2.546-.8,7.165,6.618,10.473.214.1.435.191.656.285,7.9,3.322,17.448,3.9,21.327,1.277,3.151-2.126.727-5.5,2.609-7.974a19.116,19.116,0,0,1,3.142-2.388l40.194,16.914,31.361-21.16c-.128-.06-.262-.122-.4-.184a37.212,37.212,0,0,0-4.127-1.512c-4.677-1.028-11,.218-15.042-1.482-4.952-2.2-3.941-7.2,2.152-11.316,6.16-4.157,15.186-5.832,20.161-3.74,3.086,1.375,2.965,3.539,4.163,5.316a9.151,9.151,0,0,0,2.78,2.656c.147.09.707.371,1.417.688.594.265,1.292.554,1.944.773Z" transform="translate(-706.783 -1097.943)" fill="#869bca"/>
        </g>
        <path id="Path_5528" data-name="Path 5528" d="M607.856,1505.635c-2.451-1.656-6.677-1.55-10.115-2.184a22.465,22.465,0,0,1-5.05-1.472,17.6,17.6,0,0,1-2.755-1.795l40.9-17.213-31.87-21.5c.13-.064.268-.128.41-.191a37.853,37.853,0,0,1,4.193-1.537c4.749-1.044,11.179.223,15.454-1.576,4.865-2.17,3.84-7.253-2.356-11.431-6.262-4.226-15.436-5.928-20.642-3.734-2.984,1.331-2.864,3.531-4.079,5.334a9.3,9.3,0,0,1-2.828,2.7c-.149.091-.725.38-1.45.7-.6.269-1.307.558-1.963.781L553.8,1430.988l-98.755,41.555,77.039,51.982,40.858-17.19a19.744,19.744,0,0,1,3.191,2.424c1.91,2.513-.553,5.944,2.649,8.106,3.946,2.66,13.649,2.078,21.677-1.3.226-.095.449-.193.666-.289C608.668,1512.916,611.688,1508.221,607.856,1505.635Z" transform="translate(-455.045 -1321.205)" fill="#869bca"/>
        <g id="Group_2329" data-name="Group 2329" transform="translate(229.197 45.946)">
          <path id="Path_5529" data-name="Path 5529" d="M1150.352,1278.881l40.853-17.191a19.622,19.622,0,0,1,3.2,2.423c1.91,2.516-.553,5.946,2.65,8.108,3.946,2.66,13.648,2.078,21.676-1.3.224-.095.445-.188.662-.285,7.544-3.365,10.568-8.062,6.733-10.65-2.451-1.652-6.675-1.548-10.117-2.184a22.464,22.464,0,0,1-5.047-1.47,17.871,17.871,0,0,1-2.755-1.8l40.9-17.211,77.04,51.984-98.755,41.556-31.873-21.507c.126-.063.258-.123.4-.183a38.545,38.545,0,0,1,4.207-1.544c4.753-1.044,11.183.226,15.289-1.5,5.032-2.243,4.005-7.323-2.187-11.5-6.262-4.226-15.437-5.928-20.491-3.8-3.138,1.4-3.015,3.6-4.23,5.4a9.317,9.317,0,0,1-2.828,2.7c-.15.088-.725.379-1.452.7-.6.269-1.305.56-1.961.781Z" transform="translate(-1150.352 -1237.328)" fill="#869bca"/>
        </g>
        <g id="Group_2331" data-name="Group 2331" transform="translate(187.837 159.511)">
          <g id="Group_2330" data-name="Group 2330">
            <path id="Path_5530" data-name="Path 5530" d="M1197.838,1622.731l-40.2-16.913a19.294,19.294,0,0,0-3.139,2.385c-1.879,2.474.544,5.85-2.607,7.976-3.881,2.618-13.429,2.046-21.326-1.277q-.334-.141-.657-.284c-7.42-3.309-10.391-7.93-6.622-10.474,2.411-1.628,6.57-1.523,9.951-2.147a22.085,22.085,0,0,0,4.965-1.448,17.389,17.389,0,0,0,2.711-1.767l-40.242-16.935-31.392,21.185c-.65-.219-1.348-.508-1.943-.773-.709-.315-1.268-.6-1.414-.688a9.174,9.174,0,0,1-2.784-2.656c-1.2-1.776-1.076-3.94-4.01-5.249-5.124-2.158-14.149-.484-20.312,3.674-6.093,4.111-7.1,9.112-2.315,11.246,4.206,1.772,10.529.522,15.2,1.552a37.063,37.063,0,0,1,4.125,1.512q.213.094.4.187l-31.359,21.157,97.163,40.885Z" transform="translate(-1024.879 -1581.846)" fill="#869bca"/>
          </g>
        </g>
      </g>
    </g>
    <g id="Group_2445" data-name="Group 2445" transform="translate(268.877 209.537)">
      <g id="Group_2363" data-name="Group 2363" transform="translate(82.601 0)">
        <path id="Path_5531" data-name="Path 5531" d="M630.455,1148.345c0,13.637-24.847,24.692-55.5,24.692s-55.5-11.055-55.5-24.692,24.847-24.693,55.5-24.693S630.455,1134.706,630.455,1148.345Z" transform="translate(-519.461 -822.328)" fill="#869bca"/>
        <g id="Group_2362" data-name="Group 2362" transform="translate(27.386)">
          <g id="Group_2336" data-name="Group 2336" transform="translate(40.947 304.885)">
            <path id="Path_5532" data-name="Path 5532" d="M731.983,1171.9l.91-.169.91-7.643-2.391-2.83Z" transform="translate(-729.879 -1152.425)" fill="#420b29"/>
            <g id="Group_2335" data-name="Group 2335">
              <path id="Path_5533" data-name="Path 5533" d="M727.769,1166.59l1.1.62-.172-12.509-1.931-.44Z" transform="translate(-726.762 -1147.734)" fill="#0e1828"/>
              <g id="Group_2334" data-name="Group 2334" transform="translate(0.001)">
                <path id="Path_5534" data-name="Path 5534" d="M736.4,1137.569l2.031,6.706s2.764,6.461,5.042,9.01c0,0,4.114,5.639-3.583,5.263,0,0-8.209-.437-8.084-5.7.107-4.529-4.055-10.15-4.055-10.15a4.581,4.581,0,0,1,.536-5.406l1.423-1.626,6.9-1.206Z" transform="translate(-726.987 -1134.457)" fill="#df7e61"/>
                <path id="Path_5535" data-name="Path 5535" d="M743.7,1157.819a10.342,10.342,0,0,1-8.94-2.706c-2.135-2.1-4.57-9.8-3.762-7.239.334,1.056-2.175-8.295-1.506-9.756l-1.423,1.626a4.778,4.778,0,0,0-.677,5.549s4.3,5.478,4.2,10.007c-.125,5.266,8.084,5.7,8.084,5.7,4.62.225,4.983-1.716,4.536-3.3A4.814,4.814,0,0,1,743.7,1157.819Z" transform="translate(-726.764 -1136.911)" fill="#0e1828"/>
                <path id="Path_5536" data-name="Path 5536" d="M756.744,1185.659s1.159,2.19-2.518,2.19c0,0-13.773-.875-13.767-6.793l-.006-4.766s1.083,6.8,9.589,6.819c0,0,3.777,0,1.826-2.407Z" transform="translate(-735.941 -1162.5)" fill="#0e1828"/>
              </g>
            </g>
          </g>
          <g id="Group_2361" data-name="Group 2361">
            <path id="Path_5537" data-name="Path 5537" d="M685.337,218.7a9.166,9.166,0,1,1-9.165-9.167A9.165,9.165,0,0,1,685.337,218.7Z" transform="translate(-645.756 -209.537)" fill="#0b1d41"/>
            <path id="Path_5538" data-name="Path 5538" d="M714.592,312.55h18.053c-.82-2.628-2.521-9.431.111-14.063L714.516,286.51S717.759,306.607,714.592,312.55Z" transform="translate(-677.605 -261.137)" fill="#f5916e"/>
            <path id="Path_5539" data-name="Path 5539" d="M716.616,301.207c1.081,2.764,2.83,4.111,5.684,5.013a19.045,19.045,0,0,0,9.167.678c-.286-2.77-.135-5.908,1.289-8.411L714.516,286.51s.988,6.131,1.34,12.619C716.1,299.822,716.344,300.517,716.616,301.207Z" transform="translate(-677.605 -261.137)" fill="#d9705a"/>
            <path id="Path_5540" data-name="Path 5540" d="M725.867,255.629l.958-2.716,2.338-7.988a8.056,8.056,0,0,0,.041-4.24,12.822,12.822,0,0,1-.372-6.631c1.487-7.269-1.739-11.064-1.739-11.064-4.243-6.683-14.255-6.651-14.255-6.651-12.379.642-13.39,12.629-13.39,12.629-1.988,7.976,4.372,14.6,4.383,14.609.8.837.891,2.2,1.28,3.232a9.957,9.957,0,0,0,1.816,3.03,22.26,22.26,0,0,0,6.347,5.095,24.5,24.5,0,0,0,9.544,2.251C724.078,257.171,725.319,257.187,725.867,255.629Z" transform="translate(-667.246 -214.098)" fill="#f5916e"/>
            <g id="Group_2339" data-name="Group 2339" transform="translate(0 308.694)">
              <path id="Path_5541" data-name="Path 5541" d="M605.084,1177.028l.917.131,3.314-6.946-1.355-3.449Z" transform="translate(-604.246 -1159.923)" fill="#420b29"/>
              <g id="Group_2338" data-name="Group 2338">
                <path id="Path_5542" data-name="Path 5542" d="M602.541,1170.645l.838.941,3.851-11.906-1.689-1.034Z" transform="translate(-602.541 -1154.481)" fill="#0e1828"/>
                <g id="Group_2337" data-name="Group 2337" transform="translate(2.904)">
                  <path id="Path_5543" data-name="Path 5543" d="M621.815,1149.96c-.182,5.589-.6,11.864,1.657,17.155,0,0,2.087,6.661-5.082,3.837,0,0-7.635-3.048-5.828-7.994,1.555-4.256-.584-10.915-.584-10.915a4.582,4.582,0,0,1,2.242-4.949l1.871-1.084h7.176Z" transform="translate(-611.701 -1146.01)" fill="#f5916e"/>
                  <path id="Path_5544" data-name="Path 5544" d="M622.877,1169.229a10.343,10.343,0,0,1-7.6-5.43c-1.348-2.676-1.187-10.745-1.241-8.064-.022,1.108.6-8.557,1.7-9.724l-1.871,1.084a4.778,4.778,0,0,0-2.422,5.039s2.318,6.569.763,10.825c-1.807,4.947,5.828,7.994,5.828,7.994,4.3,1.7,5.27-.026,5.357-1.675A4.684,4.684,0,0,1,622.877,1169.229Z" transform="translate(-611.351 -1146.01)" fill="#0e1828"/>
                  <path id="Path_5545" data-name="Path 5545" d="M626.48,1198s.4,2.445-3.088,1.266c0,0-12.765-5.248-10.86-10.85l1.524-4.517s-1.158,6.791,6.893,9.536c0,0,3.577,1.212,2.5-1.694Z" transform="translate(-612.013 -1171.412)" fill="#0e1828"/>
                </g>
              </g>
            </g>
            <path id="Path_5546" data-name="Path 5546" d="M637.541,890.247c-9.154,16.9-10.774,23.783-12.4,36.637-.95,7.476-.634,38.966-1.615,43.664-.409,1.947,6.992.879,6.992.879,1.353-3.294,22.905-75.647,22.905-75.647s2.41-7.495.409-8.8C643.781,880.437,641.531,882.88,637.541,890.247Z" transform="translate(-616.596 -661.126)" fill="#f5916e"/>
            <path id="Path_5547" data-name="Path 5547" d="M626.993,972.937c1.354-3.294,22.682-77.156,22.682-77.156s2.41-7.495.409-8.8c-10.048-6.546-12.3-4.1-16.289,3.264-9.154,16.9-10.774,23.783-12.4,36.637-.95,7.476-2.492,37.88-3.473,42.578C617.92,969.462,623.4,975.986,626.993,972.937Z" transform="translate(-612.851 -661.126)" fill="#161d25"/>
            <path id="Path_5548" data-name="Path 5548" d="M699.461,525.065s7.035,29.775,6.091,33.028c-2.72,9.369-27.961,22.516-50.976,3.344,0,0,5.262-22.022,16.188-40.652C670.764,520.785,674.778,524.932,699.461,525.065Z" transform="translate(-637.423 -418.187)" fill="#161d25"/>
            <path id="Path_5549" data-name="Path 5549" d="M708.96,349.411s9.208,17.8,13.318,27.565c-1.722,11.447-7.942,28.428-10.442,32.01-5.478,7.848-30.522.842-30.522.842l-7.218-24.1c21.071-7.566,9.975-29.77,9.975-29.77l3.3-2.085s3.37,10.913,17.084,10.523c0,0,4.505-2.933,1.19-15.381A19.288,19.288,0,0,1,708.96,349.411Z" transform="translate(-650.509 -303.038)" fill="#484092"/>
            <path id="Path_5550" data-name="Path 5550" d="M710.328,624.388s2.424,48.036,11.311,73.871c1.323,3.852,16.51-1.267,16.51-1.267s7.664-41.331,7.2-58.455c-.26-9.678-3.722-30.547-3.722-30.547S713.149,604.266,710.328,624.388Z" transform="translate(-674.798 -476.464)" fill="#df7e61"/>
            <path id="Path_5551" data-name="Path 5551" d="M731.458,879.637l16.074-1.094s-9.877,82-10.772,85.448c0,0-6.911,2.5-6.77.514.335-4.788-5.43-41.587-5.606-49.122C724.1,903.28,724.576,895.635,731.458,879.637Z" transform="translate(-684.181 -658.016)" fill="#df7e61"/>
            <path id="Path_5552" data-name="Path 5552" d="M710.328,624.388s2.424,48.036,11.311,73.871c1.323,3.852,16.51-1.267,16.51-1.267s7.664-41.331,7.2-58.455c-.26-9.678-3.722-30.547-3.722-30.547S713.149,604.266,710.328,624.388Z" transform="translate(-674.798 -476.464)" fill="#10171f"/>
            <path id="Path_5553" data-name="Path 5553" d="M738.751,964.5c1.63-3.166,8.781-85.962,8.781-85.962l-16.074,1.094c-6.882,16-7.357,23.642-7.074,35.746.176,7.534,3.824,44.334,3.489,49.122C727.873,964.5,736.61,968.663,738.751,964.5Z" transform="translate(-684.181 -658.016)" fill="#10171f"/>
            <g id="Group_2346" data-name="Group 2346" transform="translate(57.362 48.402)">
              <g id="Group_2340" data-name="Group 2340">
                <path id="Path_5554" data-name="Path 5554" d="M806.724,412.655l-12.187-44.177C790.15,356.66,783.6,356.371,783.6,356.371c-12.548,1.9-4.516,23.917-4.516,23.917l15.488,36.7" transform="translate(-776.557 -356.371)" fill="#df7e61"/>
              </g>
              <g id="Group_2345" data-name="Group 2345" transform="translate(16.679 51.184)">
                <g id="Group_2341" data-name="Group 2341" transform="translate(41.584 26.31)">
                  <path id="Path_5555" data-name="Path 5555" d="M960.525,603.258c-5.268-3.908-5.633-4.97-6.429-6.56-3.435-6.822,5.327-5.326,7.465-4.5,1.228.478.859,3.509,4.254,7.777,0,0,5.659,4.511,7.222,4.481,0,0,1.555.461,1.386,1.606C974.423,606.065,969.7,607.992,960.525,603.258Z" transform="translate(-953.307 -591.459)" fill="#df7e61"/>
                </g>
                <g id="Group_2344" data-name="Group 2344">
                  <g id="Group_2342" data-name="Group 2342" transform="translate(5.535)">
                    <path id="Path_5556" data-name="Path 5556" d="M843.949,511.645" transform="translate(-843.949 -511.645)" fill="#df7e61"/>
                  </g>
                  <g id="Group_2343" data-name="Group 2343" transform="translate(0 0.214)">
                    <path id="Path_5557" data-name="Path 5557" d="M839.7,514.614l35.686,27c.986,4.92-1.27,5.274-1.27,5.274l-28.784-13.1c-12.324-5.334-16.614-11.473-16.614-11.473s-5.036-4.718,2.981-9.449C831.7,512.866,835.342,510.77,839.7,514.614Z" transform="translate(-827.156 -512.296)" fill="#df7e61"/>
                  </g>
                </g>
                <path id="Path_5558" data-name="Path 5558" d="M974.676,589.422s-1.561,3.021,2.517,2.827l4.316-2.381a1.542,1.542,0,0,0,1.044-1.68s-.367-.727-1.7-.257Z" transform="translate(-925.852 -562.678)" fill="#df7e61"/>
              </g>
            </g>
            <path id="Path_5559" data-name="Path 5559" d="M650.7,646s.186,48.054,6.524,74.629c.943,3.963,15.421,2.748,15.421,2.748s9.448-45.446,10.651-62.532c.681-9.658,2.613-26.559,2.613-26.559S652.013,630.928,650.7,646Z" transform="translate(-634.823 -494.062)" fill="#f5916e"/>
            <path id="Path_5560" data-name="Path 5560" d="M662.661,361.232c-7.388,5.4-3.61,13.521-3.61,13.521L673,408.636s22.624,7.7,28.1-.153c2.5-3.581,4.815-13.081,7.851-26.78,2.064-9.309,2.2-25.572-3.036-30.388-3.022-2.778-12.8-2.722-12.876-3.051l-15.848,5.105Z" transform="translate(-639.776 -302.535)" fill="#f5916e"/>
            <path id="Path_5561" data-name="Path 5561" d="M691.85,518.8c1.34-.243,8.573,2.614,8.573,2.614s5.209,22.2,5.506,25.578-22.922,20.85-48.857,10.9c0,0,13.1-30.892,15.011-37.349C674.281,513.127,691.85,518.8,691.85,518.8Z" transform="translate(-639.097 -415.466)" fill="#f5916e"/>
            <path id="Path_5562" data-name="Path 5562" d="M791.862,391.881s7.656,9.014,8.3,15.711c.357,3.73-4.351,9.971-6.706,12.272C791.785,421.494,781.9,398.1,791.862,391.881Z" transform="translate(-726.513 -331.774)" fill="#484092"/>
            <path id="Path_5563" data-name="Path 5563" d="M659.32,615.736s-9.145,2.031-8.32,18.794c.8,16.371,30.61,19.774,34.437,3.28C689.554,620.058,675.6,609.651,659.32,615.736Z" transform="translate(-634.991 -480.668)" fill="#161d25"/>
            <path id="Path_5564" data-name="Path 5564" d="M695.433,245.654c-.064-5.653.08-5.305.08-5.305.132-1.653,3.372,1.909,3.306-.244-.307-9.848,3.271-14.538,4.672-15.3a17.329,17.329,0,0,1,10.987-2.083c4.981.885,4.791,7.516,4.791,7.516,4.244-24.275-22.828-16.518-22.828-16.518a15,15,0,0,0-11.826,15.887c-1.616,13.342,11.025,21.051,11.025,21.051Z" transform="translate(-657.464 -211.552)" fill="#162e5d"/>
            <g id="Group_2355" data-name="Group 2355" transform="translate(33.562 24.799)">
              <g id="Group_2351" data-name="Group 2351">
                <g id="Group_2350" data-name="Group 2350">
                  <g id="Group_2349" data-name="Group 2349">
                    <g id="Group_2348" data-name="Group 2348">
                      <g id="Group_2347" data-name="Group 2347">
                        <path id="Path_5565" data-name="Path 5565" d="M709.63,292.149a2.648,2.648,0,0,1-1.718.522,3.9,3.9,0,0,1-3.555-4,3.58,3.58,0,0,1,3.385-3.9,3.371,3.371,0,0,1,2.376,1.084c.92.963.95,2.741.731,3.965A3.666,3.666,0,0,1,709.63,292.149Z" transform="translate(-704.356 -284.769)" fill="#f68c68"/>
                      </g>
                    </g>
                  </g>
                </g>
              </g>
              <g id="Group_2354" data-name="Group 2354" transform="translate(1.787 1.253)">
                <g id="Group_2352" data-name="Group 2352">
                  <path id="Path_5566" data-name="Path 5566" d="M712.151,289.348c-.112-1.146-2.43-.052-2.079.594a3.53,3.53,0,0,0,.928.9,1.681,1.681,0,0,1,.713,1.253c.007.065.021.263-.046.309-.3.209-1.283-.909-1.5-1.146a1.914,1.914,0,0,1-.278-1.831,1.146,1.146,0,0,1,1.27-.858c.521.03,1.05.066,1.021.713,0,.012-.024.12-.03.063Z" transform="translate(-709.777 -288.569)" fill="#e3755b"/>
                </g>
                <g id="Group_2353" data-name="Group 2353" transform="translate(0.298 1.857)">
                  <path id="Path_5567" data-name="Path 5567" d="M712.015,294.312c.242-.241.473-.04.719.136a1.1,1.1,0,0,1,.415.675,2.693,2.693,0,0,1-.288,1.913,1.446,1.446,0,0,1-1.244.661c-.7-.02-.905-.636-.932-1.227-.008-.157-.02-.53.133-.628.169-.106.287.153.4.265a.989.989,0,0,0,.591.223,1.266,1.266,0,0,0,1.037-.464.56.56,0,0,0,.106-.178c0,.386-.021.47-.061.259a1.09,1.09,0,0,0-.132-.273c-.161-.267-.435-.449-.615-.7-.086-.118-.249-.532-.128-.657Z" transform="translate(-710.681 -294.201)" fill="#e3755b"/>
                </g>
              </g>
            </g>
            <g id="Group_2357" data-name="Group 2357" transform="translate(45.714 18.452)">
              <path id="Path_5568" data-name="Path 5568" d="M750.224,279.209c.068.687-.257,1.279-.722,1.325s-.9-.473-.962-1.16.257-1.279.722-1.323S750.158,278.525,750.224,279.209Z" transform="translate(-746.121 -273.917)" fill="#2d1a10"/>
              <path id="Path_5569" data-name="Path 5569" d="M779.118,275.209c.025.689-.332,1.26-.8,1.277s-.866-.526-.891-1.214.332-1.261.8-1.277S779.093,274.521,779.118,275.209Z" transform="translate(-765.492 -271.2)" fill="#2d1a10"/>
              <path id="Path_5570" data-name="Path 5570" d="M741.221,272.064c1.79-1.881,6-1.731,6-1.731s.281-.016.206-.873c0,0-.021-.759-.628-.684C746.8,268.776,741.443,268.42,741.221,272.064Z" transform="translate(-741.221 -267.695)" fill="#162e5d"/>
              <path id="Path_5571" data-name="Path 5571" d="M778.185,266.287c-1.868-1.513-5.306-.333-5.306-.333-.605.088-.427.825-.427.825.151.847.427.787.427.787a11.619,11.619,0,0,1,5.067-.359C778.029,266.9,778.113,266.6,778.185,266.287Z" transform="translate(-762.141 -265.516)" fill="#162e5d"/>
              <g id="Group_2356" data-name="Group 2356" transform="translate(5.249 13.989)">
                <path id="Path_5572" data-name="Path 5572" d="M764.317,307.955l-6.781,1.255c-.357.066-.5.277-.307.468,0,0,1.951,1.951,4.149,1.539s3.3-2.934,3.3-2.934C764.772,308.062,764.607,307.935,764.317,307.955Z" transform="translate(-757.144 -307.953)" fill="#fff"/>
              </g>
              <path id="Path_5573" data-name="Path 5573" d="M764.131,291.445c3.553-.257,3.748-1.188,3.748-1.188l-1.864-3.746S766.443,290.256,764.131,291.445Z" transform="translate(-756.579 -279.59)" fill="#e3755b"/>
            </g>
            <path id="Path_5574" data-name="Path 5574" d="M650.7,646s.186,48.054,6.524,74.629c.943,3.963,15.421,2.748,15.421,2.748s9.448-45.446,10.651-62.532c.681-9.658,2.613-26.559,2.613-26.559S652.013,630.928,650.7,646Z" transform="translate(-634.823 -494.062)" fill="#161d25"/>
            <path id="Path_5575" data-name="Path 5575" d="M699.461,525.065s7.035,29.775,6.091,33.028c-2.72,9.369-27.961,22.516-50.976,3.344,0,0,5.262-22.022,16.188-40.652C670.764,520.785,674.778,524.932,699.461,525.065Z" transform="translate(-637.423 -418.187)" fill="#161d25"/>
            <path id="Path_5576" data-name="Path 5576" d="M682.263,409.828s25.755,7.936,31.232.088c2.5-3.582,8.009-21.493,9.731-32.94-4.11-9.764-13.318-27.565-13.318-27.565a19.288,19.288,0,0,0-3.311-.4c3.316,12.448-1.19,15.381-1.19,15.381-13.714.389-17.084-10.523-17.084-10.523l-3.3,2.085s10.216,21.22-9.5,30.924C675.518,386.881,675.045,409.647,682.263,409.828Z" transform="translate(-651.458 -303.038)" fill="#484092"/>
            <path id="Path_5577" data-name="Path 5577" d="M715.861,305.979a1.173,1.173,0,1,1-1.174-1.174A1.174,1.174,0,0,1,715.861,305.979Z" transform="translate(-676.934 -273.401)" fill="#fff"/>
            <g id="Group_2360" data-name="Group 2360" transform="translate(11.993 58.171)">
              <path id="Path_5578" data-name="Path 5578" d="M668.341,389.629a10.586,10.586,0,0,1-.459,14.966c-4.259,4.007-17.646,11.648-17.771,5.8-.246-11.491.2-17.734,4.462-21.74S664.334,385.369,668.341,389.629Z" transform="translate(-646.387 -386.009)" fill="#f5916e"/>
              <path id="Path_5579" data-name="Path 5579" d="M661.355,415.619l-9.253-5.334-9.3,5.818s-5.443,34.676-3.438,42.611c2.137,8.456,6.02,2.227,7.858-.086C647.224,458.628,662.4,422.357,661.355,415.619Z" transform="translate(-638.922 -402.283)" fill="#f5916e"/>
              <path id="Path_5580" data-name="Path 5580" d="M644.531,544.522s16.638,11.882,31.405,18.344c0,0,4.879-2.049,2.439-4.3-4.142-3.83-22.254-21.173-26.436-25.01C644.531,531.021,644.531,544.522,644.531,544.522Z" transform="translate(-642.682 -484.705)" fill="#f5916e"/>
              <g id="Group_2359" data-name="Group 2359" transform="translate(32.46 73.721)">
                <g id="Group_2358" data-name="Group 2358" transform="translate(0 0.001)">
                  <path id="Path_5581" data-name="Path 5581" d="M746.609,620.728c-6.02-2.6-6.62-3.554-7.758-4.917-4.9-5.856,3.968-6.4,6.241-6.085,1.3.185,1.638,3.221,5.919,6.6,0,0,6.539,3.1,8.055,2.71,0,0,1.619.092,1.714,1.247C760.779,620.282,756.619,623.239,746.609,620.728Z" transform="translate(-737.395 -609.656)" fill="#f5916e"/>
                </g>
                <path id="Path_5582" data-name="Path 5582" d="M758.169,609.652s-2.579,2.216,1.275,3.566l4.893-.588s1.38.054,1.6-1.169c0,0-.068-.811-1.481-.875Z" transform="translate(-750.755 -609.652)" fill="#f5916e"/>
              </g>
            </g>
          </g>
        </g>
      </g>
      <g id="Group_2365" data-name="Group 2365" transform="translate(136.388 100.298)" style="isolation: isolate">
        <path id="Path_5583" data-name="Path 5583" d="M1009.943,671.687c-.072-.018-.144-.032-.217-.048-.111-.024-.221-.05-.334-.072-.08-.016-.162-.028-.244-.043s-.156-.028-.235-.04l-.166,18.937-31.36,21.159.2-22.6,25.98-17.527q-.572.067-1.152.163c-.083.012-.167.028-.252.042-.147.026-.295.052-.444.08l-.3.06q-.216.042-.431.091c-.09.018-.181.04-.271.06-.226.052-.455.107-.682.163l-.182.045q-.421.109-.841.233l-.149.044c-.388.114-.773.237-1.158.367-.013.007-.027.011-.041.016q-.581.2-1.152.422c-.027.012-.055.022-.082.032-.432.171-.861.351-1.284.542a.525.525,0,0,0-.059.026q-.641.29-1.264.612a.3.3,0,0,0-.041.021c-.42.216-.832.445-1.235.682-.007.006-.015.01-.022.014q-.616.361-1.2.756c-3.461,2.335-5.282,4.959-5.3,7.191q.1-11.3.2-22.6c.019-2.235,1.839-4.856,5.3-7.193.388-.263.789-.514,1.2-.757l.022-.012c.4-.239.815-.465,1.234-.684l.043-.02c.414-.215.835-.418,1.261-.612.021-.008.043-.019.064-.026.42-.191.846-.37,1.277-.54a.12.12,0,0,1,.026-.01c.023-.01.047-.018.072-.026q.561-.22,1.131-.415a.524.524,0,0,1,.054-.021c.38-.13.761-.249,1.144-.363l.1-.032.065-.018q.417-.12.834-.229c.062-.018.125-.032.187-.048.224-.056.448-.111.671-.161l.135-.032.151-.032c.138-.03.275-.059.411-.087.106-.022.211-.042.315-.062.14-.026.279-.052.419-.076.074-.012.147-.026.221-.04l.055-.006c.386-.064.768-.117,1.148-.163l.1-.014.073-.006q.5-.057.99-.09l.083-.008.111,0c.308-.02.615-.034.916-.04a.02.02,0,0,1,.011,0h.016c.285,0,.565,0,.843,0h.114l.1.006c.28.01.556.024.827.044a.092.092,0,0,0,.024,0l.063.008c.282.024.557.056.828.093.031,0,.063.006.094.011s.041.007.063.011c.109.016.215.036.321.054.086.014.174.028.259.046.1.02.207.042.31.067.072.016.144.028.213.045l.027.007c.243.06.478.126.707.2.054.016.106.034.16.053.232.076.458.158.675.248.175.079.336.159.49.241.046.024.089.05.134.075s.113.062.165.092.086.058.131.086.11.07.164.107c.086.058.167.116.245.176.046.036.093.07.138.106.014.012.032.024.047.036.093.077.181.157.264.237.012.01.022.023.033.032.067.064.13.129.19.2v.006h0v-.006c.019.02.035.042.054.062s.057.066.086.1c.059.07.115.14.169.213l.075.1.038.05c.026.038.047.076.072.112.046.07.092.14.136.213.031.052.061.1.091.156.04.072.08.144.119.217.012.022.024.041.035.064s.023.05.035.075c.064.126.124.253.182.381.009.02.019.042.029.062.076.173.151.347.225.52.048.112.1.225.147.337.022.05.045.1.068.153.067.149.136.3.211.443.037.075.077.147.118.219.022.04.042.081.065.121.065.113.133.223.208.333.047.07.1.14.149.211q.105.148.222.3c.033.042.066.086.1.128.1.131.215.259.332.388l.02.024c.122.132.253.263.386.392.039.038.08.074.12.11.1.093.2.183.305.273.05.043.1.086.153.129.107.086.216.171.33.255.05.036.1.074.149.11.165.116.334.231.511.341l.031.018.054.03c.009,0,.023.012.034.016s.047.026.076.043l.053.028.089.044.064.032c.034.018.068.034.105.052s.058.028.086.042.071.036.111.054l.135.064.081.038c.051.025.1.049.158.073.027.014.054.026.084.04l.256.115c.594.265,1.293.554,1.944.773l31.389-21.183-.2,22.6-31.39,21.183c-.65-.219-1.35-.506-1.945-.77l-.257-.117-.044-.02-.2-.093a.724.724,0,0,1-.073-.034c-.05-.022-.1-.046-.145-.068l-.089-.042-.109-.054c-.024-.01-.045-.023-.068-.032l-.1-.052-.051-.026-.091-.046c-.015-.008-.026-.016-.04-.022s-.05-.026-.07-.038l-.027-.016a.4.4,0,0,1-.044-.025l-.009-.006c-.176-.108-.345-.223-.509-.339-.053-.038-.1-.076-.156-.115-.111-.082-.218-.164-.323-.251-.027-.022-.057-.043-.083-.064s-.049-.044-.076-.066c-.1-.088-.2-.177-.3-.265-.042-.04-.085-.078-.126-.118-.134-.128-.262-.259-.382-.389l0,0-.024-.028c-.116-.125-.224-.253-.328-.38-.034-.042-.067-.086-.1-.128-.078-.1-.153-.2-.225-.3-.017-.024-.037-.048-.054-.072-.032-.046-.063-.09-.093-.136-.074-.109-.142-.219-.207-.332-.03-.052-.057-.1-.086-.156s-.064-.115-.093-.173l0-.008c-.076-.15-.147-.3-.215-.451l-.055-.127q-.089-.2-.176-.4c-.067-.155-.134-.312-.2-.466l-.039-.086q-.083-.181-.172-.361c-.025-.048-.049-.1-.075-.147q-.055-.105-.116-.211c-.03-.054-.06-.108-.092-.161-.043-.072-.089-.14-.136-.212-.035-.052-.07-.108-.109-.16-.025-.035-.051-.069-.076-.1-.054-.07-.108-.14-.167-.209-.029-.034-.059-.07-.09-.1-.076-.086-.156-.171-.241-.255-.012-.011-.022-.022-.034-.034-.1-.092-.2-.183-.312-.273-.043-.034-.091-.07-.136-.1-.078-.06-.16-.118-.246-.177-.052-.036-.108-.072-.164-.108-.094-.06-.193-.118-.295-.176-.045-.024-.089-.05-.136-.074-.155-.083-.315-.165-.488-.241-.217-.092-.444-.172-.675-.249-.053-.018-.106-.036-.161-.052C1010.423,671.811,1010.188,671.745,1009.943,671.687Z" transform="translate(-880.225 -596.953)" fill="#0083bb"/>
        <path id="Path_5584" data-name="Path 5584" d="M682.631,691.563l.2-22.6L723.074,685.9l-.165,18.807a.3.3,0,0,1,.039,0l.261.03c.321.036.641.068.957.094.032,0,.063,0,.095.009.232.018.462.034.691.046.086.006.173.008.259.014l.516.023.19,0c.4.01.8.014,1.194.006.052,0,.1,0,.157,0,.326-.008.646-.02.961-.04.024,0,.049,0,.073,0,.294-.02.58-.048.862-.078l.212-.024c.24-.028.477-.062.708-.1l.084-.012c.251-.042.492-.09.731-.142.061-.012.121-.026.181-.041q.334-.078.65-.169l.092-.024.13-.043c.115-.036.23-.072.341-.11.058-.02.114-.043.171-.063.095-.036.189-.07.281-.108.052-.02.1-.045.155-.064.091-.04.179-.081.266-.121l.146-.07.262-.138.12-.067c.121-.07.24-.143.352-.219a4.046,4.046,0,0,0,1.776-3.684c0-.368.007-.732.01-1.1a5.023,5.023,0,0,1,.823-3.189,19.089,19.089,0,0,1,3.142-2.387l40.193,16.913-.2,22.6L739.6,715.533a18.989,18.989,0,0,0-3.14,2.385,4.653,4.653,0,0,0-.817,2.851c0,.366-.007.731-.01,1.1-.013,1.478-.143,2.923-1.783,4.029-.112.076-.23.149-.351.219l-.123.066c-.084.046-.17.092-.259.136l-.149.072c-.086.04-.174.08-.265.118l-.154.067-.086.036-.2.072c-.056.02-.111.042-.167.062l-.335.108c-.047.014-.092.03-.14.044l-.023.008-.059.014c-.214.063-.435.119-.661.171l-.095.024c-.026.006-.054.01-.079.013-.24.052-.485.1-.736.143l-.014,0a.465.465,0,0,0-.055.008c-.236.039-.479.071-.726.1l-.1.014-.1.01c-.283.03-.57.056-.865.076l-.019,0c-.019,0-.04,0-.059,0-.314.021-.636.034-.963.043-.034,0-.065,0-.1,0h-.049q-.585.009-1.194-.006c-.032,0-.063,0-.1,0s-.068,0-.1,0c-.17,0-.342-.012-.513-.022-.086,0-.172-.006-.259-.012-.245-.013-.491-.03-.74-.052a.278.278,0,0,1-.041,0h0c-.319-.026-.641-.06-.965-.094l-.253-.03c-.285-.034-.571-.07-.859-.113-.035,0-.07-.008-.106-.013-.012,0-.024,0-.036,0-.267-.04-.534-.082-.8-.126l-.137-.026c-.225-.038-.45-.078-.676-.121l-.3-.062c-.171-.034-.343-.068-.515-.1-.113-.024-.225-.05-.339-.076-.16-.034-.322-.072-.483-.111-.043-.008-.085-.018-.128-.028l-.111-.028c-.435-.106-.871-.219-1.306-.341l-.171-.048q-.665-.189-1.323-.4l-.135-.044c-.451-.149-.9-.3-1.346-.468-.027-.01-.052-.022-.079-.03-.463-.172-.924-.355-1.376-.546-.223-.093-.442-.189-.656-.283q-.457-.2-.89-.416c-.1-.048-.2-.1-.293-.144q-.283-.142-.556-.283c-.109-.056-.213-.114-.319-.17-.166-.092-.331-.183-.491-.273-.1-.058-.2-.116-.3-.174-.061-.036-.124-.07-.183-.106-.1-.061-.2-.123-.295-.185s-.175-.107-.259-.161c-.177-.114-.349-.228-.519-.345-.054-.036-.112-.074-.166-.113q-.326-.229-.628-.459c-.052-.04-.1-.08-.151-.12-.119-.092-.239-.187-.353-.281l-.063-.055c-.147-.124-.285-.249-.422-.373-.06-.057-.124-.111-.183-.167-.189-.181-.37-.359-.536-.54v0c-.146-.159-.281-.317-.407-.474-.04-.052-.075-.1-.115-.153-.067-.086-.136-.174-.2-.261l-.046-.071c-.03-.043-.057-.088-.086-.132-.073-.111-.139-.221-.2-.332-.026-.046-.053-.092-.077-.138-.014-.026-.03-.052-.044-.078-.059-.116-.113-.23-.161-.347-.009-.018-.014-.038-.023-.058-.033-.081-.065-.161-.092-.242-.017-.052-.031-.1-.045-.153-.008-.026-.017-.052-.024-.078-.031-.117-.059-.231-.078-.346-.005-.024-.007-.046-.01-.07s-.006-.048-.009-.072a2.907,2.907,0,0,1-.029-.387v-.04q.071-8.044.142-16.085Z" transform="translate(-682.631 -617.82)" fill="#1ca1df"/>
        <g id="Group_2364" data-name="Group 2364" transform="translate(0.198)">
          <path id="Path_5585" data-name="Path 5585" d="M856.189,554.692l-97.16-40.885-75.8,51.145,40.245,16.933a17.309,17.309,0,0,1-2.712,1.768A22.244,22.244,0,0,1,715.8,585.1c-3.386.625-7.541.522-9.952,2.149-3.771,2.545-.8,7.164,6.618,10.473.214.1.435.191.656.285,7.9,3.322,17.448,3.9,21.327,1.277,3.151-2.126.728-5.5,2.609-7.974a19.081,19.081,0,0,1,3.142-2.387l40.193,16.913,31.361-21.159c-.128-.06-.262-.122-.4-.185a37.639,37.639,0,0,0-4.127-1.512c-4.678-1.027-11,.219-15.042-1.481-4.952-2.2-3.941-7.2,2.152-11.316,6.16-4.157,15.187-5.832,20.161-3.74,3.086,1.375,2.966,3.539,4.163,5.316a9.148,9.148,0,0,0,2.779,2.656c.147.091.707.372,1.417.689.594.265,1.293.553,1.944.773Z" transform="translate(-683.232 -513.807)" fill="#65aee1"/>
        </g>
      </g>
      <g id="Group_2367" data-name="Group 2367" transform="translate(53.604 210.08)" style="isolation: isolate">
        <g id="Group_2366" data-name="Group 2366" transform="translate(143.924 23.101)">
          <path id="Path_5586" data-name="Path 5586" d="M905.674,916.93c0,.056,0,.11-.005.167s0,.121-.007.179-.011.1-.016.147-.013.114-.022.171-.02.112-.031.167-.017.084-.026.126c-.014.058-.03.115-.047.169s-.023.081-.036.12c-.008.024-.017.047-.026.068a3.514,3.514,0,0,1-.192.46s0,.008-.005.01a3.755,3.755,0,0,1-.253.419c-.015.023-.029.046-.045.068a4.055,4.055,0,0,1-.312.386c-.031.036-.063.07-.1.1s-.071.076-.109.111-.086.082-.131.122-.08.074-.122.108-.077.064-.117.095l-.22.169-.121.084c-.082.056-.167.112-.255.164l-.114.073c-.075.046-.155.086-.234.128-.044.026-.085.05-.132.075-.126.062-.257.126-.391.186a10.7,10.7,0,0,1-1.624.524q-.678.163-1.4.265c-.455.067-.923.117-1.4.157-.662.052-1.339.084-2.024.1-1.5.044-3.036.028-4.529.07-.674.02-1.338.05-1.985.1l.2,22.97c.649-.052,1.313-.084,1.987-.1,1.493-.042,3.03-.028,4.529-.07.685-.018,1.361-.05,2.024-.1.475-.038.942-.09,1.4-.155.478-.07.945-.158,1.4-.267a10.419,10.419,0,0,0,1.624-.524c.135-.06.267-.122.394-.189.037-.018.071-.04.107-.058.089-.047.176-.095.26-.145a.243.243,0,0,1,.026-.014l.073-.047c.091-.055.18-.113.266-.171l.12-.084c.074-.057.149-.112.219-.168.023-.018.047-.034.068-.052s.033-.03.05-.044c.041-.036.082-.07.121-.108s.089-.079.131-.121.075-.075.111-.111.045-.048.067-.07.018-.022.028-.034a4.214,4.214,0,0,0,.312-.388l.02-.024c.009-.014.015-.028.025-.043a3.841,3.841,0,0,0,.253-.422v0s0,0,0,0a3.717,3.717,0,0,0,.2-.466.228.228,0,0,0,.015-.037c0-.008,0-.015.008-.026.015-.046.028-.092.04-.137s.029-.1.043-.152.019-.092.028-.138.018-.075.025-.113l.005-.042c.009-.061.017-.123.023-.185.005-.044.011-.088.014-.13,0-.07.007-.138.009-.207,0-.034,0-.066,0-.1V939.9Z" transform="translate(-882.551 -916.93)" fill="#661b3a"/>
          <path id="Path_5587" data-name="Path 5587" d="M872.714,933.349a.081.081,0,0,0-.024.007,37.882,37.882,0,0,0-4.169,1.531c-.142.063-.281.126-.41.191l.2,22.968c.129-.064.267-.127.411-.191a39.432,39.432,0,0,1,4.167-1.532.083.083,0,0,0,.024-.006c.362-.078.733-.144,1.111-.2.452-.065.915-.115,1.386-.153l-.2-22.97c-.473.039-.935.089-1.387.155C873.446,933.2,873.074,933.272,872.714,933.349Z" transform="translate(-868.111 -927.699)" fill="#661b3a"/>
        </g>
        <path id="Path_5588" data-name="Path 5588" d="M764.163,1027.524l-.2-22.969-40.9,17.212.167,19.113c-4.749.568-9.017.123-11.322-1.431a4.109,4.109,0,0,1-1.8-3.736c0-.377-.007-.756-.01-1.136a5.1,5.1,0,0,0-.835-3.234,19.806,19.806,0,0,0-3.191-2.425l-40.858,17.191.2,22.97,40.858-17.192a19.673,19.673,0,0,1,3.191,2.425,4.725,4.725,0,0,1,.829,2.88c0,.38.006.759.01,1.139.013,1.5.147,2.965,1.812,4.088,3.945,2.662,13.649,2.079,21.676-1.3q.339-.141.667-.289c5.34-2.379,8.414-5.43,8.392-7.925q-.073-8.176-.145-16.347Z" transform="translate(-588.167 -952.57)" fill="#8b2f5c"/>
        <path id="Path_5589" data-name="Path 5589" d="M888.168,929.293l.2,22.968c-4.274,1.8-10.7.534-15.455,1.576a38.332,38.332,0,0,0-4.191,1.538c-.144.064-.281.126-.411.191l-.2-22.968c.13-.064.268-.128.41-.19a38.055,38.055,0,0,1,4.193-1.538C877.464,929.825,883.894,931.091,888.168,929.293Z" transform="translate(-724.187 -902.117)" fill="#661b3a"/>
        <path id="Path_5590" data-name="Path 5590" d="M508.534,1024.9l-77.04-51.982.2,22.968,77.04,51.984Z" transform="translate(-431.494 -931.36)" fill="#661b3a"/>
        <path id="Path_5591" data-name="Path 5591" d="M584.305,921.5c-2.45-1.656-6.677-1.55-10.115-2.184a22.49,22.49,0,0,1-5.05-1.472,17.639,17.639,0,0,1-2.755-1.794l40.9-17.212-31.87-21.505c.13-.064.268-.128.41-.191a38.135,38.135,0,0,1,4.193-1.538c4.749-1.044,11.18.223,15.454-1.575,4.865-2.17,3.84-7.253-2.356-11.431-6.261-4.226-15.435-5.928-20.642-3.734-2.983,1.331-2.864,3.531-4.079,5.334a9.3,9.3,0,0,1-2.828,2.7c-.149.09-.724.379-1.45.705-.6.268-1.306.557-1.962.781L530.249,846.85l-98.755,41.556,77.04,51.982,40.858-17.19a19.794,19.794,0,0,1,3.191,2.425c1.91,2.513-.553,5.944,2.649,8.106,3.946,2.66,13.65,2.078,21.677-1.3.226-.095.449-.193.666-.289C585.117,928.779,588.137,924.083,584.305,921.5Z" transform="translate(-431.494 -846.85)" fill="#bc386b"/>
      </g>
      <g id="Group_2389" data-name="Group 2389" transform="translate(344.26 22.123)">
        <path id="Path_5592" data-name="Path 5592" d="M1515.729,1290.184c0,13.639,24.847,24.693,55.5,24.693s55.5-11.054,55.5-24.693-24.847-24.692-55.5-24.692S1515.729,1276.547,1515.729,1290.184Z" transform="translate(-1448.984 -939.536)" fill="#869bca"/>
        <g id="Group_2388" data-name="Group 2388">
          <g id="Group_2369" data-name="Group 2369" transform="translate(84.048 335.183)">
            <g id="Group_2368" data-name="Group 2368" transform="translate(0.001 0)">
              <path id="Path_5593" data-name="Path 5593" d="M1587.722,1303.411c-3.919,3.946-10.383,6.052-10.383,6.056a8.863,8.863,0,0,1-8.653-2.241,1.657,1.657,0,0,1,.253-2.535c11.487-8.735,14.926-11.21,14.926-11.21h10.545a24,24,0,0,1,.229,5.95,9.14,9.14,0,0,1-5.786,3.507c-.217.036-.622-.283-.827-.2Z" transform="translate(-1568.225 -1293.482)" fill="#121315"/>
            </g>
            <path id="Path_5594" data-name="Path 5594" d="M1568.887,1312.6a2.962,2.962,0,0,0,.221.721c.892,1.911,3.373,2.7,5.338,2.672,2.363-.034,4.509-1.189,6.566-2.228a29.241,29.241,0,0,0,5.438-3.69,16.355,16.355,0,0,1,4.112-2.056,21.021,21.021,0,0,0,4.147-2.795c.006,1.136-.072,2.08-.072,2.08a9.138,9.138,0,0,1-5.786,3.507c-.217.036-.622-.283-.827-.2l-.305.671c-3.919,3.946-10.383,6.052-10.383,6.056a8.864,8.864,0,0,1-8.653-2.24A1.653,1.653,0,0,1,1568.887,1312.6Z" transform="translate(-1568.222 -1301.353)"/>
          </g>
          <g id="Group_2370" data-name="Group 2370" transform="translate(93.531 163.01)">
            <path id="Path_5595" data-name="Path 5595" d="M1614.855,857.815c-11.728,12.948-16.375-.747-16.375-.747l-1.453-79.586c-.152,1.185-.542-8.026,14.263-6.033,14.763,1.99,18.5,7.745,18.5,7.745s-8.122,54.97-14.936,78.62" transform="translate(-1596.988 -771.167)" fill="#df7e61"/>
            <path id="Path_5596" data-name="Path 5596" d="M1601.289,1015.569s5.95,83.814,6.436,86.755c0,0,7.233,1.6,7.266-.067.083-4.015,8.341-53.063,8.447-59.37.269-15.972-3.848-18.991-7.955-29.749C1615.482,1013.137,1601.259,1002.62,1601.289,1015.569Z" transform="translate(-1599.871 -930.674)" fill="#df7e61"/>
          </g>
          <g id="Group_2372" data-name="Group 2372" transform="translate(91.459 163.01)">
            <g id="Group_2371" data-name="Group 2371">
              <path id="Path_5597" data-name="Path 5597" d="M1614.174,860.829c6.814-23.651,11.4-81.634,11.4-81.634s-3.738-5.755-18.5-7.745c-14.805-1.993-14.416,7.217-14.263,6.033,0,0-4.485,43.156-.378,82.378C1592.436,859.861,1605.084,866.578,1614.174,860.829Z" transform="translate(-1590.704 -771.167)" fill="#003560"/>
            </g>
          </g>
          <path id="Path_5598" data-name="Path 5598" d="M1640.721,650.552c2.092,7.448,10.726,35.866,10.726,35.866-30.91,36.978-54.2,4.621-54.5,1.249-.369-4.037,4.138-19.453,4.955-36.079C1601.9,651.588,1610.327,638.613,1640.721,650.552Z" transform="translate(-1503.414 -523.915)" fill="#f5916e"/>
          <path id="Path_5599" data-name="Path 5599" d="M1596.74,740.344c-1.465-9.962,1.571-20.005,3.135-30.071h45.278c2.9,9.65,5.91,19.565,5.91,19.565S1653,752.67,1633.611,755.4C1633.611,755.4,1599.82,761.262,1596.74,740.344Z" transform="translate(-1503.031 -567.336)" fill="#003560"/>
          <g id="Group_2373" data-name="Group 2373" transform="translate(113.209 165.232)">
            <path id="Path_5600" data-name="Path 5600" d="M1688.692,864.076c-9.68,14.543-16.305,1.686-16.305,1.686l-15.7-77.53c.025,1.194.47-10.1,15.408-10.319,14.9-.221,19.445,4.917,19.445,4.917s.389,56.846-2.845,81.246" transform="translate(-1656.684 -777.907)" fill="#f5916e"/>
            <path id="Path_5601" data-name="Path 5601" d="M1703.3,1026.9s15.55,88.321,16.465,91.157c0,0,7.39.51,7.174-1.142-.513-3.983.82-59.676-.01-65.931-2.1-15.835-4.3-18.558-9.951-28.591C1716.977,1022.4,1701.353,1014.1,1703.3,1026.9Z" transform="translate(-1687.82 -940.033)" fill="#f5916e"/>
          </g>
          <g id="Group_2374" data-name="Group 2374" transform="translate(140.071 339.742)">
            <path id="Path_5602" data-name="Path 5602" d="M1742.551,1309.124l-4.375,13.338s.9,11.941,10.48,4.542l2.853-2.765a3.053,3.053,0,0,0,1.029-2.931l-.851-5.111-1.015-7.073S1744.67,1305.051,1742.551,1309.124Z" transform="translate(-1738.176 -1307.313)" fill="#121315"/>
            <path id="Path_5603" data-name="Path 5603" d="M1748.656,1353.149l2.853-2.762a2.98,2.98,0,0,0,.979-1.528l.05.3a3.053,3.053,0,0,1-1.029,2.931l-2.853,2.765c-9.576,7.4-10.48-4.541-10.48-4.541l.171-.52C1738.885,1352.611,1740.995,1359.069,1748.656,1353.149Z" transform="translate(-1738.176 -1335.164)"/>
          </g>
          <g id="Group_2376" data-name="Group 2376" transform="translate(111.246 156.969)">
            <g id="Group_2375" data-name="Group 2375">
              <path id="Path_5604" data-name="Path 5604" d="M1760.053,1040.236" transform="translate(-1724.016 -945.501)" fill="#0e1828"/>
              <path id="Path_5605" data-name="Path 5605" d="M1666.478,851.1c-5.454-16.008-15.749-82.22-15.749-82.22.024,1.192,3.083-15.813,18.021-16.032,14.9-.221,18.767,5.527,18.767,5.527s4.665,64.8,1.429,89.2C1688.946,847.577,1678.454,859.694,1666.478,851.1Z" transform="translate(-1650.729 -752.842)" fill="#004088"/>
            </g>
          </g>
          <path id="Path_5606" data-name="Path 5606" d="M1525.3,479.071s-25.293,29.744-37.87,39.6c0,0-8.452-3.124-8.191-8.867,0,0,18.518-27.393,30.143-43.6C1509.379,466.2,1525.1,461.678,1525.3,479.071Z" transform="translate(-1424.517 -403.365)" fill="#df7e61"/>
          <path id="Path_5607" data-name="Path 5607" d="M1409.653,590.484s-27.619,16.076-39.056,21.452c0,0-2.054,3.212,1.259,3.517,5.537.506,44.02-12.527,44.96-15.552C1421.2,585.8,1409.653,590.484,1409.653,590.484Z" transform="translate(-1351.271 -486.533)" fill="#df7e61"/>
          <path id="Path_5608" data-name="Path 5608" d="M1565.569,468.24a10.307,10.307,0,0,0,13.175,6.1,10.166,10.166,0,0,0,5.979-13.14,10.31,10.31,0,0,0-13.178-6.1A10.165,10.165,0,0,0,1565.569,468.24Z" transform="translate(-1481.955 -395.857)" fill="#df7e61"/>
          <path id="Path_5609" data-name="Path 5609" d="M1529.409,453.541s-9.016-3.162-15.213,5.688l-22.06,32a36.434,36.434,0,0,0,15.283,15.749S1546.916,470.6,1529.409,453.541Z" transform="translate(-1433.168 -394.864)" fill="#711b40"/>
          <path id="Path_5610" data-name="Path 5610" d="M1755.022,1061.723" transform="translate(-1609.398 -802.936)" fill="#f5916e"/>
          <path id="Path_5611" data-name="Path 5611" d="M1663.945,344.678s1.821-3.5,5.837-10.223c0,0,8.548-8.778,3.758-19.812,0,0-2.63-9.224-18.763-7.886C1654.778,306.757,1653.235,332.151,1663.945,344.678Z" transform="translate(-1542.146 -296.744)" fill="#f68c68"/>
          <path id="Path_5612" data-name="Path 5612" d="M1647.884,378.447s-2.714,25.309,3.076,27.222l-20.641-1.229s3.244-7.647-.528-13.288Z" transform="translate(-1525.447 -344.891)" fill="#f5916e"/>
          <path id="Path_5613" data-name="Path 5613" d="M1631.453,400.02c.344-5.781-.383-6.956-1.662-8.867l18.093-12.705a123.132,123.132,0,0,0-.57,15.586C1642.075,398.992,1637.749,400.158,1631.453,400.02Z" transform="translate(-1525.447 -344.891)" fill="#d9705a"/>
          <path id="Path_5614" data-name="Path 5614" d="M1578.423,450.284c-4.6,3.357-5.125,11.387-3.483,16.4,1.883,5.761,2.63,13.113,4.517,21.444,2.555,11.29,4.288,19.985,7.137,31.2,2.359,9.272,39.62,1.8,39.62,1.8l13.353-45.635s2.3-11.914-8.491-15.878c0,0-11.371-6.137-19.694-8.957-7.35-2.489-10.011-2.722-17.558-2.259C1593.825,448.4,1583.715,448.772,1578.423,450.284Z" transform="translate(-1488.108 -391.657)" fill="#f5916e"/>
          <path id="Path_5615" data-name="Path 5615" d="M1604.274,312.85c-1.064,4.854-2.272,7.391-.932,11.842,1.207,4,.927,8.2,2.672,12.072,2.49,5.525,5.729,4.8,8.207-.279,2.535-5.2,5.178-12.234-.546-16.088-3.676-2.475-5-6.731-9.4-7.546Z" transform="translate(-1507.32 -300.917)" fill="#1c0e05"/>
          <path id="Path_5616" data-name="Path 5616" d="M1610.563,346.392l-.859-2.861s-2.172-10.579-2.172-10.581a10.724,10.724,0,0,1,.168-4.4,10.8,10.8,0,0,0,.376-4.515c-1.3-7.59,2.826-11.539,2.826-11.539,4.728-6.719,15.1-6.191,15.1-6.191,12.8,1.279,13.257,13.753,13.257,13.753,1.669,8.363-5.249,14.912-5.263,14.926-.552.521-.42,3.254-.617,4.021-.843,3.262-4.1,5.129-6.964,6.384-3.148,1.379-6.944,2.823-10.4,2.965C1614.717,348.412,1611.055,348.034,1610.563,346.392Z" transform="translate(-1510.422 -296.525)" fill="#f68c68"/>
          <path id="Path_5617" data-name="Path 5617" d="M1607.953,378.808c1.682,1.517,3.971.825,5.763,1.925a3.026,3.026,0,0,0,3.034.3,4.76,4.76,0,0,1,2.895.1c1.068.309,3.007,1.238,4.043,1.656a3.823,3.823,0,0,0,4.591-1.06c1.287-1.568,1.775-1.891,2.381-3.77,1.112-3.461,4.611-3.67,7.02-1.729a20.764,20.764,0,0,1-3.519,4.816c-.552.521-.42,5.512-.617,6.279-.843,3.262-4.1,5.129-6.963,6.384-3.148,1.379-7.95,1.57-11.4,1.712-1.309.054-3.965-1.329-4.457-2.971l-.859-2.861s-2.172-10.579-2.172-10.581c-.038-.185-.052-.389-.077-.588A3.23,3.23,0,0,0,1607.953,378.808Z" transform="translate(-1510.581 -342.579)" fill="#1c0e05"/>
          <path id="Path_5618" data-name="Path 5618" d="M1598.317,293.1c2.9,0,2.864,2.427,5.084,3.778,4.76,2.9,12.146-1.349,15.982,3.344a9.156,9.156,0,0,1,.972,1.488,21.962,21.962,0,0,1,1.83,7.016c.107.693-.408,2.461.223,2.991.359.3.986.215,1.648,0,.128,1.06-.724,1.875-1.09,2.848s-.939,1.809-.422,2.8c1.337,2.539.311,2.12.432,7.221a21.652,21.652,0,0,1,3.507-3.241,25.938,25.938,0,0,0,4.955-5.482,34.691,34.691,0,0,0,3.009-6.611c1.385-3.71,2.184-7.727,1.072-11.62,0,0-.875-9.046-8.443-10.016,0,0,.962-5.826-12.87-7.367,0,0-10.921.17-11.519-3.6a5.362,5.362,0,0,0-1.66,4.8s-4.493,1.369-6.51-3.769C1594.517,277.678,1590.775,291.213,1598.317,293.1Z" transform="translate(-1501.178 -276.65)" fill="#1c0e05"/>
          <g id="Group_2385" data-name="Group 2385" transform="translate(120.899 33.121)">
            <g id="Group_2381" data-name="Group 2381">
              <g id="Group_2380" data-name="Group 2380">
                <g id="Group_2379" data-name="Group 2379">
                  <g id="Group_2378" data-name="Group 2378">
                    <g id="Group_2377" data-name="Group 2377">
                      <path id="Path_5619" data-name="Path 5619" d="M1680.72,384.6a2.278,2.278,0,0,0,1.452.863c1.722.317,3.447-1.287,3.852-3.581s-.659-4.4-2.379-4.718a2.781,2.781,0,0,0-2.31.715c-.984.849-1.309,2.715-1.319,4.045A4.341,4.341,0,0,0,1680.72,384.6Z" transform="translate(-1680.016 -377.128)" fill="#f68c68"/>
                    </g>
                  </g>
                </g>
              </g>
            </g>
            <g id="Group_2384" data-name="Group 2384" transform="translate(1.726 1.362)">
              <g id="Group_2382" data-name="Group 2382" transform="translate(0.81)">
                <path id="Path_5620" data-name="Path 5620" d="M1687.732,381.972c.267-1.2,2.586.257,2.132.9a3.731,3.731,0,0,1-1.1.841,1.808,1.808,0,0,0-.915,1.238c-.018.071-.056.28.008.338.293.259,1.478-.8,1.738-1.026a2.05,2.05,0,0,0,.53-1.909,1.232,1.232,0,0,0-1.242-1.076c-.554-.034-1.123-.065-1.172.628,0,.014.01.131.024.07Z" transform="translate(-1687.707 -381.259)" fill="#e3755b"/>
              </g>
              <g id="Group_2383" data-name="Group 2383" transform="translate(0 1.918)">
                <path id="Path_5621" data-name="Path 5621" d="M1686.719,387.23c-.225-.289-.494-.1-.779.054a1.157,1.157,0,0,0-.528.663,2.878,2.878,0,0,0,.063,2.068,1.546,1.546,0,0,0,1.236.863c.743.067,1.042-.562,1.147-1.184.028-.167.09-.564-.062-.686s-.323.126-.456.23a1.034,1.034,0,0,1-.656.161,1.347,1.347,0,0,1-1.044-.624.709.709,0,0,1-.088-.2q-.072.615.032.284a1.123,1.123,0,0,1,.175-.273c.2-.263.52-.424.743-.671.106-.112.332-.534.219-.681Z" transform="translate(-1685.251 -387.079)" fill="#e3755b"/>
              </g>
            </g>
          </g>
          <path id="Path_5622" data-name="Path 5622" d="M1625.368,374.631l3.489,1.347s-4.708.294-4.888-1.074c0,0,.713-2.67,1.483-5.2C1625.452,369.707,1624.85,374.431,1625.368,374.631Z" transform="translate(-1521.545 -339.032)" fill="#e3755b"/>
          <g id="Group_2386" data-name="Group 2386" transform="translate(97.407 25.4)">
            <path id="Path_5623" data-name="Path 5623" d="M1646.684,367c0,.739.407,1.333.908,1.333s.905-.594.905-1.333-.406-1.333-.905-1.333S1646.684,366.26,1646.684,367Z" transform="translate(-1634.179 -361.722)" fill="#1c0e05"/>
            <path id="Path_5624" data-name="Path 5624" d="M1616.154,363.6c0,.739.408,1.333.907,1.333s.906-.594.906-1.333-.406-1.333-.906-1.333S1616.154,362.867,1616.154,363.6Z" transform="translate(-1613.713 -359.447)" fill="#1c0e05"/>
            <path id="Path_5625" data-name="Path 5625" d="M1642.915,358.645c-.325.067-.406-.371-.406-.371a1.517,1.517,0,0,1,.022-.781.756.756,0,0,1,.388-.4,11.036,11.036,0,0,1,3.854.5c.765.229,2.005.8,2.086,1.5.024.211.044.574-.195.639A31.437,31.437,0,0,0,1642.915,358.645Z" transform="translate(-1631.353 -355.957)" fill="#1c0e05"/>
            <path id="Path_5626" data-name="Path 5626" d="M1608.866,355.246a27.344,27.344,0,0,1,4.5.47c.3.154.49-.245.492-.245a1.527,1.527,0,0,0,.19-.759.748.748,0,0,0-.265-.484,8.157,8.157,0,0,0-3.335-.522,6.552,6.552,0,0,0-1.676.226A3.241,3.241,0,0,0,1608.866,355.246Z" transform="translate(-1608.748 -353.705)" fill="#1c0e05"/>
          </g>
          <g id="Group_2387" data-name="Group 2387" transform="translate(101.51 39.859)">
            <path id="Path_5627" data-name="Path 5627" d="M1621.562,397.57c-.285,0-.439.13-.331.338,0,0,1.255,2.358,3.453,2.624s3.993-1.724,3.993-1.724c.174-.193.022-.388-.334-.434C1628.343,398.373,1624.549,397.889,1621.562,397.57Z" transform="translate(-1621.196 -397.57)" fill="#fff"/>
          </g>
          <path id="Path_5628" data-name="Path 5628" d="M1687.336,735.943a28.111,28.111,0,0,1,0,27.142c-7.93,14.345-32.141,9.116-32.211-9.463C1655.052,735.267,1671.757,728.249,1687.336,735.943Z" transform="translate(-1542.43 -582.479)" fill="#004088"/>
          <path id="Path_5629" data-name="Path 5629" d="M1593.825,448.793s-10.11.372-15.4,1.883c-4.6,3.357-5.125,11.387-3.483,16.4,1.883,5.761,2.63,13.113,4.517,21.444,2.555,11.29-.666,19.543,2.182,30.755,2.359,9.272,51.666,0,51.666,0l6.263-43.393s2.3-11.914-8.491-15.878c0,0-10.855-5.958-19.178-8.778,0,0,1.3,8.778-13.011,6.354C1598.888,457.584,1590.145,455.476,1593.825,448.793Z" transform="translate(-1488.108 -392.049)" fill="#711b40"/>
          <path id="Path_5630" data-name="Path 5630" d="M1643.03,649.155c2.092,7.448,3.748,32.558,3.748,32.558-5.669,23.508-57.816,6.594-58.125,3.221-.368-4.037,1.23-23.247,2.047-39.873C1590.7,645.061,1612.634,637.216,1643.03,649.155Z" transform="translate(-1497.833 -521.924)" fill="#711b40"/>
          <path id="Path_5631" data-name="Path 5631" d="M1705.437,504.894c3.4,6.921,16.033,41.847,20.091,47.37,1.08,1.467,11.489,8.174,13.832-.968-5.738-36.256-14.416-56.937-14.416-56.937s-10.136-8.451-18.232-.64C1706.712,493.719,1703.037,500.1,1705.437,504.894Z" transform="translate(-1575.613 -419.945)" fill="#f5916e"/>
          <path id="Path_5632" data-name="Path 5632" d="M1702.389,494.906a12.2,12.2,0,1,0,14.057-10A12.2,12.2,0,0,0,1702.389,494.906Z" transform="translate(-1573.999 -416.143)" fill="#f5916e"/>
          <path id="Path_5633" data-name="Path 5633" d="M1707.312,478.77s10.483,3.932,12.964,12.438l6.47,23.152s-8.478,12.33-21.115,11.921l-12.485-27.732S1684.748,482.975,1707.312,478.77Z" transform="translate(-1566.894 -412.144)" fill="#711b40"/>
          <path id="Path_5634" data-name="Path 5634" d="M1319.469,653.34l3.228-.088s-5.889,1.512-7.788-.4c0,0-.485-.3.269-.986a44.773,44.773,0,0,0,7.5-.835,32.7,32.7,0,0,1-8.822.875.96.96,0,0,1,.111-1.8c-1.169-.453-.171-1.225-.171-1.225a20.457,20.457,0,0,1,3.508-1.353,83.611,83.611,0,0,0,8.039-3.134s-3.4-2.224-2.126-4.017l5.242,2.765,4.744,3.049.631,3.21-4.935,3.431s-4.8,1.927-7.511,2.02C1321.387,654.851,1313.6,654.574,1319.469,653.34Z" transform="translate(-1313.247 -520.48)" fill="#df7e61"/>
          <path id="Path_5635" data-name="Path 5635" d="M1698.506,1030.158l13.562,84.515s4.493,4.33,14.918,0l1.73-41.295s3.062-27.283-7.743-46.743C1720.974,1026.635,1699.69,1009.459,1698.506,1030.158Z" transform="translate(-1571.512 -774.93)" fill="#004088"/>
          <path id="Path_5636" data-name="Path 5636" d="M1617.359,1026.222s5.773,8.351.6,39.7l-5.294,42.811a14.114,14.114,0,0,1-12.942.166l-4.268-85.285S1599.283,1009.136,1617.359,1026.222Z" transform="translate(-1502.43 -773.55)" fill="#003560"/>
        </g>
      </g>
      <g id="Group_2392" data-name="Group 2392" transform="translate(282.801 146.244)" style="isolation: isolate">
        <path id="Path_5637" data-name="Path 5637" d="M1321.883,713.569a3.3,3.3,0,0,0-1.664-2.719,6.108,6.108,0,0,0-.562-.329c-.061-.032-.124-.061-.187-.091-.141-.068-.285-.134-.432-.194-.037-.016-.07-.034-.107-.048s-.066-.02-.1-.032c-.236-.09-.478-.174-.729-.249a.1.1,0,0,0-.012,0l-.006,0c-.255-.074-.517-.138-.784-.2-.029-.008-.058-.019-.089-.024s-.075-.014-.113-.022c-.314-.069-.635-.129-.964-.185a.113.113,0,0,1-.025,0l-.082-.012c-.339-.054-.68-.1-1.026-.149l-.109-.016c-.363-.048-.729-.088-1.095-.13a.516.516,0,0,0-.064-.009l-.888-.1c-.35-.04-.7-.08-1.042-.124-.062-.01-.125-.016-.189-.025-.339-.046-.671-.094-1-.146-.171-.028-.343-.057-.511-.088-.345-.062-.692-.134-1.039-.209l-.186-.042c-.253-.056-.5-.117-.754-.179l-.019-.006c-.252-.064-.5-.133-.746-.2l-.236-.072c-.171-.05-.34-.1-.505-.159-.083-.028-.164-.054-.246-.084-.172-.058-.341-.12-.508-.182-.063-.026-.127-.048-.189-.072-.213-.084-.42-.171-.619-.261a17.841,17.841,0,0,1-2.755-1.8l.2,22.968a17.579,17.579,0,0,0,2.756,1.8c.2.09.405.177.617.263a.447.447,0,0,1,.046.018l.144.052c.168.064.337.127.512.187.078.028.158.052.238.081.171.056.344.11.521.165l.145.043c.024.009.05.013.074.021.249.072.5.142.755.207l0,0c.255.062.513.122.771.183.025.006.048.012.073.016l.1.022c.349.076.7.149,1.044.212.141.026.284.05.428.077a.841.841,0,0,1,.084.012c.328.052.661.1,1,.144l.2.026c.339.042.678.082,1.023.122a.021.021,0,0,1,.011,0c.225.024.45.05.675.076.09.01.182.022.273.03.372.044.742.088,1.109.135.029,0,.058.01.087.012.35.046.7.1,1.037.153.037,0,.073.01.109.016.328.054.648.117.963.182l.2.047c.268.061.532.127.787.2s.5.163.742.253c.069.026.137.054.2.08.149.06.293.126.435.194l.185.09a5.811,5.811,0,0,1,.563.332,3.291,3.291,0,0,1,1.663,2.716Z" transform="translate(-1244.45 -688.19)" fill="#243560"/>
        <path id="Path_5638" data-name="Path 5638" d="M1170.955,813.657c.077-.018.156-.036.236-.052.106-.023.212-.049.32-.07l.266-.046c.075-.012.15-.026.225-.038l.168,19.248,31.872,21.507-.2-22.968-26.4-17.816c.385.047.774.1,1.164.165.091.013.179.03.269.046.145.026.291.05.438.081.1.018.21.04.315.062.14.028.279.056.418.086l.294.066c.226.052.453.106.68.164.063.014.126.03.19.049.283.072.567.151.849.233l.163.048c.39.117.779.239,1.165.372l.058.02c.387.132.771.275,1.152.422l.093.038c.438.171.872.356,1.3.548l.064.028c.435.195.862.4,1.284.622.013.007.027.012.041.02.428.221.848.454,1.257.694l.021.012q.627.371,1.219.769c3.519,2.375,5.369,5.041,5.389,7.312q-.1-11.486-.2-22.97c-.02-2.269-1.871-4.935-5.388-7.309-.4-.267-.8-.524-1.219-.769a.161.161,0,0,1-.022-.014c-.409-.241-.829-.472-1.255-.693a.391.391,0,0,0-.044-.022c-.42-.217-.848-.427-1.282-.623l-.063-.026q-.643-.292-1.3-.55l-.025-.011-.068-.024c-.384-.151-.773-.295-1.163-.427-.014-.006-.03-.01-.045-.016-.391-.135-.784-.257-1.177-.374-.03-.008-.059-.02-.089-.03a.532.532,0,0,1-.059-.016c-.286-.084-.572-.162-.858-.237l-.174-.042q-.351-.09-.7-.168l-.131-.032-.146-.03c-.145-.032-.291-.062-.438-.092l-.3-.061c-.147-.028-.294-.054-.442-.078-.071-.014-.143-.028-.214-.039a.477.477,0,0,0-.055-.008c-.394-.066-.787-.12-1.176-.166l-.092-.012c-.023,0-.046,0-.069-.008-.341-.036-.678-.068-1.014-.093l-.082-.008a1.1,1.1,0,0,1-.11,0c-.624-.038-1.232-.052-1.826-.036-.034,0-.07,0-.107,0s-.06,0-.091,0c-.288.01-.574.024-.852.047h-.019l-.049.008c-.292.024-.577.056-.858.1l-.09.01c-.023,0-.044.009-.065.011-.116.018-.23.038-.343.058-.082.016-.164.028-.243.045-.119.022-.234.05-.349.074-.061.014-.125.024-.185.041l-.026.006c-.248.061-.49.131-.725.2l-.159.054c-.237.078-.469.161-.689.253-.177.079-.341.163-.5.245l-.138.079c-.055.03-.115.06-.167.092s-.086.057-.131.084-.114.075-.168.111c-.086.058-.169.118-.249.181l-.14.106c-.016.014-.034.026-.05.038-.094.08-.183.158-.266.239a.3.3,0,0,1-.031.03c-.068.067-.134.135-.2.2-.019.02-.035.042-.053.062s-.06.068-.089.1c-.06.072-.117.142-.171.216-.025.032-.051.066-.075.1l-.04.054c-.028.038-.048.076-.073.114-.047.07-.093.14-.136.213-.034.054-.065.108-.1.164s-.078.141-.116.209c-.013.024-.027.048-.039.074s-.026.054-.039.08c-.061.123-.12.247-.176.369-.012.028-.025.055-.037.083-.073.165-.144.33-.216.494-.053.127-.108.255-.163.38l-.064.144c-.068.15-.138.3-.214.45-.04.08-.083.158-.126.234-.021.039-.039.075-.059.111-.066.112-.135.226-.21.337-.047.068-.1.138-.147.209-.073.1-.15.2-.229.305l-.1.128c-.106.13-.217.259-.334.39a.237.237,0,0,0-.028.032c-.124.133-.256.265-.393.4l-.121.114c-.1.092-.2.184-.31.275l-.16.133c-.107.086-.218.172-.331.255l-.156.118c-.167.116-.338.232-.518.345l-.057.03a.236.236,0,0,0-.024.016c-.021.01-.048.024-.073.038a.312.312,0,0,0-.04.022l-.086.042c-.02.012-.04.02-.06.032s-.063.03-.093.047l-.084.041c-.029.016-.062.03-.093.045s-.07.036-.109.054-.069.034-.105.048-.077.036-.118.057-.11.052-.167.076c-.026.012-.05.027-.077.038-.085.039-.173.079-.264.116-.6.269-1.3.56-1.96.781L1126.8,779.25l.2,22.972,31.911,21.53c.654-.223,1.359-.514,1.961-.781l.494-.225s.006,0,.009-.007c.073-.031.14-.064.207-.1a.043.043,0,0,1,.016-.009c.051-.026.1-.046.146-.07l.059-.03c.038-.018.072-.034.107-.052s.048-.024.068-.034.055-.028.081-.042.047-.023.068-.034l.056-.028c.02-.012.041-.022.058-.032l.038-.02a.264.264,0,0,1,.036-.02.014.014,0,0,1,.009-.006c.181-.111.352-.229.521-.348.051-.036.1-.074.151-.112.114-.084.226-.171.336-.261.025-.02.055-.04.081-.063s.048-.044.075-.066c.106-.093.209-.183.307-.276l.127-.116c.135-.131.266-.263.39-.4a.017.017,0,0,0,0-.006c.01-.011.018-.02.027-.03.116-.129.225-.255.33-.384.036-.044.069-.09.105-.134.078-.1.153-.2.224-.3.019-.026.041-.052.06-.081s.061-.086.09-.128c.075-.113.145-.225.21-.339.024-.041.045-.082.067-.123.039-.07.077-.138.111-.209,0,0,0-.006.007-.01.075-.151.146-.3.216-.454.02-.048.041-.095.063-.141.054-.127.109-.251.164-.378.071-.169.143-.335.218-.5.011-.025.023-.046.033-.07.057-.129.119-.253.18-.38.025-.05.05-.1.075-.146.038-.073.077-.147.119-.217s.06-.109.093-.163c.044-.07.09-.142.138-.213s.072-.113.112-.169c.025-.034.051-.066.078-.1.054-.07.11-.143.169-.213.03-.034.06-.07.091-.1.078-.088.159-.174.248-.259a.387.387,0,0,1,.033-.034c.1-.095.206-.187.318-.277.043-.037.09-.073.136-.107q.12-.092.251-.182c.053-.036.109-.073.167-.109.1-.06.2-.12.3-.18l.138-.075c.156-.084.32-.167.5-.247.22-.091.452-.175.689-.253.053-.018.107-.036.16-.052C1170.467,813.785,1170.706,813.717,1170.955,813.657Z" transform="translate(-1126.801 -737.697)" fill="#283876"/>
        <g id="Group_2390" data-name="Group 2390" transform="translate(77.039 51.984)">
          <path id="Path_5639" data-name="Path 5639" d="M1459.268,810.894l.2,22.968-98.756,41.556-.2-22.968Z" transform="translate(-1360.512 -810.894)" fill="#384e9c"/>
        </g>
        <g id="Group_2391" data-name="Group 2391">
          <path id="Path_5640" data-name="Path 5640" d="M1126.8,694.744l40.853-17.19a19.63,19.63,0,0,1,3.2,2.423c1.91,2.516-.553,5.946,2.65,8.108,3.946,2.66,13.648,2.078,21.676-1.3.224-.095.445-.189.661-.285,7.544-3.365,10.568-8.063,6.733-10.65-2.451-1.652-6.675-1.548-10.117-2.184a22.517,22.517,0,0,1-5.047-1.469,17.845,17.845,0,0,1-2.755-1.8l40.9-17.21,77.041,51.985-98.756,41.555-31.872-21.506c.126-.063.258-.122.4-.183a38.411,38.411,0,0,1,4.207-1.544c4.753-1.044,11.182.225,15.289-1.5,5.032-2.243,4.005-7.324-2.187-11.5-6.262-4.226-15.437-5.928-20.491-3.8-3.138,1.4-3.016,3.6-4.23,5.4a9.32,9.32,0,0,1-2.828,2.7c-.149.088-.725.379-1.452.7-.6.269-1.3.56-1.96.781Z" transform="translate(-1126.801 -653.191)" fill="#4262ab"/>
        </g>
      </g>
      <g id="Group_2405" data-name="Group 2405" transform="translate(0 144.528)">
        <path id="Path_5641" data-name="Path 5641" d="M558.753,1011.454s3.38-2.192.134-6.237c-8.386-.534-18.247-5.063-18.247-5.063-12.328-3.878-29.643-22.962-37.524-31.644-8.852-9.751-22.255-1.474-15.063,9.658,13.458,20.83,48.829,34.561,70.522,33.748" transform="translate(-414.434 -859.957)" fill="#f68c68"/>
        <path id="Path_5642" data-name="Path 5642" d="M375.09,1225.958c5.153-24.066,6.695-79.809,6.695-79.809s-4.127-5.48-19-6.436c-14.908-.961-13.878,8.2-13.81,7.011,0,0,.014,39.447,6.84,78.289C355.82,1225.013,366.422,1232.327,375.09,1225.958Z" transform="translate(-322.549 -977.576)" fill="#002d59"/>
        <path id="Path_5643" data-name="Path 5643" d="M348.725,1108.254c-1.466-9.959,1.569-20.005,3.136-30.07h45.277c2.9,9.652,5.908,19.565,5.908,19.565s1.937,22.832-17.454,25.568C385.593,1123.317,351.8,1129.173,348.725,1108.254Z" transform="translate(-322.143 -936.376)" fill="#006d93"/>
        <path id="Path_5644" data-name="Path 5644" d="M268.877,1625.969c0,19.2,34.973,34.756,78.114,34.756s78.11-15.56,78.11-34.756-34.972-34.754-78.11-34.754S268.877,1606.776,268.877,1625.969Z" transform="translate(-268.877 -1280.295)" fill="#869bca"/>
        <g id="Group_2393" data-name="Group 2393" transform="translate(108.588 333.355)">
          <path id="Path_5645" data-name="Path 5645" d="M613.261,1670.337l-2.58-.149c-.879-.137-.873,1.246-.991,1.293a28.076,28.076,0,0,1-6.109,1.937s-4.772-.62-5.284-2.066l.675-8.855c5.318-.448,10.868-1.476,10.868-1.476l11.69-1.642c5.625-.587,6.647,1.447,6.647,1.447S631.622,1665.971,613.261,1670.337Z" transform="translate(-598.297 -1659.274)" fill="#121315"/>
          <path id="Path_5646" data-name="Path 5646" d="M606.166,1671.629a14,14,0,0,1,3.023-.984c5.765-1.01,11.406-1.582,16.207-5.288a4.75,4.75,0,0,0,2.084-3.375,2.1,2.1,0,0,1,.7.661s3.445,5.144-14.916,9.51l-2.58-.149c-.879-.136-.873,1.246-.991,1.293a28.1,28.1,0,0,1-6.109,1.937s-4.772-.621-5.284-2.066l.165-2.158C600.361,1672.1,603.715,1672.763,606.166,1671.629Z" transform="translate(-598.297 -1661.089)" fill="#050609"/>
        </g>
        <g id="Group_2394" data-name="Group 2394" transform="translate(30.498 331.161)">
          <path id="Path_5647" data-name="Path 5647" d="M376.36,1663.683l-2.58-.149c-.879-.136-.873,1.245-.994,1.293a28.166,28.166,0,0,1-6.107,1.937s-4.771-.621-5.281-2.068l.671-8.853c5.32-.447,10.871-1.475,10.871-1.475l11.69-1.644c5.625-.587,6.647,1.449,6.647,1.449S394.721,1659.317,376.36,1663.683Z" transform="translate(-361.398 -1652.618)" fill="#121315"/>
          <path id="Path_5648" data-name="Path 5648" d="M369.263,1664.979a14.09,14.09,0,0,1,3.023-.984c5.768-1.01,11.407-1.582,16.209-5.29a4.747,4.747,0,0,0,2.084-3.373,2.094,2.094,0,0,1,.7.661s3.445,5.144-14.916,9.51l-2.58-.149c-.879-.136-.873,1.245-.994,1.293a28.183,28.183,0,0,1-6.107,1.937s-4.771-.621-5.281-2.068l.163-2.156C363.46,1665.452,366.814,1666.11,369.263,1664.979Z" transform="translate(-361.398 -1654.437)" fill="#050609"/>
        </g>
        <path id="Path_5649" data-name="Path 5649" d="M371.425,1471.451c1.915-2.284,8.2-86.243,8.2-86.243,1.042-12.907-20.418-7.488-20.418-7.488-3.126,12.85-2.62,15.267-3.6,31.211-.39,6.3.614,58.455.381,62.466C355.985,1471.4,365.947,1478,371.425,1471.451Z" transform="translate(-326.955 -1136.418)" fill="#002d59"/>
        <path id="Path_5650" data-name="Path 5650" d="M383.728,1107.616s12.886,21.94,4.956,36.283-41.341-1.267-39.287-17.877C351.65,1107.806,368.152,1099.919,383.728,1107.616Z" transform="translate(-322.794 -954.138)" fill="#154179"/>
        <path id="Path_5651" data-name="Path 5651" d="M392.7,1018.462c2.094,7.448,10.726,35.866,10.726,35.866-23.658,22.312-54.193,4.622-54.5,1.249-.367-4.037,4.138-19.453,4.957-36.079C353.881,1019.5,362.306,1006.523,392.7,1018.462Z" transform="translate(-322.523 -892.955)" fill="#f5916e"/>
        <path id="Path_5652" data-name="Path 5652" d="M512.031,1408.147" transform="translate(-431.879 -1157.572)" fill="#0e1828"/>
        <path id="Path_5653" data-name="Path 5653" d="M454.589,1207.106c-2.512-24.486-19.952-86.945-19.952-86.945s-5.1-4.694-19.537-1.026c-14.476,3.678-16.038,22.516-16.339,21.362,0,0,16.8,39.534,39.159,74.366C437.919,1214.863,448.719,1220.392,454.589,1207.106Z" transform="translate(-355.946 -962.889)" fill="#154179"/>
        <path id="Path_5654" data-name="Path 5654" d="M548.717,1467.63c-.424-2.951-22.2-90.679-22.2-90.679-5.126-10.819-19.844.574-19.844.574A93.242,93.242,0,0,0,512,1410c2,5.983,20.513,60.161,21.8,63.964C533.806,1473.96,544.745,1477.427,548.717,1467.63Z" transform="translate(-428.288 -1133.533)" fill="#154179"/>
        <g id="Group_2395" data-name="Group 2395" transform="translate(12.962 59.261)">
          <path id="Path_5655" data-name="Path 5655" d="M309.545,846.829s-2.341,39.4-.847,55.311c0,0,0,7.229,12.732,10.852,0,0,4.632-43.87,8.4-63.455C329.831,849.537,322.311,835.013,309.545,846.829Z" transform="translate(-308.2 -837.44)" fill="#df7e61"/>
          <path id="Path_5656" data-name="Path 5656" d="M326.3,847.331a10.305,10.305,0,0,1-13.488-5.37,10.166,10.166,0,0,1,5.428-13.377,10.309,10.309,0,0,1,13.489,5.373A10.163,10.163,0,0,1,326.3,847.331Z" transform="translate(-310.738 -827.763)" fill="#df7e61"/>
        </g>
        <path id="Path_5657" data-name="Path 5657" d="M316.21,822.416s-9.307,2.154-9.8,12.946L304.9,874.2a36.431,36.431,0,0,0,21.34,5.123S340.134,827.457,316.21,822.416Z" transform="translate(-293.026 -764.918)" fill="#ffc865"/>
        <path id="Path_5658" data-name="Path 5658" d="M507,1429.633" transform="translate(-428.507 -1171.975)" fill="#f5916e"/>
        <path id="Path_5659" data-name="Path 5659" d="M409.006,747.617s.082,13.87,1.294,27.688L392,772.273s2.68-6.309-1.092-11.95Z" transform="translate(-350.684 -714.775)" fill="#f5916e"/>
        <path id="Path_5660" data-name="Path 5660" d="M330.405,818.195c-4.6,3.359-5.123,11.389-3.483,16.4,1.885,5.761,2.632,13.113,4.519,21.444,2.555,11.29,4.288,19.985,7.137,31.2,2.359,9.272,39.618,1.8,39.618,1.8l13.356-45.635s2.3-11.912-8.494-15.877c0,0-11.368-6.138-19.692-8.958-7.35-2.489-10.013-2.722-17.558-2.258C345.809,816.312,335.7,816.683,330.405,818.195Z" transform="translate(-307.221 -760.697)" fill="#f5916e"/>
        <path id="Path_5661" data-name="Path 5661" d="M439.313,1103.858a28.1,28.1,0,0,1,0,27.14c-7.93,14.346-32.139,9.116-32.211-9.464C407.033,1103.179,423.737,1096.161,439.313,1103.858Z" transform="translate(-361.538 -951.52)" fill="#154179"/>
        <path id="Path_5662" data-name="Path 5662" d="M345.929,816.705s-10.11.371-15.4,1.883c-4.782,3.5-4.7,10.357-3.774,15.55,1.763,9.93,3.551,19.961,4.472,30.006.409,4.451,1.518,13.509,1.849,17.963.323,4.323,1.691,6.705,6.115,8.99,3.363,1.734,5.862.357,9.526.455,9.317.255,18.515-.765,27.747-1.907.39-.046,14.8,9.674,10.058,2.522l5.154-48.37s2.3-11.912-8.494-15.877a86.8,86.8,0,0,0-15.914-7.57S352.791,820.718,345.929,816.705Z" transform="translate(-307.341 -761.09)" fill="#ffc865"/>
        <path id="Path_5663" data-name="Path 5663" d="M395.463,712.437l.781-3.013s1.851-11.106,1.851-11.108a11.162,11.162,0,0,0-.347-4.573,11.281,11.281,0,0,1-.569-4.688c1.062-7.956-3.394-11.909-3.394-11.909-5.186-6.814-15.972-5.862-15.976-5.86-5.595.847-10.481,3.16-13.264,8.263-2.526,4.627-3.9,10.27-2.4,15.438a31.279,31.279,0,0,0,9.016,14.1c2.688,2.57,5.434,2.885,8.952,4.172a36.488,36.488,0,0,0,9.738,1.435C391.215,714.7,395.014,714.167,395.463,712.437Z" transform="translate(-330.984 -663.575)" fill="#f68c68"/>
        <path id="Path_5664" data-name="Path 5664" d="M389.9,676.922l-1.718,6.9c-1.962.859-2.749,1.618-2.479,4.2l.622,5.7-1.55.594c.129-2.281-3.035-2.313-3.035-2.313-2.313-.133-2.707,1.839-2.574,3.736.343,4.928-1.451,12.755-5.582,14.132-1.632.544-4.708,1.111-5.224-1.1-.63-2.7-5.749-8.07-5.749-8.07-6.149-5.955-7.691-16.119-4.784-23.884a18.794,18.794,0,0,1,4.414-6.525,23.826,23.826,0,0,1,13.751-6.135s7.011-.855,10.951,1.912a22.793,22.793,0,0,1,5.089,4.655S393.529,673.881,389.9,676.922Z" transform="translate(-327.556 -658.737)" fill="#301204"/>
        <g id="Group_2400" data-name="Group 2400" transform="translate(50.817 32.656)">
          <g id="Group_2399" data-name="Group 2399">
            <g id="Group_2398" data-name="Group 2398">
              <g id="Group_2397" data-name="Group 2397">
                <g id="Group_2396" data-name="Group 2396">
                  <path id="Path_5665" data-name="Path 5665" d="M428.919,754.8a2.84,2.84,0,0,1-1.8.676,4.172,4.172,0,0,1-4.066-4.033,3.824,3.824,0,0,1,3.348-4.39,3.608,3.608,0,0,1,2.61.995c1.048.966,1.2,2.859,1.05,4.182A3.906,3.906,0,0,1,428.919,754.8Z" transform="translate(-423.038 -747.054)" fill="#f68c68"/>
                </g>
              </g>
            </g>
          </g>
        </g>
        <g id="Group_2403" data-name="Group 2403" transform="translate(52.659 34.012)">
          <g id="Group_2401" data-name="Group 2401">
            <path id="Path_5666" data-name="Path 5666" d="M431.116,751.929c-.2-1.214-2.6.11-2.18.775a3.735,3.735,0,0,0,1.052.9,1.805,1.805,0,0,1,.845,1.286c.013.072.04.283-.028.337-.3.244-1.429-.885-1.676-1.12a2.058,2.058,0,0,1-.424-1.937,1.235,1.235,0,0,1,1.3-1c.556,0,1.126,0,1.137.693,0,.014-.018.13-.026.068Z" transform="translate(-428.627 -751.168)" fill="#e3755b"/>
          </g>
          <g id="Group_2402" data-name="Group 2402" transform="translate(0.485 1.944)">
            <path id="Path_5667" data-name="Path 5667" d="M431.391,757.2c.242-.277.5-.078.775.1a1.165,1.165,0,0,1,.488.693,2.877,2.877,0,0,1-.177,2.06,1.543,1.543,0,0,1-1.284.791c-.745.026-1.008-.618-1.077-1.246-.018-.167-.06-.568.1-.681s.315.145.442.257a1.06,1.06,0,0,0,.646.2,1.354,1.354,0,0,0,1.078-.564.764.764,0,0,0,.1-.2c.026.412.01.5-.048.281a1.04,1.04,0,0,0-.159-.281c-.19-.275-.494-.453-.7-.713-.1-.118-.3-.55-.179-.69Z" transform="translate(-430.098 -757.066)" fill="#e3755b"/>
          </g>
        </g>
        <g id="Group_2404" data-name="Group 2404" transform="translate(141.553 143.999)">
          <path id="Path_5668" data-name="Path 5668" d="M713.988,1088.138c-.948-1.4-.119-2.134-2.039-2.2-2.186-.072-4.146-1.152-5.629-1.11-2.585.072-12.346,2.349-5.8,7.938,1.525,1.3,5.888,7.137,8.909,5.408,4.463-2.557,2.946-1.614,5.214-7.166Z" transform="translate(-698.301 -1084.83)" fill="#f5916e"/>
        </g>
        <path id="Path_5669" data-name="Path 5669" d="M466,866.7a11.457,11.457,0,1,0,15.83-3.447A11.458,11.458,0,0,0,466,866.7Z" transform="translate(-399.803 -791.077)" fill="#f5916e"/>
        <path id="Path_5670" data-name="Path 5670" d="M398.65,997.085c1.487,15.622,2.449,53.88,2.449,53.88-5.544,14.795-58.431,2.308-58.738-1.064-.37-4.037.715-32.468,1.531-49.094C343.892,1000.807,368.257,985.146,398.65,997.085Z" transform="translate(-318.088 -879.002)" fill="#ffc865"/>
        <path id="Path_5671" data-name="Path 5671" d="M463.278,846.8c13.93,3.921,15.661,20.778,15.661,20.778l6.289,27.685s-15.826,12.552-25.473,9.02c0,0-7.86-20.9-10.325-41.728C449.43,862.55,449.53,847.249,463.278,846.8Z" transform="translate(-389.914 -781.261)" fill="#ffc865"/>
        <path id="Path_5672" data-name="Path 5672" d="M383.006,666.013c-1.574,1.269-3.577.436-5.376.018-2.453,2.879.483,5.754-3.233,7.149-1.968.737-4.879.95-7.058,1.3-1.741.281-3.5-.122-4.745,1.178-1.348,1.407-.072,5.792-1.664,6.631-2.784,1.47-4.968-6.151-8.518-5.546-3.027.514-3.564,5.318-2.5,7.681a3.73,3.73,0,0,0-.793-.538c-1.443-3.762-3.286-3.828-4.878-6.5-2.467-4.147-2.05-3.157-2.542-7.14-.006-.036.486-1.744.492-1.767,1.158-4.238,3.14-4.961,4.092-6.759,1-1.9,2.553-3.23,3.84-4.9,1.187-1.542,1.783-3.618,3.146-4.995,2.068-2.091,5.458-3.142,8.3-3.515,3.065-.4,5.981,1.5,9.017.966,1.246-.219,2.412-1.349,3.661-1.279,1.524.086,2.58,1.6,3.9,2.19,2.449,1.1,6.309.656,8.4,2.38,2.313,1.905,1.816,4.659.391,6.994-.8,1.309-2.418,2.062-3.138,3.419C383.6,663.349,383.056,665.973,383.006,666.013Z" transform="translate(-317.692 -647.987)" fill="#301204"/>
      </g>
      <g id="Group_2406" data-name="Group 2406" transform="translate(459.233 150.547)">
        <path id="Path_5673" data-name="Path 5673" d="M1726.378,667.122a431.136,431.136,0,0,0-22.728,47.239s.186,4.762,3.693,3.29,31.812-41.562,31.841-45.211C1739.259,663.059,1726.378,667.122,1726.378,667.122Z" transform="translate(-1689.932 -666.246)" fill="#f5916e"/>
        <path id="Path_5674" data-name="Path 5674" d="M1668.982,813.69l3.058-1.04s-5.177,3.186-7.557,1.923c0,0-.553-.146-.035-1.022a44.87,44.87,0,0,0,6.916-3.017,32.812,32.812,0,0,1-8.167,3.446s-1.653-.476-.427-1.753c-1.25-.086-.524-1.118-.524-1.118a20.317,20.317,0,0,1,2.95-2.331,83.262,83.262,0,0,0,6.752-5.372s-3.906-1.121-3.22-3.208l5.825,1.088,5.433,1.51,1.553,2.881-3.7,4.735s-4.011,3.26-6.577,4.154C1671.262,814.567,1663.737,816.608,1668.982,813.69Z" transform="translate(-1662.035 -756.044)" fill="#f5916e"/>
      </g>
      <g id="Group_2412" data-name="Group 2412" transform="translate(241.243 259.809)" style="isolation: isolate">
        <path id="Path_5675" data-name="Path 5675" d="M1294.509,1057.12a3.237,3.237,0,0,1,1.635-2.674,5.565,5.565,0,0,1,.552-.325c.06-.032.123-.06.185-.09.138-.066.278-.131.423-.191.036-.013.07-.032.107-.046s.067-.022.1-.034c.231-.089.467-.171.713-.244a.033.033,0,0,1,.012,0s0,0,0,0c.248-.072.507-.136.768-.194.031-.009.061-.019.092-.024l.117-.022q.458-.1.935-.181a.151.151,0,0,0,.03,0l.1-.016c.317-.05.637-.1.962-.14.043,0,.085-.012.128-.016.35-.046.7-.086,1.054-.126.021,0,.041-.006.061-.008l.239-.028c.238-.026.475-.052.713-.08q.5-.057.988-.12l.2-.024c.327-.044.649-.09.966-.142.169-.026.338-.055.5-.084q.512-.1,1.026-.209l.192-.042c.246-.054.49-.113.733-.174l.023-.007c.247-.062.49-.13.733-.2l.224-.065c.167-.05.334-.1.5-.157.082-.028.163-.054.244-.082.164-.056.325-.116.483-.177.067-.024.135-.048.2-.074.21-.084.415-.17.61-.259a17.236,17.236,0,0,0,2.711-1.767l-.2,22.6a17.174,17.174,0,0,1-2.711,1.767c-.2.091-.4.177-.615.261-.016.006-.03.013-.046.02-.045.016-.094.032-.138.05-.164.062-.329.122-.5.18-.078.029-.156.055-.236.081q-.245.081-.5.157l-.152.048c-.026.009-.052.014-.078.02-.239.07-.481.136-.727.2l-.032.007c-.239.062-.482.118-.724.174l-.08.018c-.04.01-.079.016-.119.024-.341.074-.682.145-1.021.207-.139.026-.279.05-.42.074-.029.006-.061.008-.09.014-.314.051-.632.1-.954.139l-.216.028c-.316.041-.634.079-.955.117l-.03,0-.678.078c-.112.012-.226.026-.339.038-.348.041-.7.08-1.042.127-.041,0-.083.01-.124.016-.325.042-.648.088-.965.14l-.13.02c-.321.054-.633.115-.94.181-.067.014-.134.027-.2.044-.264.06-.524.125-.774.2h-.006q-.373.111-.723.247c-.068.026-.136.052-.2.08-.145.061-.286.123-.424.191-.061.03-.124.058-.184.088-.191.1-.378.209-.553.325a3.242,3.242,0,0,0-1.635,2.674Z" transform="translate(-1197.535 -1032.149)" fill="#003e77"/>
        <path id="Path_5676" data-name="Path 5676" d="M1026.95,1090.195c-.01-.042-.018-.086-.027-.129s-.018-.078-.025-.117a.376.376,0,0,0-.005-.04c-.009-.06-.016-.12-.022-.179s-.011-.09-.015-.135c0-.063-.006-.126-.009-.19,0-.036,0-.07,0-.108v-.044l.2-22.6c0,.052,0,.1,0,.155s0,.127.008.189c0,.044.01.09.016.134.006.06.013.119.022.179s.019.1.03.156.016.086.027.131.029.106.044.16.023.083.036.123c.007.022.016.042.023.063a3.753,3.753,0,0,0,.193.456.037.037,0,0,1,0,.01,3.891,3.891,0,0,0,.249.413c.015.022.029.045.045.067a4.454,4.454,0,0,0,.306.379c.031.034.063.068.1.1s.07.073.107.109.084.08.129.121l.12.106c.038.032.077.063.116.095.07.056.141.11.217.164.038.028.077.057.116.082.084.059.172.115.261.169.034.022.066.042.1.062.079.048.163.094.248.138.039.02.075.042.113.063.125.062.253.124.387.184.257.109.524.2.8.294.091.028.187.05.28.078.187.054.372.109.565.155.05.012.1.022.154.032.217.05.436.095.659.133.089.016.18.03.269.045.207.034.419.063.63.09.07.01.139.018.209.026.276.032.554.061.838.082.176.014.355.024.534.034.151.01.3.02.452.028.182.01.367.014.551.022.148,0,.295.012.444.016.354.01.708.016,1.064.02h.029q.628.009,1.258.014c.268,0,.535.006.8.01l.4.006.68.014.173,0c.1,0,.2.008.3.01.172.006.344.012.516.02s.32.018.48.026.33.02.5.032l.167.012v0h0v0c.185.014.368.032.549.052l.111.01c.238.026.473.054.705.088.028,0,.054.01.083.016.346.05.686.11,1.017.183l.03.008.033.008.046.011.072.021.059.018c.029.01.061.018.095.03l.072.023c.037.012.078.024.119.038.024.008.048.014.075.024l.141.046c.029.008.056.018.086.029.05.016.1.034.157.052.031.01.061.02.092.032l.173.058.1.034c.058.02.118.043.177.062.038.014.076.026.115.04l.167.061.139.05.164.06.147.054.169.063c.049.02.1.038.149.056l.169.067c.05.018.1.038.151.058s.112.044.169.064l.15.06c.057.022.112.047.168.068l.146.061c.06.024.118.049.178.074l.129.054c.1.042.2.084.293.129.142.062.277.124.405.187l-.2,22.6-.4-.187-.295-.128c-.032-.014-.066-.026-.1-.04l-.208-.089-.12-.048-.194-.078-.135-.054-.182-.073-.142-.054-.178-.068-.147-.056c-.057-.02-.114-.043-.169-.064l-.144-.052-.171-.063-.135-.047c-.055-.021-.111-.041-.164-.059s-.1-.036-.146-.052l-.138-.048-.143-.05-.13-.044c-.044-.016-.085-.028-.127-.044s-.083-.028-.124-.04-.075-.026-.112-.038l-.114-.036-.1-.032-.1-.032-.089-.026a.651.651,0,0,0-.079-.024l-.068-.021-.065-.02-.048-.012-.063-.016c-.331-.075-.673-.133-1.021-.185-.257-.038-.516-.074-.78-.1l-.134-.012c-.23-.024-.464-.045-.7-.063l-.49-.032c-.161-.01-.321-.018-.484-.026s-.336-.014-.505-.02-.321-.01-.483-.016l-.661-.012-.415-.008-.793-.009c-.345,0-.692-.006-1.036-.012-.088,0-.174,0-.262,0-.351,0-.7-.012-1.049-.022h-.051v0h0v0c-.146,0-.289-.012-.433-.016-.173-.006-.346-.012-.518-.02-.157-.008-.311-.02-.467-.03-.172-.01-.345-.02-.516-.032l-.057,0q-.4-.033-.787-.078l-.2-.024c-.131-.018-.262-.032-.391-.05v-.006h0v.006c-.084-.012-.166-.028-.25-.042s-.177-.028-.265-.044c-.223-.038-.443-.084-.66-.133-.052-.012-.1-.02-.156-.032l-.044-.01c-.18-.044-.353-.1-.526-.147-.091-.026-.184-.048-.273-.076-.274-.089-.54-.185-.8-.294-.134-.06-.262-.122-.387-.185-.044-.024-.085-.047-.128-.07-.078-.042-.156-.084-.231-.128-.009-.007-.02-.01-.029-.016l-.082-.054c-.086-.052-.169-.107-.25-.161-.042-.028-.081-.058-.122-.086-.073-.054-.144-.106-.213-.162-.022-.019-.047-.034-.07-.053v0h0v0c-.017-.013-.033-.03-.05-.044l-.115-.1c-.045-.042-.09-.082-.132-.125s-.072-.07-.106-.106l-.068-.068a.413.413,0,0,0-.027-.034,4.394,4.394,0,0,1-.308-.381c-.005-.008-.013-.016-.018-.025s-.016-.028-.025-.04a4.22,4.22,0,0,1-.251-.413v0a.019.019,0,0,1,0-.009,3.543,3.543,0,0,1-.19-.448c0-.013-.012-.026-.016-.04v-.006h0v.006c0-.01-.006-.02-.009-.03-.013-.038-.024-.078-.035-.12S1026.964,1090.251,1026.95,1090.195Z" transform="translate(-1018.235 -1043.927)" fill="#003e77"/>
        <g id="Group_2408" data-name="Group 2408" transform="translate(0 51.145)">
          <g id="Group_2407" data-name="Group 2407">
            <path id="Path_5677" data-name="Path 5677" d="M1000.926,1152.867l-.2,22.6,97.163,40.885.2-22.6Z" transform="translate(-1000.727 -1152.867)" fill="#004f93"/>
          </g>
        </g>
        <g id="Group_2409" data-name="Group 2409" transform="translate(97.164 40.885)">
          <path id="Path_5678" data-name="Path 5678" d="M1295.686,1172.886l-.2,22.6,75.8-51.146.2-22.6Z" transform="translate(-1295.488 -1121.74)" fill="#003e77"/>
        </g>
        <g id="Group_2411" data-name="Group 2411" transform="translate(0.199)">
          <g id="Group_2410" data-name="Group 2410">
            <path id="Path_5679" data-name="Path 5679" d="M1174.288,1038.594l-40.2-16.913a19.266,19.266,0,0,0-3.14,2.385c-1.88,2.473.544,5.85-2.607,7.975-3.881,2.618-13.428,2.046-21.326-1.277q-.335-.141-.657-.285c-7.419-3.308-10.39-7.929-6.622-10.473,2.411-1.628,6.57-1.524,9.952-2.148a22.085,22.085,0,0,0,4.965-1.448,17.25,17.25,0,0,0,2.711-1.767l-40.242-16.935-31.393,21.186c-.649-.219-1.348-.508-1.942-.773-.71-.315-1.268-.6-1.414-.688a9.175,9.175,0,0,1-2.785-2.656c-1.2-1.776-1.076-3.941-4.01-5.25-5.124-2.158-14.148-.483-20.312,3.674-6.093,4.112-7.1,9.112-2.314,11.246,4.205,1.773,10.528.522,15.2,1.552a37.193,37.193,0,0,1,4.125,1.512c.142.062.278.124.405.187l-31.358,21.157,97.162,40.885Z" transform="translate(-1001.33 -997.709)" fill="#005c9c"/>
          </g>
        </g>
      </g>
      <g id="Group_2444" data-name="Group 2444" transform="translate(341.01 215.268)">
        <path id="Path_5680" data-name="Path 5680" d="M1470.594,1786.664c0,13.639-24.847,24.692-55.5,24.692s-55.5-11.053-55.5-24.692,24.847-24.692,55.5-24.692S1470.594,1773.026,1470.594,1786.664Z" transform="translate(-1341.07 -1465.503)" fill="#869bca"/>
        <g id="Group_2443" data-name="Group 2443" transform="translate(0)">
          <g id="Group_2414" data-name="Group 2414" transform="translate(32.91 315.212)">
            <g id="Group_2413" data-name="Group 2413" transform="translate(8.463)">
              <path id="Path_5681" data-name="Path 5681" d="M1433.425,1824.03s-5.887-1.077-4.23,3.727c0,0,13.743,5.9,23.343,4.571,0,0,6.746-.227,5.688-7.546l.112-5.948-9.049,1.714.514,5.653Z" transform="translate(-1428.901 -1818.834)" fill="#df7e61"/>
            </g>
            <path id="Path_5682" data-name="Path 5682" d="M1441.015,1834.011a3.809,3.809,0,0,1-.9,2.551c-2.369,2.73-7.025,2.813-10.3,2.6a110.787,110.787,0,0,1-15.677-2.193c-1.123-.237-1.433-.6-1.446-.934a4.576,4.576,0,0,1,3.527-2.782l-5.011-.641c-4.625-.165-6.724.9-7.8,1.594-1.28,3.66,4.952,6.1,4.952,6.1a101.409,101.409,0,0,0,14.593,4.073s17.592,4.15,19.717-1.262Z" transform="translate(-1403.226 -1828.062)" fill="#3c0e25"/>
          </g>
          <g id="Group_2416" data-name="Group 2416" transform="translate(67.858 307.035)">
            <g id="Group_2415" data-name="Group 2415" transform="translate(8.463)">
              <path id="Path_5683" data-name="Path 5683" d="M1539.442,1799.224s-5.887-1.076-4.23,3.726c0,0,13.744,5.9,23.343,4.573,0,0,6.747-.227,5.688-7.546l.113-5.948-9.05,1.712.514,5.653Z" transform="translate(-1534.918 -1794.029)" fill="#df7e61"/>
            </g>
            <path id="Path_5684" data-name="Path 5684" d="M1547.032,1809.206a3.8,3.8,0,0,1-.9,2.55c-2.369,2.732-7.025,2.814-10.3,2.605a111.236,111.236,0,0,1-15.677-2.192c-1.122-.237-1.433-.6-1.447-.934a4.578,4.578,0,0,1,3.528-2.783l-5.011-.64c-4.625-.165-6.724.9-7.8,1.594-1.28,3.657,4.952,6.1,4.952,6.1a101.491,101.491,0,0,0,14.592,4.075s17.592,4.148,19.718-1.263Z" transform="translate(-1509.244 -1803.258)" fill="#3c0e25"/>
          </g>
          <g id="Group_2420" data-name="Group 2420" transform="translate(41.668 119.475)">
            <g id="Group_2417" data-name="Group 2417" transform="translate(37.44 17.098)">
              <path id="Path_5685" data-name="Path 5685" d="M1543.7,1293.7a16.8,16.8,0,1,0,16.8-16.8A16.8,16.8,0,0,0,1543.7,1293.7Z" transform="translate(-1543.591 -1276.904)" fill="#00377a"/>
              <path id="Path_5686" data-name="Path 5686" d="M1570.852,1404.06s-.233,4.223-7.82,4.328c0,0-7.181,2.449-10.281-6.9-12.218-36.826-8.989-75.256-8.989-75.256s17.25-9.608,33.317-3.037C1577.078,1323.193,1574.48,1371.532,1570.852,1404.06Z" transform="translate(-1543.375 -1306.394)" fill="#00377a"/>
            </g>
            <path id="Path_5687" data-name="Path 5687" d="M1571.815,1565.381s5.919,79.592,6.47,82.437a9.873,9.873,0,0,0,10.876-.1c-.029-3.9,4.225-36.45,4.667-42.563.754-10.505,2.017-23.777-4.622-38.874Z" transform="translate(-1525 -1453.191)" fill="#00377a"/>
            <g id="Group_2418" data-name="Group 2418" transform="translate(0 17.094)">
              <path id="Path_5688" data-name="Path 5688" d="M1446.024,1402.549s-1.619,3.906-8.812,1.489c0,0-7.587-.066-7.415-9.915.671-38.795,17.672-79,17.672-79s19.146-1.829,32.13,9.694C1479.6,1324.818,1460.223,1373.059,1446.024,1402.549Z" transform="translate(-1429.794 -1302.451)" fill="#00479a"/>
              <path id="Path_5689" data-name="Path 5689" d="M1482.779,1288.131a16.8,16.8,0,1,0,21.415-10.284A16.8,16.8,0,0,0,1482.779,1288.131Z" transform="translate(-1464.674 -1276.894)" fill="#00479a"/>
            </g>
            <path id="Path_5690" data-name="Path 5690" d="M1536.286,1256.487c-2.03-18.68-11.4-27.35-11.4-27.35l-32.471-4.1s-8.952,15.576-9.888,31.452c3.881,10.588,17.716,13.673,17.716,13.673l10.506,3.118S1534.554,1269.66,1536.286,1256.487Z" transform="translate(-1465.143 -1225.035)" fill="#00479a"/>
            <g id="Group_2419" data-name="Group 2419" transform="translate(0.855 108.288)">
              <path id="Path_5691" data-name="Path 5691" d="M1433.036,1561.75s16.106,83.611,17.074,86.341c-.424-.2,7.613,3.694,11.171-1.339-.606-3.856-.946-46.325-1.415-52.437-.807-10.5-.7-20.3-9.5-34.248C1450.37,1560.067,1428.38,1544.324,1433.036,1561.75Z" transform="translate(-1432.389 -1553.543)" fill="#00479a"/>
            </g>
          </g>
          <path id="Path_5692" data-name="Path 5692" d="M1520.746,1759.455" transform="translate(-1449.097 -1463.816)" fill="#270b09"/>
          <g id="Group_2423" data-name="Group 2423" transform="translate(94.782 44.711)">
            <g id="Group_2421" data-name="Group 2421" transform="translate(2.752 44.86)">
              <path id="Path_5693" data-name="Path 5693" d="M1616.953,1134.316s-5.915,6.966-17.68,23.784l2.033,3.446s20.151-10.15,26.579-21.545Z" transform="translate(-1599.273 -1134.316)" fill="#df7e61"/>
            </g>
            <g id="Group_2422" data-name="Group 2422">
              <path id="Path_5694" data-name="Path 5694" d="M1594.7,1018.162s15.168,33.1,24.279,31.841c0,0,3.144.2,3.773-2.172,0,0,6.434-5.706-20.318-46.863a8.245,8.245,0,0,0-7.969-2.593S1586.341,1003.742,1594.7,1018.162Z" transform="translate(-1590.923 -998.225)" fill="#df7e61"/>
            </g>
          </g>
          <g id="Group_2424" data-name="Group 2424" transform="translate(74.027 38.739)">
            <rect id="Rectangle_2879" data-name="Rectangle 2879" width="16.397" height="17.428" fill="#f3a67a"/>
          </g>
          <g id="Group_2425" data-name="Group 2425" transform="translate(61.997 2.423)">
            <path id="Path_5695" data-name="Path 5695" d="M1493.352,906.649l-.616-2.787s-1.227-10.2-1.227-10.206a9.292,9.292,0,0,1,.608-4.146,9.43,9.43,0,0,0,.835-4.239c-.614-7.3,4.086-10.668,4.086-10.668,5.6-5.939,16.379-4.517,16.382-4.517,5.573,1.06,10.348,3.417,12.857,8.207,2.275,4.342,3.333,9.552,1.536,14.179-1.969,5.073-5.409,8.937-9.855,12.379-2.848,2.2-5.624,2.349-9.232,3.34a40.312,40.312,0,0,1-9.864.806C1497.491,908.931,1493.706,908.249,1493.352,906.649Z" transform="translate(-1491.466 -869.937)" fill="#f5916e"/>
          </g>
          <g id="Group_2426" data-name="Group 2426" transform="translate(71.351 29.689)">
            <path id="Path_5696" data-name="Path 5696" d="M1519.842,952.654" transform="translate(-1519.842 -952.654)" fill="#270b09"/>
          </g>
          <g id="Group_2427" data-name="Group 2427" transform="translate(63.45)">
            <path id="Path_5697" data-name="Path 5697" d="M1503.774,892.276c.809-1.148,3.755-1.857,3.757-1.857,3.559,0,3.094,4.751,3.43,6.809.109.671.239,1.359.391,2.044,1.7,6.04,6.772,5.988,11.111,6.719.16-.095.33-.19.507-.287a17.368,17.368,0,0,1,3.284-5.46c6.517-5.633,8.643-15.758,6.162-23.724a18.863,18.863,0,0,0-4.066-6.8,23.98,23.98,0,0,0-13.467-6.944c-5.045-.95-23.093,1.5-18.168,12.459,0,0,7.426,8.568,7.058,17.044" transform="translate(-1495.873 -862.587)" fill="#270b09"/>
          </g>
          <g id="Group_2435" data-name="Group 2435" transform="translate(71.351 26.883)">
            <g id="Group_2431" data-name="Group 2431">
              <g id="Group_2428" data-name="Group 2428" transform="translate(0 0.331)">
                <path id="Path_5698" data-name="Path 5698" d="M1519.842,947.621a3.415,3.415,0,0,1,4.018-2.351,2.687,2.687,0,0,1,1.964,2.9c-.027.293-.091.582-.12.875-.515,3.126-3.813,4.318-3.813,4.318" transform="translate(-1519.842 -945.145)" fill="#f7a67b"/>
              </g>
              <g id="Group_2429" data-name="Group 2429" transform="translate(1.055 1.716)">
                <path id="Path_5699" data-name="Path 5699" d="M1525.674,949.563a1.805,1.805,0,0,0-.793-.214c-1.195-.077-2.159,1.766-.963,2.1a.68.68,0,0,1-.016.946c-.412.448-.964,1.09-.84,1.72.076.374.491.574.866.666.3.075.359-.16.122-.273a1.347,1.347,0,0,1-.456-.374c-.011-.022-.024-.042-.036-.064a.162.162,0,0,1-.028-.047.4.4,0,0,1-.013-.273.738.738,0,0,0,.927-.01c.227-.273.054-.7.132-1.012a2.36,2.36,0,0,1,.276-.618.638.638,0,0,0-.44-1.068,2.679,2.679,0,0,0-.363.026c-.5-.26.058-1.012.363-1.133a.963.963,0,0,1,1.043.183,1.484,1.484,0,0,1,.332,1.056,3.489,3.489,0,0,1-.325,1.264c-.109.225-.246.49-.355.717-.124.255.174.369.3.11a7.51,7.51,0,0,0,.854-2.082A1.581,1.581,0,0,0,1525.674,949.563Z" transform="translate(-1523.044 -949.347)" fill="#d68a6a"/>
              </g>
              <g id="Group_2430" data-name="Group 2430">
                <path id="Path_5700" data-name="Path 5700" d="M1519.842,946.948s.143-.2.376-.574a4.753,4.753,0,0,1,.5-.572,3.869,3.869,0,0,1,.756-.588,3.14,3.14,0,0,1,1.022-.37,2.633,2.633,0,0,1,1.167.081,3.156,3.156,0,0,1,.592.251,2.768,2.768,0,0,1,.471.361,2.258,2.258,0,0,1,.624,1.062,3.2,3.2,0,0,1,.019,1.319l-.044.359-.005.047v.006c0-.022-.009.052.007-.044l0,.01,0,.022-.017.089-.036.176a3.9,3.9,0,0,1-.17.632,5.074,5.074,0,0,1-.555,1.106,6.6,6.6,0,0,1-.717.89,8.021,8.021,0,0,1-1.35,1.12c-.358.237-.58.357-.58.357a4.157,4.157,0,0,0,.653-.215,6.773,6.773,0,0,0,1.592-.912,5.453,5.453,0,0,0,.894-.875,4.707,4.707,0,0,0,.74-1.219,4.586,4.586,0,0,0,.24-.717l.045-.172.022-.088.006-.022.012-.07.008-.046.053-.359a3.93,3.93,0,0,0-.016-1.606,3.083,3.083,0,0,0-.878-1.431,4.034,4.034,0,0,0-.323-.263l-.377-.211a3.349,3.349,0,0,0-.722-.255,3.007,3.007,0,0,0-1.478.02,3.247,3.247,0,0,0-1.16.58,3.329,3.329,0,0,0-.724.781,5.1,5.1,0,0,0-.4.7C1519.921,946.709,1519.842,946.948,1519.842,946.948Z" transform="translate(-1519.842 -944.142)" fill="#d68a6a"/>
              </g>
            </g>
            <g id="Group_2434" data-name="Group 2434" transform="translate(0.062 6.787)">
              <g id="Group_2432" data-name="Group 2432">
                <path id="Path_5701" data-name="Path 5701" d="M1522.019,965.724a.994.994,0,1,1-.994-.994A.994.994,0,0,1,1522.019,965.724Z" transform="translate(-1520.031 -964.73)" fill="#fff"/>
              </g>
              <g id="Group_2433" data-name="Group 2433">
                <path id="Path_5702" data-name="Path 5702" d="M1521.264,966.254a.785.785,0,0,1-.786-.788.775.775,0,0,1,.547-.737h0a.993.993,0,1,0,.994.994c0-.024-.006-.048-.007-.071A.776.776,0,0,1,1521.264,966.254Z" transform="translate(-1520.031 -964.73)" fill="#e0e1e3"/>
              </g>
            </g>
          </g>
          <g id="Group_2436" data-name="Group 2436" transform="translate(52.662 44.739)">
            <path id="Path_5703" data-name="Path 5703" d="M1527.241,1084.936c-.063-.093-18.1-25.973-18.1-25.973-.844-3.818,1.058-11.413,1.058-11.413l5.786-39.8c-.686-4.561-1-10.353-7.174-9.316a38.24,38.24,0,0,0-7.9,2.2c.787,3.7-5.593,6.071-5.593,6.071-8.776,3.791-10.8,1.294-10.8,1.294-2.337,1.264-10.235,5.209-12.284,6.9-2.13,1.753-3.418,4.481-2.748,9.074l6.317,37.726-1.111,9.371-11.538,29.254a24.8,24.8,0,0,1,11.242-1.343c3.588.429,6.68,2.545,10.242,2.941,5.384.592,9.38-1.351,13.443-3.927a64.793,64.793,0,0,0,15.561-5.469l.338,0c4.027.022,8.588-.049,11.56-3.2C1526.16,1088.652,1528,1086.03,1527.241,1084.936Z" transform="translate(-1463.147 -998.309)" fill="#3c0e25"/>
          </g>
          <g id="Group_2437" data-name="Group 2437" transform="translate(54.285 61.254)">
            <path id="Path_5704" data-name="Path 5704" d="M1468.07,1108.868l.106-45.827c1.115-12.557,7.352-14.563,7.352-14.563,12.605-1.477,10.664,21.882,10.664,21.882l-5.263,39.48" transform="translate(-1468.07 -1048.411)" fill="#f5916e"/>
          </g>
          <g id="Group_2438" data-name="Group 2438" transform="translate(0 135.451)">
            <path id="Path_5705" data-name="Path 5705" d="M1317.546,1284.816c5.782-3.1,6.3-4.094,7.32-5.549,4.4-6.245-4.491-6.048-6.727-5.54-1.284.293-1.363,3.346-5.346,7.072,0,0-6.258,3.632-7.8,3.375,0,0-1.6.229-1.6,1.385C1303.387,1285.558,1307.782,1288.156,1317.546,1284.816Z" transform="translate(-1303.387 -1273.499)" fill="#f5916e"/>
          </g>
          <g id="Group_2441" data-name="Group 2441" transform="translate(15.335 115.314)">
            <g id="Group_2439" data-name="Group 2439" transform="translate(47.201 0.088)">
              <path id="Path_5706" data-name="Path 5706" d="M1493.1,1212.678" transform="translate(-1493.1 -1212.678)" fill="#f7a67b"/>
            </g>
            <g id="Group_2440" data-name="Group 2440">
              <path id="Path_5707" data-name="Path 5707" d="M1389.807,1213.978l-39.252,21.484c-1.695,4.724.485,5.4.485,5.4l30.39-8.743c12.972-3.473,18.114-8.92,18.114-8.92s5.673-3.93-1.567-9.782C1397.977,1213.42,1394.68,1210.812,1389.807,1213.978Z" transform="translate(-1349.909 -1212.41)" fill="#f5916e"/>
            </g>
          </g>
          <g id="Group_2442" data-name="Group 2442" transform="translate(66.409 0.554)">
            <path id="Path_5708" data-name="Path 5708" d="M1506.307,890.6c1.018,7.6-.128,17.66,3.658,25.967,1.685,3.7,3.545,5.53,2.535,9.821-.827,3.511-2.488,6.823-3.388,10.459-1.989,8.024.713,15.864,10.066,12.959,4.484-1.393,4.985-1.371,9.068.213,3.429,1.327,6.655,1.7,10.063.04,5.286-2.576,3.694-6.467,6.657-10.365,2.257-2.971,5.447-2.9,7.149-6.888,2.053-4.818-.393-7.389-2.894-11.477-2.6-4.258-3.02-7.063-2.163-12.2.72-4.314-.347-6.494-1.774-10.461-1.464-4.064-.826-7.6-1.52-11.68-1.372-8.058-5.776-19-14.218-21.36-4.138-1.158-9.485-2.064-13.465-.6-5.422,1.987-11.46,4.107-11.225,10.774A110.224,110.224,0,0,0,1506.307,890.6Z" transform="translate(-1504.849 -864.267)" fill="#270b09"/>
          </g>
          <path id="Path_5709" data-name="Path 5709" d="M1335.65,1268.284s1.1,3.218-2.9,2.429l-3.921-2.987a1.542,1.542,0,0,1-.787-1.815s.469-.665,1.721,0Z" transform="translate(-1319.851 -1132.763)" fill="#f5916e"/>
        </g>
      </g>
    </g>
  </g>
</svg>
