<svg xmlns="http://www.w3.org/2000/svg" width="605.42" height="491" viewBox="0 0 605.42 491">
  <g id="Group_2535" data-name="Group 2535" transform="translate(-217.766 -390.619)">
    <g id="Group_2486" data-name="Group 2486" transform="translate(425.818 788.92)">
      <path id="Rectangle_2909" data-name="Rectangle 2909" d="M6.786,0h25.52a6.785,6.785,0,0,1,6.785,6.785V7.5a6.786,6.786,0,0,1-6.786,6.786H6.786A6.786,6.786,0,0,1,0,7.5V6.786A6.786,6.786,0,0,1,6.786,0Z" transform="translate(0 19.643)" fill="#9293ff"/>
      <rect id="Rectangle_2910" data-name="Rectangle 2910" width="39.091" height="14.286" rx="6.786" transform="translate(44.355 19.643)" fill="#9293ff"/>
      <path id="Rectangle_2911" data-name="Rectangle 2911" d="M6.786,0h25.52a6.785,6.785,0,0,1,6.785,6.785V7.5a6.786,6.786,0,0,1-6.786,6.786H6.786A6.786,6.786,0,0,1,0,7.5V6.786A6.786,6.786,0,0,1,6.786,0Z" transform="translate(21.861)" fill="#9293ff"/>
    </g>
    <g id="Group_2516" data-name="Group 2516" transform="translate(331.628 390.619)">
      <g id="Group_2494" data-name="Group 2494" transform="translate(27.306 68.343)">
        <g id="Group_2493" data-name="Group 2493">
          <g id="Group_2487" data-name="Group 2487">
            <path id="Path_5854" data-name="Path 5854" d="M903.97,580.506a8.89,8.89,0,0,0-8.89-8.89H599.2a8.889,8.889,0,0,0-8.889,8.89v7.288H903.97Z" transform="translate(-589.844 -571.146)" fill="#fff"/>
            <path id="Path_5855" data-name="Path 5855" d="M903.673,587.5h-314.6v-7.758a9.37,9.37,0,0,1,9.359-9.36H894.314a9.37,9.37,0,0,1,9.359,9.36Zm-313.656-.94H902.733v-6.818a8.429,8.429,0,0,0-8.419-8.419H598.436a8.429,8.429,0,0,0-8.419,8.419Z" transform="translate(-589.077 -570.379)" fill="#5254cf"/>
          </g>
          <g id="Group_2488" data-name="Group 2488" transform="translate(0 16.177)">
            <path id="Path_5856" data-name="Path 5856" d="M590.314,614.167V802.921a8.889,8.889,0,0,0,8.889,8.889H895.08a8.889,8.889,0,0,0,8.89-8.889V614.167Z" transform="translate(-589.844 -613.697)" fill="#fff"/>
            <path id="Path_5857" data-name="Path 5857" d="M894.314,811.514H598.436a9.37,9.37,0,0,1-9.359-9.359V612.93h314.6V802.155A9.37,9.37,0,0,1,894.314,811.514ZM590.017,613.87V802.155a8.429,8.429,0,0,0,8.419,8.419H894.314a8.429,8.429,0,0,0,8.419-8.419V613.87Z" transform="translate(-589.077 -612.93)" fill="#5254cf"/>
          </g>
          <g id="Group_2492" data-name="Group 2492" transform="translate(12.034 4.915)">
            <g id="Group_2489" data-name="Group 2489">
              <circle id="Ellipse_107" data-name="Ellipse 107" cx="3.168" cy="3.168" r="3.168" transform="translate(0.204 0.773) rotate(-5.152)" fill="#fff"/>
              <path id="Path_5858" data-name="Path 5858" d="M624.374,590.595a3.643,3.643,0,1,1,3.643-3.643A3.648,3.648,0,0,1,624.374,590.595Zm0-6.337a2.693,2.693,0,1,0,2.693,2.693A2.7,2.7,0,0,0,624.374,584.258Z" transform="translate(-620.73 -583.308)" fill="#5254cf"/>
            </g>
            <g id="Group_2490" data-name="Group 2490" transform="translate(12.356)">
              <circle id="Ellipse_108" data-name="Ellipse 108" cx="3.168" cy="3.168" r="3.168" transform="translate(0.204 0.773) rotate(-5.152)" fill="#fff"/>
              <path id="Path_5859" data-name="Path 5859" d="M656.874,590.595a3.643,3.643,0,1,1,3.643-3.643A3.648,3.648,0,0,1,656.874,590.595Zm0-6.337a2.693,2.693,0,1,0,2.693,2.693A2.7,2.7,0,0,0,656.874,584.258Z" transform="translate(-653.23 -583.308)" fill="#5254cf"/>
            </g>
            <g id="Group_2491" data-name="Group 2491" transform="translate(24.712)">
              <circle id="Ellipse_109" data-name="Ellipse 109" cx="3.168" cy="3.168" r="3.168" transform="translate(0.204 0.773) rotate(-5.152)" fill="#fff"/>
              <path id="Path_5860" data-name="Path 5860" d="M689.374,590.595a3.643,3.643,0,1,1,3.643-3.643A3.648,3.648,0,0,1,689.374,590.595Zm0-6.337a2.693,2.693,0,1,0,2.693,2.693A2.7,2.7,0,0,0,689.374,584.258Z" transform="translate(-685.73 -583.308)" fill="#5254cf"/>
            </g>
          </g>
        </g>
        <rect id="Rectangle_2912" data-name="Rectangle 2912" width="248.274" height="149.04" transform="translate(33.161 37.229)" fill="#e0e0ff" opacity="0.4"/>
      </g>
      <g id="Group_2502" data-name="Group 2502" transform="translate(97.789 40.037)">
        <path id="Path_5861" data-name="Path 5861" d="M984.927,988.556H903.87c-2.994-27.991-3.764-53.084-1.084-69.765a56.342,56.342,0,0,1,2.975-11.643l34.131-6.948,39.682,3.555C986.248,921.015,987.293,952.048,984.927,988.556Z" transform="translate(-852.983 -746.5)" fill="#ffb147"/>
        <rect id="Rectangle_2913" data-name="Rectangle 2913" width="0.95" height="32.316" transform="translate(88.954 161.465)" fill="#1b1b43"/>
        <path id="Path_5862" data-name="Path 5862" d="M982.253,903.755s-31.955,22.412-76.789,15.036a56.342,56.342,0,0,1,2.975-11.643L942.57,900.2Z" transform="translate(-855.66 -746.5)" fill="#1b1b43" opacity="0.2"/>
        <path id="Path_5863" data-name="Path 5863" d="M940.749,574.113s-15.393,19.629-11.687,36.307l54.076-2.256s.463-32.661-11.35-35.44Z" transform="translate(-869.93 -543.526)" fill="#1b1b43"/>
        <path id="Path_5864" data-name="Path 5864" d="M1063.356,608.6h-.95c0-21.4-11.128-31.225-11.24-31.322l.62-.72C1051.9,576.653,1063.356,586.769,1063.356,608.6Z" transform="translate(-945.967 -545.9)" fill="#1b1b43"/>
        <g id="Group_2497" data-name="Group 2497" transform="translate(0 53.842)">
          <path id="Path_5865" data-name="Path 5865" d="M832.121,816.1a20.262,20.262,0,0,1-12.613,18.116,18.878,18.878,0,0,1-4.03,1.141,53.332,53.332,0,0,1-9,.684c-17.489,0-30.187-13.283-31.689-17.332s2.732-2.614,2.732-2.614c1.545-3.446,4.985-.67,4.985-.67,1.036-3.593,4.287-.238,4.287-.238s.114-1.968,1.967-1.853c1.141.076,4.876,2.348,7.575,4.078a8.558,8.558,0,0,0,4.6,1.34,8.286,8.286,0,0,0,1.929-.219,8.544,8.544,0,0,0,6.482-6.777l5.237-28.533h12.394l3.973,5.095C832.511,794.6,832.416,807.472,832.121,816.1Z" transform="translate(-774.466 -727.84)" fill="#ffbc96"/>
          <path id="Path_5866" data-name="Path 5866" d="M903.181,885.58A20.09,20.09,0,0,1,891.823,897.3a8.884,8.884,0,0,1,11.358-11.719Z" transform="translate(-846.781 -790.921)" fill="#fe5b52" opacity="0.4"/>
          <path id="Path_5867" data-name="Path 5867" d="M913.233,639.445l-25.488,5.194a24.006,24.006,0,0,0-18.694,18.555l-6.932,32.77,23.163,3.243Z" transform="translate(-828.794 -638.723)" fill="#5254cf"/>
          <path id="Path_5868" data-name="Path 5868" d="M1019.917,639.445l25.488,5.194a24.006,24.006,0,0,1,18.694,18.555l3.149,23.273-22.468,3.938Z" transform="translate(-926.599 -638.723)" fill="#5254cf"/>
          <path id="Path_5869" data-name="Path 5869" d="M917,699.206s-1.235,37.37-3.706,46.327c0,0,34.591,12.045,73.814-3.4l-3.089-68.872-30.19-33.818h-8.879l-30.112,39.069Z" transform="translate(-860.515 -638.723)" fill="#5254cf"/>
          <path id="Path_5870" data-name="Path 5870" d="M1135.075,639.193c.143,2.443-3.878,9.837-6.967,15.132a32.861,32.861,0,0,0-4.258,12.689c-3.983,33.457-6.615,61.448-18.259,69.289a13.375,13.375,0,0,1-9.657,2.034,12.3,12.3,0,0,1-6.663-3.051c-12.261-10.911-6.311-46.06-6.311-46.06l15.208-2.623s3.4-28.723,5.56-38.608,5.56-4.629,5.56-4.629c1.236-3.089,4.629-1.236,4.629-1.236,2.471-4.011,5.56-.931,5.56-.931,1.853-3.7,7.11,2.785,7.11,2.785C1129.981,642.434,1134.771,634.06,1135.075,639.193Z" transform="translate(-964.78 -637.547)" fill="#ffbc96"/>
          <rect id="Rectangle_2914" data-name="Rectangle 2914" width="31.389" height="0.95" transform="translate(56.013 60.46) rotate(-87.267)" fill="#1b1b43"/>
          <path id="Path_5871" data-name="Path 5871" d="M1081.008,734.116l-1.941-24.972.948-.074,1.86,23.931,14.7-2.536.162.937Z" transform="translate(-963.261 -681.878)" fill="#1b1b43"/>
          <rect id="Rectangle_2915" data-name="Rectangle 2915" width="53.053" height="0.951" transform="translate(129.593 75.007) rotate(-82.457)" fill="#d28572"/>
          <path id="Path_5872" data-name="Path 5872" d="M1118.234,887.615a13.375,13.375,0,0,1-9.657,2.034,12.3,12.3,0,0,1-6.663-3.051,8.873,8.873,0,0,1,16.32,1.017Z" transform="translate(-977.422 -788.86)" fill="#fe5b52" opacity="0.4"/>
          <g id="Group_2495" data-name="Group 2495" transform="translate(144.039 3.045)">
            <rect id="Rectangle_2916" data-name="Rectangle 2916" width="0.95" height="5.756" transform="matrix(0.988, -0.153, 0.153, 0.988, 0, 2.846)" fill="#d28572"/>
            <rect id="Rectangle_2917" data-name="Rectangle 2917" width="0.95" height="5.863" transform="translate(4.771 1.733) rotate(-18.185)" fill="#d28572"/>
            <rect id="Rectangle_2918" data-name="Rectangle 2918" width="0.951" height="6.164" transform="matrix(0.942, -0.335, 0.335, 0.942, 10.239, 0.319)" fill="#d28572"/>
          </g>
          <rect id="Rectangle_2919" data-name="Rectangle 2919" width="11.049" height="3.445" rx="1.505" transform="translate(98.102 25.288)" fill="#cbcbff"/>
          <path id="Path_5873" data-name="Path 5873" d="M988.087,677.11a18.114,18.114,0,0,1-11.111-4.042l.636-.706c.39.351,9.677,8.5,20.94-.026l.573.758A18.052,18.052,0,0,1,988.087,677.11Z" transform="translate(-899.984 -659.11)" fill="#1b1b43"/>
          <g id="Group_2496" data-name="Group 2496" transform="translate(2.298 86.872)">
            <path id="Path_5874" data-name="Path 5874" d="M811.678,871.555a17.7,17.7,0,0,1-6.361-4.879l.71-.632a16.775,16.775,0,0,0,6,4.625Z" transform="translate(-795.886 -866.044)" fill="#d28572"/>
            <path id="Path_5875" data-name="Path 5875" d="M799.179,873.466a16.3,16.3,0,0,1-5.271-6.112l.831-.462a15.4,15.4,0,0,0,4.947,5.769Z" transform="translate(-788.815 -866.57)" fill="#d28572"/>
            <path id="Path_5876" data-name="Path 5876" d="M787.043,875.96a27.393,27.393,0,0,1-6.532-7.372l.8-.513a26.477,26.477,0,0,0,6.3,7.123Z" transform="translate(-780.511 -867.303)" fill="#d28572"/>
          </g>
        </g>
        <g id="Group_2501" data-name="Group 2501" transform="translate(65.994)">
          <path id="Rectangle_2920" data-name="Rectangle 2920" d="M0,0H19.3a0,0,0,0,1,0,0V16.292a9.651,9.651,0,0,1-9.651,9.651h0A9.651,9.651,0,0,1,0,16.292V0A0,0,0,0,1,0,0Z" transform="translate(12.428 39.739)" fill="#ffbc96"/>
          <path id="Path_5877" data-name="Path 5877" d="M980.73,604.792c5.967,10.028,12.372,10.852,19.326.079Z" transform="translate(-968.305 -563.403)" fill="#d28572"/>
          <path id="Rectangle_2921" data-name="Rectangle 2921" d="M0,0H26.778a0,0,0,0,1,0,0V22.586A13.389,13.389,0,0,1,13.389,35.975h0A13.389,13.389,0,0,1,0,22.586V0A0,0,0,0,1,0,0Z" transform="translate(8.69 9.555)" fill="#ffbc96"/>
          <path id="Path_5878" data-name="Path 5878" d="M1002.355,568.7c-1.565-1.479-2.154-2.647-1.8-3.572a2.486,2.486,0,0,1,2.07-1.261l-.033-2.919.95-.011.044,3.827-.468.012c-.465.013-1.488.2-1.676.693-.09.235-.116.952,1.565,2.54Z" transform="translate(-980.532 -536.222)" fill="#1b1b43"/>
          <g id="Group_2498" data-name="Group 2498" transform="translate(17.595 33.716)">
            <path id="Path_5879" data-name="Path 5879" d="M1003.57,586.288a9.238,9.238,0,0,0,.873-1.677c-3.243.27-10.115.27-10.115.27a6.312,6.312,0,0,0,.77,1.693A51.944,51.944,0,0,0,1003.57,586.288Z" transform="translate(-994.329 -584.611)" fill="#fff"/>
            <path id="Path_5880" data-name="Path 5880" d="M996.353,589.308a4.938,4.938,0,0,0,4.133,2.4,5.154,5.154,0,0,0,4.339-2.686A51.934,51.934,0,0,1,996.353,589.308Z" transform="translate(-995.584 -587.345)" fill="#1b1b43"/>
          </g>
          <path id="Path_5881" data-name="Path 5881" d="M988.808,519.693c.012.514.475-10.693-16.99-13.069,0,0-9.861,5.643-8.733,13.782l-5.356-1.012c-2.07-5.642-1.357-20.731,10.762-19.661,0,0,2.613-3.732,6.891-3.8,21.742-.357,18.308,23.752,17.787,24.447Z" transform="translate(-953.492 -495.928)" fill="#1b1b43"/>
          <g id="Group_2499" data-name="Group 2499" transform="translate(31.045 20.259)">
            <ellipse id="Ellipse_110" data-name="Ellipse 110" cx="5.916" cy="4.906" rx="5.916" ry="4.906" transform="translate(0 11.237) rotate(-71.747)" fill="#ffbc96"/>
            <path id="Path_5882" data-name="Path 5882" d="M1043.483,565.82l-.943-.118c.164-1.311,1.1-3.826,3.493-3.967l.056.949C1043.884,562.814,1043.487,565.79,1043.483,565.82Z" transform="translate(-1037.661 -556.975)" fill="#1b1b43"/>
          </g>
          <g id="Group_2500" data-name="Group 2500" transform="translate(0 20.259)">
            <ellipse id="Ellipse_111" data-name="Ellipse 111" cx="4.906" cy="5.916" rx="4.906" ry="5.916" transform="matrix(0.95, -0.313, 0.313, 0.95, 0, 3.073)" fill="#ffbc96"/>
            <path id="Path_5883" data-name="Path 5883" d="M962.743,565.821c-.016-.123-.411-3.008-2.606-3.137l.056-.949c2.389.141,3.33,2.656,3.494,3.967Z" transform="translate(-955.541 -556.975)" fill="#1b1b43"/>
          </g>
          <path id="Path_5884" data-name="Path 5884" d="M1019.58,551.091a1.447,1.447,0,1,1-1.443-1.552A1.5,1.5,0,0,1,1019.58,551.091Z" transform="translate(-990.597 -529.157)" fill="#1b1b43"/>
          <rect id="Rectangle_2922" data-name="Rectangle 2922" width="6.022" height="1.751" rx="0.875" transform="matrix(0.993, 0.119, -0.119, 0.993, 25.119, 16.171)" fill="#1b1b43"/>
          <path id="Path_5885" data-name="Path 5885" d="M987.728,551.091a1.446,1.446,0,1,0,1.442-1.552A1.5,1.5,0,0,0,987.728,551.091Z" transform="translate(-972.643 -529.157)" fill="#1b1b43"/>
          <rect id="Rectangle_2923" data-name="Rectangle 2923" width="6.022" height="1.751" rx="0.875" transform="translate(19.16 17.91) rotate(173.137)" fill="#1b1b43"/>
          <circle id="Ellipse_112" data-name="Ellipse 112" cx="3.11" cy="3.11" r="3.11" transform="translate(27.126 24.953)" fill="#fe5b52" opacity="0.4"/>
          <circle id="Ellipse_113" data-name="Ellipse 113" cx="3.11" cy="3.11" r="3.11" transform="translate(10.723 24.953)" fill="#fe5b52" opacity="0.4"/>
        </g>
      </g>
      <g id="Group_2505" data-name="Group 2505" transform="translate(0 119.171)">
        <g id="Group_2503" data-name="Group 2503">
          <rect id="Rectangle_2924" data-name="Rectangle 2924" width="102.384" height="47.736" rx="12.588" transform="translate(0.457 0.457)" fill="#fff"/>
          <path id="Path_5886" data-name="Path 5886" d="M615.31,752.722H522.5a5.249,5.249,0,0,1-5.243-5.243V709.314a5.249,5.249,0,0,1,5.243-5.243H615.31a5.249,5.249,0,0,1,5.243,5.243v38.165A5.249,5.249,0,0,1,615.31,752.722ZM522.5,704.985a4.333,4.333,0,0,0-4.328,4.328v38.165a4.333,4.333,0,0,0,4.328,4.328H615.31a4.333,4.333,0,0,0,4.328-4.328V709.314a4.333,4.333,0,0,0-4.328-4.328Z" transform="translate(-517.255 -704.071)" fill="#5254cf"/>
        </g>
        <g id="Group_2504" data-name="Group 2504" transform="translate(11.848 12.207)">
          <rect id="Rectangle_2925" data-name="Rectangle 2925" width="79.602" height="0.95" fill="#e0e0ff"/>
          <rect id="Rectangle_2926" data-name="Rectangle 2926" width="79.602" height="0.95" transform="translate(0 11.643)" fill="#e0e0ff"/>
          <rect id="Rectangle_2927" data-name="Rectangle 2927" width="79.602" height="0.95" transform="translate(0 23.287)" fill="#e0e0ff"/>
        </g>
        <path id="Path_5887" data-name="Path 5887" d="M550.7,752.356l-.745-.591,5.674-7.154,9.767,3.335,8.408-9.129,8.549,6.887L592.4,734.47l9.1,10.5,8.133-21.051,8.438,13.26,9.81-14.145.781.542L618.035,738.9l-8.2-12.878-8.025,20.77-9.431-10.882-9.921,11.1-8.559-6.9-8.225,8.93-9.718-3.318Z" transform="translate(-537.525 -715.827)" fill="#5254cf"/>
      </g>
      <g id="Group_2508" data-name="Group 2508" transform="translate(231.969)">
        <g id="Group_2506" data-name="Group 2506" transform="translate(0 0.235)">
          <path id="Path_5888" data-name="Path 5888" d="M1165.994,429.688l-4.582-37.057a37.343,37.343,0,1,0,41.929,37.057c0-1.092-.057-2.17-.149-3.238Z" transform="translate(-1128.171 -392.101)" fill="#fff"/>
          <path id="Path_5889" data-name="Path 5889" d="M1165.218,466.647a37.818,37.818,0,0,1-4.64-75.351l.471-.058,4.584,37.074,37.216-3.24.041.474c.1,1.178.15,2.25.15,3.279A37.865,37.865,0,0,1,1165.218,466.647Zm-4.995-74.347a36.868,36.868,0,1,0,41.866,36.525c0-.862-.035-1.757-.108-2.723l-37.179,3.237Z" transform="translate(-1127.396 -391.238)" fill="#5254cf"/>
        </g>
        <path id="Path_5890" data-name="Path 5890" d="M1278.129,434.272l37.2-3.238a37.138,37.138,0,0,0-7.009-18.739Z" transform="translate(-1220.822 -404.053)" fill="#9192ff"/>
        <g id="Group_2507" data-name="Group 2507" transform="translate(32.71)">
          <path id="Path_5891" data-name="Path 5891" d="M1249.6,407.238a37.229,37.229,0,0,0-34.771-15.079l4.582,37.057Z" transform="translate(-1214.297 -391.394)" fill="#e0e0ff"/>
          <path id="Path_5892" data-name="Path 5892" d="M1218.172,429.3l-4.739-38.33.472-.058a37.7,37.7,0,0,1,35.213,15.271l.28.384Zm-3.679-37.5,4.424,35.781,29.149-21.221a37.017,37.017,0,0,0-29.522-14.791A36.389,36.389,0,0,0,1214.493,391.8Z" transform="translate(-1213.433 -390.619)" fill="#5254cf"/>
        </g>
      </g>
      <g id="Group_2512" data-name="Group 2512" transform="translate(288.937 143.955)">
        <g id="Group_2509" data-name="Group 2509">
          <rect id="Rectangle_2928" data-name="Rectangle 2928" width="80.018" height="86.642" rx="15.512" transform="translate(0.456 0.456)" fill="#fff"/>
          <path id="Path_5893" data-name="Path 5893" d="M1351.814,856.815h-68.222a6.361,6.361,0,0,1-6.354-6.354V775.614a6.361,6.361,0,0,1,6.354-6.354h68.222a6.361,6.361,0,0,1,6.354,6.354v74.847A6.361,6.361,0,0,1,1351.814,856.815Zm-68.222-86.642a5.447,5.447,0,0,0-5.441,5.441v74.847a5.447,5.447,0,0,0,5.441,5.441h68.222a5.447,5.447,0,0,0,5.441-5.441V775.614a5.447,5.447,0,0,0-5.441-5.441Z" transform="translate(-1277.238 -769.26)" fill="#5254cf"/>
        </g>
        <g id="Group_2510" data-name="Group 2510" transform="translate(9.575 12.862)">
          <rect id="Rectangle_2929" data-name="Rectangle 2929" width="61.781" height="1.001" fill="#e0e0ff"/>
          <rect id="Rectangle_2930" data-name="Rectangle 2930" width="61.781" height="1.001" transform="translate(0 15.208)" fill="#e0e0ff"/>
          <rect id="Rectangle_2931" data-name="Rectangle 2931" width="61.781" height="1.001" transform="translate(0 30.415)" fill="#e0e0ff"/>
          <rect id="Rectangle_2932" data-name="Rectangle 2932" width="61.781" height="1.001" transform="translate(0 45.623)" fill="#e0e0ff"/>
          <rect id="Rectangle_2933" data-name="Rectangle 2933" width="61.781" height="1.001" transform="translate(0 60.83)" fill="#e0e0ff"/>
        </g>
        <g id="Group_2511" data-name="Group 2511" transform="translate(9.575 16.697)">
          <rect id="Rectangle_2934" data-name="Rectangle 2934" width="5.262" height="41.393" transform="translate(0 16.603)" fill="#cbcbff"/>
          <rect id="Rectangle_2935" data-name="Rectangle 2935" width="5.262" height="26.012" transform="translate(11.44 31.984)" fill="#e0e0ff"/>
          <rect id="Rectangle_2936" data-name="Rectangle 2936" width="5.262" height="35.568" transform="translate(22.88 22.427)" fill="#cbcbff"/>
          <rect id="Rectangle_2937" data-name="Rectangle 2937" width="5.262" height="41.99" transform="translate(34.32 16.006)" fill="#e0e0ff"/>
          <rect id="Rectangle_2938" data-name="Rectangle 2938" width="5.262" height="49.741" transform="translate(45.759 8.254)" fill="#cbcbff"/>
          <rect id="Rectangle_2939" data-name="Rectangle 2939" width="5.262" height="57.996" transform="translate(57.199)" fill="#e0e0ff"/>
        </g>
      </g>
      <g id="Group_2515" data-name="Group 2515" transform="translate(83.658 5.444)">
        <g id="Group_2513" data-name="Group 2513">
          <path id="Path_5894" data-name="Path 5894" d="M790.749,406.25h-46.6a5.538,5.538,0,0,0-5.538,5.538v18.863a5.538,5.538,0,0,0,5.538,5.538h31.824l12.235,10.455V436.19h2.541a5.538,5.538,0,0,0,5.538-5.538V411.788A5.538,5.538,0,0,0,790.749,406.25Z" transform="translate(-738.112 -405.751)" fill="#fff"/>
          <path id="Path_5895" data-name="Path 5895" d="M787.893,446.914l-12.918-11.039H743.335a6.044,6.044,0,0,1-6.037-6.037V410.974a6.044,6.044,0,0,1,6.037-6.037h46.6a6.044,6.044,0,0,1,6.037,6.037v18.863a6.044,6.044,0,0,1-6.037,6.037h-2.042Zm-44.557-40.979a5.045,5.045,0,0,0-5.039,5.039v18.863a5.045,5.045,0,0,0,5.039,5.039h32.008l11.551,9.871v-9.871h3.04a5.045,5.045,0,0,0,5.039-5.039V410.974a5.045,5.045,0,0,0-5.039-5.039Z" transform="translate(-737.298 -404.937)" fill="#5254cf"/>
        </g>
        <g id="Group_2514" data-name="Group 2514" transform="translate(7.562 8.103)">
          <rect id="Rectangle_2940" data-name="Rectangle 2940" width="37.306" height="0.95" fill="#9192ff"/>
          <rect id="Rectangle_2941" data-name="Rectangle 2941" width="42.296" height="0.95" transform="translate(0 6.416)" fill="#9192ff"/>
          <rect id="Rectangle_2942" data-name="Rectangle 2942" width="29.702" height="0.95" transform="translate(0 12.831)" fill="#9192ff"/>
        </g>
      </g>
    </g>
    <g id="Group_2517" data-name="Group 2517" transform="translate(367.137 714.019)">
      <rect id="Rectangle_2943" data-name="Rectangle 2943" width="13.307" height="161.58" transform="translate(75.05 5.509)" fill="#b0b0d2"/>
      <rect id="Rectangle_2944" data-name="Rectangle 2944" width="13.307" height="161.58" transform="translate(210.493 5.509)" fill="#b0b0d2"/>
      <rect id="Rectangle_2945" data-name="Rectangle 2945" width="13.307" height="28.481" transform="translate(75.05 5.067)" fill="#1b1b43" opacity="0.3"/>
      <rect id="Rectangle_2946" data-name="Rectangle 2946" width="13.307" height="28.481" transform="translate(210.493 5.067)" fill="#1b1b43" opacity="0.3"/>
      <rect id="Rectangle_2947" data-name="Rectangle 2947" width="298.85" height="13.39" fill="#b0b0d2"/>
    </g>
    <g id="Group_2518" data-name="Group 2518" transform="translate(575.677 656.976)">
      <rect id="Rectangle_2948" data-name="Rectangle 2948" width="34.608" height="4.589" transform="translate(20.556 52.47)" fill="#1b1b43"/>
      <path id="Path_5896" data-name="Path 5896" d="M1184.845,1148.269h-5.12l-20.4-53.817a2.394,2.394,0,0,1,2.238-3.242h0a2.393,2.393,0,0,1,2.238,1.546Z" transform="translate(-1159.169 -1091.21)" fill="#1b1b43"/>
    </g>
    <g id="Group_2519" data-name="Group 2519" transform="translate(410.171 656.976)">
      <rect id="Rectangle_2949" data-name="Rectangle 2949" width="34.608" height="4.589" transform="translate(34.608 57.059) rotate(180)" fill="#1b1b43"/>
      <path id="Path_5897" data-name="Path 5897" d="M801.4,1148.269h5.12l20.4-53.817a2.394,2.394,0,0,0-2.239-3.242h0a2.393,2.393,0,0,0-2.239,1.546Z" transform="translate(-771.916 -1091.21)" fill="#1b1b43"/>
    </g>
    <g id="Group_2526" data-name="Group 2526" transform="translate(251.347 600.974)">
      <g id="Group_2523" data-name="Group 2523" transform="translate(36.733)">
        <g id="Group_2520" data-name="Group 2520" transform="translate(37.478)">
          <path id="Path_5898" data-name="Path 5898" d="M544.891,1031.223l18.88,3.035.208-10.345.2-10.3.173-8.8-5.236-2.472-8.971,10.511Z" transform="translate(-528.313 -980.125)" fill="#d28572"/>
          <path id="Path_5899" data-name="Path 5899" d="M574.81,1031.714a44.212,44.212,0,0,0,7.713,10.406l.2-10.3Z" transform="translate(-546.857 -998.332)" fill="#925d4f"/>
          <path id="Path_5900" data-name="Path 5900" d="M626.005,998.224c.219.124,5.978,8.942,3.391,9.739a17.742,17.742,0,0,1-5.854.491Z" transform="translate(-577.062 -977.574)" fill="#925d4f"/>
          <path id="Path_5901" data-name="Path 5901" d="M594.706,972.579,592.325,994.5a5.012,5.012,0,0,1-3.165,4.13h0a5.012,5.012,0,0,1-3.775-.057l-13.567-5.756-1.83-12.358,10.983-11.5Z" transform="translate(-543.868 -959.431)" fill="#d28572"/>
          <path id="Path_5902" data-name="Path 5902" d="M538.578,1046.667l-6.495,14.415,25.188,3.96,1.742-11.247Z" transform="translate(-520.375 -1007.6)" fill="#fed3d1"/>
          <path id="Path_5903" data-name="Path 5903" d="M536.034,964.906s11.136-1.879,16.091-7.848c0,0,1.837-11.543-15.143-13.072-18.422-1.659-35.7,24.406-35.7,24.406l22.5,19.656Z" transform="translate(-501.287 -943.91)" fill="#1b1b43"/>
          <ellipse id="Ellipse_114" data-name="Ellipse 114" cx="3.848" cy="5.017" rx="3.848" ry="5.017" transform="translate(28.311 19.288) rotate(-27.211)" fill="#d28572"/>
          <path id="Path_5904" data-name="Path 5904" d="M588.677,1000.324a4.336,4.336,0,0,0-1.27-2.572,1.286,1.286,0,0,0-1.066-.182l-.209-.928a2.223,2.223,0,0,1,1.815.327c1.322.91,1.657,3.123,1.67,3.216Z" transform="translate(-553.875 -976.554)" fill="#1b1b43"/>
          <circle id="Ellipse_115" data-name="Ellipse 115" cx="3.683" cy="3.683" r="3.683" transform="translate(39.134 22.81)" fill="#be443d" opacity="0.3"/>
        </g>
        <g id="Group_2521" data-name="Group 2521" transform="translate(5.623 48.266)">
          <path id="Path_5905" data-name="Path 5905" d="M494.469,1108.4a18.557,18.557,0,0,1-10.759,12.4c-.323.133-.646.257-.979.38s-.637.238-.95.352a35.873,35.873,0,0,0-21.291,22.83c-.181.608-.333,1.188-.456,1.73A73.965,73.965,0,0,1,417.5,1137.3s11.786-41.811,37.8-61.7a23.234,23.234,0,0,1,21.138-3.64,31.1,31.1,0,0,1,15.749,11.339l.466.646,2.3,16.785A19.4,19.4,0,0,1,494.469,1108.4Z" transform="translate(-417.5 -1070.862)" fill="#fe5b52"/>
          <path id="Path_5906" data-name="Path 5906" d="M589.5,1156.94a18.557,18.557,0,0,1-10.759,12.4c-.323.133-.646.257-.979.38s-.637.238-.95.352c-3.289-8.069-5.988-20.9-5.988-20.9l15.844,2.1Z" transform="translate(-512.532 -1119.401)" fill="#be443d"/>
          <path id="Path_5907" data-name="Path 5907" d="M710,1099.938s13.917-14.877,18.3-13.782c1.9.475-3.8,6.416-3.8,6.416s5.439.1,14.158-4.4a1.838,1.838,0,0,1,2.541.918h0a1.834,1.834,0,0,1-.267,1.86c-1.846,2.287-7.346,8.442-15.006,11.123l-3.251,4.2-8.155,3.878Z" transform="translate(-598.795 -1080.306)" fill="#d28572"/>
          <path id="Path_5908" data-name="Path 5908" d="M636.407,1118.163l-18.2,32.449a12.754,12.754,0,0,1-20.777,2.1l-26.6-30.748,16.861-16.69,18.468,25.32,17.584-18.772Z" transform="translate(-512.532 -1092.191)" fill="#fe5b52"/>
          <path id="Path_5909" data-name="Path 5909" d="M624.462,1125.488c-10.677-16.668-24.855-36.4-32.462-42.9l.618-.723c8.777,7.505,24.65,30.632,32.645,43.114Z" transform="translate(-525.657 -1077.68)" fill="#1b1b43"/>
          <path id="Path_5910" data-name="Path 5910" d="M606.949,1178.666a12.642,12.642,0,0,1-6-1.639c-5.823-3.145-30.061-32.863-31.09-34.126l.737-.6c.251.307,25.146,30.833,30.8,33.89,6.437,3.477,10.806.316,12.837-1.877,3.236-3.495,20.979-35.423,21.157-35.745l.831.461c-.733,1.32-17.978,32.352-21.291,35.93A10.733,10.733,0,0,1,606.949,1178.666Z" transform="translate(-511.932 -1112.827)" fill="#1b1b43"/>
        </g>
        <g id="Group_2522" data-name="Group 2522" transform="translate(0 114.709)">
          <path id="Path_5911" data-name="Path 5911" d="M562.027,1579.661l-16.391,32.323,3.581.507,5.943-8.438,18.63,13.152,10.923-.046s2.216-2.2-3.457-8.1a35.921,35.921,0,0,1-10.31-25.511l.015-.818-4.468-4.558Z" transform="translate(-491.297 -1451.744)" fill="#1b1b43"/>
          <path id="Path_5912" data-name="Path 5912" d="M584.658,1593.96l-3.616,27.387h3.616l4.7-9.188,17.358,8.834h13.742s1.887-2.488-4.558-7.532a35.917,35.917,0,0,1-13.785-23.813l-.1-.812-5.063-3.887Z" transform="translate(-513.242 -1455.942)" fill="#393a8f"/>
          <path id="Path_5913" data-name="Path 5913" d="M629.872,1424.179l25.44-89.457a15.413,15.413,0,0,0-8.144-18.106l-22.91-11.019L622.893,1411.8Z" transform="translate(-539.182 -1282.796)" fill="#1b1b43"/>
          <path id="Path_5914" data-name="Path 5914" d="M408.333,1245.625l-5.125,24.4a22.927,22.927,0,0,0,22.438,27.64H473.6c-4.8,23.443-1.68,55.689,0,88.869l19.8.475,13.659-85.28a30.465,30.465,0,0,0-19.274-33.3l-36.919-14.009Z" transform="translate(-402.71 -1245.625)" fill="#5254cf"/>
          <path id="Path_5915" data-name="Path 5915" d="M537.059,1396.224l-.943-.123c.1-.8,10.413-80.567,7.609-95.213-2.9-15.133-32.072-19.5-47.746-21.848-1.395-.209-2.678-.4-3.822-.583-3.926-.625-6.719-2.32-8.3-5.038-3.121-5.361-.423-12.714-.306-13.023l.89.333c-.027.072-2.655,7.247.239,12.215,1.432,2.458,4,4,7.628,4.575,1.141.181,2.421.373,3.813.581,15.906,2.382,45.514,6.815,48.538,22.61,1.191,6.221.274,24.189-2.727,53.4C539.7,1375.847,537.085,1396.022,537.059,1396.224Z" transform="translate(-452.076 -1254.78)" fill="#fff" opacity="0.4"/>
        </g>
      </g>
      <g id="Group_2525" data-name="Group 2525" transform="translate(0 98.016)">
        <g id="Group_2524" data-name="Group 2524" transform="translate(27.681 72.59)">
          <path id="Path_5916" data-name="Path 5916" d="M404.468,1392.65l-3.279,18.952-15.692,90.7h-6.6l15.692-90.7,3.279-18.952Z" transform="translate(-378.9 -1392.65)" fill="#b0b0d2"/>
          <path id="Path_5917" data-name="Path 5917" d="M519.468,1502.306h-6.6l-15.692-90.7L493.9,1392.65h6.6l3.279,18.952Z" transform="translate(-450.178 -1392.65)" fill="#b0b0d2"/>
          <path id="Path_5918" data-name="Path 5918" d="M430.05,1392.65l-3.279,18.952h-6.6l3.279-18.952Z" transform="translate(-404.483 -1392.65)" fill="#1b1b43" opacity="0.3"/>
          <path id="Path_5919" data-name="Path 5919" d="M503.775,1411.6h-6.6L493.9,1392.65h6.6Z" transform="translate(-450.178 -1392.65)" fill="#1b1b43" opacity="0.3"/>
        </g>
        <path id="Path_5920" data-name="Path 5920" d="M446.022,1391.529H384.295V1382.5h61.727a4.515,4.515,0,0,1,4.515,4.515h0A4.515,4.515,0,0,1,446.022,1391.529Z" transform="translate(-354.563 -1313.769)" fill="#cbcbff"/>
        <path id="Path_5921" data-name="Path 5921" d="M344.537,1279.479h-8.713L306.4,1207.341a4.08,4.08,0,0,1,2.039-5.232h0a4.08,4.08,0,0,1,5.518,2.154Z" transform="translate(-306.092 -1201.718)" fill="#cbcbff"/>
      </g>
    </g>
    <g id="Group_2534" data-name="Group 2534" transform="translate(585.146 601.813)">
      <g id="Group_2530" data-name="Group 2530" transform="translate(0 0)">
        <g id="Group_2527" data-name="Group 2527" transform="translate(96.531)">
          <path id="Path_5922" data-name="Path 5922" d="M1454.587,996.588c-.224.113-6.329,8.624-3.793,9.53a17.656,17.656,0,0,0,5.8.743Z" transform="translate(-1445.54 -977.399)" fill="#d28572"/>
          <path id="Path_5923" data-name="Path 5923" d="M1509.726,1032.227l-20.334,2.407.376-10.308.383-10.261.324-8.773,5.734-2.291,8.97,10.758Z" transform="translate(-1469.845 -981.374)" fill="#ffbc96"/>
          <path id="Path_5924" data-name="Path 5924" d="M1499.219,1032.251a46.028,46.028,0,0,1-8.837,10.111l.383-10.261Z" transform="translate(-1470.459 -999.41)" fill="#d28572"/>
          <path id="Path_5925" data-name="Path 5925" d="M1457.678,971.864l1.413,21.883a4.986,4.986,0,0,0,2.965,4.241h0a4.985,4.985,0,0,0,3.754.108l13.731-5.129,2.356-12.2-10.412-11.909Z" transform="translate(-1450.188 -960.211)" fill="#ffbc96"/>
          <path id="Path_5926" data-name="Path 5926" d="M1461.359,966.664s-3.372-6.547-6.884-7.548c0,0-13.52,4.406-16.5-5.963a26.934,26.934,0,0,0,14.147-4.5c6.529-4.571,13.34-2.377,18.056,1.889,0,0,15.406.76,3.259,27.942,0,0-3.053,1.013-10.827-9.846Z" transform="translate(-1437.978 -946.116)" fill="#1b1b43"/>
          <path id="Path_5927" data-name="Path 5927" d="M1497.344,995.279c-1.366,2.393-3.949,3.491-5.77,2.452s-2.189-3.822-.822-6.215,3.949-3.491,5.77-2.452S1498.711,992.885,1497.344,995.279Z" transform="translate(-1470.177 -972.492)" fill="#ffbc96"/>
          <ellipse id="Ellipse_116" data-name="Ellipse 116" cx="3.742" cy="3.802" rx="3.742" ry="3.802" transform="translate(11.699 20.724)" fill="#fe5b52" opacity="0.4"/>
          <path id="Path_5928" data-name="Path 5928" d="M1497.757,998.15a3.97,3.97,0,0,1,2.775-4.508l.261.914a3.061,3.061,0,0,0-2.1,3.452Z" transform="translate(-1475.004 -975.573)" fill="#1b1b43"/>
        </g>
        <path id="Path_5929" data-name="Path 5929" d="M1489.392,1061.44l.231-10.6,17.9-4.594,5.228,13.148Z" transform="translate(-1373.314 -1008.18)" fill="#cbcbff"/>
        <path id="Path_5930" data-name="Path 5930" d="M1399.369,1075c-8.985,8.745-15.525,21.861-23.762,35.167,0,0-27.921,7.208-35.92,15.208l14.376,7.287,49.108-13.624Z" transform="translate(-1280.525 -1026)" fill="#1b1b43"/>
        <g id="Group_2528" data-name="Group 2528" transform="translate(0 113.313)">
          <path id="Path_5931" data-name="Path 5931" d="M1230.319,1585.815l-11.2,31.8-35.043-8.743s5.452-7.456,21.9-5.312l8.744-24.576Z" transform="translate(-1184.076 -1451.687)" fill="#1b1b43"/>
          <path id="Path_5932" data-name="Path 5932" d="M1335.047,1266.25l-50.613,16.449a36.438,36.438,0,0,0-24.046,25.653L1240,1392.663l27.564,7.129a582.418,582.418,0,0,0,28.514-85.859Z" transform="translate(-1218.738 -1257.851)" fill="#393a8f"/>
          <path id="Path_5933" data-name="Path 5933" d="M1385.884,1603.286,1390,1632.75h-38.336s3.485-8.554,19.96-10.455l-.95-17.742Z" transform="translate(-1287.951 -1466.75)" fill="#1b1b43"/>
          <path id="Path_5934" data-name="Path 5934" d="M1449.107,1244.159l5.125,24.4c2.993,14.248-7.7,28.435-22.257,28.435h-46.1c2.59,23.686,5.086,54.894,3.406,88.074l-25.243.475-13.659-85.28a30.465,30.465,0,0,1,19.274-33.3l33.569-14.4Z" transform="translate(-1286.914 -1244.159)" fill="#5254cf"/>
        </g>
        <path id="Path_5935" data-name="Path 5935" d="M1530.357,1142.056c-4.15-39.657-10.09-77.078-39.963-75.356a7.26,7.26,0,0,0-4.69,2.15h0a24.81,24.81,0,0,0-7.188,19.515l4.318,54.166S1506.12,1146.808,1530.357,1142.056Z" transform="translate(-1366.524 -1020.82)" fill="#1b1b43"/>
        <g id="Group_2529" data-name="Group 2529" transform="translate(38.726 54.585)">
          <path id="Path_5936" data-name="Path 5936" d="M1306.372,1206.563s-17.584,3.327-20.435,13.307h24.95l4.752-3.327Z" transform="translate(-1285.937 -1162.128)" fill="#ffbc96"/>
          <path id="Path_5937" data-name="Path 5937" d="M1404.557,1089.688l-22.811,35.405-42.058,9.029,4.515,13.307,35.264-.181c9.469-.185,17.57-5.135,22.834-13.007l19.6-28.158Z" transform="translate(-1319.252 -1089.688)" fill="#1b1b43"/>
        </g>
        <path id="Path_5938" data-name="Path 5938" d="M1339.625,1124.235l-.2-.929,41.8-8.974c1.114-3.143,2.22-6.4,3.29-9.548,4.391-12.923,8.539-25.13,13.683-31.8l.752.581c-5.047,6.543-9.17,18.676-13.535,31.523-1.1,3.237-2.237,6.584-3.383,9.81l-.089.251-.259.055Z" transform="translate(-1280.363 -1024.751)" fill="#5254cf"/>
        <path id="Path_5939" data-name="Path 5939" d="M1372.242,1191.375c-9.78,0-19.936-.172-20.7-.185l.016-.951c.343.006,34.328.582,38.5-.345l.128-.028a31.68,31.68,0,0,0,22.388-18.883l4.711-11.458.879.362-4.71,11.458a32.633,32.633,0,0,1-23.061,19.449l-.127.028C1388.317,1191.255,1380.41,1191.375,1372.242,1191.375Z" transform="translate(-1287.873 -1078.389)" fill="#5254cf"/>
      </g>
      <g id="Group_2533" data-name="Group 2533" transform="translate(109.657 97.177)">
        <g id="Group_2532" data-name="Group 2532" transform="translate(0 72.588)">
          <path id="Path_5940" data-name="Path 5940" d="M1606.477,1502.3h6.6L1594.1,1392.644h-6.6Z" transform="translate(-1543.783 -1392.644)" fill="#b0b0d2"/>
          <path id="Path_5941" data-name="Path 5941" d="M1479.1,1502.3h-6.6l18.972-109.655h6.6Z" transform="translate(-1472.504 -1392.644)" fill="#b0b0d2"/>
          <g id="Group_2531" data-name="Group 2531" transform="translate(15.683)">
            <path id="Path_5942" data-name="Path 5942" d="M1523.63,1392.644l-3.279,18.952h-6.6l3.279-18.952Z" transform="translate(-1513.754 -1392.644)" fill="#1b1b43" opacity="0.3"/>
            <path id="Path_5943" data-name="Path 5943" d="M1597.355,1411.6h-6.6l-3.279-18.952h6.6Z" transform="translate(-1559.45 -1392.644)" fill="#1b1b43" opacity="0.3"/>
          </g>
        </g>
        <path id="Path_5944" data-name="Path 5944" d="M1479.643,1391.529h61.727V1382.5h-61.727a4.515,4.515,0,0,0-4.515,4.515h0A4.515,4.515,0,0,0,1479.643,1391.529Z" transform="translate(-1474.131 -1313.769)" fill="#9192ff"/>
        <path id="Path_5945" data-name="Path 5945" d="M1626.445,1279.479h8.713l29.429-72.138a4.08,4.08,0,0,0-2.039-5.232h0a4.081,4.081,0,0,0-5.519,2.154Z" transform="translate(-1567.918 -1201.718)" fill="#9192ff"/>
      </g>
    </g>
    <rect id="Rectangle_2950" data-name="Rectangle 2950" width="605.42" height="0.95" transform="translate(217.766 880.669)" fill="#1b1b43"/>
  </g>
</svg>
