<svg xmlns="http://www.w3.org/2000/svg" width="83.509" height="86.509" viewBox="0 0 83.509 86.509">
  <g id="Group_3682" data-name="Group 3682" transform="translate(-1088 -3487.934)">
    <circle id="Ellipse_100" data-name="Ellipse 100" cx="37.5" cy="37.5" r="37.5" transform="translate(1088 3499.443)" fill="#eef5ff"/>
    <g id="Layer_1" transform="translate(1113.491 3486.934)">
      <path id="Path_5518" data-name="Path 5518" d="M10.5,58.018H48.515V53.267h9.5V39.012A15.468,15.468,0,0,0,47.131,24.258,10.682,10.682,0,0,0,41.388,4.564a10.576,10.576,0,0,0-3.007.443,11.827,11.827,0,0,0-17.745,0,10.576,10.576,0,0,0-3.007-.443,10.682,10.682,0,0,0-5.743,19.694A15.468,15.468,0,0,0,1,39.012V53.267h9.5ZM46.14,55.643H12.879V37.824c0-.4.025-.789.059-1.177.012-.127.027-.253.042-.38.032-.268.074-.533.122-.8.025-.133.045-.267.074-.4.074-.341.16-.676.259-1.007.05-.164.109-.323.165-.485q.1-.282.2-.557t.221-.526c.076-.17.159-.336.242-.5q.182-.363.385-.714c.119-.2.238-.406.366-.6.1-.152.207-.3.312-.448s.227-.311.346-.462.219-.277.334-.411c.15-.175.305-.343.463-.51s.3-.306.449-.454c.189-.181.38-.358.58-.527.131-.11.266-.216.4-.322.156-.121.312-.24.474-.354s.3-.213.455-.314.318-.2.479-.291q.454-.269.934-.5c.16-.078.318-.16.482-.233l.191-.086a13,13,0,0,1,5.027-1.007h7.127A12.974,12.974,0,0,1,38.1,25.766l.191.086c.164.071.322.154.482.233q.479.233.934.5c.162.1.323.189.479.291s.305.207.455.314.318.233.474.354c.135.106.271.211.4.322.2.169.391.347.58.527.154.147.3.3.449.454s.315.335.463.51c.114.134.225.272.334.411s.234.305.346.462.214.295.312.448c.128.2.248.4.366.6.135.234.264.473.385.714.083.166.166.333.242.5s.151.349.221.526.139.369.2.557c.056.162.115.322.165.485q.15.5.259,1.007c.029.132.05.266.074.4.048.263.09.529.122.8.015.126.031.253.042.38.036.387.061.779.061,1.176V55.643Zm9.5-16.63V50.891H48.515V37.824a15.493,15.493,0,0,0-.094-1.669c-.014-.129-.042-.255-.058-.384-.057-.424-.124-.846-.214-1.258-.03-.135-.07-.266-.1-.4-.1-.4-.21-.8-.341-1.19-.044-.132-.1-.26-.143-.39-.14-.384-.293-.761-.462-1.13-.059-.129-.122-.258-.186-.385q-.265-.54-.571-1.054c-.075-.126-.15-.252-.229-.377-.214-.336-.441-.662-.678-.98-.087-.116-.17-.234-.26-.348-.26-.329-.537-.644-.823-.95-.081-.087-.156-.178-.239-.263a15.375,15.375,0,0,0-1.181-1.1A13.081,13.081,0,0,1,55.643,39.012ZM39.871,7.083a8.131,8.131,0,0,1,1.517-.144,8.315,8.315,0,1,1-4.545,15.271c.018-.013.032-.03.049-.044a11.93,11.93,0,0,0,2.612-2.9c.023-.036.043-.071.065-.107q.308-.492.568-1.013c.029-.057.055-.114.082-.171q.237-.494.426-1.012c.026-.071.053-.143.078-.214.115-.331.214-.67.3-1.014.021-.086.046-.17.065-.255.076-.336.133-.678.179-1.025.013-.091.032-.182.042-.274a11.265,11.265,0,0,0,.078-1.305,11.885,11.885,0,0,0-.088-1.387c-.017-.145-.044-.287-.067-.432-.05-.318-.109-.633-.183-.943-.036-.151-.074-.3-.115-.449-.1-.343-.209-.679-.335-1.009-.036-.091-.064-.185-.1-.276a11.81,11.81,0,0,0-.617-1.277A.14.14,0,0,1,39.871,7.083ZM36.83,6.827l.072.094c.058.072.11.148.166.222a9.523,9.523,0,0,1,1.395,2.581c.021.059.045.118.065.178a9.428,9.428,0,0,1,.328,1.307c.017.093.03.188.043.282a9.632,9.632,0,0,1,.113,1.389,9.335,9.335,0,0,1-.077,1.156c-.011.089-.027.177-.04.266a9.367,9.367,0,0,1-.189.931c-.017.064-.032.129-.05.194a9.539,9.539,0,0,1-.916,2.183l-.021.036a9.387,9.387,0,0,1-.636.95c-.021.027-.042.056-.063.084a9.524,9.524,0,0,1-1.68,1.687l-.113.084a9.57,9.57,0,0,1-.921.618c-.057.033-.11.07-.169.1L34,21.249a9.474,9.474,0,0,1-8.986,0l-.135-.078c-.057-.032-.112-.069-.169-.1a9.57,9.57,0,0,1-.921-.618l-.113-.084A9.6,9.6,0,0,1,22,18.679c-.021-.027-.042-.056-.063-.084a9.591,9.591,0,0,1-.636-.95l-.021-.036a9.521,9.521,0,0,1-.917-2.185c-.018-.063-.033-.128-.05-.191a9.458,9.458,0,0,1-.189-.932c-.013-.089-.03-.176-.04-.266a9.334,9.334,0,0,1-.077-1.156,9.6,9.6,0,0,1,.113-1.387c.014-.094.026-.188.043-.282A9.47,9.47,0,0,1,20.49,9.9c.02-.061.044-.119.065-.178a9.505,9.505,0,0,1,1.395-2.581c.056-.074.108-.151.166-.222l.072-.094a9.49,9.49,0,0,1,14.642,0ZM9.315,15.255A8.325,8.325,0,0,1,17.63,6.939a8.131,8.131,0,0,1,1.517.144l-.011.023a11.906,11.906,0,0,0-.617,1.276c-.038.091-.067.185-.1.278-.126.329-.239.665-.335,1.007-.042.148-.08.3-.115.449-.074.31-.133.625-.183.943-.023.144-.049.286-.067.432a11.124,11.124,0,0,0-.012,2.694c.011.093.03.182.042.273.046.347.1.69.179,1.026.019.086.044.169.065.253.086.344.184.684.3,1.017.025.072.052.143.078.215q.191.517.426,1.011c.027.057.055.115.083.172q.26.522.568,1.013c.023.036.043.071.065.107a11.976,11.976,0,0,0,2.612,2.9l.049.044A8.309,8.309,0,0,1,9.315,15.255ZM3.376,50.891V39.012A13.083,13.083,0,0,1,16.087,25.95a15.615,15.615,0,0,0-1.181,1.1c-.083.084-.158.176-.239.263-.286.306-.563.621-.824.951-.089.113-.172.23-.259.347-.239.318-.466.644-.679.981-.078.125-.153.249-.229.377q-.306.515-.571,1.054c-.063.128-.126.255-.186.385-.17.368-.322.746-.462,1.13-.048.131-.1.258-.143.39-.131.391-.241.789-.342,1.193-.033.133-.072.264-.1.4-.09.413-.157.835-.214,1.26-.018.128-.044.253-.058.382a15.452,15.452,0,0,0-.094,1.668V50.891Z" transform="translate(0 0)" fill="#2279f5"/>
    </g>
  </g>
</svg>
