<svg xmlns="http://www.w3.org/2000/svg" width="95" height="95" viewBox="0 0 95 95">
  <g id="Group_2269" data-name="Group 2269" transform="translate(-312 -888)">
    <circle id="Ellipse_96" data-name="Ellipse 96" cx="47.5" cy="47.5" r="47.5" transform="translate(312 888)" fill="#ed8003" opacity="0.1"/>
    <g id="Group_2247" data-name="Group 2247" transform="translate(338.255 911.765)">
      <g id="Group_2246" data-name="Group 2246" transform="translate(0 0)">
        <path id="Path_5477" data-name="Path 5477" d="M170.221,81.077c0,.076,0,.151-.011.226.027-.331.01-.09-.007-.012s-.037.141-.059.21c-.077.245.114-.238.007-.006a2.312,2.312,0,0,1-.219.366c.185-.261.048-.068,0-.013a2.314,2.314,0,0,1-.206.194c.242-.207.066-.053,0-.011s-.122.073-.185.107-.294.118.01,0c-.068.026-.138.046-.208.065s-.143.033-.215.046c.33-.059.085-.016.006-.012H137.468c-.076,0-.152,0-.228-.011.331.027.09.01.012-.007a2.3,2.3,0,0,1-.279-.083c.3.106.081.034.01,0s-.125-.07-.185-.107-.25-.193,0,.011c-.055-.044-.106-.094-.157-.143s-.1-.1-.143-.157c.207.242.053.066.011,0s-.073-.122-.107-.185q-.033-.064-.062-.129.1.245.037.071c-.034-.1-.107-.561-.066-.2a2.019,2.019,0,0,1-.011-.227V38.923c0-.091,0-.181.011-.271-.027.331-.01.09.007.012s.037-.141.059-.21c.077-.245-.114.238-.007.006.03-.065.066-.127.1-.189s.077-.12.118-.178c-.185.261-.048.068,0,.014s.1-.1.152-.148q.139-.117-.066.045.057-.042.117-.08c.083-.055.5-.235.175-.108a2.3,2.3,0,0,1,.423-.111c-.344.062-.012.011.08.011h31.581c.076,0,.151,0,.226.011-.331-.027-.09-.01-.012.007s.141.037.21.059q.173.064-.071-.037.066.029.129.062c.087.043.455.315.183.1a2.323,2.323,0,0,1,.3.3c-.207-.242-.053-.066-.011,0s.073.122.107.185.118.294,0-.01a2.289,2.289,0,0,1,.083.279c.018.073.045.325.007-.012.009.075.01.151.011.226V80.9q0,.088,0,.177a1.143,1.143,0,0,0,2.286,0V38.894a3.515,3.515,0,0,0-1.688-2.982,4.53,4.53,0,0,0-2.53-.483h-29.88a6.992,6.992,0,0,0-1.906.137,3.484,3.484,0,0,0-2.485,3.314V81.069a3.461,3.461,0,0,0,1.941,3.1,3.894,3.894,0,0,0,1.656.352H168.9a4.137,4.137,0,0,0,1.121-.137,3.494,3.494,0,0,0,2.485-3.312,1.143,1.143,0,0,0-2.286,0Z" transform="translate(-134.018 -35.426)" fill="#ed8003"/>
      </g>
    </g>
    <g id="Group_2249" data-name="Group 2249" transform="translate(348.202 919.759)">
      <g id="Group_2248" data-name="Group 2248" transform="translate(0 0)">
        <path id="Path_5478" data-name="Path 5478" d="M329.98,190.032a7.052,7.052,0,0,1-.051.835c.044-.373-.026.119-.044.208-.034.168-.076.334-.123.5-.04.14-.086.278-.135.415-.024.068-.051.135-.077.2-.095.24.107-.243,0-.008a6.592,6.592,0,0,1-.442.818c-.076.121-.157.238-.24.353-.04.055-.2.253.006-.005-.044.056-.09.11-.135.165a6.65,6.65,0,0,1-.645.659c-.064.058-.436.357-.152.138-.113.087-.229.169-.348.248a6.6,6.6,0,0,1-.807.459c-.065.031-.13.061-.2.09.3-.136.071-.03.007-.005-.135.053-.272.1-.41.144a6.574,6.574,0,0,1-.929.218c-.263.043.274-.032.009,0-.075.009-.149.015-.224.022-.151.013-.3.018-.455.021s-.3,0-.457-.01c-.075,0-.151-.01-.226-.017s-.428-.055-.067,0a6.572,6.572,0,0,1-.863-.188c-.14-.04-.278-.086-.415-.135-.068-.024-.135-.051-.2-.077q-.171-.07.074.031l-.131-.059a6.592,6.592,0,0,1-.753-.412c-.121-.076-.238-.157-.353-.241-.055-.04-.253-.2.005.006-.074-.059-.146-.12-.218-.182a6.65,6.65,0,0,1-.605-.6c-.058-.064-.357-.437-.138-.153-.1-.132-.2-.269-.287-.407a6.616,6.616,0,0,1-.42-.748c-.031-.065-.061-.13-.09-.2.135.3.03.071.005.006-.062-.158-.115-.318-.165-.48a6.589,6.589,0,0,1-.2-.859c-.043-.263.032.274,0,.008-.009-.075-.015-.149-.022-.224-.015-.177-.02-.354-.021-.531,0-.152.006-.3.015-.456.006-.091.068-.59.015-.217a6.578,6.578,0,0,1,.208-.933c.041-.139.089-.276.139-.413.025-.068.052-.135.079-.2-.125.308-.028.072,0,.009a6.6,6.6,0,0,1,.451-.813c.077-.12.16-.236.244-.351.151-.205-.164.205,0,.007.045-.055.091-.109.137-.163a6.661,6.661,0,0,1,.652-.653c.053-.047.108-.092.163-.137.2-.162-.21.157-.007,0,.114-.086.231-.166.35-.245a6.6,6.6,0,0,1,.813-.451c.062-.029.3-.13-.009,0,.067-.028.134-.054.2-.08.136-.052.274-.1.412-.14a6.57,6.57,0,0,1,.932-.209c-.371.057.125-.009.217-.015.152-.011.3-.015.456-.016l-1.143-1.143v6.611a1.154,1.154,0,0,0,1.143,1.143h6.611a1.143,1.143,0,0,0,0-2.286h-6.611l1.143,1.143v-6.611a1.153,1.153,0,0,0-1.143-1.143,7.762,7.762,0,1,0,7.754,7.754,1.143,1.143,0,1,0-2.286,0Z" transform="translate(-316.769 -182.278)" fill="#ed8003"/>
      </g>
    </g>
    <g id="Group_2251" data-name="Group 2251" transform="translate(357.869 916.76)">
      <g id="Group_2250" data-name="Group 2250" transform="translate(0 0)">
        <path id="Path_5479" data-name="Path 5479" d="M502.054,133.721h-6.543l1.143,1.143v-6.543l-1.143,1.143c.212,0,.422.012.633.03q.2.024,0,0,.1.015.2.033c.134.023.267.052.4.083a2.394,2.394,0,0,0,.558.109c-.422,0-.165,0-.013.049.1.031.191.067.285.1l.14.056q-.236-.1-.066-.025a6.488,6.488,0,0,1,1.036.593c.056.039.334.251.067.043.078.061.154.125.229.189.15.129.293.267.431.409.121.124.235.255.345.388l.093.116q-.154-.2-.044-.053c.059.08.115.162.17.245.111.166.212.338.307.513.048.088.092.177.136.267.03.062.17.387.038.071a6.513,6.513,0,0,1,.356,1.165c.021.1.039.2.055.3q.028.19-.009-.072.009.078.017.156c.021.21.029.422.03.633a1.143,1.143,0,0,0,2.286,0,7.818,7.818,0,0,0-2.164-5.35,7.385,7.385,0,0,0-2.226-1.591c-.249-.115-.5-.22-.762-.314-.095-.035-.191-.066-.288-.1l-.146-.043-.3-.041q.376.05.148,0a7.62,7.62,0,0,0-1.944-.248,1.154,1.154,0,0,0-1.143,1.143v6.543a1.154,1.154,0,0,0,1.143,1.143h6.543a1.143,1.143,0,0,0,0-2.286Z" transform="translate(-494.368 -127.178)" fill="#ed8003"/>
      </g>
    </g>
    <g id="Group_2253" data-name="Group 2253" transform="translate(344.384 941.186)">
      <g id="Group_2252" data-name="Group 2252" transform="translate(0 0)">
        <path id="Path_5480" data-name="Path 5480" d="M247.754,588.16h3.794a3.622,3.622,0,0,0,2.389-6.374,3.785,3.785,0,0,0-2.278-.872c-.335-.015-.673,0-1.008,0h-.4c-.08,0-.441-.036-.081.013a2.477,2.477,0,0,1-.493-.127c-.241-.086.24.113.011,0-.064-.031-.125-.068-.186-.1s-.118-.078-.175-.12c.261.19.069.046.015,0-.071-.065-.352-.424-.145-.141a2.473,2.473,0,0,1-.245-.432c.147.322-.018-.111-.04-.208-.017-.074-.039-.325,0,.012-.008-.075-.009-.151-.01-.226s0-.151.01-.226c-.025.331-.012.09,0,.012s.034-.141.055-.211q.021-.069.046-.137-.107.242-.031.075a2.471,2.471,0,0,1,.215-.367c-.18.263-.052.068,0,.01s.1-.1.148-.152.245-.2-.015,0c.056-.043.116-.082.175-.12s.123-.072.186-.1q.166-.079-.078.026.067-.027.135-.05a2.475,2.475,0,0,1,.425-.1c-.354.059-.009.013.074.013h3.826a1.143,1.143,0,1,0,0-2.286h-3.794a3.622,3.622,0,0,0-2.389,6.374,3.785,3.785,0,0,0,2.278.872c.335.015.673,0,1.008,0h.4c.08,0,.441.036.081-.013a2.473,2.473,0,0,1,.493.127c.241.086-.24-.113-.011,0,.064.031.125.068.186.1s.118.078.175.12c-.261-.19-.069-.046-.015,0,.071.065.352.424.145.141a2.479,2.479,0,0,1,.245.432c-.147-.322.018.111.04.208.017.074.039.325,0-.012.008.075.009.151.01.226s0,.151-.01.226c.025-.331.012-.09,0-.012s-.034.141-.055.211q-.021.069-.046.137.107-.242.031-.075a2.469,2.469,0,0,1-.215.367c.181-.263.052-.068,0-.01s-.1.1-.148.152-.245.2.015,0c-.056.043-.116.082-.175.12s-.123.072-.186.1q-.166.079.078-.026-.067.027-.135.05a2.486,2.486,0,0,1-.425.1c.354-.059.009-.013-.074-.013h-3.826a1.143,1.143,0,1,0,0,2.286Z" transform="translate(-246.611 -575.953)" fill="#ed8003"/>
      </g>
    </g>
    <g id="Group_2255" data-name="Group 2255" transform="translate(347.559 938.706)">
      <g id="Group_2254" data-name="Group 2254" transform="translate(0 0)">
        <path id="Path_5481" data-name="Path 5481" d="M307.24,534.013v-2.48a1.143,1.143,0,0,0-2.286,0v2.48a1.143,1.143,0,0,0,2.286,0Z" transform="translate(-304.954 -530.39)" fill="#ed8003"/>
      </g>
    </g>
    <g id="Group_2257" data-name="Group 2257" transform="translate(347.559 951.107)">
      <g id="Group_2256" data-name="Group 2256" transform="translate(0 0)">
        <path id="Path_5482" data-name="Path 5482" d="M307.24,761.85v-2.48a1.143,1.143,0,0,0-2.286,0v2.48a1.143,1.143,0,0,0,2.286,0Z" transform="translate(-304.954 -758.227)" fill="#ed8003"/>
      </g>
    </g>
    <g id="Group_2259" data-name="Group 2259" transform="translate(356.8 939.859)">
      <g id="Group_2258" data-name="Group 2258" transform="translate(0 0)">
        <path id="Path_5483" data-name="Path 5483" d="M475.864,553.858h11.53a1.143,1.143,0,1,0,0-2.286h-11.53a1.143,1.143,0,0,0,0,2.286Z" transform="translate(-474.721 -551.572)" fill="#ed8003"/>
      </g>
    </g>
    <g id="Group_2261" data-name="Group 2261" transform="translate(356.8 952.435)">
      <g id="Group_2260" data-name="Group 2260" transform="translate(0 0)">
        <path id="Path_5484" data-name="Path 5484" d="M487.393,782.614h-11.53a1.143,1.143,0,0,0,0,2.286h11.53a1.143,1.143,0,1,0,0-2.286Z" transform="translate(-474.72 -782.614)" fill="#ed8003"/>
      </g>
    </g>
    <g id="Group_2263" data-name="Group 2263" transform="translate(356.8 946.356)">
      <g id="Group_2262" data-name="Group 2262" transform="translate(0 0)">
        <path id="Path_5485" data-name="Path 5485" d="M487.393,670.931h-11.53a1.143,1.143,0,0,0,0,2.286h11.53a1.143,1.143,0,1,0,0-2.286Z" transform="translate(-474.72 -670.931)" fill="#ed8003"/>
      </g>
    </g>
  </g>
</svg>
