<svg xmlns="http://www.w3.org/2000/svg" width="66.65" height="81.565" viewBox="0 0 66.65 81.565">
  <g id="Group_2558" data-name="Group 2558" transform="translate(-629.08 -384.76)">
    <ellipse id="Ellipse_118" data-name="Ellipse 118" cx="33.325" cy="33.325" rx="33.325" ry="33.325" transform="translate(629.08 399.675)" fill="#f9f2ea"/>
    <g id="Group_2557" data-name="Group 2557" transform="translate(628.296 -582.593)">
      <g id="Group_2204" data-name="Group 2204" transform="translate(13.008 967.354)">
        <path id="Path_5451" data-name="Path 5451" d="M29.4,1.459a1.478,1.478,0,0,0,1.382,1.46l5.578.886L3.7,22.26A1.53,1.53,0,0,0,3,24.346a1.526,1.526,0,0,0,2.137.469L37.692,6.438l-.782,4.874a1.482,1.482,0,1,0,2.919.469l1.355-8.706a1.558,1.558,0,0,0-1.225-1.72L31.228,0c-1.017-.026-1.8.469-1.825,1.46ZM45.616,11.782a1.616,1.616,0,0,0-1.486,1.46V50.047a1.534,1.534,0,0,0,1.486,1.46h7.351a1.51,1.51,0,0,0,1.46-1.46V13.241a1.51,1.51,0,0,0-1.46-1.46Zm1.46,2.946h4.431V48.561H47.076ZM30.889,17.673a1.613,1.613,0,0,0-1.46,1.46V50.047a1.529,1.529,0,0,0,1.46,1.46h7.377a1.529,1.529,0,0,0,1.46-1.46V19.132a1.529,1.529,0,0,0-1.46-1.46Zm1.486,2.946H36.78V48.561H32.375ZM16.187,23.564a1.616,1.616,0,0,0-1.486,1.46V50.047a1.534,1.534,0,0,0,1.486,1.46h7.351a1.534,1.534,0,0,0,1.486-1.46V25.023a1.515,1.515,0,0,0-1.486-1.46Zm1.46,2.919h4.431V48.561H17.647ZM1.46,29.429A1.616,1.616,0,0,0,0,30.914V50.047a1.529,1.529,0,0,0,1.46,1.46H8.837a1.529,1.529,0,0,0,1.46-1.46V30.914a1.534,1.534,0,0,0-1.46-1.486Zm1.486,2.946H7.351V48.561H2.946Z" transform="translate(0 0.001)" fill="#f27228"/>
      </g>
    </g>
  </g>
</svg>
