<svg xmlns="http://www.w3.org/2000/svg" width="97" height="97" viewBox="0 0 97 97">
  <g id="Group_2212" data-name="Group 2212" transform="translate(-597 -372)">
    <circle id="Ellipse_88" data-name="Ellipse 88" cx="48.5" cy="48.5" r="48.5" transform="translate(597 372)" fill="#e5f9f9"/>
    <g id="Group_2203" data-name="Group 2203" transform="translate(-2287.403 -268.509)">
      <g id="Group_2202" data-name="Group 2202" transform="translate(2908 668)">
        <g id="Group_2201" data-name="Group 2201" transform="translate(0 0)">
          <g id="Group_2190" data-name="Group 2190" transform="translate(0 32.376)">
            <g id="Group_2189" data-name="Group 2189">
              <g id="Group_2188" data-name="Group 2188">
                <path id="Path_5446" data-name="Path 5446" d="M51.886,55.393H16.911A6.647,6.647,0,0,1,10,48.56a.976.976,0,0,1,.976-.976H57.831a.976.976,0,0,1,.976.976,6.119,6.119,0,0,1-2.088,5.147A7.528,7.528,0,0,1,51.886,55.393ZM12.028,49.536a4.655,4.655,0,0,0,4.884,3.9H51.886a5.573,5.573,0,0,0,3.581-1.233A3.7,3.7,0,0,0,56.8,49.536Z" transform="translate(-10 -47.583)" fill="#21bbbb"/>
              </g>
            </g>
          </g>
          <g id="Group_2192" data-name="Group 2192" transform="translate(2.186 0)">
            <g id="Group_2191" data-name="Group 2191">
              <path id="Path_5447" data-name="Path 5447" d="M55.561,48.744H13.216a.976.976,0,0,1-.976-.976V15.393a.976.976,0,0,1,.976-.976H55.561a.976.976,0,0,1,.976.976V47.768A.976.976,0,0,1,55.561,48.744ZM14.192,46.792H54.585V16.369H14.192Z" transform="translate(-12.24 -14.417)" fill="#21bbbb"/>
            </g>
          </g>
          <g id="Group_2200" data-name="Group 2200" transform="translate(13.463 6.293)">
            <g id="Group_2197" data-name="Group 2197">
              <g id="Group_2194" data-name="Group 2194" transform="translate(0 10.106)">
                <g id="Group_2193" data-name="Group 2193">
                  <path id="Path_5448" data-name="Path 5448" d="M28.222,42.852h0a4.426,4.426,0,0,1-3.13-7.558l2.782-2.783a4.434,4.434,0,0,1,6.261,0h0a4.424,4.424,0,0,1,0,6.262l-2.783,2.782A4.393,4.393,0,0,1,28.222,42.852ZM31,33.168a2.467,2.467,0,0,0-1.75.724l-2.782,2.783A2.476,2.476,0,0,0,28.222,40.9h0a2.454,2.454,0,0,0,1.749-.725l2.783-2.782A2.474,2.474,0,0,0,31,33.168Z" transform="translate(-23.792 -31.217)" fill="#21bbbb"/>
                </g>
              </g>
              <g id="Group_2196" data-name="Group 2196" transform="translate(10.104)">
                <g id="Group_2195" data-name="Group 2195">
                  <path id="Path_5449" data-name="Path 5449" d="M38.572,32.5a4.427,4.427,0,0,1-3.131-7.558l2.782-2.782a4.426,4.426,0,0,1,6.261,0h0a4.423,4.423,0,0,1,0,6.261L41.7,31.2A4.4,4.4,0,0,1,38.572,32.5Zm2.782-9.685a2.459,2.459,0,0,0-1.751.725l-2.782,2.782a2.471,2.471,0,0,0,0,3.5,2.533,2.533,0,0,0,3.5,0L43.1,27.042a2.471,2.471,0,0,0,0-3.5h0A2.459,2.459,0,0,0,41.354,22.816Z" transform="translate(-34.143 -20.864)" fill="#21bbbb"/>
                </g>
              </g>
            </g>
            <g id="Group_2199" data-name="Group 2199" transform="translate(7.152 7.15)">
              <g id="Group_2198" data-name="Group 2198">
                <path id="Path_5450" data-name="Path 5450" d="M32.095,35.632a.976.976,0,0,1-.69-1.666L36.9,28.475a.976.976,0,1,1,1.38,1.38l-5.491,5.491A.973.973,0,0,1,32.095,35.632Z" transform="translate(-31.119 -28.189)" fill="#21bbbb"/>
              </g>
            </g>
          </g>
        </g>
      </g>
    </g>
  </g>
</svg>
