<svg xmlns="http://www.w3.org/2000/svg" width="97" height="97" viewBox="0 0 97 97">
  <g id="Group_3687" data-name="Group 3687" transform="translate(-785 -583)">
    <circle id="Ellipse_84" data-name="Ellipse 84" cx="48.5" cy="48.5" r="48.5" transform="translate(785 583)" fill="#ffd565" opacity="0.28"/>
    <g id="menu-Mobile_App_Marketing" data-name="menu-Mobile App Marketing" transform="translate(809.833 606.199)">
      <path id="Path_5030" data-name="Path 5030" d="M8.737,48.969a2.921,2.921,0,0,0,2.9,2.9H34.885a2.913,2.913,0,0,0,2.9-2.9c0-.954,0-18.83,0-19.326a31.626,31.626,0,0,1,7.546-.233.915.915,0,0,0,.853-1.4l-2.253-3.579a4.288,4.288,0,0,0-4.515-7.173l-1.631-2.592c0-.84,0,3.122,0-9.02a2.9,2.9,0,0,0-2.9-2.9H11.638a2.9,2.9,0,0,0-2.9,2.9C8.739,49.475,8.737,43.295,8.737,48.969Zm36.2-20.754c-.078-.005-1.237-.067-1.74-.079L35.764,16.322c.281-.626.643-1.51.68-1.6L41.3,22.431ZM29.976,31l-2.513-3.991a25.362,25.362,0,0,0,7.7-9.457l6.666,10.591A25.408,25.408,0,0,0,29.976,31Zm1.616.486a2.835,2.835,0,0,1-.881,3.4l-.858-1.362a1.363,1.363,0,0,0,.686-1.494C30.859,31.859,31.232,31.655,31.592,31.485Zm.629,8.08a.166.166,0,0,1-.076.107l-.8.506a.166.166,0,0,1-.128.022.168.168,0,0,1-.107-.076l-3.33-5.29,1.093-.688,3.33,5.29h0A.163.163,0,0,1,32.221,39.565Zm-6.148-5.031a.173.173,0,0,1-.236-.054l-3.3-5.247A.173.173,0,0,1,22.587,29l3.263-2.053a.171.171,0,0,1,.236.053h0l3.3,5.247s0,0,0,0a.165.165,0,0,1-.048.223s0,0-.006.007C26.3,34.39,27.068,33.908,26.073,34.535ZM23.7,33.269l-1.391.876a.173.173,0,0,1-.236-.054l-.817-1.3a.172.172,0,0,1,.054-.236l1.391-.876ZM9.9,5.654A1.743,1.743,0,0,1,11.64,3.913H34.885a1.742,1.742,0,0,1,1.74,1.741V8.908H9.9ZM36.625,48.972a1.743,1.743,0,0,1-1.739,1.737H11.638A1.745,1.745,0,0,1,9.9,48.972V44.164H36.625v4.808Zm0-5.968H9.9V10.069H36.625v3.226a.918.918,0,0,0-1.088.555l-.009.023a26.212,26.212,0,0,1-8.756,12.182,1.314,1.314,0,0,0-1.54-.093l-3.263,2.053a1.334,1.334,0,0,0-.418,1.837l.534.848-1.391.876a1.334,1.334,0,0,0-.418,1.836l.817,1.3a1.334,1.334,0,0,0,1.837.417l1.391-.876.534.848a1.334,1.334,0,0,0,1.837.417l.1-.065,3.33,5.29a1.321,1.321,0,0,0,.831.59,1.367,1.367,0,0,0,.3.034,1.32,1.32,0,0,0,.706-.205l.8-.506a1.331,1.331,0,0,0,.418-1.836l-1.862-2.958a3.974,3.974,0,0,0,1.328-4.82,22.7,22.7,0,0,1,3.978-1.2V43Zm7.141-23.472a3.131,3.131,0,0,1-.453,3.92l-1.576-2.5-.255-.405-1.447-2.3A3.133,3.133,0,0,1,43.766,19.532Z" transform="translate(0)" fill="#ffb300"/>
      <path id="Path_5031" data-name="Path 5031" d="M29.253,6.73h-5.4a.58.58,0,1,0,0,1.16h5.4a.58.58,0,0,0,0-1.16Z" transform="translate(-3.291 -0.901)" fill="#ffb300"/>
      <path id="Path_5032" data-name="Path 5032" d="M26.872,62.053A2.174,2.174,0,1,0,24.7,59.879,2.18,2.18,0,0,0,26.872,62.053Zm0-3.187a1.013,1.013,0,1,1-1.013,1.013A1.018,1.018,0,0,1,26.872,58.866Z" transform="translate(-3.614 -12.442)" fill="#ffb300"/>
      <path id="Path_5033" data-name="Path 5033" d="M57.094,22.731l1.041-.7a.58.58,0,0,0-.65-.962l-1.041.7a.58.58,0,0,0,.65.962Z" transform="translate(-10.743 -4.124)" fill="#ffb300"/>
      <path id="Path_5034" data-name="Path 5034" d="M59.555,25.5a.584.584,0,0,0-.619-.538l-1.253.089a.58.58,0,0,0,.04,1.159l.042,0,1.253-.089A.58.58,0,0,0,59.555,25.5Z" transform="translate(-10.959 -5.029)" fill="#ffb300"/>
      <path id="Path_5035" data-name="Path 5035" d="M53.953,20.608a.58.58,0,0,0,.523-.326l.55-1.13a.58.58,0,0,0-1.044-.508l-.55,1.13a.581.581,0,0,0,.521.834Z" transform="translate(-10.106 -3.525)" fill="#ffb300"/>
    </g>
  </g>
</svg>
