<svg xmlns="http://www.w3.org/2000/svg" width="97" height="97" viewBox="0 0 97 97">
  <g id="Group_2213" data-name="Group 2213" transform="translate(-995 -372)">
    <circle id="Ellipse_89" data-name="Ellipse 89" cx="48.5" cy="48.5" r="48.5" transform="translate(995 372)" fill="#f2f0fb"/>
    <g id="menu-Search_Engine_Marketing" data-name="menu-Search Engine Marketing" transform="translate(153.665 -739.065)">
      <g id="Group_2081" data-name="Group 2081" transform="translate(865.33 1136)">
        <path id="Path_5037" data-name="Path 5037" d="M95.045,44.47C94.6,43.953,84.051,31.8,70.77,31.8S46.937,43.953,46.495,44.47a.683.683,0,0,0,0,.89c.418.488,9.862,11.348,22.1,12.548l.131,6.839h-.019a1.486,1.486,0,0,0-1.452,1.508l.087,14.07a3.827,3.827,0,0,0,3.827,3.743c.029,0,.058,0,.088,0l.186,0a3.827,3.827,0,0,0,3.738-3.9L75.1,66.093a1.48,1.48,0,0,0-.458-1.043,1.313,1.313,0,0,0-1.06-.411l-.107,0-.129-6.768c12.047-1.393,21.289-12.031,21.7-12.513A.684.684,0,0,0,95.045,44.47Zm-47.108.445c1.557-1.674,7.475-7.615,15.189-10.347a12.836,12.836,0,0,0,0,20.691C55.414,52.525,49.493,46.587,47.936,44.915Zm25.794,21.2.088,14.075a2.458,2.458,0,0,1-2.4,2.508s0,0,0,0l-.186,0a2.286,2.286,0,0,1-1.755-.681,2.435,2.435,0,0,1-.759-1.713l-.087-14.06s.115-.129.115-.13Zm-3.762-8.127c.269.01.531.045.8.045.408,0,.8-.045,1.206-.067l.128,6.71-2.007.045Zm.8-1.552A11.517,11.517,0,1,1,82.286,44.915,11.53,11.53,0,0,1,70.77,56.432Zm7.644-1.17a12.837,12.837,0,0,0,0-20.691C86.126,37.3,92.046,43.242,93.6,44.915,92.047,46.589,86.128,52.531,78.414,55.262Z" transform="translate(-46.33 -31.801)" fill="#1b78fe"/>
        <path id="Path_5038" data-name="Path 5038" d="M209,91.1a6.2,6.2,0,1,0,6.2,6.2A6.209,6.209,0,0,0,209,91.1Zm0,11.036a4.834,4.834,0,1,1,4.834-4.834A4.84,4.84,0,0,1,209,102.136Z" transform="translate(-184.557 -84.188)" fill="#1b78fe"/>
        <path id="Path_5039" data-name="Path 5039" d="M250.819,55.575a.684.684,0,0,0,.684-.684v-2.16a.684.684,0,0,0-1.367,0v2.16A.684.684,0,0,0,250.819,55.575Z" transform="translate(-226.379 -49.688)" fill="#1b78fe"/>
        <path id="Path_5040" data-name="Path 5040" d="M190.772,80.044a.684.684,0,0,0,.967-.967l-1.527-1.527a.684.684,0,0,0-.967.967Z" transform="translate(-172.41 -72.041)" fill="#1b78fe"/>
        <path id="Path_5041" data-name="Path 5041" d="M167.271,139.124a.684.684,0,0,0-.684-.684h-2.16a.684.684,0,0,0,0,1.367h2.16A.684.684,0,0,0,167.271,139.124Z" transform="translate(-150.058 -126.01)" fill="#1b78fe"/>
        <path id="Path_5042" data-name="Path 5042" d="M190.771,186.631l-1.527,1.527a.684.684,0,1,0,.967.967l1.527-1.527a.684.684,0,0,0-.967-.967Z" transform="translate(-172.409 -168.407)" fill="#1b78fe"/>
        <path id="Path_5043" data-name="Path 5043" d="M250.819,206.305a.684.684,0,0,0-.684.684v2.16a.684.684,0,1,0,1.367,0v-2.16A.684.684,0,0,0,250.819,206.305Z" transform="translate(-226.379 -185.964)" fill="#1b78fe"/>
        <path id="Path_5044" data-name="Path 5044" d="M299.293,186.63a.684.684,0,1,0-.967.967l1.527,1.527a.684.684,0,0,0,.967-.967Z" transform="translate(-268.776 -168.406)" fill="#1b78fe"/>
        <path id="Path_5045" data-name="Path 5045" d="M321.526,139.124a.684.684,0,0,0-.684-.684h-2.16a.684.684,0,1,0,0,1.367h2.16A.684.684,0,0,0,321.526,139.124Z" transform="translate(-286.332 -126.01)" fill="#1b78fe"/>
        <path id="Path_5046" data-name="Path 5046" d="M298.81,80.244a.681.681,0,0,0,.483-.2l1.527-1.527a.684.684,0,0,0-.967-.967l-1.527,1.527a.684.684,0,0,0,.483,1.167Z" transform="translate(-268.776 -72.041)" fill="#1b78fe"/>
      </g>
    </g>
  </g>
</svg>
