<svg xmlns="http://www.w3.org/2000/svg" width="39.715" height="38.129" viewBox="0 0 39.715 38.129">
  <g id="Group_3682" data-name="Group 3682" transform="translate(-1055.985 -1701.543)">
    <path id="Path_5524" data-name="Path 5524" d="M48.73,30.3a1.207,1.207,0,0,0-.877,1.463,16.719,16.719,0,1,1-5.181-8.487,1.207,1.207,0,1,0,1.594-1.812,19.063,19.063,0,1,0,5.928,9.713A1.207,1.207,0,0,0,48.73,30.3Z" transform="translate(1043.351 1684.807)" fill="#1b78fe"/>
    <path id="Path_5525" data-name="Path 5525" d="M91.379,42.783a1.207,1.207,0,0,0-1.706,0l-21.4,21.4-5.993-5.993A1.207,1.207,0,0,0,60.573,59.9l6.848,6.845a1.207,1.207,0,0,0,1.706,0L91.379,44.489a1.207,1.207,0,0,0,0-1.706Z" transform="translate(1003.968 1663.542)" fill="#1b78fe"/>
  </g>
</svg>
