<svg xmlns="http://www.w3.org/2000/svg" width="55" height="55" viewBox="0 0 55 55">
  <g id="Group_2567" data-name="Group 2567" transform="translate(-542.5 -581.237)">
    <circle id="Ellipse_202" data-name="Ellipse 202" cx="27.5" cy="27.5" r="27.5" transform="translate(542.5 581.237)" fill="#0adbfd" opacity="0.15"/>
    <g id="_2959753_chat_communication_skype_icon" data-name="2959753_chat_communication_skype_icon" transform="translate(540.354 580.105)">
      <path id="Path_6599" data-name="Path 6599" d="M23.456,17.882a5.555,5.555,0,0,1,2.918.825L27,19.1l.735-.156A11.289,11.289,0,0,1,41.093,32.468l-.151.674.321.611a5.5,5.5,0,0,1,.634,2.582,5.572,5.572,0,0,1-8.238,4.892l-.6-.333-.677.139A11.289,11.289,0,0,1,19.024,27.822l.142-.738-.405-.634a5.569,5.569,0,0,1,4.7-8.568m0-1.882a7.451,7.451,0,0,0-6.279,11.466A13.174,13.174,0,0,0,32.768,42.88a7.454,7.454,0,0,0,10.172-10A13.168,13.168,0,0,0,27.358,17.106,7.416,7.416,0,0,0,23.456,16Z" fill="#0adbfd"/>
      <path id="Path_6600" data-name="Path 6600" d="M40.987,40.425c0-3.335,3.335-4.545,6.446-4.545,4.823,0,5.917,2.848,6.171,3.665a1.5,1.5,0,0,1-1.621,1.737c-1.332-.148-1.514-2.026-4.108-2.756-.8-.22-3.361.1-3.361,1.6,0,1.332,4.342,1.986,6.475,2.811,2.235.868,3.251,2.067,3.251,4.1,0,4.134-4.464,5.124-6.31,5.124-5.841,0-7.109-4.053-7.109-4.739a1.476,1.476,0,0,1,1.514-1.572c2.012,0,1.239,3.555,5.1,3.555,3.031,0,3.335-1.4,3.335-2.093,0-1.983-5.289-2.672-5.289-2.672S40.987,43.936,40.987,40.425Z" transform="translate(-17.632 -14.125)" fill="#0adbfd"/>
    </g>
  </g>
</svg>
