<svg xmlns="http://www.w3.org/2000/svg" width="52.403" height="52.388" viewBox="0 0 52.403 52.388">
  <g id="Group_2169" data-name="Group 2169" transform="translate(-9.999 -10.006)">
    <g id="Group_2160" data-name="Group 2160" transform="translate(40.93 40.923)">
      <g id="Group_2159" data-name="Group 2159">
        <path id="Path_5402" data-name="Path 5402" d="M54.675,60.978c-.1,0-.206,0-.308-.008a6.322,6.322,0,0,1-4.568-2.3L39.75,46.424a1.049,1.049,0,0,1,.229-1.537A18.507,18.507,0,0,0,44.9,39.973a1.048,1.048,0,0,1,1.537-.228L58.678,49.793a6.309,6.309,0,0,1-4,11.185ZM42.082,45.961l9.338,11.38a4.163,4.163,0,0,0,3.049,1.535,4.116,4.116,0,0,0,3.186-1.229,4.213,4.213,0,0,0-.307-6.235l-11.38-9.338a21.064,21.064,0,0,1-3.886,3.887Z" transform="translate(-39.513 -39.506)" fill="#1b78fe"/>
      </g>
    </g>
    <g id="Group_2162" data-name="Group 2162" transform="translate(9.999 10.006)">
      <g id="Group_2161" data-name="Group 2161">
        <path id="Path_5403" data-name="Path 5403" d="M30.837,51.667A20.837,20.837,0,1,1,45.575,16.1h0A20.838,20.838,0,0,1,30.837,51.667Zm0-39.566a18.728,18.728,0,1,0,13.256,5.482h0A18.687,18.687,0,0,0,30.837,12.1Z" transform="translate(-9.999 -10.006)" fill="#1b78fe"/>
      </g>
    </g>
    <g id="Group_2164" data-name="Group 2164" transform="translate(19.42 25.984)">
      <g id="Group_2163" data-name="Group 2163">
        <path id="Path_5404" data-name="Path 5404" d="M23.879,40.429H20.037a1.048,1.048,0,0,1-1.048-1.048V26.3a1.048,1.048,0,0,1,1.048-1.048h3.842A1.048,1.048,0,0,1,24.927,26.3V39.381A1.048,1.048,0,0,1,23.879,40.429Zm-2.794-2.1h1.746V27.348H21.085Z" transform="translate(-18.989 -25.252)" fill="#1b78fe"/>
      </g>
    </g>
    <g id="Group_2166" data-name="Group 2166" transform="translate(27.867 20.499)">
      <g id="Group_2165" data-name="Group 2165">
        <path id="Path_5405" data-name="Path 5405" d="M31.939,40.68H28.1a1.048,1.048,0,0,1-1.048-1.048V21.066A1.048,1.048,0,0,1,28.1,20.018h3.843a1.048,1.048,0,0,1,1.048,1.048V39.632A1.048,1.048,0,0,1,31.939,40.68Zm-2.8-2.1h1.747V22.114H29.144Z" transform="translate(-27.048 -20.018)" fill="#1b78fe"/>
      </g>
    </g>
    <g id="Group_2168" data-name="Group 2168" transform="translate(36.315 29.36)">
      <g id="Group_2167" data-name="Group 2167">
        <path id="Path_5406" data-name="Path 5406" d="M40,40.274H36.157a1.048,1.048,0,0,1-1.048-1.048v-9.7a1.048,1.048,0,0,1,1.048-1.048H40a1.048,1.048,0,0,1,1.048,1.048v9.7A1.048,1.048,0,0,1,40,40.274Zm-2.8-2.1h1.747V30.569H37.2Z" transform="translate(-35.109 -28.473)" fill="#1b78fe"/>
      </g>
    </g>
  </g>
</svg>
