<svg xmlns="http://www.w3.org/2000/svg" width="69" height="69" viewBox="0 0 69 69">
  <g id="Group_2225" data-name="Group 2225" transform="translate(-1033 -579)">
    <g id="Ellipse_93" data-name="Ellipse 93" transform="translate(1033 579)" fill="none" stroke="#ed8003" stroke-width="1" stroke-dasharray="2">
      <circle cx="34.5" cy="34.5" r="34.5" stroke="none"/>
      <circle cx="34.5" cy="34.5" r="34" fill="none"/>
    </g>
    <g id="menu-Mobile_App_Marketing" data-name="menu-Mobile App Marketing" transform="translate(1043.999 591.322)">
      <path id="Path_5030" data-name="Path 5030" d="M8.737,39.308a2.31,2.31,0,0,0,2.3,2.3H29.42a2.3,2.3,0,0,0,2.295-2.3c0-.755,0-14.894,0-15.287a25.015,25.015,0,0,1,5.968-.185.723.723,0,0,0,.675-1.1L36.575,19.9A3.392,3.392,0,0,0,33,14.229l-1.29-2.05c0-.664,0,2.469,0-7.135A2.3,2.3,0,0,0,29.42,2.75H11.031A2.3,2.3,0,0,0,8.737,5.045C8.739,39.708,8.737,34.82,8.737,39.308ZM37.372,22.892c-.062,0-.978-.053-1.376-.063l-5.881-9.344c.222-.5.509-1.195.538-1.268l3.84,6.1Zm-11.836,2.2-1.987-3.157a20.061,20.061,0,0,0,6.093-7.48l5.273,8.377A20.1,20.1,0,0,0,25.537,25.094Zm1.279.385a2.242,2.242,0,0,1-.7,2.692l-.678-1.078a1.078,1.078,0,0,0,.542-1.182C26.235,25.774,26.53,25.613,26.815,25.479Zm.5,6.391a.131.131,0,0,1-.06.085l-.636.4a.131.131,0,0,1-.1.017.133.133,0,0,1-.084-.06L23.8,28.128l.865-.544,2.634,4.184h0A.129.129,0,0,1,27.312,31.87Zm-4.863-3.979a.136.136,0,0,1-.187-.042L19.65,23.7a.137.137,0,0,1,.042-.187l2.581-1.624a.135.135,0,0,1,.186.042h0l2.613,4.151v0a.13.13,0,0,1-.038.176l-.005.005C22.627,27.776,23.236,27.395,22.449,27.891Zm-1.875-1-1.1.693a.137.137,0,0,1-.187-.042l-.646-1.026a.136.136,0,0,1,.042-.187l1.1-.693ZM9.656,5.047A1.378,1.378,0,0,1,11.033,3.67H29.42A1.378,1.378,0,0,1,30.8,5.047V7.621H9.656ZM30.8,39.311a1.378,1.378,0,0,1-1.376,1.374H11.031a1.38,1.38,0,0,1-1.375-1.374v-3.8H30.8v3.8Zm0-4.721H9.656V8.539H30.8v2.552a.726.726,0,0,0-.86.439l-.007.018A20.733,20.733,0,0,1,23,21.183a1.039,1.039,0,0,0-1.218-.073L19.2,22.734a1.055,1.055,0,0,0-.33,1.453l.422.671-1.1.693A1.055,1.055,0,0,0,17.864,27l.646,1.027a1.055,1.055,0,0,0,1.453.33l1.1-.693.422.671a1.055,1.055,0,0,0,1.453.33l.081-.051L25.653,32.8a1.045,1.045,0,0,0,.657.466,1.081,1.081,0,0,0,.236.027,1.044,1.044,0,0,0,.559-.162l.636-.4a1.053,1.053,0,0,0,.33-1.452L26.6,28.94a3.143,3.143,0,0,0,1.051-3.812,17.958,17.958,0,0,1,3.146-.945V34.59Zm5.648-18.566a2.476,2.476,0,0,1-.358,3.1L34.84,17.146l-.2-.321-1.145-1.819A2.478,2.478,0,0,1,36.444,16.024Z" transform="translate(0)" fill="#ed8003"/>
      <path id="Path_5031" data-name="Path 5031" d="M28,6.73H23.731a.459.459,0,1,0,0,.918H28a.459.459,0,0,0,0-.918Z" transform="translate(-5.641 -1.545)" fill="#ed8003"/>
      <path id="Path_5032" data-name="Path 5032" d="M26.417,61.144A1.719,1.719,0,1,0,24.7,59.425,1.724,1.724,0,0,0,26.417,61.144Zm0-2.521a.8.8,0,1,1-.8.8A.805.805,0,0,1,26.417,58.623Z" transform="translate(-6.195 -21.329)" fill="#ed8003"/>
      <path id="Path_5033" data-name="Path 5033" d="M56.905,22.362l.823-.557a.459.459,0,0,0-.514-.761l-.823.557a.459.459,0,0,0,.514.761Z" transform="translate(-18.416 -7.07)" fill="#ed8003"/>
      <path id="Path_5034" data-name="Path 5034" d="M59.051,25.391a.462.462,0,0,0-.49-.425l-.991.071a.459.459,0,0,0,.032.917h.033l.991-.071A.459.459,0,0,0,59.051,25.391Z" transform="translate(-18.786 -8.621)" fill="#ed8003"/>
      <path id="Path_5035" data-name="Path 5035" d="M53.832,20.129a.459.459,0,0,0,.414-.258l.435-.894a.459.459,0,0,0-.826-.4l-.435.894a.459.459,0,0,0,.412.66Z" transform="translate(-17.324 -6.042)" fill="#ed8003"/>
    </g>
  </g>
</svg>
