<svg xmlns="http://www.w3.org/2000/svg" width="49" height="49" viewBox="0 0 49 49">
  <g id="Group_2170" data-name="Group 2170" transform="translate(-1.909 -1.999)">
    <path id="Path_5407" data-name="Path 5407" d="M47.185,13.518l3.4-3.4a1.112,1.112,0,0,0-.628-1.886l-4.621-.659-.659-4.621a1.111,1.111,0,0,0-1.886-.628l-3.4,3.4a24.5,24.5,0,1,0,7.8,7.795Zm-3.935-4.8a1.114,1.114,0,0,0,.943.943l3.245.462-2.45,2.451h0L43.181,14.38,39.11,13.8l-.583-4.071,1.808-1.807h0l2.451-2.45ZM29.793,26.449a3.334,3.334,0,1,1-3.334-3.334,3.3,3.3,0,0,1,1.428.334l-2.214,2.215a1.111,1.111,0,1,0,1.572,1.572l2.214-2.214A3.3,3.3,0,0,1,29.793,26.449Zm-.275-4.631A5.573,5.573,0,1,0,31.09,23.39l4.757-4.757a12.244,12.244,0,1,1-1.572-1.572ZM26.459,48.675A22.226,22.226,0,1,1,37.786,7.327L36.563,8.549a1.113,1.113,0,0,0-.315.943l.7,4.9-1.1,1.1a14.489,14.489,0,1,0,1.571,1.571l1.1-1.1,4.9.7a1.1,1.1,0,0,0,.157.011c.009,0,.017-.005.027-.005a1.076,1.076,0,0,0,.379-.075c.016-.006.029-.014.044-.021a1.117,1.117,0,0,0,.335-.224l1.222-1.222A22.225,22.225,0,0,1,26.459,48.675Z" transform="translate(0)" fill="#1b78fe"/>
  </g>
</svg>
