<svg xmlns="http://www.w3.org/2000/svg" width="97" height="97" viewBox="0 0 97 97">
  <g id="Group_2214" data-name="Group 2214" transform="translate(-1393 -372)">
    <circle id="Ellipse_90" data-name="Ellipse 90" cx="48.5" cy="48.5" r="48.5" transform="translate(1393 372)" fill="#c5ebf9"/>
    <g id="Group_2210" data-name="Group 2210" transform="translate(-1424.307 -454.307)">
      <g id="Group_2209" data-name="Group 2209" transform="translate(2844.994 852)">
        <path id="Path_5453" data-name="Path 5453" d="M7.4,959.346a.5.5,0,0,0-.4.542l.991,8.92a.5.5,0,0,0,.852.294l2.137-2.137,5.589,5.126a.5.5,0,0,0,.139.093,14.332,14.332,0,0,0,0,16.942.493.493,0,0,0-.139.077l-5.589,5.126-2.137-2.137a.5.5,0,0,0-.852.294L7,1001.407a.5.5,0,0,0,.557.542l8.918-.991a.5.5,0,0,0,.294-.836l-2.106-2.106,5.558-5.111a.5.5,0,0,0,.155-.279,14.328,14.328,0,0,0,15.854.016.5.5,0,0,0,.155.263l5.558,5.111-2.106,2.106a.5.5,0,0,0,.294.836l8.918.991a.5.5,0,0,0,.557-.542l-.991-8.92a.5.5,0,0,0-.852-.294l-2.137,2.137L40.036,989.2a.5.5,0,0,0-.139-.077,14.332,14.332,0,0,0,0-16.942.5.5,0,0,0,.139-.093l5.589-5.126,2.137,2.137a.5.5,0,0,0,.852-.294l.991-8.92a.5.5,0,0,0-.557-.542l-8.918.991a.5.5,0,0,0-.294.836l2.106,2.106-5.558,5.111a.5.5,0,0,0-.155.294,14.328,14.328,0,0,0-15.854-.016.5.5,0,0,0-.155-.279l-5.558-5.111,2.106-2.106a.5.5,0,0,0-.294-.836l-8.918-.991a.5.5,0,0,0-.155,0Zm.65,1.038,7.277.821-1.75,1.75a.5.5,0,0,0,.015.712l5.945,5.451a.5.5,0,0,0,.108.077,14.453,14.453,0,0,0-2.353,2.23.491.491,0,0,0-.046-.062L11.3,965.912a.5.5,0,0,0-.7.016L8.87,967.662l-.821-7.279Zm40.5,0-.821,7.279L46,965.927a.5.5,0,0,0-.7-.015l-5.945,5.451a.5.5,0,0,0-.046.062,14.465,14.465,0,0,0-2.338-2.23.493.493,0,0,0,.093-.077l5.945-5.451a.5.5,0,0,0,.016-.712l-1.75-1.75,7.277-.821ZM28.3,967.275a13.372,13.372,0,0,1,9.367,22.92c-.364-4.105-3.227-8.031-7.076-9.183a4.459,4.459,0,1,0-4.583,0c-3.849,1.153-6.711,5.078-7.076,9.183a13.372,13.372,0,0,1,9.367-22.92Zm0,6.442a3.469,3.469,0,1,1-3.468,3.469A3.461,3.461,0,0,1,28.3,973.717Zm0,7.929c.164,0,.333.005.5.015a.5.5,0,0,0,.015.108l1.486,5.451a.5.5,0,0,0,.062.139L28.3,989.807l-2.059-2.447a.5.5,0,0,0,.062-.139l1.486-5.451a.5.5,0,0,0,.015-.108c.162-.012.331-.015.5-.015Zm-1.564.186-1.254,4.63-2.26-2.664-.015-.015a8.067,8.067,0,0,1,3.53-1.951Zm3.127,0a8.072,8.072,0,0,1,3.53,1.936l-.015.031-2.26,2.664-1.254-4.63Zm-7.354,2.633,5.419,6.411a.5.5,0,0,0,.743,0l5.419-6.411a10.08,10.08,0,0,1,2.632,6.6,13.416,13.416,0,0,1-16.845,0A10.08,10.08,0,0,1,22.51,984.465Zm-5.218,5.42a14.463,14.463,0,0,0,2.338,2.23.493.493,0,0,0-.093.062l-5.945,5.451a.5.5,0,0,0-.016.712l1.75,1.75-7.277.821.821-7.279,1.734,1.734a.5.5,0,0,0,.7.015l5.945-5.451a.493.493,0,0,0,.046-.047Zm22.016,0a.5.5,0,0,0,.046.047l5.945,5.451a.5.5,0,0,0,.7-.015l1.734-1.734.821,7.279-7.277-.821,1.75-1.75a.5.5,0,0,0-.016-.712l-5.945-5.451a.5.5,0,0,0-.108-.062,14.453,14.453,0,0,0,2.353-2.23Z" transform="translate(-6.994 -959.34)" fill="#00425a"/>
      </g>
    </g>
  </g>
</svg>
