<svg xmlns="http://www.w3.org/2000/svg" width="55" height="55" viewBox="0 0 55 55">
  <g id="Group_2568" data-name="Group 2568" transform="translate(-544.711 -649.237)">
    <circle id="Ellipse_206" data-name="Ellipse 206" cx="27.5" cy="27.5" r="27.5" transform="translate(544.711 649.237)" fill="rgba(0,103,249,0.1)"/>
    <path id="_1904663_bubble_chat_comment_communication_message_icon" data-name="1904663_bubble_chat_comment_communication_message_icon" d="M27.207,0H3.612A3.612,3.612,0,0,0,0,3.612V19.158A3.612,3.612,0,0,0,3.612,22.77H9.217a.241.241,0,0,1,.241.241v6.123a1.685,1.685,0,0,0,2.877,1.192l7.483-7.483a.241.241,0,0,1,.171-.07h7.223a3.612,3.612,0,0,0,3.612-3.612V3.612A3.612,3.612,0,0,0,27.207,0Zm2.167,19.158a2.167,2.167,0,0,1-2.167,2.167H19.984a1.685,1.685,0,0,0-1.192.482l-7.476,7.5a.241.241,0,0,1-.412-.171v-6.12a1.685,1.685,0,0,0-1.685-1.685H3.612a2.167,2.167,0,0,1-2.167-2.167V3.612A2.167,2.167,0,0,1,3.612,1.445h23.6a2.167,2.167,0,0,1,2.167,2.167Z" transform="translate(558.062 666.031)" fill="#2279f5"/>
  </g>
</svg>
