<svg xmlns="http://www.w3.org/2000/svg" width="81.769" height="93.5" viewBox="0 0 81.769 93.5">
  <g id="Group_3683" data-name="Group 3683" transform="translate(-1492.5 -3590.943)">
    <circle id="Ellipse_100" data-name="Ellipse 100" cx="37.5" cy="37.5" r="37.5" transform="translate(1492.5 3609.443)" fill="#fde8f5"/>
    <g id="_3586370_award_cup_trophy_icon" data-name="3586370_award_cup_trophy_icon" transform="translate(1507.805 3584.643)">
      <path id="Path_5504" data-name="Path 5504" d="M66.158,12.758a1.152,1.152,0,0,0-.789-.359H54.462V7.376A1.1,1.1,0,0,0,53.385,6.3H22.746A1.1,1.1,0,0,0,21.67,7.376V12.4H10.476a1.152,1.152,0,0,0-.789.359,1.079,1.079,0,0,0-.287.789,43.08,43.08,0,0,0,1.866,10.117c2.3,7.1,6.171,12.126,11.337,14.423,1.722,5.74,5.669,10.261,10.62,12.055v.215A10.418,10.418,0,0,1,22.89,61.048a1.1,1.1,0,0,0-1.076,1.076v6.1A1.1,1.1,0,0,0,22.89,69.3h30.5a1.1,1.1,0,0,0,1.076-1.076v-6.1a1.1,1.1,0,0,0-1.076-1.076A10.718,10.718,0,0,1,42.694,50.357v-.144c5.166-1.794,9.185-6.386,10.907-12.27,4.951-2.368,8.754-7.319,10.978-14.279a39.611,39.611,0,0,0,1.866-10.117A.854.854,0,0,0,66.158,12.758ZM11.624,14.552H21.67V31.773a18.861,18.861,0,0,0,.287,3.516C13.777,30.409,11.983,18.283,11.624,14.552ZM52.309,63.129v3.946H23.966V63.129A12.438,12.438,0,0,0,35.3,50.716,16.7,16.7,0,0,0,38.03,51a14.226,14.226,0,0,0,2.511-.215A12.913,12.913,0,0,0,52.309,63.129ZM40.9,48.563a12.466,12.466,0,0,1-2.8.359,11.563,11.563,0,0,1-3.157-.431,3.867,3.867,0,0,0-.718-.215c-5.956-2.009-10.4-8.611-10.4-16.432V8.524H52.309v23.32c0,7.821-4.449,14.423-10.476,16.432M54.246,35.145a25.638,25.638,0,0,0,.287-3.372V14.552h9.759C63.933,18.283,62.211,30.051,54.246,35.145Z" fill="#e90f83"/>
      <path id="Path_5505" data-name="Path 5505" d="M55.232,24.447l-5.884-.861L46.693,18.2a1.851,1.851,0,0,0-1.579-1h0a1.72,1.72,0,0,0-1.579,1l-2.655,5.382L35,24.447a1.785,1.785,0,0,0-1.435,1.22,1.657,1.657,0,0,0,.431,1.794L38.3,31.623l-1,5.884a1.7,1.7,0,0,0,.718,1.722,1.763,1.763,0,0,0,1.076.359,1.446,1.446,0,0,0,.789-.215l5.453-2.727L50.5,39.372a1.765,1.765,0,0,0,1.866-.144,1.836,1.836,0,0,0,.718-1.722l-1-5.884,4.305-4.162a1.688,1.688,0,0,0,.431-1.794A2.1,2.1,0,0,0,55.232,24.447Zm-5.166,6.027a.9.9,0,0,0-.287.933l1,5.669-4.951-2.583a1.223,1.223,0,0,0-1,0l-5.31,2.655,1-5.74a1.061,1.061,0,0,0-.287-.933l-4.09-4.018,5.669-.861a1.111,1.111,0,0,0,.789-.574l2.511-5.166,2.511,5.166a.952.952,0,0,0,.789.574l5.669.861Z" transform="translate(-6.797 -3.079)" fill="#e90f83"/>
    </g>
  </g>
</svg>
