<svg xmlns="http://www.w3.org/2000/svg" width="97" height="97" viewBox="0 0 97 97">
  <g id="Group_2211" data-name="Group 2211" transform="translate(-199 -372)">
    <circle id="Ellipse_87" data-name="Ellipse 87" cx="48.5" cy="48.5" r="48.5" transform="translate(199 372)" fill="#f9f2ea"/>
    <g id="Group_2205" data-name="Group 2205" transform="translate(208.75 -572.835)">
      <g id="Group_2204" data-name="Group 2204" transform="translate(13.008 967.354)">
        <path id="Path_5451" data-name="Path 5451" d="M25.671,1.274a1.291,1.291,0,0,0,1.206,1.274l4.87.774L3.232,19.435a1.336,1.336,0,0,0-.614,1.821,1.332,1.332,0,0,0,1.866.41L32.908,5.621l-.683,4.256a1.294,1.294,0,1,0,2.549.41l1.183-7.6a1.36,1.36,0,0,0-1.07-1.5L27.264,0c-.888-.023-1.57.41-1.593,1.274Zm14.156,9.012a1.411,1.411,0,0,0-1.3,1.274V43.7a1.339,1.339,0,0,0,1.3,1.274h6.418A1.318,1.318,0,0,0,47.519,43.7V11.561a1.318,1.318,0,0,0-1.274-1.274ZM41.1,12.858H44.97V42.4H41.1ZM26.968,15.43A1.408,1.408,0,0,0,25.694,16.7V43.7a1.335,1.335,0,0,0,1.274,1.274h6.441A1.335,1.335,0,0,0,34.683,43.7V16.7a1.335,1.335,0,0,0-1.274-1.274ZM28.266,18h3.846V42.4H28.266ZM14.133,20.573a1.411,1.411,0,0,0-1.3,1.274V43.7a1.339,1.339,0,0,0,1.3,1.274h6.418a1.339,1.339,0,0,0,1.3-1.274V21.847a1.323,1.323,0,0,0-1.3-1.274Zm1.274,2.549h3.869V42.4H15.407ZM1.274,25.693A1.411,1.411,0,0,0,0,26.991V43.7A1.335,1.335,0,0,0,1.274,44.97H7.715A1.335,1.335,0,0,0,8.989,43.7v-16.7a1.339,1.339,0,0,0-1.274-1.3Zm1.3,2.572H6.418V42.4H2.572Z" transform="translate(0 0.001)" fill="#f27228"/>
      </g>
    </g>
  </g>
</svg>
