<svg xmlns="http://www.w3.org/2000/svg" width="95" height="95" viewBox="0 0 95 95">
  <g id="Group_2268" data-name="Group 2268" transform="translate(261 -1074)">
    <circle id="Ellipse_96" data-name="Ellipse 96" cx="47.5" cy="47.5" r="47.5" transform="translate(-261 1074)" fill="#e90f0f" opacity="0.1"/>
    <path id="Path_5490" data-name="Path 5490" d="M32.083,12a1.188,1.188,0,0,0-.575.186L9.527,25.812a1.188,1.188,0,0,0-.557,1.021v2.989a1.188,1.188,0,0,0,1.188,1.188h3.564V47.643H10.158q-.056,0-.111,0A1.188,1.188,0,0,0,9.323,48l-2.97,2.97A1.188,1.188,0,0,0,6,51.8V55.96a1.188,1.188,0,0,0,1.188,1.188h49.9a1.188,1.188,0,0,0,1.188-1.188V51.8a1.188,1.188,0,0,0-.353-.835L54.954,48a1.188,1.188,0,0,0-.835-.353H50.554V31.01h3.564a1.188,1.188,0,0,0,1.188-1.188V26.833a1.188,1.188,0,0,0-.557-1.021L32.769,12.187A1.188,1.188,0,0,0,32.083,12Zm.056,2.58,20.792,12.9v1.151H11.346V27.483ZM16.1,31.01H25.01V47.643H16.1Zm11.287,0h9.5V47.643h-9.5Zm11.881,0h8.911V47.643H39.267ZM10.641,50.019H53.636L55.9,52.284v2.488H8.376V52.284l2.265-2.265Z" transform="translate(-248.139 1083.426)" fill="#e90f0f"/>
  </g>
</svg>
