<svg xmlns="http://www.w3.org/2000/svg" width="81.76" height="89.928" viewBox="0 0 81.76 89.928">
  <g id="Group_2288" data-name="Group 2288" transform="translate(-1403.188 -300.116)">
    <circle id="Ellipse_180" data-name="Ellipse 180" cx="37.5" cy="37.5" r="37.5" transform="translate(1403.188 315.043)" fill="#fde8f5"/>
    <g id="_4229862_analytics_career_growth_icon" data-name="4229862_analytics_career_growth_icon" transform="translate(1414.582 295.716)">
      <g id="Group_2285" data-name="Group 2285" transform="translate(36.881 28.434)">
        <path id="Path_5506" data-name="Path 5506" d="M164.394,186.1a1.219,1.219,0,0,0-1.217,1.217V199.98h-4.444v-10.5a1.217,1.217,0,1,0-2.433,0V201.2a1.219,1.219,0,0,0,1.217,1.217h6.853a1.219,1.219,0,0,0,1.217-1.217V187.341A1.219,1.219,0,0,0,164.394,186.1Z" transform="translate(-144.225 -165.02)" fill="#e02b2f"/>
        <path id="Path_5507" data-name="Path 5507" d="M209.27,159.4a1.219,1.219,0,0,0-1.217,1.217v19.292h-4.42V164.887a1.217,1.217,0,0,0-2.433,0v16.238a1.219,1.219,0,0,0,1.217,1.217h6.853a1.219,1.219,0,0,0,1.217-1.217V160.641A1.209,1.209,0,0,0,209.27,159.4Z" transform="translate(-177.977 -144.949)" fill="#e02b2f"/>
        <path id="Path_5508" data-name="Path 5508" d="M140.551,102.316a1.153,1.153,0,0,0-.67-.993,1.2,1.2,0,0,0-1.192.074l-7.871,5.239a1.183,1.183,0,0,0-.521,1.092,1.153,1.153,0,0,0,.67.993l3.054,1.515c-3.849,7.772-15.543,10.776-25,9.609a1.219,1.219,0,0,0-1.341,1.043,1.2,1.2,0,0,0,1.043,1.341,37.9,37.9,0,0,0,4.469.273c9.41,0,19.243-3.551,22.992-11.2l3.253,1.614a1.334,1.334,0,0,0,.521.124,1.316,1.316,0,0,0,.67-.2,1.183,1.183,0,0,0,.521-1.092Zm-4.519,6.232h0l-2.16-1.068,4.395-2.93.348,5.289Z" transform="translate(-107.669 -101.199)" fill="#e02b2f"/>
        <path id="Path_5509" data-name="Path 5509" d="M119.494,197.3a1.219,1.219,0,0,0-1.217,1.217V208.4h-4.444v-9.857a1.217,1.217,0,0,0-2.433,0V209.59a1.219,1.219,0,0,0,1.217,1.217h6.878a1.219,1.219,0,0,0,1.217-1.217V198.517A1.219,1.219,0,0,0,119.494,197.3Z" transform="translate(-110.474 -173.439)" fill="#e02b2f"/>
      </g>
      <path id="Path_5510" data-name="Path 5510" d="M41,19.024A7.312,7.312,0,1,0,33.7,11.7,7.312,7.312,0,0,0,41,19.024ZM41,6.808a4.9,4.9,0,1,1-4.891,4.916A4.885,4.885,0,0,1,41,6.808Z" transform="translate(-15.184 0)" fill="#e02b2f"/>
      <path id="Path_5511" data-name="Path 5511" d="M34.7,79.35a1.2,1.2,0,0,0-1.291,1.117L32.271,97c0,.05-.025.1-.025.149L31.2,113.242a1.387,1.387,0,0,1-1.39,1.291h-8a1.4,1.4,0,0,1-1.39-1.291L19.385,97.153a1.2,1.2,0,0,0-.844-1.068c-1.564-.472-1.564-.472-1.688-2.185l-.968-17.083v-.2h.025c1.415-.422,3.873-1.192,5.04-1.589L25,78.8a1.193,1.193,0,0,0,1.639,0l4.072-3.824,11.868,2.682a.845.845,0,0,0,.5,0L54.22,75.377a1.2,1.2,0,1,0-.472-2.359l-10.9,2.235L30.632,72.5a1.181,1.181,0,0,0-1.092.3l-3.7,3.476L22.116,72.8a1.231,1.231,0,0,0-1.192-.273s-3.774,1.217-5.686,1.788A2.343,2.343,0,0,0,13.5,76.644v.3l.944,16.834.025.3c.174,2.557.6,3.327,2.582,4.047l.993,15.27a3.8,3.8,0,0,0,3.8,3.551h8a3.8,3.8,0,0,0,3.774-3.551l1.043-15.965c0-.05.025-.074.025-.124l1.142-16.685A1.21,1.21,0,0,0,34.7,79.35Z" transform="translate(0 -51.164)" fill="#e02b2f"/>
    </g>
  </g>
</svg>
