<svg xmlns="http://www.w3.org/2000/svg" width="70" height="70" viewBox="0 0 70 70">
  <g id="Group_2562" data-name="Group 2562" transform="translate(-216 -256)">
    <g id="Group_2561" data-name="Group 2561">
      <g id="taj_mahal" data-name="taj mahal" transform="translate(227.632 264.632)">
        <path id="Path_6601" data-name="Path 6601" d="M43.033,39.521h-.7V37.414a.7.7,0,0,0-.7-.7h-.7V17.749a.7.7,0,0,0-.7-.7h-.7V14.94a.7.7,0,1,0-1.4,0v2.107H31.093V14.94c0-4.34-1.861-9.369-7.023-9.791V3.7a.7.7,0,1,0-1.4,0V5.149c-5.162.421-7.023,5.45-7.023,9.791v2.107H8.619V14.94a.7.7,0,1,0-1.4,0v2.107h-.7a.7.7,0,0,0-.7.7V36.712h-.7a.7.7,0,0,0-.7.7v2.107H3.7a.7.7,0,0,0-.7.7v2.809a.7.7,0,0,0,.7.7H43.033a.7.7,0,0,0,.7-.7V40.224A.7.7,0,0,0,43.033,39.521Zm-3.512-21.07V36.712H31.093V18.451ZM27.582,36.712V26.7a4.214,4.214,0,0,0-8.428,0V36.712H17.047V15.642H29.689v21.07Zm-1.4,0H20.558V26.7a2.809,2.809,0,1,1,5.619,0Zm-2.809-30.2c5.317,0,6.174,5.478,6.321,7.726H17.047C17.194,11.99,18.051,6.512,23.368,6.512ZM7.214,18.451h8.428V36.712H7.214Zm-1.4,19.665H40.926v1.4H5.809Zm36.521,4.214H4.4v-1.4H42.331Z"/>
        <path id="Path_6602" data-name="Path 6602" d="M13.809,27A2.809,2.809,0,0,0,11,29.809v2.809a.7.7,0,0,0,.7.7h4.214a.7.7,0,0,0,.7-.7V29.809A2.809,2.809,0,0,0,13.809,27Zm1.4,4.916H12.4V29.809a1.4,1.4,0,0,1,2.809,0Z" transform="translate(-2.381 -7.144)"/>
        <path id="Path_6603" data-name="Path 6603" d="M13.809,40A2.809,2.809,0,0,0,11,42.809v2.809a.7.7,0,0,0,.7.7h4.214a.7.7,0,0,0,.7-.7V42.809A2.809,2.809,0,0,0,13.809,40Zm1.4,4.916H12.4V42.809a1.4,1.4,0,0,1,2.809,0Z" transform="translate(-2.381 -11.014)"/>
        <path id="Path_6604" data-name="Path 6604" d="M45.7,33.321h4.214a.7.7,0,0,0,.7-.7V29.809a2.809,2.809,0,0,0-5.619,0v2.809A.7.7,0,0,0,45.7,33.321Zm.7-3.512a1.4,1.4,0,0,1,2.809,0v2.107H46.4Z" transform="translate(-12.502 -7.144)"/>
        <path id="Path_6605" data-name="Path 6605" d="M45.7,46.321h4.214a.7.7,0,0,0,.7-.7V42.809a2.809,2.809,0,0,0-5.619,0v2.809A.7.7,0,0,0,45.7,46.321Zm.7-3.512a1.4,1.4,0,0,1,2.809,0v2.107H46.4Z" transform="translate(-12.502 -11.014)"/>
      </g>
      <g id="Ellipse_204" data-name="Ellipse 204" transform="translate(216 256)" fill="none" stroke="#000" stroke-width="1">
        <circle cx="35" cy="35" r="35" stroke="none"/>
        <circle cx="35" cy="35" r="34.5" fill="none"/>
      </g>
    </g>
  </g>
</svg>
