<svg xmlns="http://www.w3.org/2000/svg" width="69" height="69" viewBox="0 0 69 69">
  <g id="Group_2223" data-name="Group 2223" transform="translate(-454 -571)">
    <g id="Ellipse_91" data-name="Ellipse 91" transform="translate(454 571)" fill="none" stroke="#04bcbc" stroke-width="1" stroke-dasharray="2">
      <circle cx="34.5" cy="34.5" r="34.5" stroke="none"/>
      <circle cx="34.5" cy="34.5" r="34" fill="none"/>
    </g>
    <g id="menu-Search_Engine_Marketing" data-name="menu-Search Engine Marketing" transform="translate(-397.131 -548.913)">
      <g id="Group_2081" data-name="Group 2081" transform="translate(865.33 1136)">
        <path id="Path_5037" data-name="Path 5037" d="M86.794,42.324C86.427,41.9,77.663,31.8,66.631,31.8S46.834,41.9,46.467,42.324a.568.568,0,0,0,0,.739c.347.405,8.192,9.426,18.36,10.423l.109,5.681h-.015a1.234,1.234,0,0,0-1.206,1.252l.072,11.687a3.179,3.179,0,0,0,3.179,3.109h.073l.155,0A3.179,3.179,0,0,0,70.3,71.975l-.073-11.69a1.229,1.229,0,0,0-.381-.867,1.091,1.091,0,0,0-.881-.341l-.089,0-.107-5.622C78.774,52.3,86.451,43.464,86.794,43.063A.568.568,0,0,0,86.794,42.324Zm-39.13.37c1.293-1.391,6.209-6.326,12.616-8.595a10.662,10.662,0,0,0,0,17.187C53.875,49.015,48.957,44.083,47.664,42.694ZM69.089,60.3l.073,11.691a2.042,2.042,0,0,1-1.994,2.083s0,0,0,0l-.155,0a1.9,1.9,0,0,1-1.458-.566,2.023,2.023,0,0,1-.63-1.423l-.072-11.678s.1-.107.1-.108ZM65.964,53.55c.223.008.441.037.666.037.339,0,.668-.037,1-.056l.106,5.573-1.667.037Zm.666-1.289A9.566,9.566,0,1,1,76.2,42.694,9.577,9.577,0,0,1,66.631,52.26Zm6.349-.972a10.663,10.663,0,0,0,0-17.187c6.4,2.27,11.32,7.2,12.613,8.592C84.3,44.085,79.388,49.02,72.98,51.289Z" transform="translate(-46.33 -31.801)" fill="#009e9e"/>
        <path id="Path_5038" data-name="Path 5038" d="M207.946,91.1a5.151,5.151,0,1,0,5.151,5.151A5.158,5.158,0,0,0,207.946,91.1Zm0,9.167a4.016,4.016,0,1,1,4.016-4.016A4.02,4.02,0,0,1,207.946,100.267Z" transform="translate(-187.646 -85.359)" fill="#009e9e"/>
        <path id="Path_5039" data-name="Path 5039" d="M250.7,54.978a.568.568,0,0,0,.568-.568V52.616a.568.568,0,0,0-1.136,0V54.41A.568.568,0,0,0,250.7,54.978Z" transform="translate(-230.402 -50.088)" fill="#009e9e"/>
        <path id="Path_5040" data-name="Path 5040" d="M190.48,79.588a.568.568,0,1,0,.8-.8l-1.268-1.268a.568.568,0,0,0-.8.8Z" transform="translate(-175.227 -72.94)" fill="#009e9e"/>
        <path id="Path_5041" data-name="Path 5041" d="M166.674,139.008a.568.568,0,0,0-.568-.568h-1.794a.568.568,0,0,0,0,1.136h1.794A.568.568,0,0,0,166.674,139.008Z" transform="translate(-152.376 -128.115)" fill="#009e9e"/>
        <path id="Path_5042" data-name="Path 5042" d="M190.479,186.6l-1.268,1.268a.568.568,0,1,0,.8.8l1.268-1.268a.568.568,0,0,0-.8-.8Z" transform="translate(-175.226 -171.459)" fill="#009e9e"/>
        <path id="Path_5043" data-name="Path 5043" d="M250.7,206.305a.568.568,0,0,0-.568.568v1.794a.568.568,0,0,0,1.136,0v-1.794A.568.568,0,0,0,250.7,206.305Z" transform="translate(-230.402 -189.409)" fill="#009e9e"/>
        <path id="Path_5044" data-name="Path 5044" d="M299.1,186.6a.568.568,0,1,0-.8.8l1.268,1.268a.568.568,0,1,0,.8-.8Z" transform="translate(-273.747 -171.459)" fill="#009e9e"/>
        <path id="Path_5045" data-name="Path 5045" d="M320.929,139.008a.568.568,0,0,0-.568-.568h-1.794a.568.568,0,1,0,0,1.136h1.794A.568.568,0,0,0,320.929,139.008Z" transform="translate(-291.696 -128.115)" fill="#009e9e"/>
        <path id="Path_5046" data-name="Path 5046" d="M298.694,79.754a.565.565,0,0,0,.4-.166l1.268-1.268a.568.568,0,0,0-.8-.8l-1.268,1.268a.568.568,0,0,0,.4.969Z" transform="translate(-273.747 -72.94)" fill="#009e9e"/>
      </g>
    </g>
  </g>
</svg>
