<svg xmlns="http://www.w3.org/2000/svg" width="83.834" height="79.798" viewBox="0 0 83.834 79.798">
  <g id="Group_2287" data-name="Group 2287" transform="translate(-928 -368.159)">
    <circle id="Ellipse_181" data-name="Ellipse 181" cx="37.5" cy="37.5" r="37.5" transform="translate(928 372.957)" fill="#fff3d4"/>
    <g id="Group_2207" data-name="Group 2207" transform="translate(-1779.295 -391.927)">
      <g id="Group_2206" data-name="Group 2206" transform="translate(2724.042 760.086)">
        <path id="Path_5452" data-name="Path 5452" d="M18.076,970.362a1.58,1.58,0,0,0-1.383,1.525V1000.4L6.248,1016.794a1.608,1.608,0,0,0,1.288,2.359h64.1a1.608,1.608,0,0,0,1.288-2.359L62.477,1000.4V971.887a1.585,1.585,0,0,0-1.526-1.525H18.076Zm1.669,3.049h39.68v25.92H19.745ZM30.261,977.2a1.58,1.58,0,0,0-1.359,1.548V992.47H26.47a1.526,1.526,0,1,0,.143,3.049H52.557a1.525,1.525,0,1,0,0-3.049H50.268v-7.624a1.526,1.526,0,1,0-3.052,0v7.624h-6.1V981.8a1.526,1.526,0,1,0-3.052,0V992.47h-6.1V978.748a1.592,1.592,0,0,0-1.693-1.548Zm-11.208,25.181H60.117l8.752,13.722H10.3Zm15.047,8.386a1.526,1.526,0,1,0,.143,3.049H44.927a1.525,1.525,0,1,0,0-3.049H34.1Z" transform="translate(-6.042 -970.362)" fill="#ffb300"/>
      </g>
    </g>
  </g>
</svg>
