<svg xmlns="http://www.w3.org/2000/svg" width="95" height="95" viewBox="0 0 95 95">
  <g id="Group_2267" data-name="Group 2267" transform="translate(-1273 -515)">
    <circle id="Ellipse_96" data-name="Ellipse 96" cx="47.5" cy="47.5" r="47.5" transform="translate(1273 515)" fill="#1B78FE" opacity="0.1"/>
    <g id="Group_2266" data-name="Group 2266" transform="translate(1294.787 541)">
      <path id="Path_5487" data-name="Path 5487" d="M23.324,50a4.324,4.324,0,1,0,4.324,4.324A4.3,4.3,0,0,0,23.324,50Zm0,6.176a1.853,1.853,0,1,1,1.853-1.853A1.82,1.82,0,0,1,23.324,56.176Z" transform="translate(-12.762 -29)" fill="#1B78FE"/>
      <path id="Path_5488" data-name="Path 5488" d="M72.324,50a4.324,4.324,0,1,0,4.324,4.324A4.3,4.3,0,0,0,72.324,50Zm0,6.176a1.853,1.853,0,1,1,1.853-1.853A1.82,1.82,0,0,1,72.324,56.176Z" transform="translate(-31.497 -29)" fill="#1B78FE"/>
      <rect id="Rectangle_2858" data-name="Rectangle 2858" width="17" height="2" transform="translate(17.213 22)" fill="#1B78FE"/>
      <rect id="Rectangle_2859" data-name="Rectangle 2859" width="17" height="3" transform="translate(17.213 26)" fill="#1B78FE"/>
      <path id="Path_5489" data-name="Path 5489" d="M58.126,25.512l-4.694.865-1.606-6.609A4.954,4.954,0,0,0,47.009,16H21.5a4.954,4.954,0,0,0-4.818,3.768l-1.606,6.609-4.694-.865A1.269,1.269,0,0,0,8.9,26.747v2.409a1.256,1.256,0,0,0,1.05,1.235l3.953.741-.124.494a4.911,4.911,0,0,0-3.644,4.756V49.353a2.478,2.478,0,0,0,2.471,2.471v4.324A1.82,1.82,0,0,0,14.459,58h6.176a1.82,1.82,0,0,0,1.853-1.853V51.824H46.576v4.324A1.82,1.82,0,0,0,48.429,58h6.176a1.82,1.82,0,0,0,1.853-1.853V51.824a2.478,2.478,0,0,0,2.471-2.471V36.382A4.883,4.883,0,0,0,54.668,31.5l-.062-.371,3.953-.741c.618-.124,1.668-.618,1.668-1.235V26.747C60.226,26.006,58.929,25.388,58.126,25.512ZM19.091,20.385A2.453,2.453,0,0,1,21.5,18.471H47.071a2.453,2.453,0,0,1,2.409,1.915l2.656,11.056h-35.7Zm.988,35.144H15.138V51.824h4.941Zm33.971,0H49.109V51.824H54.05Zm2.471-19.147V49.353H12.668V36.382a2.478,2.478,0,0,1,2.471-2.471H54.05A2.478,2.478,0,0,1,56.521,36.382Z" transform="translate(-8.9 -16)" fill="#1B78FE"/>
    </g>
  </g>
</svg>
