<svg xmlns="http://www.w3.org/2000/svg" width="55" height="55" viewBox="0 0 55 55">
  <g id="Group_2564" data-name="Group 2564" transform="translate(-222.649 -584.237)">
    <circle id="Ellipse_199" data-name="Ellipse 199" cx="27.5" cy="27.5" r="27.5" transform="translate(222.649 584.237)" fill="#daf5e2" opacity="0.7"/>
    <g id="Group_2559" data-name="Group 2559" transform="translate(5358.999 -299.5)">
      <g id="Group_2270" data-name="Group 2270" transform="translate(-5125.999 898)">
        <path id="Path_5491" data-name="Path 5491" d="M56.136,5.007a.625.625,0,0,0,.047,1.249A10.252,10.252,0,0,1,66.606,16.679a.625.625,0,0,0,.6.648h.024a.625.625,0,0,0,.624-.6A11.5,11.5,0,0,0,56.136,5.007Z" transform="translate(-39.749 -4.999)" fill="#12acac"/>
        <path id="Path_5492" data-name="Path 5492" d="M60.863,21.694a6.52,6.52,0,0,1,1.873,4.223.625.625,0,0,0,.623.58l.045,0a.625.625,0,0,0,.579-.668,7.672,7.672,0,0,0-7.254-7.254.625.625,0,0,0-.088,1.247A6.52,6.52,0,0,1,60.863,21.694Z" transform="translate(-40.11 -14.333)" fill="#12acac"/>
        <path id="Path_5493" data-name="Path 5493" d="M28.532,24.61a3.635,3.635,0,0,0-5.14,0l-1.117,1.117a1.52,1.52,0,0,1-1.95.155,24.044,24.044,0,0,1-3.209-2.7h0a24.051,24.051,0,0,1-2.695-3.209,1.52,1.52,0,0,1,.155-1.95l1.117-1.117a3.638,3.638,0,0,0,0-5.14L13.169,9.248a3.635,3.635,0,0,0-5.14,0L6.878,10.4a6.292,6.292,0,0,0-1.811,5.348A21.972,21.972,0,0,0,7.919,23.58a25.227,25.227,0,0,0,8.8,8.8,21.972,21.972,0,0,0,7.835,2.853,5.926,5.926,0,0,0,.885.066A6.347,6.347,0,0,0,29.9,33.424l1.15-1.15a3.635,3.635,0,0,0,0-5.14ZM24.743,34a20.72,20.72,0,0,1-7.386-2.693,23.972,23.972,0,0,1-8.362-8.363A20.716,20.716,0,0,1,6.3,15.56a5.039,5.039,0,0,1,1.459-4.279l.708-.708.948.948a.625.625,0,0,0,.883-.883l-.887-.887a2.388,2.388,0,0,1,2.872.38l2.524,2.524a2.387,2.387,0,0,1,.38,2.872l-3.683-3.683a.625.625,0,1,0-.884.883l3.743,3.743-.674.674a2.768,2.768,0,0,0-.3,3.549,25.316,25.316,0,0,0,2.835,3.376l.442-.442-.442.442a25.284,25.284,0,0,0,3.376,2.835,2.767,2.767,0,0,0,3.549-.3l.674-.674L27.6,29.708a.625.625,0,1,0,.884-.883l-3.712-3.712a2.381,2.381,0,0,1,2.873.381l2.524,2.524a2.381,2.381,0,0,1,.381,2.873l-.879-.879a.625.625,0,0,0-.884.883l.939.939-.708.708A5.034,5.034,0,0,1,24.743,34Z" transform="translate(-5.001 -7.188)" fill="#12acac"/>
      </g>
    </g>
  </g>
</svg>
