<svg id="Guest_" data-name="Guest " xmlns="http://www.w3.org/2000/svg" width="98.819" height="81.758" viewBox="0 0 98.819 81.758">
  <path id="Path_5012" data-name="Path 5012" d="M45.786,51.778a19.084,19.084,0,1,1,19.092-19.09A19.084,19.084,0,0,1,45.786,51.778Zm0-34.927a15.831,15.831,0,1,0,0-.008Z" transform="translate(-7.545 -13.61)" fill="#fff"/>
  <path id="Path_5013" data-name="Path 5013" d="M4.681,105.576a1.621,1.621,0,0,1-1.621-1.621A37.512,37.512,0,0,1,31.423,67.489a1.621,1.621,0,0,1,1.783.737L41.18,81.508l6.758-13.152a1.621,1.621,0,0,1,1.84-.81,36.531,36.531,0,0,1,7.577,2.78A1.621,1.621,0,1,1,55.88,73.21a32.746,32.746,0,0,0-5.673-2.229L43.53,84.1a2.52,2.52,0,0,1-2.2,1.321h0a2.658,2.658,0,0,1-2.269-1.232L31.074,70.981A34.279,34.279,0,0,0,6.3,103.955a1.621,1.621,0,0,1-1.621,1.621Zm37.107-23.1Z" transform="translate(-3.06 -23.818)" fill="#fff"/>
  <path id="Path_5014" data-name="Path 5014" d="M97.393,94.6a8.606,8.606,0,1,1,4.287-1.151h0A8.55,8.55,0,0,1,97.393,94.6Zm3.476-2.553Zm-3.5-11.418a5.365,5.365,0,1,0,2.69,10.016h0a5.365,5.365,0,0,0-2.69-10.016Z" transform="translate(-19.314 -25.705)" fill="#fff"/>
  <path id="Path_5015" data-name="Path 5015" d="M100.119,104.239H88.944a1.621,1.621,0,0,1-1.621-1.621V98.161a16.006,16.006,0,0,1-1.88-1.086l-3.622,2.172a1.621,1.621,0,0,1-2.253-.6L73.952,88.6a1.621,1.621,0,0,1,.583-2.18l3.525-2.107a16.566,16.566,0,0,1,0-2.52l-3.525-2.107a1.621,1.621,0,0,1-.583-2.18l5.592-10.04a1.621,1.621,0,0,1,2.277-.632L85.459,69c.251-.162.519-.332.81-.511s.713-.405,1.053-.575V63.461a1.621,1.621,0,0,1,1.621-1.621h11.175a1.621,1.621,0,0,1,1.621,1.621v4.457A15.983,15.983,0,0,1,103.62,69l3.614-2.172a1.621,1.621,0,0,1,2.253.6l5.592,10.04a1.621,1.621,0,0,1-.583,2.18l-3.525,2.107a16.617,16.617,0,0,1,0,2.52l3.525,2.107a1.621,1.621,0,0,1,.583,2.18l-5.592,10.04a1.621,1.621,0,0,1-2.245.6L103.6,97.034c-.251.162-.519.332-.81.511s-.713.405-1.053.575v4.457a1.621,1.621,0,0,1-1.621,1.661ZM90.565,101H98.5v-3.89A1.621,1.621,0,0,1,99.527,95.6a11.142,11.142,0,0,0,1.621-.81,12.964,12.964,0,0,0,1.386-.94,1.621,1.621,0,0,1,1.84-.122l3.112,1.864,4.011-7.2-3.071-1.831a1.621,1.621,0,0,1-.81-1.621,13.412,13.412,0,0,0,0-3.784,1.621,1.621,0,0,1,.81-1.621l3.063-1.831-4.052-7.2-3.1,1.864a1.621,1.621,0,0,1-1.823-.105,12.762,12.762,0,0,0-3.031-1.75A1.621,1.621,0,0,1,98.474,69v-3.89H90.565V69a1.621,1.621,0,0,1-1.029,1.507,11.217,11.217,0,0,0-1.621.81,12.905,12.905,0,0,0-1.386.932,1.621,1.621,0,0,1-1.84.122l-3.112-1.864-4.011,7.2,3.071,1.831a1.621,1.621,0,0,1,.81,1.621,13.4,13.4,0,0,0,0,3.784,1.621,1.621,0,0,1-.81,1.621L77.574,88.4l4.052,7.2,3.1-1.864a1.621,1.621,0,0,1,1.823.105,12.8,12.8,0,0,0,3.031,1.75,1.621,1.621,0,0,1,1.013,1.5Z" transform="translate(-16.465 -22.756)" fill="#fff"/>
</svg>
