<svg id="menu-Social_Media_Marketing" data-name="menu-Social Media Marketing" xmlns="http://www.w3.org/2000/svg" width="24.398" height="22.052" viewBox="0 0 24.398 22.052">
  <path id="Path_5017" data-name="Path 5017" d="M133.492,372.109a1.113,1.113,0,0,1-.453-.1,1.1,1.1,0,0,1-.58-.615l-2.068-5.452a1.1,1.1,0,0,1,.639-1.424l7.17-2.721,2.853,7.515-7.167,2.721A1.1,1.1,0,0,1,133.492,372.109Zm4.242-9.262-6.412,2.435a.3.3,0,0,0-.173.38l2.068,5.452a.3.3,0,0,0,.38.173l6.412-2.435Z" transform="translate(-128.414 -354.824)" fill="#0253e9"/>
  <path id="Path_5018" data-name="Path 5018" d="M62.139,513.789a1.446,1.446,0,0,1-1.351-.933l-.984-2.6a1.447,1.447,0,0,1,.839-1.863l1.836-.7L64.49,513l-1.842.7A1.41,1.41,0,0,1,62.139,513.789ZM62,508.744l-1.079.41a.637.637,0,0,0-.369.82l.984,2.6a.637.637,0,0,0,.82.369l1.079-.41Z" transform="translate(-59.709 -496.79)" fill="#0253e9"/>
  <path id="Path_5019" data-name="Path 5019" d="M408.775,119.3a.537.537,0,0,1-.113-.011h0l-9.03-1.583-2.732-7.189,5.706-7.175a.664.664,0,0,1,1.141.178l5.646,14.882a.667.667,0,0,1-.108.658A.658.658,0,0,1,408.775,119.3Zm-8.553-2.311,8.327,1.459-5.466-14.4-5.261,6.617Z" transform="translate(-387.808 -103.095)" fill="#0253e9"/>
  <path id="Path_5020" data-name="Path 5020" d="M268.149,651.953a.543.543,0,0,1-.485-.3l-2.764-5.428,4.549-1.726.539,1.418a1.671,1.671,0,0,1-.21,1.575l-.275.38,1.292,2.462a.541.541,0,0,1,.027.448.552.552,0,0,1-.318.318l-2.16.82A.6.6,0,0,1,268.149,651.953Zm-2.119-5.293,2.246,4.417,1.664-.631-1.389-2.643.572-.787a.85.85,0,0,0,.108-.812l-.251-.661Z" transform="translate(-259.367 -629.901)" fill="#0253e9"/>
  <rect id="Rectangle_2719" data-name="Rectangle 2719" width="0.809" height="2.559" transform="translate(23.431 5.665) rotate(69.218)" fill="#0253e9"/>
  <rect id="Rectangle_2720" data-name="Rectangle 2720" width="0.809" height="2.562" transform="translate(20.411 1.328) rotate(43.797)" fill="#0253e9"/>
  <rect id="Rectangle_2721" data-name="Rectangle 2721" width="2.559" height="0.809" transform="translate(21.848 10.659) rotate(4.639)" fill="#0253e9"/>
  <rect id="Rectangle_2722" data-name="Rectangle 2722" width="0.809" height="4.236" transform="translate(8.43 9.725) rotate(69.218)" fill="#0253e9"/>
</svg>
