<svg xmlns="http://www.w3.org/2000/svg" width="18.645" height="22.978" viewBox="0 0 18.645 22.978">
  <g id="menu-Mobile_App_Marketing" data-name="menu-Mobile App Marketing" transform="translate(-8.737 -2.75)">
    <path id="Path_5030" data-name="Path 5030" d="M8.737,24.369a1.366,1.366,0,0,0,1.358,1.359H20.968a1.363,1.363,0,0,0,1.357-1.359c0-.446,0-8.808,0-9.04a14.793,14.793,0,0,1,3.53-.109.428.428,0,0,0,.4-.653L25.2,12.893a2.006,2.006,0,0,0-2.112-3.355l-.763-1.212c0-.393,0,1.46,0-4.219A1.358,1.358,0,0,0,20.969,2.75H10.094A1.358,1.358,0,0,0,8.737,4.107C8.738,24.606,8.737,21.715,8.737,24.369Zm16.934-9.708c-.036,0-.579-.032-.814-.037L21.379,9.1c.131-.293.3-.706.318-.75l2.271,3.607Zm-7,1.3L17.5,14.1a11.863,11.863,0,0,0,3.6-4.423l3.118,4.954A11.885,11.885,0,0,0,18.672,15.964Zm.756.227a1.326,1.326,0,0,1-.412,1.592l-.4-.637a.638.638,0,0,0,.321-.7C19.085,16.366,19.259,16.271,19.428,16.191Zm.294,3.78a.078.078,0,0,1-.035.05l-.376.237a.077.077,0,0,1-.06.01.079.079,0,0,1-.05-.035l-1.558-2.475.511-.322,1.558,2.474h0A.076.076,0,0,1,19.722,19.971Zm-2.876-2.353a.081.081,0,0,1-.111-.025l-1.545-2.454a.081.081,0,0,1,.025-.111l1.526-.96a.08.08,0,0,1,.11.025h0L18.4,16.547v0a.077.077,0,0,1-.022.1l0,0C16.951,17.55,17.312,17.324,16.846,17.618Zm-1.109-.592-.651.41a.081.081,0,0,1-.111-.025l-.382-.607a.08.08,0,0,1,.025-.111l.651-.41ZM9.281,4.108a.815.815,0,0,1,.814-.814H20.968a.815.815,0,0,1,.814.814V5.631H9.281Zm12.5,20.263a.815.815,0,0,1-.813.813H10.094a.816.816,0,0,1-.813-.813V22.122h12.5v2.249Zm0-2.792H9.281V6.173h12.5V7.682a.43.43,0,0,0-.509.26l0,.011a12.261,12.261,0,0,1-4.1,5.7.615.615,0,0,0-.721-.043l-1.526.96a.624.624,0,0,0-.2.859l.25.4-.651.41a.624.624,0,0,0-.2.859l.382.607a.624.624,0,0,0,.859.2l.651-.41.25.4a.624.624,0,0,0,.859.2l.048-.03,1.558,2.474a.618.618,0,0,0,.389.276.639.639,0,0,0,.14.016.618.618,0,0,0,.33-.1l.376-.237a.623.623,0,0,0,.2-.859L19.3,18.238a1.859,1.859,0,0,0,.621-2.254,10.62,10.62,0,0,1,1.861-.559v6.155ZM25.122,10.6a1.464,1.464,0,0,1-.212,1.834l-.737-1.17-.119-.19L23.377,10A1.465,1.465,0,0,1,25.122,10.6Z" transform="translate(0 0)" fill="#e94102"/>
    <path id="Path_5031" data-name="Path 5031" d="M26.07,6.73H23.544a.271.271,0,1,0,0,.543H26.07a.271.271,0,0,0,0-.543Z" transform="translate(-9.276 -2.54)" fill="#e94102"/>
    <path id="Path_5032" data-name="Path 5032" d="M25.715,59.739A1.017,1.017,0,1,0,24.7,58.722,1.02,1.02,0,0,0,25.715,59.739Zm0-1.491a.474.474,0,1,1-.474.474A.476.476,0,0,1,25.715,58.248Z" transform="translate(-10.185 -35.069)" fill="#e94102"/>
    <path id="Path_5033" data-name="Path 5033" d="M56.613,21.792l.487-.329a.271.271,0,0,0-.3-.45l-.487.329a.271.271,0,0,0,.3.45Z" transform="translate(-30.281 -11.624)" fill="#e94102"/>
    <path id="Path_5034" data-name="Path 5034" d="M58.271,25.217a.273.273,0,0,0-.29-.251l-.586.042a.271.271,0,0,0,.019.542h.019l.586-.042A.271.271,0,0,0,58.271,25.217Z" transform="translate(-30.89 -14.176)" fill="#e94102"/>
    <path id="Path_5035" data-name="Path 5035" d="M53.645,19.389a.272.272,0,0,0,.245-.153l.257-.528a.272.272,0,0,0-.488-.237L53.4,19a.272.272,0,0,0,.244.39Z" transform="translate(-28.484 -9.935)" fill="#e94102"/>
  </g>
</svg>
