<svg xmlns="http://www.w3.org/2000/svg" width="23.985" height="23.984" viewBox="0 0 23.985 23.984">
  <g id="menu-Content_Marketing_" data-name="menu-Content Marketing " transform="translate(-0.819 -0.822)">
    <path id="Path_5036" data-name="Path 5036" d="M23.053,11.063a1.75,1.75,0,0,0-1.723,1.472H19a6.161,6.161,0,0,0-1.612-3.9l1.645-1.645a1.751,1.751,0,1,0-.4-.4L16.992,8.238a6.168,6.168,0,0,0-3.9-1.619V4.3a1.751,1.751,0,1,0-.559,0V6.619a6.165,6.165,0,0,0-3.9,1.62L6.986,6.594a1.751,1.751,0,1,0-.4.4L8.237,8.635a6.165,6.165,0,0,0-1.61,3.9H4.293a1.752,1.752,0,1,0,0,.559H6.627a6.156,6.156,0,0,0,1.618,3.891L6.591,18.639a1.752,1.752,0,1,0,.4.4l1.656-1.656a6.076,6.076,0,0,0,3.89,1.607v2.346a1.752,1.752,0,1,0,.559,0V18.986a6.094,6.094,0,0,0,3.892-1.606l1.654,1.654a1.751,1.751,0,1,0,.4-.4l-1.652-1.652A6.168,6.168,0,0,0,19,13.094h2.33a1.749,1.749,0,1,0,1.723-2.031ZM19.21,4.729A1.192,1.192,0,0,1,20.9,6.416a1.221,1.221,0,0,1-1.686,0A1.192,1.192,0,0,1,19.21,4.729ZM11.619,2.573a1.192,1.192,0,1,1,1.192,1.193A1.194,1.194,0,0,1,11.619,2.573ZM4.727,6.416a1.192,1.192,0,1,1,1.686,0A1.221,1.221,0,0,1,4.727,6.416ZM2.571,14.006a1.193,1.193,0,1,1,1.193-1.193A1.194,1.194,0,0,1,2.571,14.006Zm10.232-.6h.022a3.605,3.605,0,0,1,3.587,3.738,5.645,5.645,0,0,1-7.2,0A3.6,3.6,0,0,1,12.8,13.405Zm-1.555-2.124a1.566,1.566,0,1,1,1.573,1.565h-.014A1.567,1.567,0,0,1,11.248,11.281ZM6.414,20.9a1.221,1.221,0,0,1-1.686,0,1.192,1.192,0,1,1,1.686,0ZM14,23.055a1.192,1.192,0,1,1-1.193-1.193A1.194,1.194,0,0,1,14,23.055ZM20.9,19.212a1.191,1.191,0,0,1,0,1.686,1.22,1.22,0,0,1-1.686,0A1.192,1.192,0,0,1,20.9,19.212Zm-3.943-2.586a4.17,4.17,0,0,0-2.931-3.6,2.125,2.125,0,1,0-2.418,0,4.17,4.17,0,0,0-2.931,3.6,5.64,5.64,0,1,1,8.28,0Zm6.1-2.62a1.193,1.193,0,1,1,1.193-1.193A1.194,1.194,0,0,1,23.053,14.006Z" transform="translate(0 0)" fill="#020711"/>
  </g>
</svg>
