<svg xmlns="http://www.w3.org/2000/svg" width="20.676" height="22.109" viewBox="0 0 20.676 22.109">
  <g id="menu-Search_Engine_Marketing" data-name="menu-Search Engine Marketing" transform="translate(-865.33 -1136)">
    <g id="Group_2081" data-name="Group 2081" transform="translate(865.33 1136)">
      <path id="Path_5037" data-name="Path 5037" d="M66.936,37.16c-.187-.219-4.65-5.359-10.268-5.359S46.587,36.941,46.4,37.16a.289.289,0,0,0,0,.376c.177.206,4.172,4.8,9.35,5.308l.056,2.893H55.8a.628.628,0,0,0-.614.638l.037,5.951a1.619,1.619,0,0,0,1.619,1.583h.116a1.619,1.619,0,0,0,1.581-1.648L58.5,46.306a.626.626,0,0,0-.194-.441.555.555,0,0,0-.448-.174h-.045l-.055-2.863c5.1-.589,9.005-5.089,9.18-5.293A.289.289,0,0,0,66.936,37.16Zm-19.927.188a17.609,17.609,0,0,1,6.425-4.377,5.43,5.43,0,0,0,0,8.752A17.643,17.643,0,0,1,47.009,37.348ZM57.92,46.314l.037,5.954a1.04,1.04,0,0,1-1.016,1.061h-.08a.967.967,0,0,1-.742-.288,1.03,1.03,0,0,1-.321-.725l-.037-5.947s.049-.054.049-.055Zm-1.591-3.438c.114,0,.225.019.339.019.172,0,.34-.019.51-.028l.054,2.838-.849.019Zm.339-.657a4.872,4.872,0,1,1,4.871-4.872A4.877,4.877,0,0,1,56.668,42.22Zm3.233-.495a5.43,5.43,0,0,0,0-8.752,17.644,17.644,0,0,1,6.423,4.376A17.607,17.607,0,0,1,59.9,41.725Z" transform="translate(-46.33 -31.801)" fill="#ffc529"/>
      <path id="Path_5038" data-name="Path 5038" d="M205.418,91.1a2.623,2.623,0,1,0,2.623,2.623A2.626,2.626,0,0,0,205.418,91.1Zm0,4.668a2.045,2.045,0,1,1,2.045-2.045A2.047,2.047,0,0,1,205.418,95.768Z" transform="translate(-195.08 -88.176)" fill="#ffc529"/>
      <path id="Path_5039" data-name="Path 5039" d="M250.424,53.54a.289.289,0,0,0,.289-.289v-.914a.289.289,0,1,0-.578,0v.913A.289.289,0,0,0,250.424,53.54Z" transform="translate(-240.086 -51.05)" fill="#ffc529"/>
      <path id="Path_5040" data-name="Path 5040" d="M189.776,78.49a.289.289,0,1,0,.409-.409l-.646-.646a.289.289,0,0,0-.409.409Z" transform="translate(-182.008 -75.104)" fill="#ffc529"/>
      <path id="Path_5041" data-name="Path 5041" d="M165.236,138.729a.289.289,0,0,0-.289-.289h-.913a.289.289,0,0,0,0,.578h.913A.289.289,0,0,0,165.236,138.729Z" transform="translate(-157.955 -133.182)" fill="#ffc529"/>
      <path id="Path_5042" data-name="Path 5042" d="M189.775,186.515l-.646.646a.289.289,0,1,0,.409.409l.646-.646a.289.289,0,0,0-.409-.409Z" transform="translate(-182.007 -178.807)" fill="#ffc529"/>
      <path id="Path_5043" data-name="Path 5043" d="M250.424,206.3a.289.289,0,0,0-.289.289v.914a.289.289,0,0,0,.578,0v-.914A.289.289,0,0,0,250.424,206.3Z" transform="translate(-240.086 -197.701)" fill="#ffc529"/>
      <path id="Path_5044" data-name="Path 5044" d="M298.62,186.515a.289.289,0,1,0-.409.409l.646.646a.289.289,0,0,0,.409-.409Z" transform="translate(-285.711 -178.806)" fill="#ffc529"/>
      <path id="Path_5045" data-name="Path 5045" d="M319.491,138.729a.289.289,0,0,0-.289-.289h-.913a.289.289,0,1,0,0,.578h.913A.289.289,0,0,0,319.491,138.729Z" transform="translate(-304.604 -133.182)" fill="#ffc529"/>
      <path id="Path_5046" data-name="Path 5046" d="M298.415,78.574a.288.288,0,0,0,.2-.085l.646-.646a.289.289,0,0,0-.409-.409l-.646.646a.289.289,0,0,0,.2.494Z" transform="translate(-285.711 -75.104)" fill="#ffc529"/>
    </g>
  </g>
</svg>
