<svg xmlns="http://www.w3.org/2000/svg" width="67.275" height="82.909" viewBox="0 0 67.275 82.909">
  <g id="Mobile_App_Marketing" data-name="Mobile App Marketing" transform="translate(-8.737 -2.75)">
    <path id="Path_5030" data-name="Path 5030" d="M8.737,80.757a4.929,4.929,0,0,0,4.9,4.9H52.87a4.917,4.917,0,0,0,4.9-4.9c0-1.61,0-31.781,0-32.619A53.378,53.378,0,0,1,70.5,47.745a1.544,1.544,0,0,0,1.44-2.355l-3.8-6.04a7.237,7.237,0,0,0-7.62-12.106L57.765,22.87c0-1.417,0,5.269,0-15.224a4.9,4.9,0,0,0-4.895-4.9H13.632a4.9,4.9,0,0,0-4.895,4.9C8.74,81.611,8.737,71.181,8.737,80.757Zm61.1-35.028c-.132-.009-2.087-.114-2.936-.134L54.353,25.657c.474-1.056,1.086-2.549,1.148-2.706l8.194,13.016Zm-25.255,4.7-4.241-6.736a42.805,42.805,0,0,0,13-15.961L64.6,45.607A42.883,42.883,0,0,0,44.584,50.428Zm2.728.821a4.785,4.785,0,0,1-1.487,5.745l-1.448-2.3a2.3,2.3,0,0,0,1.157-2.522C46.073,51.879,46.7,51.535,47.312,51.248Zm1.061,13.638a.28.28,0,0,1-.128.18l-1.358.854a.28.28,0,0,1-.217.036.284.284,0,0,1-.18-.128L40.87,56.9l1.845-1.161,5.62,8.929h0A.276.276,0,0,1,48.373,64.886ZM38,56.4a.291.291,0,0,1-.4-.091c-4.893-7.775-3.418-5.431-5.575-8.856a.292.292,0,0,1,.091-.4l5.507-3.466a.288.288,0,0,1,.4.09h0l5.575,8.857s0,0,0,.007a.278.278,0,0,1-.081.376s-.006.008-.011.011C38.374,56.151,39.675,55.337,38,56.4ZM34,54.26l-2.348,1.478a.292.292,0,0,1-.4-.091L29.87,53.458a.29.29,0,0,1,.091-.4l2.348-1.478ZM10.7,7.651a2.941,2.941,0,0,1,2.938-2.938H52.87a2.94,2.94,0,0,1,2.936,2.938v5.493H10.7ZM55.806,80.763A2.941,2.941,0,0,1,52.871,83.7H13.632A2.945,2.945,0,0,1,10.7,80.763V72.649H55.806v8.114Zm0-10.073H10.7V15.1H55.806v5.445a1.55,1.55,0,0,0-1.836.937l-.016.039c-3.093,8.079-7.791,15.518-14.778,20.56a2.218,2.218,0,0,0-2.6-.157L31.07,45.392a2.252,2.252,0,0,0-.705,3.1l.9,1.432L28.918,51.4a2.251,2.251,0,0,0-.705,3.1l1.378,2.191a2.251,2.251,0,0,0,3.1.7l2.348-1.478.9,1.431a2.251,2.251,0,0,0,3.1.7l.174-.109,5.62,8.928a2.23,2.23,0,0,0,1.4,1,2.306,2.306,0,0,0,.5.057,2.228,2.228,0,0,0,1.192-.346l1.357-.854a2.247,2.247,0,0,0,.705-3.1l-3.142-4.992A6.707,6.707,0,0,0,49.093,50.5a38.319,38.319,0,0,1,6.713-2.017V70.69ZM67.858,31.075a5.284,5.284,0,0,1-.764,6.616l-2.659-4.223L64,32.784,61.561,28.9A5.287,5.287,0,0,1,67.858,31.075Z" transform="translate(0 0)" fill="#0253e9"/>
    <path id="Path_5031" data-name="Path 5031" d="M33.366,6.73H24.252a.979.979,0,1,0,0,1.958h9.114a.979.979,0,1,0,0-1.958Z" transform="translate(4.443 1.217)" fill="#0253e9"/>
    <path id="Path_5032" data-name="Path 5032" d="M28.367,65.043A3.669,3.669,0,1,0,24.7,61.374,3.679,3.679,0,0,0,28.367,65.043Zm0-5.379a1.71,1.71,0,1,1-1.71,1.71A1.718,1.718,0,0,1,28.367,59.664Z" transform="translate(4.879 16.798)" fill="#0253e9"/>
    <path id="Path_5033" data-name="Path 5033" d="M57.717,23.944l1.757-1.188a.979.979,0,0,0-1.1-1.623l-1.757,1.188a.979.979,0,0,0,1.1,1.623Z" transform="translate(14.504 5.568)" fill="#0253e9"/>
    <path id="Path_5034" data-name="Path 5034" d="M61.214,25.875a.986.986,0,0,0-1.046-.907l-2.115.15a.979.979,0,0,0,.068,1.956c.023,0,.047,0,.07,0l2.115-.15A.979.979,0,0,0,61.214,25.875Z" transform="translate(14.796 6.79)" fill="#0253e9"/>
    <path id="Path_5035" data-name="Path 5035" d="M54.352,22.183a.98.98,0,0,0,.882-.551l.928-1.907a.98.98,0,0,0-1.762-.857l-.928,1.907a.98.98,0,0,0,.88,1.408Z" transform="translate(13.644 4.759)" fill="#0253e9"/>
  </g>
</svg>
