<svg xmlns="http://www.w3.org/2000/svg" width="123.044" height="33.468" viewBox="0 0 123.044 33.468">
  <g id="nestle" opacity="0.5">
    <path id="path9471" d="M738.228,347.813a1.914,1.914,0,0,0-1.942-1.834h-2.7a1.915,1.915,0,0,0-1.943,1.834l.108,28.927a1.818,1.818,0,0,0,1.834,1.834h2.7a1.914,1.914,0,0,0,1.942-1.834V347.813Z" transform="translate(-640.981 -345.538)" fill="#fff" fill-rule="evenodd"/>
    <path id="path9473" d="M784.865,346.781v1.3a1.02,1.02,0,0,0,1.079,1.079h19a1.658,1.658,0,0,0,1.619-1.617V345.27a1.587,1.587,0,0,0-1.619-1.617s-18.349,1.834-19,1.942a1.109,1.109,0,0,0-1.079,1.187Z" transform="translate(-684.163 -343.643)" fill="#fff" fill-rule="evenodd"/>
    <path id="path9475" d="M658.455,378.571a7.4,7.4,0,0,1-7.663-7.555v-11.55h-1.4a1.394,1.394,0,0,1-1.3-1.3v-1.944a1.313,1.313,0,0,1,1.3-1.3h1.4v-7.123a1.818,1.818,0,0,1,1.834-1.834h2.7a1.8,1.8,0,0,1,1.727,1.834v7.123h4.209a1.248,1.248,0,0,1,1.3,1.3v1.944a1.313,1.313,0,0,1-1.3,1.3h-4.209v10.686a3.343,3.343,0,0,0,3.562,3.562h.432a1.36,1.36,0,0,1,1.4,1.4v2.051a1.428,1.428,0,0,1-1.4,1.4h-2.59Z" transform="translate(-573.188 -345.535)" fill="#fff" fill-rule="evenodd"/>
    <path id="path9477" d="M428.752,401.2c0-6.152-3.669-12.3-11.981-12.3-7.663,0-11.873,6.043-11.873,12.3,0,6.691,4.533,12.628,11.98,12.628,5.073,0,10.038-2.59,11.009-7.015a1.22,1.22,0,0,0-1.079-1.4h-3.669a1.723,1.723,0,0,0-1.512.863,5.382,5.382,0,0,1-4.749,2.266,5.588,5.588,0,0,1-5.613-5.289H426.7a1.827,1.827,0,0,0,2.052-2.051h0Zm-17.378-2.59a5.31,5.31,0,0,1,5.4-4.749,5.526,5.526,0,0,1,5.613,4.749Z" transform="translate(-375.864 -380.363)" fill="#fff" fill-rule="evenodd"/>
    <path id="path9479" d="M800.708,401.2c0-6.152-3.669-12.3-11.981-12.3-7.663,0-11.872,6.043-11.872,12.3,0,6.691,4.534,12.628,11.98,12.628,5.073,0,10.038-2.59,11.009-7.015a1.22,1.22,0,0,0-1.079-1.4H795.1a1.723,1.723,0,0,0-1.511.863,5.452,5.452,0,0,1-4.857,2.266,5.563,5.563,0,0,1-5.5-5.289h15.435a1.827,1.827,0,0,0,2.05-2.051h0Zm-17.377-2.59a5.5,5.5,0,0,1,10.9,0Z" transform="translate(-677.664 -380.363)" fill="#fff" fill-rule="evenodd"/>
    <path id="path9481" d="M323.393,345.373H273.528a2.05,2.05,0,0,0-2.05,2.051l.108,19.645s-10.686-19.428-11.225-20.4a3.718,3.718,0,0,0-3.237-1.834h-4.1a2.05,2.05,0,0,0-2.05,2.051v28.71a1.985,1.985,0,0,0,2.05,2.051h2.59a1.985,1.985,0,0,0,2.051-2.051l-.108-20.075s10.793,19.536,11.333,20.292a3.343,3.343,0,0,0,3.13,1.834h3.778a1.985,1.985,0,0,0,2.05-2.051V350.232h45.548a1.43,1.43,0,0,0,1.4-1.4v-2.051a1.429,1.429,0,0,0-1.4-1.4h0Z" transform="translate(-250.971 -344.609)" fill="#fff" fill-rule="evenodd"/>
    <path id="path9483" d="M546.517,393.643c2.159,0,3.778.756,4.426,2.159.216.648.755.756,1.511.756h3.022a1.156,1.156,0,0,0,1.08-1.079c0-3.454-4.21-6.584-10.038-6.584-6.044,0-10.037,2.913-10.037,7.447,0,3.562,2.806,5.613,6.152,6.584,1.619.324,4.318.971,5.612,1.4,1.3.324,2.59.756,2.59,1.944,0,1.942-1.943,2.482-4.209,2.482-2.051,0-4.1-.863-4.641-2.374-.324-.863-.972-.971-1.835-.971h-3.022a1.275,1.275,0,0,0-1.187,1.186v.432c0,3.346,4.534,6.8,10.793,6.8,4.318,0,10.47-1.834,10.47-7.664,0-3.454-2.267-5.827-6.044-6.8-1.4-.324-4.857-1.3-5.613-1.4-1.4-.432-2.7-.863-2.7-1.942,0-1.834,1.619-2.376,3.669-2.376Z" transform="translate(-482.189 -380.359)" fill="#fff" fill-rule="evenodd"/>
  </g>
</svg>
