<svg xmlns="http://www.w3.org/2000/svg" width="159.578" height="167.809" viewBox="0 0 159.578 167.809">
  <g id="Organic_Traffic_Generate" data-name="Organic Traffic Generate" transform="translate(-261.796 -238.781)">
    <path id="Path_5069" data-name="Path 5069" d="M278.388,406.589a13.219,13.219,0,0,1-5.77-1.131c-2.157-1.027-8.482-4.037-7.559-28.258a4.356,4.356,0,0,1-3.148-5.212,91.285,91.285,0,0,1,7.226-19.864c-.133-.477-.254-.934-.366-1.376-.383-1.487-.72-3.024-1-4.542a68.073,68.073,0,0,1-.936-7.131c-.147-1.743-.223-3.627-.223-5.568a69.757,69.757,0,0,1,7.288-31.025,19.661,19.661,0,0,1,17.848-27.944,19.385,19.385,0,0,1,6.011.949c.68-.454,1.375-.9,2.075-1.327.144-.1.291-.185.441-.267,1.521-.921,3.116-1.8,4.743-2.62.154-.078.3-.151.455-.224.746-.368,1.5-.724,2.257-1.064a26.982,26.982,0,0,1,.117-10.86,11.671,11.671,0,0,1,1.2-3.685,10.649,10.649,0,0,1,3.222-3.527,17.872,17.872,0,0,1,5.773-7.833,24.718,24.718,0,0,1,10.13-4.566,31.807,31.807,0,0,1,6.789-.733,29.594,29.594,0,0,1,15.83,4.436,26.594,26.594,0,0,1,12.351,24.335q-.043.856-.141,1.727.857.356,1.7.738A19.657,19.657,0,0,1,396.5,285.505a19.434,19.434,0,0,1-2.393,9.4,69.437,69.437,0,0,1,6.687,12.66,10.917,10.917,0,0,1,4.652,17.326h11.572a4.354,4.354,0,0,1,4.131,5.735l-15.774,47.2a4.355,4.355,0,0,1-4.131,2.975H387.239A69.152,69.152,0,0,1,374.05,391.92c-.191.13-.377.25-.573.364a69.619,69.619,0,0,1-64.748,5.176l-1.092.045C303.526,399.485,288.1,406.589,278.388,406.589Z" fill="#fff"/>
    <g id="Group_2107" data-name="Group 2107" transform="translate(271.342 268.262)" opacity="0.12">
      <path id="Path_5070" data-name="Path 5070" d="M405.772,345.72A65.35,65.35,0,0,1,375.966,400.5a4.891,4.891,0,0,1-.414.262,65.215,65.215,0,0,1-69.7.211,1.4,1.4,0,0,1-.2-.117l-.24-.152c-.3-.189-.609-.392-.9-.588q-2.145-1.415-4.166-3.005c-.182-.138-.363-.283-.544-.429-1.213-.965-2.381-1.974-3.521-3.041a64.036,64.036,0,0,1-7.092-7.673,65.294,65.294,0,0,1-5.879-8.9c-.08-.131-.153-.276-.226-.414a64.8,64.8,0,0,1-4.326-9.9q-.817-2.384-1.437-4.856c-.363-1.408-.675-2.823-.936-4.261a63.347,63.347,0,0,1-.879-6.685c-.145-1.72-.21-3.47-.21-5.234a65.123,65.123,0,0,1,27.592-53.282q1.785-1.275,3.658-2.418a.9.9,0,0,1,.182-.109q2.232-1.361,4.573-2.534c.131-.065.262-.131.4-.2,1.51-.748,3.071-1.445,4.646-2.069h.008c1.27-.515,2.555-.98,3.869-1.409a64.4,64.4,0,0,1,12.348-2.743c.363-.044.718-.088,1.074-.124q2.2-.24,4.457-.312c.806-.037,1.619-.051,2.432-.051.378,0,.747.007,1.118.014h.247a66.574,66.574,0,0,1,6.743.486c1.242.153,2.483.342,3.7.573A65.25,65.25,0,0,1,405.772,345.72Z" transform="translate(-275.297 -280.475)" fill="#2b60ff"/>
    </g>
    <g id="Group_2124" data-name="Group 2124" transform="translate(266.522 243.137)">
      <path id="Path_5071" data-name="Path 5071" d="M389.646,412.99c-1.96,1.626-3.861,4.138-6,5.524-.138.095-.226.847-.371.927-10.112,6.454-22.693,9.452-35.585,9.452-12.747,0-24.267-4.58-34.314-10.91a1.4,1.4,0,0,1-.2-.117l-.24-.152c-.3-.189-.609-.392-.9-.588q-2.145-1.415-4.166-3.005c-.182-.138-.363-.283-.544-.428-1.213-.965-2.381-1.974-3.521-3.041l-2.823-49.718a77.237,77.237,0,0,1,29.748-22.394l25.48,1.2s27.062,16,29.784,23.171C387.751,367.548,388.992,394.516,389.646,412.99Z" transform="translate(-278.001 -272.358)" fill="#fff"/>
      <g id="Group_2119" data-name="Group 2119" transform="translate(40.685)">
        <path id="Path_5072" data-name="Path 5072" d="M333.261,268.853c-1.08,4.333-.3,8.9.788,13.234s2.505,8.633,2.7,13.094c.093,2.107-.076,4.293.71,6.251a9.48,9.48,0,0,0,5.877,5.02,9.179,9.179,0,0,0,.752-4.143A69.543,69.543,0,0,0,342.3,284.4C340.763,278.582,337.8,272.8,333.261,268.853Z" transform="translate(-327.989 -251.945)" fill="#0b0a10"/>
        <path id="Path_5073" data-name="Path 5073" d="M368.624,321.105l-.022.791-.181,6.881-.08,2.984s-2.222,4.544-11.027,5.372-14.453-6.577-14.453-6.577a69.46,69.46,0,0,0,1.016-9.546,36.916,36.916,0,0,0-1.481-9.727Z" transform="translate(-330.817 -264.374)" fill="#ffb3da"/>
        <path id="Path_5074" data-name="Path 5074" d="M370.409,324.75l-.181,6.881a16.822,16.822,0,0,1-11.97-.573,18.951,18.951,0,0,1-9.691-10.033C355.993,322.319,363.3,322.456,370.409,324.75Z" transform="translate(-332.624 -267.228)" fill="#0b0a10"/>
        <g id="Group_2118" data-name="Group 2118">
          <g id="Group_2113" data-name="Group 2113" transform="translate(0 4.929)">
            <g id="Group_2108" data-name="Group 2108" transform="translate(7.653)">
              <path id="Path_5075" data-name="Path 5075" d="M372.208,306.209c-10.617,6.5-26.854,3.448-30.873-10.069A124.746,124.746,0,0,1,338,282.3c-.344-1.954-.535-3.479-.653-4.564a21.708,21.708,0,0,1-.5-4.537,21.392,21.392,0,0,1,41.215-7.938c1.656,4.11,1.512,8.419,1.561,12.757.037,3.246.053,6.475-.2,9.718-.452,5.695-1.3,12.954-5.592,17.2A8.964,8.964,0,0,1,372.208,306.209Z" transform="translate(-336.843 -251.912)" fill="#ffb3da"/>
            </g>
            <g id="Group_2112" data-name="Group 2112" transform="translate(0 27.924)">
              <g id="Group_2110" data-name="Group 2110">
                <g id="Group_2109" data-name="Group 2109">
                  <path id="Path_5076" data-name="Path 5076" d="M331.063,291.421a5.381,5.381,0,0,0-4.1,2.645,7.38,7.38,0,0,0-.849,4.894,9.293,9.293,0,0,0,7.591,7.564,4.781,4.781,0,0,0,2.831-.306,4.184,4.184,0,0,0,2.089-3.1,9.375,9.375,0,0,0-.326-3.835C337.4,295.725,335.637,291.092,331.063,291.421Z" transform="translate(-326.02 -291.404)" fill="#ffb3da"/>
                </g>
              </g>
              <g id="Group_2111" data-name="Group 2111" transform="translate(4.043 4.937)">
                <path id="Path_5077" data-name="Path 5077" d="M335.89,303.016a.2.2,0,0,0,.051-.021.231.231,0,0,0,.09-.315,16.349,16.349,0,0,0-1.583-2.486,5.57,5.57,0,0,0-2.4-1.794.232.232,0,0,0-.156.437,5.128,5.128,0,0,1,2.2,1.652,15.968,15.968,0,0,1,1.536,2.417A.233.233,0,0,0,335.89,303.016Z" transform="translate(-331.737 -298.386)" fill="#0b0a10"/>
              </g>
            </g>
          </g>
          <g id="Group_2116" data-name="Group 2116" transform="translate(24.134 27.925)">
            <g id="Group_2114" data-name="Group 2114" transform="translate(2.596 5.79)">
              <path id="Path_5078" data-name="Path 5078" d="M379.343,292.622c.909,3.516,1.684,7.214,1.029,10.759a.732.732,0,0,1-1.007.552c-.536-.232-1.081-.473-1.6-.687" transform="translate(-367.908 -292.622)" fill="none" stroke="#0b0a10" stroke-linecap="round" stroke-linejoin="round" stroke-width="0.513"/>
              <path id="Path_5079" data-name="Path 5079" d="M366.823,294.465a1.515,1.515,0,1,1-1.5-1.731A1.628,1.628,0,0,1,366.823,294.465Z" transform="translate(-363.823 -292.655)" fill="#0b0a10"/>
              <path id="Path_5080" data-name="Path 5080" d="M388.335,294.465a1.515,1.515,0,1,1-1.5-1.731A1.628,1.628,0,0,1,388.335,294.465Z" transform="translate(-370.124 -292.655)" fill="#0b0a10"/>
              <path id="Path_5081" data-name="Path 5081" d="M374.3,309.8a2.9,2.9,0,0,0,1.695,2.106,2.108,2.108,0,0,0,2.49-.744" transform="translate(-366.891 -297.654)" fill="none" stroke="#0b0a10" stroke-linecap="round" stroke-linejoin="round" stroke-width="0.513"/>
            </g>
            <g id="Group_2115" data-name="Group 2115">
              <path id="Path_5082" data-name="Path 5082" d="M361.59,285.309a4.3,4.3,0,0,0-1.241,1.372,1.631,1.631,0,0,0,.119,1.756,2.111,2.111,0,0,0,1.377.579,7.6,7.6,0,0,0,3.6-.436,2.341,2.341,0,0,0,1.617-1.493,2,2,0,0,0-.806-1.831A3.634,3.634,0,0,0,361.59,285.309Z" transform="translate(-360.151 -284.434)" fill="#0b0a10"/>
              <path id="Path_5083" data-name="Path 5083" d="M386.136,284.934a4.309,4.309,0,0,0-1.5,1.079,1.631,1.631,0,0,0-.255,1.741,2.115,2.115,0,0,0,1.223.858,7.6,7.6,0,0,0,3.61.333,2.339,2.339,0,0,0,1.9-1.118,2,2,0,0,0-.4-1.96A3.635,3.635,0,0,0,386.136,284.934Z" transform="translate(-367.203 -284.456)" fill="#0b0a10"/>
            </g>
          </g>
          <g id="Group_2117" data-name="Group 2117" transform="translate(5.027)">
            <path id="Path_5084" data-name="Path 5084" d="M336.9,283.229l1.877,3.462a8.023,8.023,0,0,0,3.135-2.746,21.44,21.44,0,0,0,3.714-18.483,11.041,11.041,0,0,0-3.692-5.883,10.561,10.561,0,0,0-5.643,1.819,6.692,6.692,0,0,0-2.147,2.227,7.665,7.665,0,0,0-.764,2.53C332.477,271.941,334.116,278.1,336.9,283.229Z" transform="translate(-333.129 -249.229)" fill="#0b0a10"/>
            <path id="Path_5085" data-name="Path 5085" d="M345.377,258.459a22.985,22.985,0,0,0,20.715,10.548c-.425-.979-.914-2.111-1.338-3.089a68.26,68.26,0,0,0,15.513,10.456c.04.02.893-3.031.964-3.381a26.087,26.087,0,0,0,.5-3.861,22.246,22.246,0,0,0-10.323-20.426,26.174,26.174,0,0,0-19.366-3.132,20.527,20.527,0,0,0-8.365,3.732,13.084,13.084,0,0,0-4.869,7.621C340.672,257.187,343.53,258.078,345.377,258.459Z" transform="translate(-334.791 -244.941)" fill="#0b0a10"/>
          </g>
        </g>
      </g>
      <g id="Group_2123" data-name="Group 2123" transform="translate(0 84.624)">
        <path id="Path_5086" data-name="Path 5086" d="M273.69,422.026s-3.336,29.469,4.448,33.176,32.064-8.34,32.064-8.34,16.773-.556,18.255-1.761a5.98,5.98,0,0,0,1.668-3.707s2.626-1.637,2.255-4.417c0,0,2.934-2.07,2.471-4.293l1.3-2.595-26.781-1.946-13.344,2.688.648-8.062Z" transform="translate(-269.798 -381.437)" fill="#ffb3da"/>
        <g id="Group_2120" data-name="Group 2120" transform="translate(51.524 48.188)">
          <path id="Path_5087" data-name="Path 5087" d="M341.349,437.159s7.185.315,11.226-.482a4.354,4.354,0,0,0,3.044-2.311l.8-1.593" transform="translate(-341.349 -432.773)" fill="none" stroke="#0b0a10" stroke-linecap="round" stroke-linejoin="round" stroke-width="0.513"/>
          <path id="Path_5088" data-name="Path 5088" d="M342,441.982c1.969.01,4.057.016,6.024-.093,3.219-.177,6.625-.694,7.1-5.359" transform="translate(-341.541 -433.873)" fill="none" stroke="#0b0a10" stroke-linecap="round" stroke-linejoin="round" stroke-width="0.513"/>
          <path id="Path_5089" data-name="Path 5089" d="M342.135,447.563s6.441.7,8.2-.278a4.231,4.231,0,0,0,2.27-4.356" transform="translate(-341.579 -435.748)" fill="none" stroke="#0b0a10" stroke-linecap="round" stroke-linejoin="round" stroke-width="0.513"/>
        </g>
        <path id="Path_5090" data-name="Path 5090" d="M294.921,364.622a91.767,91.767,0,0,0-26.441,45.223l34.009,1.483Z" transform="translate(-268.48 -364.622)" fill="#fff"/>
        <path id="Path_5091" data-name="Path 5091" d="M319.986,427.9s20.48-10.656,21.036-9.081-8.062,9.915-8.062,9.915Z" transform="translate(-283.567 -380.45)" fill="#ffb3da"/>
        <line id="Line_18" data-name="Line 18" y1="3.707" x2="21.746" transform="translate(15.568 47.323)" fill="none" stroke="#0b0a10" stroke-linecap="round" stroke-linejoin="round" stroke-width="0.513"/>
        <g id="Group_2122" data-name="Group 2122" transform="translate(43.648 1.486)">
          <path id="Path_5092" data-name="Path 5092" d="M345.339,432.5l-15.13-2.35h81.456l9.99,2.35S345.23,432.392,345.339,432.5Z" transform="translate(-330.209 -385.303)" fill="#b7b8fb"/>
          <path id="Path_5093" data-name="Path 5093" d="M345.339,432.5l-15.13-2.35h81.456l9.99,2.35S345.23,432.392,345.339,432.5Z" transform="translate(-330.209 -385.303)" fill="#0b0a10" opacity="0.31"/>
          <g id="Group_2121" data-name="Group 2121" transform="translate(15.13)">
            <path id="Path_5094" data-name="Path 5094" d="M443.7,366.724l-15.774,47.2H351.607l14.119-47.2Z" transform="translate(-351.607 -366.724)" fill="#0b0a10"/>
            <circle id="Ellipse_53" data-name="Ellipse 53" cx="5.746" cy="5.746" r="5.746" transform="translate(40.832 29.03) rotate(-80.806)" fill="#faf0e3"/>
          </g>
        </g>
      </g>
      <line id="Line_19" data-name="Line 19" x1="2.687" y2="27.523" transform="translate(26.225 106.495)" fill="none" stroke="#0b0a10" stroke-linecap="round" stroke-linejoin="round" stroke-width="0.513"/>
    </g>
    <circle id="Ellipse_54" data-name="Ellipse 54" cx="10.246" cy="10.246" r="10.246" transform="translate(366.947 275.259)" fill="#2b60ff"/>
    <circle id="Ellipse_55" data-name="Ellipse 55" cx="14.137" cy="14.137" r="14.137" transform="translate(361.227 297.539) rotate(-82.005)" fill="none" stroke="#faf0e3" stroke-miterlimit="10" stroke-width="0.234"/>
    <g id="Group_2125" data-name="Group 2125" transform="translate(374.615 280.562)">
      <path id="Path_5095" data-name="Path 5095" d="M421.953,303.126a.454.454,0,0,1,.482.46,1.957,1.957,0,0,1-.045.379,1.62,1.62,0,0,0-.045.313c0,.518.655.7,1.209.7.629,0,1.281-.237,1.281-.991,0-.772-.781-1.1-1.415-1.356-.825-.335-1.775-.759-1.775-2.075a1.805,1.805,0,0,1,1.53-1.647v-.392c0-.38.067-.643.482-.643.276,0,.464.081.464.388,0,.16,0,.4,0,.612.692.107,1.566.495,1.566,1.3a.473.473,0,0,1-.482.5.55.55,0,0,1-.535-.465c-.178-.361-.611-.406-.986-.406-.4,0-1.036.25-1.036.776,0,.647.656.955,1.334,1.267.848.38,1.857.88,1.857,2.129a1.965,1.965,0,0,1-1.8,1.918v.554c0,.384-.071.652-.482.652-.286,0-.473-.086-.473-.393,0-.183,0-.527.009-.8-.906-.129-1.741-.647-1.741-1.624C421.351,303.751,421.355,303.126,421.953,303.126Z" transform="translate(-421.351 -297.87)" fill="#fff"/>
    </g>
    <circle id="Ellipse_56" data-name="Ellipse 56" cx="14.137" cy="14.137" r="14.137" transform="matrix(0.19, -0.982, 0.982, 0.19, 275.559, 305.413)" fill="none" stroke="#faf0e3" stroke-miterlimit="10" stroke-width="0.234"/>
    <g id="Group_2127" data-name="Group 2127" transform="translate(347.515 311.266)">
      <path id="Path_5096" data-name="Path 5096" d="M432.974,354.453H389.6a6.6,6.6,0,0,1-6.579-6.579h0a6.6,6.6,0,0,1,6.579-6.579h43.37a6.6,6.6,0,0,1,6.579,6.579h0A6.6,6.6,0,0,1,432.974,354.453Z" transform="translate(-383.025 -341.294)" fill="#b7b8fb"/>
      <g id="Group_2126" data-name="Group 2126" transform="translate(4.634 1.761)">
        <line id="Line_20" data-name="Line 20" y2="10.008" transform="translate(11.862)" fill="none" stroke="#faf0e3" stroke-linecap="round" stroke-linejoin="round" stroke-width="0.513"/>
        <path id="Path_5097" data-name="Path 5097" d="M395.818,347.253a3.12,3.12,0,1,1-3.12-3.12A3.12,3.12,0,0,1,395.818,347.253Z" transform="translate(-389.578 -343.886)" fill="none" stroke="#faf0e3" stroke-linecap="round" stroke-linejoin="round" stroke-width="0.513"/>
        <line id="Line_21" data-name="Line 21" x2="1.915" y2="2.533" transform="translate(5.004 6.054)" fill="none" stroke="#faf0e3" stroke-linecap="round" stroke-linejoin="round" stroke-width="0.513"/>
      </g>
    </g>
    <g id="Group_2128" data-name="Group 2128" transform="translate(273.943 326.101)">
      <circle id="Ellipse_57" data-name="Ellipse 57" cx="14.82" cy="14.82" r="14.82" transform="translate(0)" fill="#ffb3da"/>
    </g>
    <g id="Group_2129" data-name="Group 2129" transform="translate(280.588 334.806)">
      <path id="Path_5098" data-name="Path 5098" d="M296.333,377.669s-4.629-5.6-7.47-1.705,7.632,12.992,7.632,12.992S296.211,377.791,296.333,377.669Z" transform="translate(-288.374 -374.585)" fill="#f34919"/>
      <path id="Path_5099" data-name="Path 5099" d="M299.4,377.669s4.628-5.6,7.47-1.705-7.171,12.992-7.171,12.992S299.52,377.791,299.4,377.669Z" transform="translate(-291.603 -374.585)" fill="#f34919"/>
    </g>
    <g id="Group_2131" data-name="Group 2131" transform="translate(307.813 323.118)">
      <path id="Path_5100" data-name="Path 5100" d="M330.631,358.056h39.155a3.755,3.755,0,0,1,3.755,3.755v8.151a3.755,3.755,0,0,1-3.755,3.755H358.863l.935,8.151-6.012-8.151H330.631a3.755,3.755,0,0,1-3.755-3.755v-8.151A3.755,3.755,0,0,1,330.631,358.056Z" transform="translate(-326.876 -358.056)" fill="#faf0e3"/>
      <g id="Group_2130" data-name="Group 2130" transform="translate(11.832 5.836)">
        <path id="Path_5101" data-name="Path 5101" d="M347.155,368.082a1.772,1.772,0,1,1-1.772-1.772A1.773,1.773,0,0,1,347.155,368.082Z" transform="translate(-343.61 -366.31)" fill="#b7b8fb"/>
        <path id="Path_5102" data-name="Path 5102" d="M356.438,368.082a1.772,1.772,0,1,1-1.772-1.772A1.773,1.773,0,0,1,356.438,368.082Z" transform="translate(-346.329 -366.31)" fill="#b7b8fb"/>
        <path id="Path_5103" data-name="Path 5103" d="M365.721,368.082a1.772,1.772,0,1,1-1.772-1.772A1.773,1.773,0,0,1,365.721,368.082Z" transform="translate(-349.048 -366.31)" fill="#b7b8fb"/>
        <path id="Path_5104" data-name="Path 5104" d="M375,368.082a1.772,1.772,0,1,1-1.772-1.772A1.773,1.773,0,0,1,375,368.082Z" transform="translate(-351.767 -366.31)" fill="#b7b8fb"/>
      </g>
    </g>
    <g id="Group_2133" data-name="Group 2133" transform="translate(339.193 359.656)">
      <path id="Path_5105" data-name="Path 5105" d="M389.242,439.124A14.819,14.819,0,1,0,377.7,420.451l-6.442-3.608,5.872,7.177A14.821,14.821,0,0,0,389.242,439.124Z" transform="translate(-371.256 -409.73)" fill="#2b60ff"/>
      <g id="Group_2132" data-name="Group 2132" transform="translate(11.973 7.201)">
        <path id="Path_5106" data-name="Path 5106" d="M388.189,419.914h3.652l-.3,8.2-1.856,5.328h15.087" transform="translate(-388.189 -419.914)" fill="none" stroke="#faf0e3" stroke-linecap="round" stroke-linejoin="round" stroke-width="0.746"/>
        <path id="Path_5107" data-name="Path 5107" d="M393.439,424.063h14.129l-2.155,6.406H394.037Z" transform="translate(-389.727 -421.129)" fill="none" stroke="#faf0e3" stroke-linecap="round" stroke-linejoin="round" stroke-width="0.746"/>
        <circle id="Ellipse_58" data-name="Ellipse 58" cx="1.587" cy="1.587" r="1.587" transform="translate(2.993 13.65)" fill="none" stroke="#faf0e3" stroke-linecap="round" stroke-linejoin="round" stroke-width="0.746"/>
        <path id="Path_5108" data-name="Path 5108" d="M408.127,440.8a1.586,1.586,0,1,1-1.586-1.586A1.586,1.586,0,0,1,408.127,440.8Z" transform="translate(-393.1 -425.568)" fill="none" stroke="#faf0e3" stroke-linecap="round" stroke-linejoin="round" stroke-width="0.746"/>
      </g>
    </g>
    <g id="Group_2134" data-name="Group 2134" transform="translate(277.901 298.771)">
      <path id="Path_5109" data-name="Path 5109" d="M334.428,326.578l2.954.909-2.954.909-.909,2.954-.909-2.954-2.954-.909,2.954-.909.909-2.954Z" transform="translate(-297.778 -323.623)" fill="#2b60ff"/>
      <path id="Path_5110" data-name="Path 5110" d="M403.977,326.578l2.954.909-2.954.909-.909,2.954-.909-2.954-2.954-.909,2.954-.909.909-2.954Z" transform="translate(-318.15 -323.623)" fill="#2b60ff"/>
      <path id="Path_5111" data-name="Path 5111" d="M433.334,333.218l2.954.909-2.954.909-.909,2.954-.909-2.954-2.954-.909,2.954-.909.909-2.954Z" transform="translate(-326.749 -325.568)" fill="#2b60ff"/>
      <path id="Path_5112" data-name="Path 5112" d="M423.075,357.333l2.954.909-2.954.909-.909,2.954-.909-2.954-2.954-.909,2.954-.909.909-2.954Z" transform="translate(-323.744 -332.632)" fill="#2b60ff"/>
      <path id="Path_5113" data-name="Path 5113" d="M289.344,347.322l2.954.909-2.954.909-.909,2.954-.909-2.954-2.954-.909,2.954-.909.909-2.954Z" transform="translate(-284.572 -329.7)" fill="#2b60ff"/>
      <path id="Path_5114" data-name="Path 5114" d="M307.31,347.444l4.123,1.268-4.123,1.268-1.268,4.123-1.268-4.123-4.123-1.268,4.123-1.268,1.268-4.123Z" transform="translate(-289.282 -329.393)" fill="#2b60ff"/>
    </g>
  </g>
</svg>
