<svg xmlns="http://www.w3.org/2000/svg" width="53.494" height="38.555" viewBox="0 0 53.494 38.555">
  <path id="Path_5410" data-name="Path 5410" d="M10.109,19A3.116,3.116,0,0,0,7,22.109V54.445a3.116,3.116,0,0,0,3.109,3.109H46.176a3.116,3.116,0,0,0,3.109-3.109v-7.19L60.3,36.237a.622.622,0,0,0,0-.894L55.951,30.99a.646.646,0,0,0-.894,0l-5.772,5.771V22.109A3.116,3.116,0,0,0,46.176,19Zm0,1.244H46.176a1.848,1.848,0,0,1,1.866,1.866v4.353H8.244V22.109A1.848,1.848,0,0,1,10.109,20.244Zm28.605,1.244a1.866,1.866,0,1,0,1.866,1.866A1.875,1.875,0,0,0,38.714,21.487Zm5.6,0a1.866,1.866,0,1,0,1.866,1.866A1.875,1.875,0,0,0,44.311,21.487Zm-5.6,1.244a.622.622,0,1,1-.622.622A.613.613,0,0,1,38.714,22.731Zm5.6,0a.622.622,0,1,1-.622.622A.613.613,0,0,1,44.311,22.731ZM8.244,27.706h39.8v10.3L38.267,47.78a.622.622,0,0,0-.175.447V52.58a.622.622,0,0,0,.622.622h4.353a.622.622,0,0,0,.447-.175L48.042,48.5v5.946a1.848,1.848,0,0,1-1.866,1.866H10.109a1.848,1.848,0,0,1-1.866-1.866ZM55.5,32.331l3.459,3.459-2.526,2.526-3.459-3.459ZM13.1,33.3a.625.625,0,0,0,.117,1.244H35.6a.622.622,0,1,0,0-1.244H13.1Zm38.982,2.449,3.459,3.459L42.8,51.958H39.336V48.5ZM13.1,38.9a.625.625,0,0,0,.117,1.244H28.143a.622.622,0,1,0,0-1.244H13.1Zm0,4.975a.625.625,0,0,0,.117,1.244h19.9a.622.622,0,1,0,0-1.244H13.1Zm0,5.6a.625.625,0,0,0,.117,1.244H28.143a.622.622,0,1,0,0-1.244H13.1Z" transform="translate(-7 -19)" fill="#1b78fe"/>
</svg>
