<svg xmlns="http://www.w3.org/2000/svg" width="67.752" height="67.849" viewBox="0 0 67.752 67.849">
  <path id="Result-Oriented_" data-name="Result-Oriented &amp; " d="M77.24,74.029h0a1.222,1.222,0,0,0,0-.921h0a1.256,1.256,0,0,0-.276-.41l-2.512-2.512a1.256,1.256,0,0,0-1.775,1.775l.368.368H71.89V18.292a1.256,1.256,0,0,0-2.227-.837L54.834,35.481l-4.881-4.8a1.256,1.256,0,0,0-1.834.084l-6.7,7.845-10.776-16a1.256,1.256,0,0,0-2.026-.084L14.536,40.237V13.787l.368.368a1.256,1.256,0,0,0,1.775-1.775L14.168,9.869a1.256,1.256,0,0,0-.41-.276h0a1.222,1.222,0,0,0-.921,0h0a1.256,1.256,0,0,0-.41.276L9.914,12.381a1.256,1.256,0,0,0,1.775,1.775l.368-.368V70.2a4.613,4.613,0,0,0,4.572,4.605H73.045l-.368.368a1.256,1.256,0,1,0,1.775,1.775l2.512-2.512A1.256,1.256,0,0,0,77.24,74.029ZM29.515,25.467,40.291,41.392a1.256,1.256,0,0,0,2,.109l6.874-8.08,4.9,4.814a1.256,1.256,0,0,0,1.85-.1L69.378,21.792V40.3L51.795,60.876,38.231,45.085a1.256,1.256,0,0,0-.929-.435,1.239,1.239,0,0,0-.946.4l-7.284,7.9-5.635-6.481a1.256,1.256,0,0,0-.946-.41,1.323,1.323,0,0,0-.946.41l-7.008,7.77v-10ZM14.536,70.2V57.987l7.954-8.775,5.626,6.464a1.256,1.256,0,0,0,1.867,0l7.276-7.9L50.84,63.622a1.256,1.256,0,0,0,.954.435h0a1.256,1.256,0,0,0,.954-.444l16.628-19.45V72.3H16.629A2.093,2.093,0,0,1,14.536,70.2Z" transform="translate(-9.577 -9.502)" fill="#fff" opacity="0.71"/>
</svg>
