<svg xmlns="http://www.w3.org/2000/svg" width="113.1" height="128.373" viewBox="0 0 113.1 128.373">
  <g id="save-money_1_" data-name="save-money (1)" transform="translate(-0.36)">
    <path id="Path_3725" data-name="Path 3725" d="M195.205,178.369a2,2,0,0,0-.722-.025,4.787,4.787,0,0,1-4.234-4.747,2.106,2.106,0,1,0-4.211,0,9.008,9.008,0,0,0,6.623,8.674v2.106a2.106,2.106,0,1,0,4.211,0V182.4a8.992,8.992,0,0,0-1.842-17.792,4.781,4.781,0,1,1,4.781-4.781,2.106,2.106,0,1,0,4.211,0,9.008,9.008,0,0,0-7.15-8.8v-1.917a2.106,2.106,0,0,0-4.211,0v2.045a8.991,8.991,0,0,0,2.369,17.665,4.778,4.778,0,0,1,.175,9.553Zm0,0" transform="translate(-136.806 -108.308)"/>
    <path id="Path_3726" data-name="Path 3726" d="M104.2,137.027a30.535,30.535,0,1,0,30.535-30.535A30.534,30.534,0,0,0,104.2,137.027ZM134.73,110.7a26.323,26.323,0,1,1-26.323,26.323A26.323,26.323,0,0,1,134.73,110.7Zm0,0" transform="translate(-76.505 -78.462)"/>
    <path id="Path_3727" data-name="Path 3727" d="M99.14,334.746l-16.495,7.794a13.435,13.435,0,0,0-11.454-7.068l-15.227-.418a16.082,16.082,0,0,1-6.921-1.787l-1.549-.8a27.33,27.33,0,0,0-25.315.027l.1-3.51a2.106,2.106,0,0,0-2.047-2.163l-16.7-.46A2.1,2.1,0,0,0,1.369,328.4L.361,365.046a2.106,2.106,0,0,0,2.047,2.163l16.7.46h.058a2.106,2.106,0,0,0,2.106-2.048l.048-1.753,4.338-2.323a7.441,7.441,0,0,1,5.553-.608l25.9,7.27c.045.013.09.024.137.034a27.729,27.729,0,0,0,5.693.587,28.1,28.1,0,0,0,11.737-2.561,1.962,1.962,0,0,0,.261-.144L112.5,341.83a2.107,2.107,0,0,0,.69-2.8,10.637,10.637,0,0,0-14.047-4.279ZM4.629,363.057l.892-32.433,12.487.343L17.116,363.4Zm68.152-.551a23.875,23.875,0,0,1-14.6,1.63l-25.834-7.252a11.644,11.644,0,0,0-8.68.949l-2.217,1.188.593-21.564A23.146,23.146,0,0,1,45.558,336.2l1.549.8a20.338,20.338,0,0,0,8.741,2.258l15.228.418a9.236,9.236,0,0,1,8.777,7.36l-22.682-.626a2.106,2.106,0,1,0-.116,4.21l25.032.689h.059a2.106,2.106,0,0,0,2.1-2.048,13.364,13.364,0,0,0-.2-2.732l16.919-7.994.049-.024a6.434,6.434,0,0,1,7.275,1.019Zm0,0" transform="translate(0 -240.455)"/>
    <path id="Path_3728" data-name="Path 3728" d="M216.414,22.11v-20a2.106,2.106,0,1,0-4.211,0v20a2.106,2.106,0,1,0,4.211,0Zm0,0" transform="translate(-156.084)"/>
    <path id="Path_3729" data-name="Path 3729" d="M276.414,51.581V42.106a2.106,2.106,0,0,0-4.211,0v9.476a2.106,2.106,0,0,0,4.211,0Zm0,0" transform="translate(-200.291 -29.472)"/>
    <path id="Path_3730" data-name="Path 3730" d="M156.414,51.581V42.106a2.106,2.106,0,0,0-4.211,0v9.476a2.106,2.106,0,0,0,4.211,0Zm0,0" transform="translate(-111.876 -29.472)"/>
  </g>
</svg>
