<svg xmlns="http://www.w3.org/2000/svg" width="86.315" height="92.296" viewBox="0 0 86.315 92.296">
  <g id="Search_Engine_Marketing" data-name="Search Engine Marketing" transform="translate(-865.33 -1136)">
    <g id="Group_2081" data-name="Group 2081" transform="translate(865.33 1136)">
      <path id="Path_5037" data-name="Path 5037" d="M132.354,54.173C131.573,53.26,112.941,31.8,89.488,31.8S47.4,53.26,46.621,54.173a1.207,1.207,0,0,0,0,1.571c.738.862,17.415,20.04,39.033,22.158l.232,12.076h-.033a2.623,2.623,0,0,0-2.563,2.662l.153,24.845A6.758,6.758,0,0,0,90.2,124.1c.052,0,.1,0,.155,0l.329-.006a6.758,6.758,0,0,0,6.6-6.881L97.13,92.356a2.613,2.613,0,0,0-.809-1.843,2.319,2.319,0,0,0-1.872-.725l-.19,0-.228-11.951c21.273-2.46,37.594-21.245,38.324-22.1A1.207,1.207,0,0,0,132.354,54.173Zm-83.188.786C51.915,52,62.367,41.51,75.988,36.687a22.667,22.667,0,0,0-.007,36.538C62.371,68.4,51.915,57.912,49.167,54.958Zm45.548,37.43.155,24.854a4.34,4.34,0,0,1-4.24,4.428s0,0-.006,0l-.329.006a4.037,4.037,0,0,1-3.1-1.2,4.3,4.3,0,0,1-1.34-3.025L85.7,92.624c0-.006.2-.227.2-.23ZM88.072,78.037c.474.017.938.079,1.416.079.72,0,1.42-.079,2.13-.119l.226,11.849-3.544.079ZM89.488,75.3a20.337,20.337,0,1,1,20.336-20.337A20.361,20.361,0,0,1,89.488,75.3Zm13.5-2.066a22.668,22.668,0,0,0,.007-36.538c13.611,4.827,24.066,15.313,26.815,18.266C127.06,57.915,116.608,68.407,102.986,73.23Z" transform="translate(-46.33 -31.801)" fill="#0253e9"/>
      <path id="Path_5038" data-name="Path 5038" d="M213.747,91.1A10.951,10.951,0,1,0,224.7,102.051,10.965,10.965,0,0,0,213.747,91.1Zm0,19.488a8.537,8.537,0,1,1,8.537-8.537A8.547,8.547,0,0,1,213.747,110.588Z" transform="translate(-170.589 -78.894)" fill="#0253e9"/>
      <path id="Path_5039" data-name="Path 5039" d="M251.342,58.276a1.208,1.208,0,0,0,1.207-1.207V53.255a1.207,1.207,0,1,0-2.414,0v3.814A1.208,1.208,0,0,0,251.342,58.276Z" transform="translate(-208.185 -47.88)" fill="#0253e9"/>
      <path id="Path_5040" data-name="Path 5040" d="M192.095,82.107A1.207,1.207,0,0,0,193.8,80.4l-2.7-2.7a1.207,1.207,0,0,0-1.707,1.707Z" transform="translate(-159.669 -67.974)" fill="#0253e9"/>
      <path id="Path_5041" data-name="Path 5041" d="M169.972,139.647a1.208,1.208,0,0,0-1.207-1.207h-3.814a1.207,1.207,0,0,0,0,2.414h3.814A1.208,1.208,0,0,0,169.972,139.647Z" transform="translate(-139.576 -116.49)" fill="#0253e9"/>
      <path id="Path_5042" data-name="Path 5042" d="M192.094,186.784l-2.7,2.7a1.207,1.207,0,1,0,1.707,1.707l2.7-2.7a1.207,1.207,0,1,0-1.707-1.707Z" transform="translate(-159.668 -154.602)" fill="#0253e9"/>
      <path id="Path_5043" data-name="Path 5043" d="M251.342,206.3a1.208,1.208,0,0,0-1.207,1.207v3.814a1.207,1.207,0,1,0,2.414,0v-3.814A1.208,1.208,0,0,0,251.342,206.3Z" transform="translate(-208.185 -170.386)" fill="#0253e9"/>
      <path id="Path_5044" data-name="Path 5044" d="M300.187,186.784a1.207,1.207,0,1,0-1.707,1.707l2.7,2.7a1.207,1.207,0,0,0,1.707-1.707Z" transform="translate(-246.297 -154.602)" fill="#0253e9"/>
      <path id="Path_5045" data-name="Path 5045" d="M324.227,139.647a1.208,1.208,0,0,0-1.207-1.207h-3.814a1.207,1.207,0,1,0,0,2.414h3.814A1.208,1.208,0,0,0,324.227,139.647Z" transform="translate(-262.08 -116.49)" fill="#0253e9"/>
      <path id="Path_5046" data-name="Path 5046" d="M299.333,82.461a1.2,1.2,0,0,0,.854-.354l2.7-2.7a1.207,1.207,0,0,0-1.707-1.707l-2.7,2.7a1.207,1.207,0,0,0,.853,2.061Z" transform="translate(-246.297 -67.974)" fill="#0253e9"/>
    </g>
  </g>
</svg>
