<svg xmlns="http://www.w3.org/2000/svg" width="85.22" height="85.341" viewBox="0 0 85.22 85.341">
  <path id="Search_Engine_Optimization" data-name="Search Engine Optimization" d="M94.684,90.665h0a1.538,1.538,0,0,0,0-1.158h0a1.58,1.58,0,0,0-.348-.516l-3.159-3.159a1.58,1.58,0,0,0-2.233,2.233l.463.463H87.955V20.558a1.58,1.58,0,0,0-2.8-1.053L66.5,42.179l-6.14-6.034a1.58,1.58,0,0,0-2.306.105l-8.425,9.868L36.077,25.992a1.58,1.58,0,0,0-2.549-.105L15.815,48.161V14.892l.463.463a1.58,1.58,0,0,0,2.233-2.233L15.351,9.963a1.58,1.58,0,0,0-.516-.348h0a1.538,1.538,0,0,0-1.158,0h0a1.58,1.58,0,0,0-.516.348L10,13.123a1.58,1.58,0,0,0,2.233,2.233l.463-.463V85.853a5.8,5.8,0,0,0,5.75,5.792H89.408l-.463.463a1.58,1.58,0,1,0,2.233,2.233l3.159-3.159A1.58,1.58,0,0,0,94.684,90.665ZM34.655,29.583,48.209,49.614a1.58,1.58,0,0,0,2.517.137l8.646-10.163,6.161,6.056a1.58,1.58,0,0,0,2.327-.126L84.8,24.96V48.234L62.679,74.121,45.619,54.258a1.58,1.58,0,0,0-1.169-.548,1.559,1.559,0,0,0-1.19.506L34.1,64.158,27.01,56.007a1.58,1.58,0,0,0-1.19-.516,1.664,1.664,0,0,0-1.19.516L15.815,65.78V53.205ZM15.815,85.853V70.487l10-11.037,7.077,8.13a1.58,1.58,0,0,0,2.349,0L44.4,57.649,61.479,77.575a1.58,1.58,0,0,0,1.2.548h0a1.58,1.58,0,0,0,1.2-.558L84.8,53.1V88.485H18.448A2.633,2.633,0,0,1,15.815,85.853Z" transform="translate(-9.577 -9.502)" fill="#0253e9"/>
</svg>
