<svg xmlns="http://www.w3.org/2000/svg" width="97.9" height="97.897" viewBox="0 0 97.9 97.897">
  <g id="Social_Media_Marketing" data-name="Social Media Marketing" transform="translate(-0.819 -0.822)">
    <path id="Path_5036" data-name="Path 5036" d="M91.57,42.621a7.145,7.145,0,0,0-7.034,6.008h-9.51a25.149,25.149,0,0,0-6.58-15.922l6.714-6.714a7.148,7.148,0,1,0-1.614-1.614l-6.713,6.713a25.176,25.176,0,0,0-15.925-6.609V15.005a7.148,7.148,0,1,0-2.282,0v9.478A25.164,25.164,0,0,0,32.708,31.1L25.991,24.38a7.146,7.146,0,1,0-1.612,1.614L31.1,32.713A25.164,25.164,0,0,0,24.526,48.63H15a7.149,7.149,0,1,0,0,2.282h9.525a25.127,25.127,0,0,0,6.6,15.884l-6.752,6.752a7.151,7.151,0,1,0,1.612,1.614l6.76-6.76a24.8,24.8,0,0,0,15.876,6.561v9.576a7.149,7.149,0,1,0,2.282,0V74.964a24.875,24.875,0,0,0,15.885-6.555l6.752,6.752a7.149,7.149,0,1,0,1.614-1.614L68.414,66.8a25.174,25.174,0,0,0,6.611-15.891h9.512a7.138,7.138,0,1,0,7.034-8.29ZM75.885,16.771a4.867,4.867,0,0,1,6.882,6.883,4.983,4.983,0,0,1-6.882,0A4.864,4.864,0,0,1,75.885,16.771ZM44.9,7.97a4.867,4.867,0,1,1,4.866,4.868A4.874,4.874,0,0,1,44.9,7.97ZM16.771,23.654a4.867,4.867,0,1,1,6.883,0A4.985,4.985,0,0,1,16.771,23.654ZM7.97,54.637a4.868,4.868,0,1,1,4.868-4.868A4.873,4.873,0,0,1,7.97,54.637Zm41.763-2.454.046,0,.043,0A14.715,14.715,0,0,1,64.46,67.438a23.042,23.042,0,0,1-29.368-.006A14.714,14.714,0,0,1,49.733,52.183Zm-6.346-8.67A6.391,6.391,0,1,1,49.806,49.9l-.03,0-.027,0A6.4,6.4,0,0,1,43.386,43.513ZM23.656,82.768a4.983,4.983,0,0,1-6.883,0,4.867,4.867,0,1,1,6.883,0Zm30.982,8.8A4.867,4.867,0,1,1,49.771,86.7,4.873,4.873,0,0,1,54.638,91.57Zm28.13-15.684a4.863,4.863,0,0,1,0,6.883,4.981,4.981,0,0,1-6.882,0,4.867,4.867,0,0,1,6.882-6.883Zm-16.1-10.554a17.023,17.023,0,0,0-11.962-14.7,8.673,8.673,0,1,0-9.868,0A17.022,17.022,0,0,0,32.878,65.327a23.023,23.023,0,1,1,33.795,0Zm24.9-10.7a4.868,4.868,0,1,1,4.868-4.868A4.873,4.873,0,0,1,91.57,54.637Z" transform="translate(0 0)" fill="#0253e9"/>
  </g>
</svg>
