<svg xmlns="http://www.w3.org/2000/svg" width="104.132" height="102.555" viewBox="0 0 104.132 102.555">
  <g id="target" transform="translate(-0.001 -0.5)">
    <path id="Path_3735" data-name="Path 3735" d="M101.672,226.472a9.432,9.432,0,0,0-5.818-2.437,8.328,8.328,0,0,0-6.4,2.436L77.877,237.928a7.686,7.686,0,0,0-.783-1.118,7.506,7.506,0,0,0-5.865-2.623H55.021a33.245,33.245,0,0,1-8.861-1.177,21.8,21.8,0,0,0-20.339,4.3,29.583,29.583,0,0,0-5.3,5.685l-2.906-2.82a2.066,2.066,0,0,0-1.433-.582h-.014a2.07,2.07,0,0,0-1.469.631L.574,254.894a2.05,2.05,0,0,0,.063,2.9l23.9,22.753a2.048,2.048,0,0,0,2.88-.053l14-14.359a2.06,2.06,0,0,0-.041-2.915l-1.219-1.182,2.789-.314a44.333,44.333,0,0,1,5.1-.3H72.7a18.514,18.514,0,0,0,10.117-2.605l.067-.044a13.653,13.653,0,0,0,2.613-2.372l16.619-19.551c2.844-3.345,2.666-7.52-.443-10.388ZM25.891,276.189,4.954,256.253l11.279-11.71,20.815,20.2Zm73.1-41.983L82.376,253.758a9.575,9.575,0,0,1-1.8,1.639,14.568,14.568,0,0,1-7.876,1.939H48.039a48.375,48.375,0,0,0-5.567.323l-6.132.688L23.5,245.888a25.55,25.55,0,0,1,4.909-5.4,17.633,17.633,0,0,1,16.656-3.529,37.336,37.336,0,0,0,9.954,1.326H71.229c2.911,0,3.688,2.522,3.688,4.011a4.436,4.436,0,0,1-.959,2.843,3.481,3.481,0,0,1-2.793,1.172H57.055a2.049,2.049,0,0,0,0,4.1h14.11a7.6,7.6,0,0,0,5.916-2.617,8.413,8.413,0,0,0,1.93-5.22l13.335-13.2a4.8,4.8,0,0,1,6.55.109c.861.794,2.02,2.464.1,4.722Zm0,0" transform="translate(0 -178.062)"/>
    <path id="Path_3736" data-name="Path 3736" d="M233.281,334.8a2.048,2.048,0,1,0-3.988.935l.019.083A2.05,2.05,0,0,0,231.3,337.4a2.074,2.074,0,0,0,.47-.054,2.048,2.048,0,0,0,1.527-2.462Zm0,0" transform="translate(-182.614 -265.052)"/>
    <path id="Path_3737" data-name="Path 3737" d="M48.651,43.719h19.96a4.929,4.929,0,0,0,2.911-.949,4.929,4.929,0,0,0,2.911.949H94.394A4.929,4.929,0,0,0,97.3,42.77a4.929,4.929,0,0,0,2.911.949h19.96a4.965,4.965,0,0,0,4.959-4.96V29.451a10.741,10.741,0,0,0-5.842-9.6,11.816,11.816,0,1,0-18.195,0A10.73,10.73,0,0,0,97.3,23.1a10.71,10.71,0,0,0-3.794-3.253,11.816,11.816,0,1,0-18.194,0A10.71,10.71,0,0,0,71.522,23.1a10.72,10.72,0,0,0-3.794-3.253,11.815,11.815,0,1,0-18.194,0,10.742,10.742,0,0,0-5.842,9.6v9.307a4.966,4.966,0,0,0,4.96,4.96ZM110.2,4.6a7.719,7.719,0,1,1-7.719,7.719A7.728,7.728,0,0,1,110.2,4.6Zm-5.322,18.264a11.774,11.774,0,0,0,10.643,0,6.656,6.656,0,0,1,5.522,6.59v9.308a.864.864,0,0,1-.863.863h-19.96a.863.863,0,0,1-.862-.863V29.451A6.656,6.656,0,0,1,104.874,22.861ZM84.413,4.6a7.719,7.719,0,1,1-7.719,7.719A7.728,7.728,0,0,1,84.413,4.6ZM79.092,22.861a11.774,11.774,0,0,0,10.643,0,6.656,6.656,0,0,1,5.522,6.59v9.308a.864.864,0,0,1-.863.863H74.433a.864.864,0,0,1-.863-.863V29.451a6.657,6.657,0,0,1,5.522-6.59ZM58.631,4.6a7.719,7.719,0,1,1-7.719,7.719A7.728,7.728,0,0,1,58.631,4.6ZM47.788,29.451a6.657,6.657,0,0,1,5.522-6.59,11.774,11.774,0,0,0,10.643,0,6.656,6.656,0,0,1,5.522,6.59v9.308a.864.864,0,0,1-.863.863H48.651a.864.864,0,0,1-.863-.863Zm0,0" transform="translate(-34.804)"/>
  </g>
</svg>
