<svg xmlns="http://www.w3.org/2000/svg" xmlns:xlink="http://www.w3.org/1999/xlink" width="715.091" height="455.614" viewBox="0 0 715.091 455.614">
  <defs>
    <clipPath id="clip-path">
      <rect id="Rectangle_3037" data-name="Rectangle 3037" width="399.426" height="258.484" fill="none"/>
    </clipPath>
  </defs>
  <g id="Group_3677" data-name="Group 3677" transform="translate(-67.51 -46.329)">
    <g id="OBJECTS" transform="translate(67.511 44)">
      <g id="Group_3635" data-name="Group 3635" transform="translate(0.443 346.73)">
        <g id="Group_3634" data-name="Group 3634">
          <line id="Line_93" data-name="Line 93" x2="647.244" transform="translate(0 91.793)" fill="none" stroke="#d3c6fc" stroke-miterlimit="10" stroke-width="1.048"/>
          <path id="Path_6525" data-name="Path 6525" d="M531.921,432.587H342.3a12.676,12.676,0,0,0-12.675,12.677h202.3Z" transform="translate(-38.418 -347.594)" fill="#8f9af8"/>
          <path id="Path_6526" data-name="Path 6526" d="M584.66,356.086H453.409a9.093,9.093,0,0,0-8.363,5.523l-36.2,84.805a5.272,5.272,0,0,0,4.848,7.342H549.273a9.094,9.094,0,0,0,8.363-5.524l34.5-80.828A8.127,8.127,0,0,0,584.66,356.086Z" transform="translate(-29.671 -356.086)" fill="#b8c3ff"/>
          <path id="Path_6527" data-name="Path 6527" d="M508.872,403.186c-2,8.145-10.221,14.746-18.365,14.746s-13.125-6.6-11.126-14.746,10.221-14.745,18.366-14.745S510.871,395.043,508.872,403.186Z" transform="translate(-21.843 -352.494)" fill="#fff"/>
        </g>
        <line id="Line_94" data-name="Line 94" x2="230.348" transform="translate(290.849 104.132)" fill="none" stroke="#d3c6fc" stroke-miterlimit="10" stroke-width="1.048"/>
        <line id="Line_95" data-name="Line 95" x2="122.142" transform="translate(389.218 110.69)" fill="none" stroke="#d3c6fc" stroke-miterlimit="10" stroke-width="1.048"/>
      </g>
      <g id="Group_3651" data-name="Group 3651" transform="translate(16.672 43.474)">
        <g id="Group_3644" data-name="Group 3644" transform="translate(264.445 97.248)">
          <path id="Path_6528" data-name="Path 6528" d="M645.3,170.662H344.735a24.591,24.591,0,0,0-24.591,24.591V323.13a24.591,24.591,0,0,0,24.591,24.591H460.357l20.709,20.71,20.71-20.71H645.3a24.592,24.592,0,0,0,24.592-24.591V195.253A24.592,24.592,0,0,0,645.3,170.662Z" transform="translate(-320.144 -170.662)" fill="#fff" stroke="#bbabf8" stroke-miterlimit="10" stroke-width="1.048"/>
          <g id="Group_3643" data-name="Group 3643" transform="translate(22.578 17.828)">
            <g id="Group_3636" data-name="Group 3636" transform="translate(0 0)">
              <circle id="Ellipse_166" data-name="Ellipse 166" cx="25.685" cy="25.685" r="25.685" transform="matrix(0.922, -0.388, 0.388, 0.922, 0, 19.938)" fill="#dae0ff"/>
              <path id="Path_6529" data-name="Path 6529" d="M420.866,195.988l4.714,14.136,14.9-.115-11.988,8.852L433.208,233l-12.123-8.666L409.1,233.184l4.5-14.207-12.123-8.666,14.9-.115Z" transform="translate(-333.694 -185.679)" fill="#faaf3b"/>
              <path id="Path_6530" data-name="Path 6530" d="M463.586,195.988l4.714,14.136,14.9-.115-11.988,8.852L475.927,233,463.8,224.332l-11.988,8.852,4.5-14.207-12.123-8.666,14.9-.115Z" transform="translate(-328.952 -185.679)" fill="#faaf3b"/>
              <path id="Path_6531" data-name="Path 6531" d="M506.306,195.988l4.714,14.136,14.9-.115-11.988,8.852L518.647,233l-12.123-8.666-11.988,8.852,4.5-14.207-12.123-8.666,14.9-.115Z" transform="translate(-324.21 -185.679)" fill="#faaf3b"/>
              <path id="Path_6532" data-name="Path 6532" d="M549.026,195.988l4.714,14.136,14.9-.115-11.988,8.852L561.367,233l-12.123-8.666-11.988,8.852,4.5-14.207-12.123-8.666,14.9-.115Z" transform="translate(-319.468 -185.679)" fill="#e8ecff"/>
              <path id="Path_6533" data-name="Path 6533" d="M591.745,195.988l4.714,14.136,14.9-.115-11.988,8.852L604.087,233l-12.123-8.666-11.988,8.852,4.5-14.207-12.123-8.666,14.9-.115Z" transform="translate(-314.726 -185.679)" fill="#e8ecff"/>
            </g>
            <g id="Group_3642" data-name="Group 3642" transform="translate(6.596 70.787)">
              <g id="Group_3637" data-name="Group 3637">
                <rect id="Rectangle_3022" data-name="Rectangle 3022" width="22.686" height="6.062" fill="#bbabf8"/>
                <rect id="Rectangle_3023" data-name="Rectangle 3023" width="34.012" height="6.062" transform="translate(28.287)" fill="#bbabf8"/>
              </g>
              <g id="Group_3641" data-name="Group 3641" transform="translate(0 18.008)">
                <g id="Group_3638" data-name="Group 3638">
                  <rect id="Rectangle_3024" data-name="Rectangle 3024" width="48.929" height="6.062" fill="#e6dffc"/>
                  <rect id="Rectangle_3025" data-name="Rectangle 3025" width="114.482" height="6.062" transform="translate(68.867)" fill="#e6dffc"/>
                  <rect id="Rectangle_3026" data-name="Rectangle 3026" width="88.112" height="6.062" transform="translate(203.287)" fill="#e6dffc"/>
                </g>
                <g id="Group_3639" data-name="Group 3639" transform="translate(0 19.295)">
                  <rect id="Rectangle_3027" data-name="Rectangle 3027" width="109.386" height="6.062" fill="#e6dffc"/>
                  <rect id="Rectangle_3028" data-name="Rectangle 3028" width="54.668" height="6.062" transform="translate(236.731)" fill="#e6dffc"/>
                  <rect id="Rectangle_3029" data-name="Rectangle 3029" width="95.83" height="6.062" transform="translate(128.037)" fill="#e6dffc"/>
                </g>
                <g id="Group_3640" data-name="Group 3640" transform="translate(0 38.589)">
                  <rect id="Rectangle_3030" data-name="Rectangle 3030" width="139.614" height="6.062" fill="#e6dffc"/>
                </g>
              </g>
            </g>
          </g>
        </g>
        <g id="Group_3647" data-name="Group 3647" transform="translate(437.779)">
          <rect id="Rectangle_3031" data-name="Rectangle 3031" width="228.286" height="71.359" rx="14.448" fill="#fff" stroke="#bbabf8" stroke-miterlimit="10" stroke-width="1.048"/>
          <path id="Path_6534" data-name="Path 6534" d="M545.338,104.319l3.077,9.227,9.726-.075-7.825,5.778,3.077,9.227-7.913-5.656-7.825,5.778,2.934-9.273-7.913-5.656,9.726-.075Z" transform="translate(-469.885 -80.778)" fill="#faaf3b"/>
          <path id="Path_6535" data-name="Path 6535" d="M573.222,104.319l3.077,9.227,9.726-.075-7.825,5.778,3.077,9.227-7.913-5.656-7.824,5.778,2.934-9.273-7.913-5.656,9.726-.075Z" transform="translate(-466.79 -80.778)" fill="#faaf3b"/>
          <path id="Path_6536" data-name="Path 6536" d="M601.106,104.319l3.077,9.227,9.726-.075-7.825,5.778,3.077,9.227-7.913-5.656-7.824,5.778,2.934-9.273-7.913-5.656,9.726-.075Z" transform="translate(-463.694 -80.778)" fill="#faaf3b"/>
          <path id="Path_6537" data-name="Path 6537" d="M628.99,104.319l3.077,9.227,9.726-.075-7.824,5.778,3.077,9.227-7.913-5.656-7.825,5.778,2.934-9.273-7.913-5.656,9.726-.075Z" transform="translate(-460.599 -80.778)" fill="#faaf3b"/>
          <path id="Path_6538" data-name="Path 6538" d="M656.874,104.319l3.077,9.227,9.726-.075-7.824,5.778,3.077,9.227-7.913-5.656-7.824,5.778,2.934-9.273-7.913-5.656,9.726-.075Z" transform="translate(-457.504 -80.778)" fill="#e8ecff"/>
          <g id="Group_3646" data-name="Group 3646" transform="translate(18.197 16.102)">
            <circle id="Ellipse_167" data-name="Ellipse 167" cx="14.315" cy="14.315" r="14.315" transform="translate(0.83 28.262) rotate(-80.82)" fill="#dae0ff"/>
            <g id="Group_3645" data-name="Group 3645" transform="translate(0 33.677)">
              <rect id="Rectangle_3032" data-name="Rectangle 3032" width="12.643" height="3.378" fill="#bbabf8"/>
              <rect id="Rectangle_3033" data-name="Rectangle 3033" width="18.955" height="3.378" transform="translate(15.765)" fill="#bbabf8"/>
            </g>
          </g>
        </g>
        <g id="Group_3650" data-name="Group 3650" transform="translate(0 65.28)">
          <rect id="Rectangle_3034" data-name="Rectangle 3034" width="156.75" height="48.998" rx="9.92" fill="#fff" stroke="#bbabf8" stroke-miterlimit="10" stroke-width="1.048"/>
          <path id="Path_6539" data-name="Path 6539" d="M129.622,156.437l2.113,6.336,6.678-.052-5.373,3.967,2.113,6.336-5.433-3.884-5.373,3.967,2.015-6.368-5.433-3.884,6.678-.052Z" transform="translate(-77.813 -140.273)" fill="#faaf3b"/>
          <path id="Path_6540" data-name="Path 6540" d="M148.769,156.437l2.113,6.336,6.678-.052-5.373,3.967,2.113,6.336-5.433-3.884-5.373,3.967,2.015-6.368-5.433-3.884,6.678-.052Z" transform="translate(-75.688 -140.273)" fill="#faaf3b"/>
          <path id="Path_6541" data-name="Path 6541" d="M167.915,156.437l2.113,6.336,6.678-.052-5.373,3.967,2.113,6.336-5.433-3.884-5.373,3.967,2.015-6.368-5.433-3.884,6.678-.052Z" transform="translate(-73.563 -140.273)" fill="#faaf3b"/>
          <path id="Path_6542" data-name="Path 6542" d="M187.061,156.437l2.113,6.336,6.678-.052-5.373,3.967,2.113,6.336-5.433-3.884-5.373,3.967,2.015-6.368-5.433-3.884,6.678-.052Z" transform="translate(-71.437 -140.273)" fill="#faaf3b"/>
          <path id="Path_6543" data-name="Path 6543" d="M206.207,156.437l2.113,6.336,6.678-.052-5.373,3.967,2.113,6.336-5.433-3.884-5.373,3.967,2.015-6.368-5.433-3.884,6.678-.052Z" transform="translate(-69.312 -140.273)" fill="#e8ecff"/>
          <g id="Group_3649" data-name="Group 3649" transform="translate(12.495 11.035)">
            <circle id="Ellipse_168" data-name="Ellipse 168" cx="9.829" cy="9.829" r="9.829" transform="translate(0.549 19.398) rotate(-80.672)" fill="#dae0ff"/>
            <g id="Group_3648" data-name="Group 3648" transform="translate(0 23.145)">
              <rect id="Rectangle_3035" data-name="Rectangle 3035" width="8.681" height="2.32" fill="#bbabf8"/>
              <rect id="Rectangle_3036" data-name="Rectangle 3036" width="13.016" height="2.32" transform="translate(10.825)" fill="#bbabf8"/>
            </g>
          </g>
        </g>
      </g>
      <g id="Group_3658" data-name="Group 3658" transform="translate(34.04 2.33)">
        <g id="Group_3652" data-name="Group 3652" transform="translate(564.765 339.924)">
          <circle id="Ellipse_169" data-name="Ellipse 169" cx="29.911" cy="29.911" r="29.911" fill="#ff7aa9"/>
          <path id="Path_6544" data-name="Path 6544" d="M633.879,366.728a8.976,8.976,0,0,0-8.973,9,8.986,8.986,0,1,0-17.972,0c0,11.213,17.972,20.613,17.972,20.613s17.973-9.4,17.973-20.613A9,9,0,0,0,633.879,366.728Z" transform="translate(-594.996 -348.099)" fill="#fff"/>
        </g>
        <g id="Group_3653" data-name="Group 3653" transform="translate(0 215.038)">
          <circle id="Ellipse_170" data-name="Ellipse 170" cx="29.911" cy="29.911" r="29.911" transform="translate(0 59.036) rotate(-80.704)" fill="#ff7aa9"/>
          <path id="Path_6545" data-name="Path 6545" d="M129.538,258.316a8.976,8.976,0,0,0-8.971,9,8.986,8.986,0,1,0-17.973,0c0,11.215,17.973,20.614,17.973,20.614s17.972-9.4,17.972-20.614A9,9,0,0,0,129.538,258.316Z" transform="translate(-86.217 -235.248)" fill="#fff"/>
        </g>
        <g id="Group_3654" data-name="Group 3654" transform="translate(166.793 39.162)">
          <path id="Path_6546" data-name="Path 6546" d="M268.732,79.249l7.259,22.341h23.491l-19,13.808,7.259,22.341-19-13.808-19,13.808,7.259-22.341-19-13.808h23.491Z" transform="translate(-237.982 -79.249)" fill="#bbabf8"/>
          <path id="Path_6547" data-name="Path 6547" d="M300.274,127.443l5.544,17.062h17.94L309.244,155.05l5.544,17.062-14.513-10.545L285.76,172.111,291.3,155.05,276.79,144.505h17.94Z" transform="translate(-233.673 -73.899)" fill="#bbabf8"/>
          <path id="Path_6548" data-name="Path 6548" d="M278.2,174.025l3.223,9.921h10.431l-8.439,6.131L286.635,200l-8.439-6.131L269.757,200l3.223-9.921-8.439-6.131h10.431Z" transform="translate(-235.033 -68.728)" fill="#bbabf8"/>
        </g>
        <g id="Group_3655" data-name="Group 3655" transform="translate(571.731 179.869)">
          <circle id="Ellipse_171" data-name="Ellipse 171" cx="38.65" cy="38.65" r="38.65" transform="translate(0 54.66) rotate(-45)" fill="#bbabf8"/>
          <path id="Path_6549" data-name="Path 6549" d="M634,237.961v13.381l27.113,6.233L634,263.808v13.381l50.187-19.613Z" transform="translate(-598.958 -202.338)" fill="#fff"/>
        </g>
        <g id="Group_3657" data-name="Group 3657" transform="translate(284.5)">
          <path id="Path_6550" data-name="Path 6550" d="M457.049,100.774c.01,31.228-25.38,56.639-56.379,56.575a56.526,56.526,0,0,1-56.3-49.553c-1.953-16.823,2.553-31.787,13.623-44.474C369.157,50.529,383.574,43.968,400.569,44A56.536,56.536,0,0,1,457.049,100.774Z" transform="translate(-343.928 -44)" fill="#5e9bfd"/>
          <g id="Group_3656" data-name="Group 3656" transform="translate(26.714 20.391)">
            <path id="Path_6551" data-name="Path 6551" d="M403.727,119.9q-7.484,0-14.967,0c-1.794,0-2.452-.58-2.438-2.374.062-7.781-.357-15.575.218-23.342a24.606,24.606,0,0,1,5.431-13.43,73.941,73.941,0,0,1,6.712-7.65,3.548,3.548,0,0,0,1.168-2.746c-.02-1.332.109-2.666.078-4-.04-1.664.507-3.045,2.069-3.675a4.1,4.1,0,0,1,4.541.913,8.468,8.468,0,0,1,2.182,4.444,18.246,18.246,0,0,1-1.5,12.042c-.579,1.293-1.1,2.613-1.751,3.87-.423.823-.1,1.113.637,1.229a7.319,7.319,0,0,0,1.159.032q6.711-.012,13.42-.028c2.432,0,4.1,1.161,4.674,3.25a5.36,5.36,0,0,1-2.254,6.069c-.884.472-.858.672-.086,1.214,1.634,1.147,2.724,2.6,2.39,4.774a3.727,3.727,0,0,1-2.679,3.289c-.3.1-.774.069-.833.47-.062.418.427.484.681.674,2.148,1.6,2.435,5.873-.718,7.178-.607.251-.875.4-.234,1.014a4,4,0,0,1,.752,4.66c-.629,1.582-2.048,2.068-3.686,2.062-4.99-.018-9.978-.007-14.967-.007Z" transform="translate(-365.945 -62.353)" fill="#fdfdfe"/>
            <path id="Path_6552" data-name="Path 6552" d="M382.317,121.368c-4.125.012-8.25.019-12.376.042a1.769,1.769,0,0,1-1.928-1.8,15.721,15.721,0,0,1-.032-1.8q.005-12.957.014-25.915c0-2.132.538-2.65,2.685-2.654,3.7-.007,7.393-.012,11.089,0,1.482.006,2.241.652,2.243,2.063.009,9.067-.021,18.134-.04,27.2a.423.423,0,0,1-.037.123c-.232.073-.2.157-.01.246.072.977.044,1.906-1.081,2.326-.033-.271-.127-.571-.444-.478C382.036,120.83,382.367,121.15,382.317,121.368Z" transform="translate(-367.972 -59.37)" fill="#fdfdfe"/>
          </g>
        </g>
      </g>
      <g id="Group_3676" data-name="Group 3676" transform="translate(0 180.827)">
        <g id="Group_3675" data-name="Group 3675" clip-path="url(#clip-path)">
          <g id="Group_3674" data-name="Group 3674" transform="translate(61.885 1.789)">
            <path id="Path_6553" data-name="Path 6553" d="M269.434,245.339c1.579,7.949,1.143,16.144,1.751,24.224s2.454,16.473,7.766,22.593c4.5,5.191,11.25,8.457,14.464,14.531a18.866,18.866,0,0,1,.58,15.2,30.382,30.382,0,0,1-9.281,12.407c-13.8,11.53-34.459,13.385-50.8,5.868s-28.08-23.533-31.94-41.1-.238-36.356,8.423-52.114c4.892-8.9,11.621-17.165,20.695-21.731,7.5-3.775,18.776-5.2,26.356-.634C263.95,228.5,268.045,238.35,269.434,245.339Z" transform="translate(-114.2 -206.887)" fill="#452828"/>
            <g id="Group_3662" data-name="Group 3662" transform="translate(122.213 127.876)">
              <g id="Group_3660" data-name="Group 3660" transform="translate(53.036 60.552)">
                <g id="Group_3659" data-name="Group 3659" transform="translate(80.6)">
                  <path id="Path_6554" data-name="Path 6554" d="M381.108,407.027s-2.933,6.31-10.4,2.544l-4.884,9.226L378,425.243l8.843-16.7-3.5-16.455a5.254,5.254,0,0,0-3.214,4.837C380.226,400.457,381.108,407.027,381.108,407.027Z" transform="translate(-351.691 -376.404)" fill="#915046"/>
                  <path id="Path_6555" data-name="Path 6555" d="M391.679,426.55a10.278,10.278,0,0,0-5.453-9.257l-12.752-6.75-2.635,4.976Z" transform="translate(-351.134 -374.355)" fill="#994f39"/>
                  <path id="Path_6556" data-name="Path 6556" d="M395.085,431.794a10.281,10.281,0,0,0-5.452-9.258l-14.639-7.748-2.634,4.976Z" transform="translate(-350.965 -373.884)" fill="#ab6955"/>
                  <path id="Path_6557" data-name="Path 6557" d="M379.131,377.971l4.252,12.75,13.44-.1L386.011,398.6l4.252,12.75-10.934-7.816-10.812,7.984,4.055-12.815-10.934-7.816,13.44-.1Z" transform="translate(-352.156 -377.971)" fill="#faaf3b"/>
                  <path id="Path_6558" data-name="Path 6558" d="M371.863,409.13l.621-4.467,5.161-4.071a6.535,6.535,0,0,0,2.488-5.106l0-.5L364.392,400.6l-6.863,8.121-4.426,8.363,23.8,12.6,1.617-3.054a12.349,12.349,0,0,0-5.137-16.692Z" transform="translate(-353.103 -376.083)" fill="#b57a68"/>
                  <path id="Path_6559" data-name="Path 6559" d="M391.835,435.872a10.278,10.278,0,0,0-5.453-9.257l-14.639-7.749-2.634,4.977Z" transform="translate(-351.326 -373.431)" fill="#b57a68"/>
                  <path id="Path_6560" data-name="Path 6560" d="M370.362,407.313a22.986,22.986,0,0,1-5.608,5.953" transform="translate(-351.81 -374.714)" fill="none" stroke="#a15545" stroke-linecap="round" stroke-linejoin="round" stroke-width="1.865"/>
                </g>
                <path id="Path_6561" data-name="Path 6561" d="M294.6,407.236l72.46,1.176-.283,9.942-86.225,13.168Z" transform="translate(-280.556 -374.722)" fill="#b57a68"/>
              </g>
              <path id="Path_6562" data-name="Path 6562" d="M232.819,323.469h21.257a23.452,23.452,0,0,1,22.191,15.865l30.886,90.326S305,446.372,291.938,447.906A12.046,12.046,0,0,1,280,441.421L232.819,351.9Z" transform="translate(-232.819 -323.469)" fill="#383757"/>
              <g id="Group_3661" data-name="Group 3661" transform="translate(45.128 91.587)">
                <path id="Path_6563" data-name="Path 6563" d="M281.935,405.9l69.916,2.356L328.832,437.33l-44.175,2.641a8.6,8.6,0,0,1-8.834-10.771l2.891-11.017Z" transform="translate(-273.205 -405.905)" fill="#383757"/>
                <path id="Path_6564" data-name="Path 6564" d="M294.71,407.236c-5.715,3.456-12.15,8.767-15.117,14.751" transform="translate(-272.755 -405.757)" fill="none" stroke="#474463" stroke-linecap="round" stroke-miterlimit="10" stroke-width="1.865"/>
                <path id="Path_6565" data-name="Path 6565" d="M295.394,407.236c-7.407.294-16.544,1.283-21.956,6.351" transform="translate(-273.438 -405.757)" fill="none" stroke="#474463" stroke-linecap="round" stroke-miterlimit="10" stroke-width="1.865"/>
              </g>
            </g>
            <g id="Group_3663" data-name="Group 3663" transform="translate(37.608 127.533)">
              <path id="Path_6566" data-name="Path 6566" d="M256.2,505.784a177.291,177.291,0,0,1-34.609-.223c-18.171-1.742-34.215-10.336-49.891-19.045-2.263-1.258-4.545-2.55-6.825-3.863,8.264-13.081,18.783-26.573,30.876-35.132H256.15l19.573,53.516C269.666,503.874,262.611,505.128,256.2,505.784Z" transform="translate(-155.755 -309.355)" fill="#fff"/>
              <path id="Path_6567" data-name="Path 6567" d="M187.125,458.491,169.589,337.579l8.8-14.256H258.73l22.08,59.483s-18.459,57.226-18.459,78.455l20.325,59.012-24,9.229L240.2,472.8l-20.306,56.3L156.667,502.8Z" transform="translate(-156.667 -323.142)" fill="#474463"/>
              <path id="Path_6568" data-name="Path 6568" d="M168.3,337.6l8.917-14.437h11.5l3.388,28.774-11.09,73.329Z" transform="translate(-155.376 -323.16)" fill="#383757"/>
              <path id="Path_6569" data-name="Path 6569" d="M250.861,323.683v68.045l-57-68.045Z" transform="translate(-152.538 -323.102)" fill="#fff"/>
              <path id="Path_6570" data-name="Path 6570" d="M215.973,340.107a68.385,68.385,0,0,1-11.66-3.951l-10.887-13H250.91v9.987C242.856,342.649,227.625,342.88,215.973,340.107Z" transform="translate(-152.587 -323.16)" fill="#b57a68"/>
              <path id="Path_6571" data-name="Path 6571" d="M193.426,323.16v42.5H217.8l-13.539,28.58,48.4-.35Z" transform="translate(-152.586 -323.16)" fill="#615f7f"/>
              <path id="Path_6572" data-name="Path 6572" d="M245.166,323.16h3.672l28.492,42.5h-22.5l24.286,28.58H245.5Z" transform="translate(-146.843 -323.16)" fill="#615f7f"/>
              <path id="Path_6573" data-name="Path 6573" d="M246.9,387.081c-5.489,25.925-9.511,52.173-15,78.1" transform="translate(-148.316 -316.064)" fill="none" stroke="#383757" stroke-miterlimit="10" stroke-width="1.865"/>
              <path id="Path_6574" data-name="Path 6574" d="M257.629,462.243a44.088,44.088,0,0,1-14.618,2.255" transform="translate(-147.082 -307.721)" fill="none" stroke="#383757" stroke-miterlimit="10" stroke-width="1.865"/>
              <path id="Path_6575" data-name="Path 6575" d="M210.987,464.378a67.276,67.276,0,0,1-26.051-6.77" transform="translate(-153.529 -308.235)" fill="none" stroke="#383757" stroke-miterlimit="10" stroke-width="1.865"/>
            </g>
            <path id="Path_6576" data-name="Path 6576" d="M197.151,323.148H175.894A23.452,23.452,0,0,0,153.7,339.013l-30.886,90.326a33.129,33.129,0,0,0,3.456,12.4c4.932,9.075,17.146,11.391,22.006,2.278l48.872-92.439Z" transform="translate(-122.817 -195.628)" fill="#474463"/>
            <g id="Group_3664" data-name="Group 3664" transform="translate(98.724 189.591)">
              <path id="Path_6577" data-name="Path 6577" d="M216.569,411.983l5.834,5.051,13.96,3.2-.07-.5a6.541,6.541,0,0,0-3.152-4.726l-3.5-2.806,1.008-3.868,5.878-4.88-7.124-6.162L214.191,407.3Z" transform="translate(-211.398 -376.99)" fill="#915046"/>
              <path id="Path_6578" data-name="Path 6578" d="M229.509,401.579l9.723,9.28,11.83-6.38-5.821,12.115,9.723,9.28-13.321-1.792L235.823,436.2l-2.412-13.223-13.321-1.792,11.83-6.38Z" transform="translate(-210.743 -376.514)" fill="#faaf3b"/>
              <path id="Path_6579" data-name="Path 6579" d="M237.794,407.469s-3-4.678-8.5-.9l-4.854-6.776,9.928-6.938,8.788,12.269-1.966,11.267a4.2,4.2,0,0,1-3.063-3.483C237.821,410.1,237.794,407.469,237.794,407.469Z" transform="translate(-210.26 -377.482)" fill="#915046"/>
              <path id="Path_6580" data-name="Path 6580" d="M217.472,413.905l-5.8-7.769,21.548-16.656,2.012,2.807c3.972,5.545,3.777,10.537.358,13.231l-4.668,3.679Z" transform="translate(-211.677 -377.857)" fill="#b57a68"/>
              <path id="Path_6581" data-name="Path 6581" d="M247.3,395.945a.778.778,0,0,1,.892,1.072,8.383,8.383,0,0,1-5.7,4.851L229.339,405.1l-1.1-4.471Z" transform="translate(-209.838 -377.142)" fill="#b57a68"/>
              <path id="Path_6582" data-name="Path 6582" d="M245.666,379.23a.959.959,0,0,1,1.555.732,10.333,10.333,0,0,1-3.841,8.391l-13,10.468-3.559-4.42Z" transform="translate(-209.996 -379.018)" fill="#b57a68"/>
              <path id="Path_6583" data-name="Path 6583" d="M248.241,387.466a.959.959,0,0,1,1.362,1.049,10.338,10.338,0,0,1-5.548,7.375l-13.018,6.479-2.529-5.08Z" transform="translate(-209.809 -378.091)" fill="#b57a68"/>
            </g>
            <g id="Group_3665" data-name="Group 3665" transform="translate(4.529 215.016)">
              <path id="Path_6584" data-name="Path 6584" d="M145.149,402.318l71.311-.416-22.2,30.946L139,441.164a10.547,10.547,0,0,1-11.939-12.306C129.092,417.454,133.879,403.246,145.149,402.318Z" transform="translate(-126.893 -401.902)" fill="#474463"/>
              <line id="Line_96" data-name="Line 96" x1="23.348" y2="0.476" transform="translate(14.271 0.364)" fill="none" stroke="#383757" stroke-linecap="round" stroke-miterlimit="10" stroke-width="1.865"/>
              <line id="Line_97" data-name="Line 97" x1="24.364" y2="6.49" transform="translate(13.259 0.313)" fill="none" stroke="#383757" stroke-linecap="round" stroke-miterlimit="10" stroke-width="1.865"/>
            </g>
            <g id="Group_3666" data-name="Group 3666" transform="translate(92.469 70.655)">
              <path id="Path_6585" data-name="Path 6585" d="M206.047,271.965l2.516,62.724a4.705,4.705,0,0,0,4.7,4.517h30.877a4.266,4.266,0,0,0,2.954-7.34c-5.922-5.788-11.923-15.723-11.923-32.214v-26.43Z" transform="translate(-206.047 -271.965)" fill="#b57a68"/>
              <path id="Path_6586" data-name="Path 6586" d="M219.047,272.519l14.876.642v26.43a52.347,52.347,0,0,0,2.969,18.148C219.8,311.924,214.028,289.016,219.047,272.519Z" transform="translate(-204.798 -271.904)" fill="#915046"/>
            </g>
            <g id="Group_3673" data-name="Group 3673" transform="translate(47.562)">
              <g id="Group_3667" data-name="Group 3667">
                <path id="Path_6587" data-name="Path 6587" d="M215.266,301.409a44.783,44.783,0,0,1-6.083-5.017,58.924,58.924,0,0,1-17.218-36.422c-1.291-12.789,1.274-25.511,11.89-33.953,11.365-9.038,29.083-9.828,41.883-3.557,12.242,6,18.974,17.4,21.478,30.466a112.567,112.567,0,0,1,1.682,19.685c.166,12.333-1.749,36.024-15.925,38.979C237.664,314.74,226.495,308.991,215.266,301.409Z" transform="translate(-162.737 -207.258)" fill="#b57a68"/>
                <path id="Path_6588" data-name="Path 6588" d="M257.824,247.015c4.07,5.816,5.233,13.117,6.288,20.136a51.443,51.443,0,0,0,.011-27.705,28.871,28.871,0,0,0-5.881-11.608,15.539,15.539,0,0,0-11.486-5.483c-6.838.114-15.064,9.537-8,15.231,2.158,1.739,5.826,1.382,8.385,2.068A18.869,18.869,0,0,1,257.824,247.015Z" transform="translate(-157.809 -206.817)" fill="#452828"/>
                <path id="Path_6589" data-name="Path 6589" d="M249.259,253.75a35.2,35.2,0,0,1-16.43,8.258c-6.249,1.32-13.823.954-18.522,5.957-14.275,15.2-2.244,33.46,5.031,48.793,3.663,7.719,7.455,16.683,5.466,25.382-2.545,11.132-13.4,16.423-24.069,16.467-17.362.071-30.819-12.828-34.286-29.413A42.483,42.483,0,0,1,169.221,304c3.067-7.4,8.007-13.928,10.466-21.591,3.934-12.262-1.638-25.187,2.341-37.65,7.906-24.768,45.985-49.085,69.2-28.9C264.621,227.513,260.265,243.767,249.259,253.75Z" transform="translate(-165.627 -208.37)" fill="#452828"/>
                <path id="Path_6590" data-name="Path 6590" d="M210.836,254.32a18.629,18.629,0,0,0-5.606,11.419,23.849,23.849,0,0,0,3.251,14.1l3.176-.557a64.084,64.084,0,0,1,3.5-16.354,54.8,54.8,0,0,1,2.918-7.074C217.122,251.459,213.66,251.637,210.836,254.32Z" transform="translate(-161.242 -203.481)" fill="#452828"/>
              </g>
              <g id="Group_3671" data-name="Group 3671" transform="translate(66.539 50.937)">
                <path id="Path_6591" data-name="Path 6591" d="M248.078,265.343A34.912,34.912,0,0,0,253,276.933c.813,1.232,1.75,2.624,1.405,4.06-.324,1.351-1.66,2.17-2.876,2.841" transform="translate(-223.013 -252.982)" fill="none" stroke="#915046" stroke-linecap="round" stroke-miterlimit="10" stroke-width="1.216"/>
                <g id="Group_3668" data-name="Group 3668" transform="translate(16.832 34.001)">
                  <circle id="Ellipse_172" data-name="Ellipse 172" cx="3.515" cy="3.515" r="3.515" transform="matrix(0.938, -0.347, 0.347, 0.938, 2.403, 2.439)" fill="#ff7a7a"/>
                  <path id="Path_6592" data-name="Path 6592" d="M252.934,287.1a13.774,13.774,0,0,1-12.267.809" transform="translate(-240.667 -284.568)" fill="none" stroke="#915046" stroke-linecap="round" stroke-miterlimit="10" stroke-width="1.216"/>
                </g>
                <g id="Group_3669" data-name="Group 3669" transform="translate(28.51)">
                  <path id="Path_6593" data-name="Path 6593" d="M260.084,255.288a7.041,7.041,0,0,0-8.906,1.167" transform="translate(-251.178 -254.217)" fill="none" stroke="#452828" stroke-linecap="round" stroke-miterlimit="10" stroke-width="1.823"/>
                </g>
                <g id="Group_3670" data-name="Group 3670" transform="translate(0 3.582)">
                  <path id="Path_6594" data-name="Path 6594" d="M238.338,258.13a14.164,14.164,0,0,0-12.821,2.106" transform="translate(-225.517 -257.441)" fill="none" stroke="#452828" stroke-linecap="round" stroke-miterlimit="10" stroke-width="1.823"/>
                </g>
                <path id="Path_6595" data-name="Path 6595" d="M236.968,267.106a3.137,3.137,0,1,1-3.632-2.548A3.137,3.137,0,0,1,236.968,267.106Z" transform="translate(-224.937 -253.074)" fill="#452828"/>
                <circle id="Ellipse_173" data-name="Ellipse 173" cx="3.137" cy="3.137" r="3.137" transform="translate(29.209 14.41) rotate(-80.644)" fill="#452828"/>
              </g>
              <g id="Group_3672" data-name="Group 3672" transform="translate(34.378 66.655)">
                <path id="Path_6596" data-name="Path 6596" d="M208.708,270.553c-2.142-1.821-5.22-2.809-7.827-1.76a7.181,7.181,0,0,0-4.074,5.1,12.031,12.031,0,0,0,.607,6.667A18.733,18.733,0,0,0,213.8,292.686c1.49.068.672-11.858.451-13A17.068,17.068,0,0,0,208.708,270.553Z" transform="translate(-196.57 -268.364)" fill="#b57a68"/>
                <path id="Path_6597" data-name="Path 6597" d="M210.807,287.642a3.1,3.1,0,1,1-3.59-2.518A3.1,3.1,0,0,1,210.807,287.642Z" transform="translate(-195.672 -266.509)" fill="#fff"/>
                <path id="Path_6598" data-name="Path 6598" d="M200.936,273.182a4.463,4.463,0,0,1,4.558-.532,6.759,6.759,0,0,1,3.3,3.386,14.36,14.36,0,0,1,1.157,4.668,2.357,2.357,0,1,0-1.02,3.993" transform="translate(-196.085 -267.932)" fill="none" stroke="#915046" stroke-linecap="round" stroke-miterlimit="10" stroke-width="1.216"/>
              </g>
            </g>
          </g>
        </g>
      </g>
    </g>
  </g>
</svg>
