<svg xmlns="http://www.w3.org/2000/svg" width="65" height="65" viewBox="0 0 65 65">
  <g id="Top-Of-the-Line_" data-name="Top-Of-the-Line " transform="translate(-2 -2)" opacity="0.71">
    <g id="Group_2095" data-name="Group 2095" transform="translate(3 3)">
      <path id="Path_5062" data-name="Path 5062" d="M42.685,41.8H42V24h.685a8.9,8.9,0,0,1,8.9,8.9h0A8.9,8.9,0,0,1,42.685,41.8Z" transform="translate(11.413 4.761)" fill="rgba(0,0,0,0)" stroke="#fff" stroke-miterlimit="10" stroke-width="2"/>
      <path id="Path_5063" data-name="Path 5063" d="M11.9,41.8h.685V24H11.9A8.9,8.9,0,0,0,3,32.9H3A8.9,8.9,0,0,0,11.9,41.8Z" transform="translate(-3 4.761)" fill="rgba(0,0,0,0)" stroke="#fff" stroke-miterlimit="10" stroke-width="2"/>
      <path id="Path_5064" data-name="Path 5064" d="M6,32.86V30.391a27.391,27.391,0,1,1,54.783,0V32.86" transform="translate(-1.891 -3)" fill="rgba(0,0,0,0)" stroke="#fff" stroke-miterlimit="10" stroke-width="2"/>
    </g>
    <path id="Path_5065" data-name="Path 5065" d="M50.543,36.5v10.27a4.109,4.109,0,0,1-4.109,4.109H30" transform="translate(9.978 12.381)" fill="rgba(0,0,0,0)" stroke="#fff" stroke-miterlimit="10" stroke-width="2"/>
    <path id="Path_5066" data-name="Path 5066" d="M29.848,50.478H25.739A2.739,2.739,0,0,1,23,47.739h0A2.739,2.739,0,0,1,25.739,45h4.109a2.739,2.739,0,0,1,2.739,2.739h0A2.739,2.739,0,0,1,29.848,50.478Z" transform="translate(7.391 15.522)" fill="rgba(0,0,0,0)" stroke="#fff" stroke-linejoin="round" stroke-miterlimit="10" stroke-width="2"/>
    <circle id="Ellipse_35" data-name="Ellipse 35" cx="5.478" cy="5.478" r="5.478" transform="translate(29.022 14.82)" fill="rgba(0,0,0,0)" stroke="#fff" stroke-miterlimit="10" stroke-width="2"/>
    <path id="Path_5067" data-name="Path 5067" d="M43.391,39.435H16V33.7A10.7,10.7,0,0,1,26.7,23h5.992a10.7,10.7,0,0,1,10.7,10.7Z" transform="translate(4.804 7.391)" fill="rgba(0,0,0,0)" stroke="#fff" stroke-miterlimit="10" stroke-width="2"/>
  </g>
</svg>
