<svg xmlns="http://www.w3.org/2000/svg" width="65.04" height="65.04" viewBox="0 0 65.04 65.04">
  <g id="Transparent_Goal_" data-name="Transparent Goal " transform="translate(-271.5 -222.6)" opacity="0.71">
    <g id="Group_2092" data-name="Group 2092" transform="translate(271.5 222.6)">
      <path id="Path_5054" data-name="Path 5054" d="M331.749,238.113l-.907.87-.907.87a30,30,0,1,1-10.489-10.562l.907-.87.919-.882a32.513,32.513,0,1,0,10.476,10.575Z" transform="translate(-271.5 -222.6)" fill="#fff"/>
      <path id="Path_5055" data-name="Path 5055" d="M391.343,313.079l.87-.87a22.015,22.015,0,0,0-13.356-4.509h-.49a22.089,22.089,0,0,0,.466,44.173h.5a22.085,22.085,0,0,0,17.2-35.314l-.87.87-.882.882A19.638,19.638,0,0,1,379.3,349.434h-.441a19.651,19.651,0,0,1-.429-39.3h.441a19.542,19.542,0,0,1,11.616,3.811Z" transform="translate(-346.313 -297.273)" fill="#fff"/>
      <path id="Path_5056" data-name="Path 5056" d="M452.409,395a9.206,9.206,0,0,1,4.9.919l.907-.907.907-.907a11.7,11.7,0,1,0-5.918,21.811,10.272,10.272,0,0,0,1.054-.049,11.708,11.708,0,0,0,9.165-17.4l-.907.907-.919.919a9.237,9.237,0,1,1-9.19-5.293Z" transform="translate(-420.697 -371.692)" fill="#fff"/>
      <path id="Path_5057" data-name="Path 5057" d="M534.952,236.9a1.215,1.215,0,0,0-.38.882v5.685l-.515.515-.882.882-.025.025-.833.833-.87.87-5.624,5.624-.87.87-.87.87-4.828,4.828a2.433,2.433,0,0,0-.723-.135c-.037,0-.086-.012-.123-.012a2.563,2.563,0,0,0-1.985.931,2.607,2.607,0,0,0,1.985,4.3,2.62,2.62,0,0,0,2.61-2.5v-.11a2.876,2.876,0,0,0-.086-.662l4.877-4.877.87-.87.87-.87,5.624-5.624.87-.87.833-.833.024-.025.895-.894.515-.515H542a1.2,1.2,0,0,0,.846-.343l.466-.441.894-.858.894-.87,5-4.816a1.243,1.243,0,0,0,.343-1.176c-.012-.061-.037-.11-.049-.159s-.049-.11-.074-.159a1.23,1.23,0,0,0-1.066-.613h-4.963v-4.963a1.2,1.2,0,0,0-.613-1.054c-.049-.025-.086-.049-.135-.074a.691.691,0,0,0-.147-.049,1.219,1.219,0,0,0-1.189.294l-4.987,4.8-.907.87-.894.858Z" transform="translate(-485.865 -228.742)" fill="#fff"/>
    </g>
  </g>
</svg>
