<svg xmlns="http://www.w3.org/2000/svg" width="171.75" height="35.131" viewBox="0 0 171.75 35.131">
  <g id="yourstory" opacity="0.5">
    <g id="Logos">
      <path id="YOURSTORY-2" data-name="YOURSTORY" d="M56.854,198.69V187.323L50,164.392h5.671l4.093,15.63h.1l4.093-15.63h5.178l-6.854,22.931V198.69Zm18.689-26.409V190.8c0,2.449,1.085,3.38,2.811,3.38s2.811-.931,2.811-3.38V172.281c0-2.45-1.085-3.381-2.811-3.381S75.543,169.831,75.543,172.281Zm-5.424,18.177V172.624c0-5.488,2.909-8.624,8.235-8.624s8.235,3.135,8.235,8.624v17.834c0,5.488-2.909,8.624-8.235,8.624S70.119,195.946,70.119,190.458Zm19.724-26.066h5.424V190.85c0,2.45,1.085,3.332,2.811,3.332s2.811-.882,2.811-3.332V164.392h5.128v26.115c0,5.488-2.761,8.624-8.087,8.624s-8.087-3.135-8.087-8.624Zm36.736,34.3h-5.522c-.3-.882-.493-1.421-.493-4.214v-5.389c0-3.185-1.086-4.361-3.55-4.361H115.14V198.69h-5.424v-34.3H117.9c5.622,0,8.038,2.6,8.038,7.889v2.694c0,3.528-1.135,5.782-3.55,6.909v.1c2.712,1.127,3.6,3.676,3.6,7.252v5.292A10.04,10.04,0,0,0,126.58,198.69Zm-8.827-29.4H115.14v10.535h2.12c2.022,0,3.255-.883,3.255-3.626v-3.381C120.515,170.37,119.677,169.292,117.753,169.292Zm11.1,3.332c0-5.488,2.712-8.624,7.988-8.624s7.989,3.135,7.989,8.624V173.7H139.7v-1.421c0-2.45-.986-3.381-2.712-3.381s-2.713.931-2.713,3.381c0,2.5,1.086,4.361,4.636,7.447,4.536,3.969,5.966,6.811,5.966,10.73,0,5.488-2.761,8.624-8.087,8.624s-8.087-3.135-8.087-8.624v-2.107h5.128v2.45c0,2.449,1.085,3.332,2.81,3.332s2.812-.883,2.812-3.332c0-2.5-1.085-4.361-4.635-7.448C130.278,179.385,128.849,176.543,128.849,172.624Zm17.554-3.332v-4.9H163.17v4.9H157.5v29.4h-5.424v-29.4Zm24.113,2.989V190.8c0,2.449,1.085,3.38,2.81,3.38s2.812-.931,2.812-3.38V172.281c0-2.45-1.086-3.381-2.812-3.381S170.516,169.831,170.516,172.281Zm-5.424,18.177V172.624c0-5.488,2.909-8.624,8.235-8.624s8.235,3.135,8.235,8.624v17.834c0,5.488-2.909,8.624-8.235,8.624S165.092,195.946,165.092,190.458Zm36.836,8.232H196.4c-.3-.882-.493-1.421-.493-4.214v-5.389c0-3.185-1.085-4.361-3.55-4.361h-1.874V198.69h-5.423v-34.3h8.186c5.621,0,8.037,2.6,8.037,7.889v2.694c0,3.528-1.134,5.782-3.55,6.909v.1c2.712,1.127,3.6,3.676,3.6,7.252v5.292A10.04,10.04,0,0,0,201.928,198.69Zm-8.827-29.4h-2.614v10.535h2.121c2.021,0,3.254-.883,3.254-3.626v-3.381C195.862,170.37,195.025,169.292,193.1,169.292Zm16.371,29.4V187.323l-6.854-22.931h5.67l4.093,15.63h.1l4.093-15.63h5.177L214.9,187.323V198.69Z" transform="translate(-50 -164)" fill="#fff" fill-rule="evenodd"/>
    </g>
  </g>
</svg>
