<svg xmlns="http://www.w3.org/2000/svg" xmlns:xlink="http://www.w3.org/1999/xlink" width="216.731" height="106.843" viewBox="0 0 216.731 106.843">
  <defs>
    <linearGradient id="linear-gradient" y1="0.5" x2="1" y2="0.5" gradientUnits="objectBoundingBox">
      <stop offset="0" stop-color="#9340fa"/>
      <stop offset="0.809" stop-color="#1b78fe"/>
    </linearGradient>
  </defs>
  <g id="logo" transform="translate(-141.456 -590.234)">
    <rect id="Rectangle_2767" data-name="Rectangle 2767" width="60.722" height="60.722" rx="5.911" transform="translate(141.456 625.51)" fill="url(#linear-gradient)"/>
    <path id="Path_5116" data-name="Path 5116" d="M169.069,617.414a22.88,22.88,0,0,1,5.913.931,22.332,22.332,0,0,1,5.33,2.395,26.378,26.378,0,0,1,3.461,2.606c.2.174.227.282.019.488q-2.848,2.824-5.673,5.67c-.174.175-.275.2-.47.023a13.26,13.26,0,0,0-5.707-3.037,13.891,13.891,0,0,0-13.958,4.495,13.369,13.369,0,0,0-2.754,5.184,13.76,13.76,0,0,0,.791,9.518,13.825,13.825,0,0,0,4.371,5.324,13.492,13.492,0,0,0,4.665,2.221,14.038,14.038,0,0,0,4.694.385,13.7,13.7,0,0,0,5.429-1.636,12.056,12.056,0,0,0,2.391-1.681c.188-.171.3-.134.432.021a17.3,17.3,0,0,1,1.461,1.556.181.181,0,0,0,.224.09l.155.18q1.954,1.966,3.913,3.928c.143.142.135.2-.006.336a21.98,21.98,0,0,1-4.152,3.028,21.374,21.374,0,0,1-3.733,1.673,22.567,22.567,0,0,1-4.815,1.074c-.887.094-1.775.143-2.664.174a16.524,16.524,0,0,1-1.908-.124,21.366,21.366,0,0,1-4.161-.768,21.633,21.633,0,0,1-3.681-1.422,22.5,22.5,0,0,1-10.684-11.2,22.034,22.034,0,0,1-1.295-3.892,17.534,17.534,0,0,1-.515-3.865c0-.148.013-.3.013-.445v-2.3l0-.506.01-.238a28.271,28.271,0,0,1,.926-4.433,22.853,22.853,0,0,1,1.627-3.878,22.521,22.521,0,0,1,10.851-10.025,21.391,21.391,0,0,1,4.295-1.371,24.169,24.169,0,0,1,4.363-.494Z" transform="translate(2.86 16.583)" fill="#fff"/>
    <path id="Path_5117" data-name="Path 5117" d="M163.087,632.033c-2.561,0-5.121,0-7.68,0-.32,0-.415-.035-.28-.39a8.382,8.382,0,0,1,4.992-5.024,8.1,8.1,0,0,1,4.876-.308,8.355,8.355,0,0,1,5.711,4.514c.166.317.277.665.42.994.068.153.019.209-.134.209l-.3,0h-7.6Z" transform="translate(8.308 21.88)" fill="#fff"/>
    <path id="Path_5118" data-name="Path 5118" d="M155.821,642.415l-.193.14Z" transform="translate(8.651 31.852)" fill="#ea5a61"/>
    <path id="Path_5119" data-name="Path 5119" d="M155.685,642.5l-.153.2Z" transform="translate(8.592 31.906)" fill="#ea5a61"/>
    <path id="Path_5120" data-name="Path 5120" d="M155.893,642.412l-.061.037-.072,0C155.777,642.327,155.825,642.332,155.893,642.412Z" transform="translate(8.731 31.815)" fill="#ea5a61"/>
    <path id="Path_5121" data-name="Path 5121" d="M158.259,642.53c-.259-.024-.393-.113-.182-.37C158.232,642.237,158.385,642.316,158.259,642.53Z" transform="translate(10.082 31.696)" fill="#e82429"/>
    <path id="Path_5122" data-name="Path 5122" d="M158.132,642.241c-.222.1-.285.032-.19-.19C158.074,642.045,158.123,642.124,158.132,642.241Z" transform="translate(10.037 31.63)" fill="#e82429"/>
    <g id="Group_2139" data-name="Group 2139" transform="translate(163.463 640.76)">
      <path id="Path_5123" data-name="Path 5123" d="M174.781,648.98c-.778-.672-1.467-1.433-2.2-2.153q-1.681-1.655-3.338-3.333c-.139-.14-.184-.192-.364-.018a8.277,8.277,0,0,1-3.712,2.063,8.137,8.137,0,0,1-3.726.1,8.5,8.5,0,0,1-5.3-3.416,9.73,9.73,0,0,1-.965-1.723c-.118-.261-.066-.378.274-.378q10.317.017,20.636.016c.354,0,.51-.056.577-.462a14.351,14.351,0,0,0-.013-4.752,13.6,13.6,0,0,0-2.068-5.211,12.162,12.162,0,0,0-1.459-1.837c-.169-.174-.171-.272.01-.451q2.858-2.831,5.69-5.686c.195-.195.29-.15.443.013a22.872,22.872,0,0,1,3.937,5.64,21.918,21.918,0,0,1,1.5,3.942,22.318,22.318,0,0,1,.744,4.512,23.782,23.782,0,0,1-.262,5.285,20.987,20.987,0,0,1-.952,3.66,22.347,22.347,0,0,1-5.1,8.2c-.116.116-.2.2-.356.043-1.092-1.113-2.192-2.219-3.288-3.329.469-.177.564-.382.3-.644-.031-.076,0-.179-.1-.217-.047-.119-.209-.166-.2-.32.348-.084.422.251.615.4.089.071.169.19.283.082.13-.122-.026-.2-.092-.269-.19-.214-.456-.393-.29-.744l.1-.018c.256.274.507.551.77.818.076.076.151.251.3.121.124-.111-.013-.195-.076-.28-.042-.056-.15-.14-.084-.18.385-.237.2-.546.13-.842.024,0,.05-.013.069-.006.163.058.259.407.432.227s-.138-.312-.245-.456-.282-.316-.066-.473c.187-.135.216.129.308.209.145.126.271.274.483.224a.524.524,0,0,0,.4-.359.823.823,0,0,0-.512-.784c-.309-.084-.486.1-.612.359-.031.066.043.174-.1.2-.528.1-.581.211-.3.638-.308-.034-.652-.2-.828.232-.155-.006-.311.079-.465,0l-.142,0c-.029-.036-.05-.037-.056.014l-.008,0-.082.061h0l-.066.084c-.1.277.161.485.142.746C175.151,648.511,174.853,648.571,174.781,648.98Zm.952-23.2c-.441.008-.655.269-.623.741.01.147.039.24.211.233s.232-.076.2-.237c-.042-.209.045-.311.256-.306.167,0,.311-.027.295-.24S175.879,625.78,175.732,625.777Zm.961,1.248c0-.308-.021-.341-.2-.354-.258-.016-.237.163-.234.325,0,.221-.126.277-.314.272-.132,0-.221.044-.208.2s.1.174.232.188A.587.587,0,0,0,176.694,627.025Z" transform="translate(-155.122 -621.608)" fill="#fff"/>
      <path id="Path_5124" data-name="Path 5124" d="M167.714,625.338l1.634-1.548,3.738,4.61.762,18.6-3.6,2.084-.281.5-3.835-3.814L172,636.5Z" transform="translate(-148.398 -620.276)" fill="#fff"/>
    </g>
    <path id="Path_5125" data-name="Path 5125" d="M147.781,626.079s-4.438,9.595,1,19.095l2.87-10.167Z" transform="translate(2.819 21.88)" fill="#fff"/>
    <rect id="Rectangle_2768" data-name="Rectangle 2768" width="24.725" height="24.725" rx="2.295" transform="translate(186.67 608.963)" fill="#65bb4a" opacity="0.82"/>
    <rect id="Rectangle_2769" data-name="Rectangle 2769" width="18.457" height="18.457" rx="1.455" transform="translate(171.817 597.618)" fill="#ed2a2f" opacity="0.82"/>
    <rect id="Rectangle_2770" data-name="Rectangle 2770" width="12.534" height="12.534" rx="1.068" transform="translate(200.651 590.234)" fill="#fcb614"/>
    <text id="seo_" data-name="seo " transform="translate(213.187 675.077)" fill="#231f20" font-size="74" font-family="NexaDemo-Light, Nexa Demo" font-weight="300"><tspan x="0" y="0">seo </tspan></text>
  </g>
</svg>
